M48
; DRILL file {KiCad (5.1.5-0-10_14)} date Wednesday, April 29, 2020 at 02:18:43 PM
; FORMAT={-:-/ absolute / inch / decimal}
; #@! TF.CreationDate,2020-04-29T14:18:43-06:00
; #@! TF.GenerationSoftware,Kicad,Pcbnew,(5.1.5-0-10_14)
; #@! TF.FileFunction,NonPlated,1,2,NPTH
FMAT,2
INCH
T1C0.0669
T2C0.1201
T3C0.1575
%
G90
G05
T1
X9.7937Y-3.7312
X10.1937Y-3.7312
X6.9813Y-5.9813
X7.3813Y-5.9813
X12.325Y-5.2313
X12.725Y-5.2313
X11.2953Y-6.7309
X11.6953Y-6.7309
X6.7948Y-6.7316
X7.1948Y-6.7316
X15.4187Y-6.7313
X15.8187Y-6.7313
X13.9187Y-4.4813
X14.3187Y-4.4813
X2.3875Y-5.2309
X2.7875Y-5.2309
X15.4187Y-5.2313
X15.8187Y-5.2313
X15.4187Y-3.7312
X15.8187Y-3.7312
X13.7312Y-6.9188
X14.1312Y-6.9188
X11.1062Y-5.2313
X11.5062Y-5.2313
X2.7625Y-5.9813
X3.1625Y-5.9813
X10.7313Y-5.9813
X11.1313Y-5.9813
X6.0438Y-3.7312
X6.4437Y-3.7312
X9.4187Y-4.4813
X9.8187Y-4.4813
X3.0437Y-3.7312
X3.4438Y-3.7312
X9.0437Y-3.7312
X9.4437Y-3.7312
X6.2313Y-5.9813
X6.6313Y-5.9813
X12.2312Y-6.9188
X12.6312Y-6.9188
X11.6687Y-4.4813
X12.0687Y-4.4813
X3.4187Y-4.4813
X3.8188Y-4.4813
X11.7625Y-5.9813
X12.1625Y-5.9813
X9.9813Y-5.9813
X10.3813Y-5.9813
X2.3875Y-6.7309
X2.7875Y-6.7309
X6.7938Y-3.7312
X7.1937Y-3.7312
X11.2937Y-3.7312
X11.6937Y-3.7312
X8.6687Y-4.4813
X9.0687Y-4.4813
X2.575Y-5.2309
X2.975Y-5.2309
X5.8562Y-5.2313
X6.2562Y-5.2313
X16.3687Y-4.6562
X16.3687Y-5.0562
X8.2937Y-3.7312
X8.6937Y-3.7312
X3.6072Y-6.7311
X4.0072Y-6.7311
X5.4813Y-5.9813
X5.8812Y-5.9813
X7.075Y-6.7313
X7.475Y-6.7313
X14.6687Y-6.7313
X15.0687Y-6.7313
X14.6708Y-5.2313
X15.0708Y-5.2313
X10.5451Y-6.7313
X10.9451Y-6.7313
X10.9187Y-4.4813
X11.3187Y-4.4813
X8.1062Y-5.2313
X8.5062Y-5.2313
X14.6687Y-3.7312
X15.0687Y-3.7312
X12.9812Y-6.9188
X13.3812Y-6.9188
X6.4188Y-4.4813
X6.8187Y-4.4813
X8.4813Y-5.9813
X8.8813Y-5.9813
X10.3562Y-5.2313
X10.7562Y-5.2313
X3.7937Y-3.7312
X4.1937Y-3.7312
X5.1063Y-5.2313
X5.5062Y-5.2313
X7.5438Y-3.7312
X7.9437Y-3.7312
X4.7313Y-5.9813
X5.1312Y-5.9813
X15.4187Y-4.4813
X15.8187Y-4.4813
X13.9187Y-5.9813
X14.3187Y-5.9813
X7.3562Y-5.2313
X7.7562Y-5.2313
X2.4812Y-4.4813
X2.8813Y-4.4813
X3.325Y-6.7313
X3.725Y-6.7313
X5.6688Y-4.4813
X6.0687Y-4.4813
X4.9188Y-4.4813
X5.3187Y-4.4813
X7.7313Y-5.9813
X8.1313Y-5.9813
X9.6062Y-5.2313
X10.0062Y-5.2313
X9.9828Y-6.7313
X10.3828Y-6.7313
X4.3563Y-5.2313
X4.7562Y-5.2313
X11.1071Y-6.7313
X11.5071Y-6.7313
X16.1687Y-3.7312
X16.5687Y-3.7312
X7.9188Y-4.4813
X8.3187Y-4.4813
X2.4812Y-6.7309
X2.8812Y-6.7309
X14.6687Y-4.4813
X15.0687Y-4.4813
X15.4187Y-5.9813
X15.8187Y-5.9813
X3.9812Y-5.9813
X4.3812Y-5.9813
X12.9812Y-6.1688
X13.3812Y-6.1688
X9.7949Y-6.7309
X10.1949Y-6.7309
X4.1688Y-4.4813
X4.5687Y-4.4813
X16.3687Y-6.1562
X16.3687Y-6.5562
X6.6062Y-5.2313
X7.0062Y-5.2313
X5.2938Y-3.7312
X5.6937Y-3.7312
X2.2937Y-3.7312
X2.6938Y-3.7312
X10.5437Y-3.7312
X10.9437Y-3.7312
X4.5438Y-3.7312
X4.9437Y-3.7312
X8.8562Y-5.2313
X9.2562Y-5.2313
X12.4187Y-3.7312
X12.8187Y-3.7312
X3.6062Y-5.2313
X4.0062Y-5.2313
X9.2313Y-5.9813
X9.6313Y-5.9813
X13.9187Y-3.7312
X14.3187Y-3.7312
X7.1688Y-4.4813
X7.5687Y-4.4813
X14.6687Y-5.9813
X15.0687Y-5.9813
X13.9187Y-5.2313
X14.3187Y-5.2313
X10.1687Y-4.4813
X10.5687Y-4.4813
X12.6062Y-4.4813
X13.0062Y-4.4813
X4.2625Y-6.7309
X4.6625Y-6.7309
T2
X12.0565Y-4.9557
X12.9935Y-4.9557
X2.494Y-5.7057
X3.431Y-5.7057
X16.6443Y-4.3877
X16.6443Y-5.3248
X16.6443Y-5.8877
X16.6443Y-6.8248
X12.1502Y-3.4557
X13.0873Y-3.4557
T3
X8.4938Y-3.7312
X3.8072Y-6.7311
X5.6812Y-5.9813
X7.275Y-6.7313
X14.8688Y-6.7313
X14.8708Y-5.2313
X10.7451Y-6.7313
X11.1188Y-4.4813
X8.3062Y-5.2313
X14.8688Y-3.7312
X13.1813Y-6.9188
X6.6187Y-4.4813
X8.6813Y-5.9813
X10.5562Y-5.2313
X3.9937Y-3.7312
X5.3062Y-5.2313
X7.7437Y-3.7312
X4.9312Y-5.9813
X15.6188Y-4.4813
X14.1188Y-5.9813
X7.5562Y-5.2313
X2.6812Y-4.4813
X3.525Y-6.7313
X5.8687Y-4.4813
X5.1187Y-4.4813
X7.9313Y-5.9813
X9.8062Y-5.2313
X10.1828Y-6.7313
X4.5562Y-5.2313
X11.3071Y-6.7313
X16.3687Y-3.7312
X8.1188Y-4.4813
X2.6812Y-6.7309
X14.8688Y-4.4813
X15.6188Y-5.9813
X4.1812Y-5.9813
X13.1813Y-6.1688
X9.9949Y-6.7309
X4.3687Y-4.4813
X16.0443Y-5.8877
X16.0443Y-6.8248
X16.3687Y-6.3563
X6.8062Y-5.2313
X5.4937Y-3.7312
X2.4937Y-3.7312
X10.7438Y-3.7312
X4.7437Y-3.7312
X9.0562Y-5.2313
X12.1502Y-4.0557
X12.6188Y-3.7312
X13.0873Y-4.0557
X3.8062Y-5.2313
X9.4313Y-5.9813
X14.1188Y-3.7312
X7.3687Y-4.4813
X14.8688Y-5.9813
X14.1188Y-5.2313
X10.3688Y-4.4813
X12.8062Y-4.4813
X4.4625Y-6.7309
X9.9938Y-3.7312
X7.1813Y-5.9813
X12.0565Y-5.5557
X12.525Y-5.2313
X12.9935Y-5.5557
X11.4953Y-6.7309
X6.9948Y-6.7316
X15.6188Y-6.7313
X14.1188Y-4.4813
X2.5875Y-5.2309
X15.6188Y-5.2313
X15.6188Y-3.7312
X13.9313Y-6.9188
X11.3062Y-5.2313
X2.494Y-6.3057
X2.9625Y-5.9813
X3.431Y-6.3057
X10.9313Y-5.9813
X6.2437Y-3.7312
X9.6188Y-4.4813
X3.2437Y-3.7312
X9.2438Y-3.7312
X6.4313Y-5.9813
X12.4313Y-6.9188
X11.8688Y-4.4813
X3.6187Y-4.4813
X11.9625Y-5.9813
X10.1813Y-5.9813
X2.5875Y-6.7309
X6.9937Y-3.7312
X11.4938Y-3.7312
X8.8688Y-4.4813
X2.775Y-5.2309
X6.0562Y-5.2313
X16.0443Y-4.3877
X16.0443Y-5.3248
X16.3687Y-4.8563
T0
M30
