G04 #@! TF.GenerationSoftware,KiCad,Pcbnew,(5.1.5-0-10_14)*
G04 #@! TF.CreationDate,2020-05-12T08:46:35-06:00*
G04 #@! TF.ProjectId,NumDiscipline-pcb,4e756d44-6973-4636-9970-6c696e652d70,rev?*
G04 #@! TF.SameCoordinates,Original*
G04 #@! TF.FileFunction,Legend,Bot*
G04 #@! TF.FilePolarity,Positive*
%FSLAX46Y46*%
G04 Gerber Fmt 4.6, Leading zero omitted, Abs format (unit mm)*
G04 Created by KiCad (PCBNEW (5.1.5-0-10_14)) date 2020-05-12 08:46:35*
%MOMM*%
%LPD*%
G04 APERTURE LIST*
%ADD10C,0.150000*%
%ADD11C,1.000000*%
%ADD12C,2.500000*%
G04 APERTURE END LIST*
D10*
X65722450Y-85238620D02*
G75*
G03X65722450Y-85238620I-2381250J0D01*
G01*
X65722450Y-173344870D02*
G75*
G03X65722450Y-173344870I-2381250J0D01*
G01*
X244316200Y-85238620D02*
G75*
G03X244316200Y-85238620I-2381250J0D01*
G01*
X244316200Y-173344870D02*
G75*
G03X244316200Y-173344870I-2381250J0D01*
G01*
X418147450Y-85238620D02*
G75*
G03X418147450Y-85238620I-2381250J0D01*
G01*
X418147450Y-173344870D02*
G75*
G03X418147450Y-173344870I-2381250J0D01*
G01*
D11*
X190976250Y-138588750D02*
X300196250Y-138588750D01*
X300196250Y-108108750D02*
X190976250Y-108108750D01*
X190976250Y-138588750D02*
G75*
G02X190976250Y-108108750I0J15240000D01*
G01*
X300196250Y-108108750D02*
G75*
G02X300196250Y-138588750I0J-15240000D01*
G01*
D12*
X303601964Y-120134464D02*
X292887678Y-120134464D01*
X299316250Y-113705892D02*
X303601964Y-132991607D01*
X294316250Y-126563035D02*
X305030535Y-126563035D01*
X298601964Y-132991607D02*
X294316250Y-113705892D01*
X287887678Y-130134464D02*
X287887678Y-115134464D01*
X284316250Y-115134464D01*
X282173392Y-115848750D01*
X280744821Y-117277321D01*
X280030535Y-118705892D01*
X279316250Y-121563035D01*
X279316250Y-123705892D01*
X280030535Y-126563035D01*
X280744821Y-127991607D01*
X282173392Y-129420178D01*
X284316250Y-130134464D01*
X287887678Y-130134464D01*
X272887678Y-130134464D02*
X272887678Y-120134464D01*
X272887678Y-115134464D02*
X273601964Y-115848750D01*
X272887678Y-116563035D01*
X272173392Y-115848750D01*
X272887678Y-115134464D01*
X272887678Y-116563035D01*
X266459107Y-129420178D02*
X265030535Y-130134464D01*
X262173392Y-130134464D01*
X260744821Y-129420178D01*
X260030535Y-127991607D01*
X260030535Y-127277321D01*
X260744821Y-125848750D01*
X262173392Y-125134464D01*
X264316250Y-125134464D01*
X265744821Y-124420178D01*
X266459107Y-122991607D01*
X266459107Y-122277321D01*
X265744821Y-120848750D01*
X264316250Y-120134464D01*
X262173392Y-120134464D01*
X260744821Y-120848750D01*
X247173392Y-129420178D02*
X248601964Y-130134464D01*
X251459107Y-130134464D01*
X252887678Y-129420178D01*
X253601964Y-128705892D01*
X254316250Y-127277321D01*
X254316250Y-122991607D01*
X253601964Y-121563035D01*
X252887678Y-120848750D01*
X251459107Y-120134464D01*
X248601964Y-120134464D01*
X247173392Y-120848750D01*
X240744821Y-130134464D02*
X240744821Y-120134464D01*
X240744821Y-115134464D02*
X241459107Y-115848750D01*
X240744821Y-116563035D01*
X240030535Y-115848750D01*
X240744821Y-115134464D01*
X240744821Y-116563035D01*
X233601964Y-120134464D02*
X233601964Y-135134464D01*
X233601964Y-120848750D02*
X232173392Y-120134464D01*
X229316250Y-120134464D01*
X227887678Y-120848750D01*
X227173392Y-121563035D01*
X226459107Y-122991607D01*
X226459107Y-127277321D01*
X227173392Y-128705892D01*
X227887678Y-129420178D01*
X229316250Y-130134464D01*
X232173392Y-130134464D01*
X233601964Y-129420178D01*
X217887678Y-130134464D02*
X219316250Y-129420178D01*
X220030535Y-127991607D01*
X220030535Y-115134464D01*
X212173392Y-130134464D02*
X212173392Y-120134464D01*
X212173392Y-115134464D02*
X212887678Y-115848750D01*
X212173392Y-116563035D01*
X211459107Y-115848750D01*
X212173392Y-115134464D01*
X212173392Y-116563035D01*
X205030535Y-120134464D02*
X205030535Y-130134464D01*
X205030535Y-121563035D02*
X204316250Y-120848750D01*
X202887678Y-120134464D01*
X200744821Y-120134464D01*
X199316250Y-120848750D01*
X198601964Y-122277321D01*
X198601964Y-130134464D01*
X185744821Y-129420178D02*
X187173392Y-130134464D01*
X190030535Y-130134464D01*
X191459107Y-129420178D01*
X192173392Y-127991607D01*
X192173392Y-122277321D01*
X191459107Y-120848750D01*
X190030535Y-120134464D01*
X187173392Y-120134464D01*
X185744821Y-120848750D01*
X185030535Y-122277321D01*
X185030535Y-123705892D01*
X192173392Y-125134464D01*
M02*
