M48
; DRILL file {KiCad (5.1.5-0-10_14)} date Wednesday, April 29, 2020 at 02:18:43 PM
; FORMAT={-:-/ absolute / inch / decimal}
; #@! TF.CreationDate,2020-04-29T14:18:43-06:00
; #@! TF.GenerationSoftware,Kicad,Pcbnew,(5.1.5-0-10_14)
; #@! TF.FileFunction,Plated,1,2,PTH
FMAT,2
INCH
T1C0.0157
T2C0.0236
T3C0.0276
T4C0.0315
T5C0.0354
T6C0.0400
T7C0.0433
T8C0.0591
T9C0.0866
%
G90
G05
T1
X4.243Y-6.1945
X8.8081Y-2.6926
X9.3199Y-2.7294
X9.373Y-2.714
X9.3984Y-2.663
X9.9812Y-3.0387
X10.0838Y-2.6262
X10.1937Y-6.1845
X10.2188Y-2.6612
X10.3338Y-2.7563
X10.3588Y-2.7062
X10.5187Y-3.1062
X10.9437Y-6.1745
X11.5137Y-3.0513
X11.5437Y-2.8962
X11.6013Y-2.9587
X11.6188Y-3.0513
X11.919Y-5.6255
X12.5938Y-3.9062
X12.9238Y-2.6812
X12.9737Y-2.6662
X13.0288Y-2.6963
X13.2737Y-2.6088
X13.5938Y-2.9812
X13.9637Y-2.6012
X14.0587Y-2.6012
X14.1587Y-2.6012
X14.2587Y-2.6012
X14.3637Y-2.5962
X14.3637Y-3.1562
X15.5887Y-3.4912
X12.8723Y-2.5617
X12.8725Y-2.6138
X12.9057Y-2.5617
X12.9059Y-2.6138
X12.9392Y-2.5617
X12.9394Y-2.6138
X12.9727Y-2.5617
X12.9729Y-2.6138
X13.0061Y-2.5617
X13.0063Y-2.6138
X13.0396Y-2.5617
X13.0398Y-2.6138
X13.0731Y-2.5617
X13.0733Y-2.6138
X13.1067Y-2.5617
X13.1067Y-2.6138
T2
X13.2624Y-2.7128
X13.2624Y-2.7718
T3
X13.4309Y-2.5814
X13.7309Y-2.5814
X13.4309Y-2.88
X13.7309Y-2.88
X13.4309Y-2.4832
X13.7309Y-2.4832
X12.6943Y-2.3366
X12.6943Y-2.5374
X13.4309Y-3.0763
X13.7309Y-3.0763
X13.4309Y-2.9782
X13.7309Y-2.9782
X13.4309Y-2.7787
X13.7309Y-2.7787
X13.4309Y-2.6795
X13.7309Y-2.6795
T4
X9.8557Y-2.8518
X9.8557Y-3.0518
X3.8766Y-2.8518
X3.8766Y-3.0518
X4.2509Y-2.7867
X4.2509Y-2.9867
X10.985Y-2.66
X10.985Y-2.86
X6.6218Y-2.7216
X6.6218Y-2.9216
X7.8696Y-2.8518
X7.8696Y-3.0518
X8.6176Y-2.7216
X8.6176Y-2.9216
X6.7465Y-2.7867
X6.7465Y-2.9867
X11.9637Y-2.5713
X11.9637Y-2.7712
X13.3292Y-2.8804
X13.3292Y-3.0804
X9.9798Y-2.6565
X9.9798Y-2.8565
X10.6049Y-2.7216
X10.6049Y-2.9216
X4.1261Y-2.7216
X4.1261Y-2.9216
X12.0772Y-2.5137
X12.0772Y-2.7137
X3.7518Y-2.7867
X3.7518Y-2.9867
X6.1226Y-2.7216
X6.1226Y-2.9216
X8.1191Y-2.7216
X8.1191Y-2.9216
X8.2439Y-2.7867
X8.2439Y-2.9867
X9.6101Y-2.7216
X9.6101Y-2.9216
X3.627Y-2.7216
X3.627Y-2.9216
X11.7438Y-2.4512
X11.7438Y-2.6513
X2.8783Y-2.8518
X2.8783Y-3.0518
X7.62Y-2.7216
X7.62Y-2.9216
X3.0031Y-2.6565
X3.0031Y-2.8565
X6.497Y-2.6565
X6.497Y-2.8565
X10.7265Y-2.7867
X10.7265Y-2.9867
X7.7448Y-2.7867
X7.7448Y-2.9867
X8.4935Y-2.6565
X8.4935Y-2.8565
X8.8658Y-2.8518
X8.8658Y-3.0518
X13.8638Y-2.4074
X13.8638Y-3.0074
X13.9638Y-2.4074
X13.9638Y-3.0074
X14.0638Y-2.4074
X14.0638Y-3.0074
X14.1638Y-2.4074
X14.1638Y-3.0074
X14.2638Y-2.4074
X14.2638Y-3.0074
X14.3638Y-2.4074
X14.3638Y-3.0074
X14.4638Y-2.4074
X14.4638Y-3.0074
X14.5638Y-2.4074
X14.5638Y-3.0074
X14.6638Y-2.4074
X14.6638Y-3.0074
X14.7638Y-2.4074
X14.7638Y-3.0074
X14.8638Y-2.4074
X14.8638Y-3.0074
X14.9638Y-2.4074
X14.9638Y-3.0074
X15.0638Y-2.4074
X15.0638Y-3.0074
X15.1638Y-2.4074
X15.1638Y-3.0074
X15.2638Y-2.4074
X15.2638Y-3.0074
X15.3638Y-2.4074
X15.3638Y-3.0074
X15.4638Y-2.4074
X15.4638Y-3.0074
X15.5638Y-2.4074
X15.5638Y-3.0074
X15.6638Y-2.4074
X15.6638Y-3.0074
X15.7638Y-2.4074
X15.7638Y-3.0074
X3.2526Y-2.7867
X3.2526Y-2.9867
X4.3757Y-2.8518
X4.3757Y-3.0518
X9.7317Y-2.7867
X9.7317Y-2.9867
X11.0887Y-2.6562
X11.0887Y-2.8562
X6.3722Y-2.8518
X6.3722Y-3.0518
X15.148Y-3.1597
X15.3401Y-3.1597
X11.8537Y-2.5112
X11.8537Y-2.7113
X7.1209Y-2.7216
X7.1209Y-2.9216
X10.2279Y-2.7867
X10.2279Y-2.9867
X5.9978Y-2.6565
X5.9978Y-2.8565
X9.1139Y-2.7216
X9.1139Y-2.9216
X13.2163Y-2.8804
X13.2163Y-3.0804
X14.9637Y-3.1028
X14.9637Y-3.2012
X7.9944Y-2.6565
X7.9944Y-2.8565
X2.6287Y-2.7216
X2.6287Y-2.9216
X10.3519Y-2.8518
X10.3519Y-3.0518
X4.6252Y-2.7216
X4.6252Y-2.9216
X11.6337Y-2.4013
X11.6337Y-2.6012
X5.8731Y-2.8518
X5.8731Y-3.0518
X12.1872Y-2.5586
X12.1872Y-2.7586
X2.7535Y-2.7867
X2.7535Y-2.9867
X3.5022Y-2.6565
X3.5022Y-2.8565
X10.476Y-2.6565
X10.476Y-2.8565
X15.5234Y-3.1302
X15.5234Y-3.2286
X5.4987Y-2.6565
X5.4987Y-2.8565
X2.5039Y-2.6565
X2.5039Y-2.8565
X7.4952Y-2.6565
X7.4952Y-2.8565
X10.8481Y-2.8518
X10.8481Y-3.0518
X9.486Y-2.6565
X9.486Y-2.8565
X5.7483Y-2.7867
X5.7483Y-2.9867
X5.3739Y-2.8518
X5.3739Y-3.0518
X11.5337Y-2.4013
X11.5337Y-2.6012
X11.1988Y-2.7163
X11.1988Y-2.9162
X7.3704Y-2.8518
X7.3704Y-3.0518
X6.2474Y-2.7867
X6.2474Y-2.9867
X12.2988Y-2.6162
X12.2988Y-2.8163
X3.3774Y-2.8518
X3.3774Y-3.0518
X9.362Y-2.8518
X9.362Y-3.0518
X14.8788Y-2.3199
X15.0787Y-2.3199
X4.9996Y-2.6565
X4.9996Y-2.8565
X10.1038Y-2.7216
X10.1038Y-2.9216
X6.9961Y-2.6565
X6.9961Y-2.8565
X9.2379Y-2.7867
X9.2379Y-2.9867
X8.9899Y-2.6565
X8.9899Y-2.8565
X3.1279Y-2.7216
X3.1279Y-2.9216
X5.2492Y-2.7867
X5.2492Y-2.9867
X4.8748Y-2.8518
X4.8748Y-3.0518
X5.6235Y-2.7216
X5.6235Y-2.9216
X6.8713Y-2.8518
X6.8713Y-3.0518
X11.3087Y-2.7763
X11.3087Y-2.9762
X8.7417Y-2.7867
X8.7417Y-2.9867
X14.6805Y-3.0976
X14.8805Y-3.0976
X4.5005Y-2.6565
X4.5005Y-2.8565
X4.75Y-2.7867
X4.75Y-2.9867
X5.1244Y-2.7216
X5.1244Y-2.9216
X8.3687Y-2.8518
X8.3687Y-3.0518
X7.2457Y-2.7867
X7.2457Y-2.9867
X11.4187Y-2.8462
X11.4187Y-3.0463
X4.0013Y-2.6565
X4.0013Y-2.8565
T5
X13.2486Y-2.4398
X13.3486Y-2.4398
T6
X16.5062Y-2.6938
X16.5062Y-2.7937
X16.5062Y-2.8937
X16.6062Y-2.6938
X16.6062Y-2.7937
X16.6062Y-2.8937
T7
X16.0921Y-2.4418
X16.0921Y-2.6977
X16.2692Y-2.4418
X16.2692Y-2.6977
X16.0921Y-2.9142
X16.0921Y-3.1701
X16.2692Y-2.9142
X16.2692Y-3.1701
T8
X5.1562Y-5.1312
X5.4062Y-5.0312
X7.5938Y-3.6313
X7.8438Y-3.5312
X4.7812Y-5.8812
X5.0312Y-5.7812
X15.4688Y-4.3812
X15.7188Y-4.2812
X13.9688Y-5.8812
X14.2188Y-5.7812
X7.4062Y-5.1312
X7.6562Y-5.0312
X2.5312Y-4.3812
X2.7812Y-4.2812
X3.375Y-6.6312
X3.625Y-6.5312
X5.7188Y-4.3812
X5.9688Y-4.2812
X4.9688Y-4.3812
X5.2188Y-4.2812
X7.7813Y-5.8812
X8.0313Y-5.7812
X9.6562Y-5.1312
X9.9062Y-5.0312
X10.0328Y-6.6312
X10.2828Y-6.5312
X4.4062Y-5.1312
X4.6562Y-5.0312
X11.1571Y-6.6312
X11.4071Y-6.5312
X16.2188Y-3.6313
X16.4688Y-3.5312
X7.9688Y-4.3812
X8.2188Y-4.2812
X2.5312Y-6.6309
X2.7812Y-6.5309
X14.7188Y-4.3812
X14.9688Y-4.2812
X15.4688Y-5.8812
X15.7188Y-5.7812
X4.0312Y-5.8812
X4.2812Y-5.7812
X13.0312Y-6.0687
X13.2812Y-5.9688
X9.8449Y-6.6309
X10.0949Y-6.5309
X4.2188Y-4.3812
X4.4688Y-4.2812
X16.4688Y-6.2062
X16.5687Y-6.4562
X6.6562Y-5.1312
X6.9062Y-5.0312
X5.3438Y-3.6313
X5.5938Y-3.5312
X2.3438Y-3.6313
X2.5938Y-3.5312
X10.5938Y-3.6313
X10.8438Y-3.5312
X4.5938Y-3.6313
X4.8438Y-3.5312
X8.9062Y-5.1312
X9.1562Y-5.0312
X12.4688Y-3.6313
X12.7188Y-3.5312
X3.6562Y-5.1312
X3.9062Y-5.0312
X9.2813Y-5.8812
X9.5313Y-5.7812
X13.9688Y-3.6313
X14.2188Y-3.5312
X7.2188Y-4.3812
X7.4688Y-4.2812
X14.7188Y-5.8812
X14.9688Y-5.7812
X13.9688Y-5.1312
X14.2188Y-5.0312
X10.2188Y-4.3812
X10.4688Y-4.2812
X12.6562Y-4.3812
X12.9062Y-4.2812
X4.3125Y-6.6309
X4.5625Y-6.5309
X9.8438Y-3.6313
X10.0938Y-3.5312
X7.0313Y-5.8812
X7.2813Y-5.7812
X12.375Y-5.1312
X12.625Y-5.0312
X11.3453Y-6.6309
X11.5953Y-6.5309
X6.8448Y-6.6316
X7.0948Y-6.5316
X15.4688Y-6.6312
X15.7188Y-6.5312
X13.9688Y-4.3812
X14.2188Y-4.2812
X2.4375Y-5.1309
X2.6875Y-5.0309
X15.4688Y-5.1312
X15.7188Y-5.0312
X15.4688Y-3.6313
X15.7188Y-3.5312
X13.7812Y-6.8187
X14.0312Y-6.7188
X11.1562Y-5.1312
X11.4062Y-5.0312
X2.8125Y-5.8812
X3.0625Y-5.7812
X10.7813Y-5.8812
X11.0313Y-5.7812
X6.0938Y-3.6313
X6.3438Y-3.5312
X9.4688Y-4.3812
X9.7188Y-4.2812
X3.0938Y-3.6313
X3.3438Y-3.5312
X9.0938Y-3.6313
X9.3438Y-3.5312
X6.2813Y-5.8812
X6.5313Y-5.7812
X12.2812Y-6.8187
X12.5312Y-6.7188
X11.7188Y-4.3812
X11.9688Y-4.2812
X3.4688Y-4.3812
X3.7188Y-4.2812
X11.8125Y-5.8812
X12.0625Y-5.7812
X10.0313Y-5.8812
X10.2813Y-5.7812
X2.4375Y-6.6309
X2.6875Y-6.5309
X6.8438Y-3.6313
X7.0938Y-3.5312
X11.3438Y-3.6313
X11.5938Y-3.5312
X8.7188Y-4.3812
X8.9688Y-4.2812
X2.625Y-5.1309
X2.875Y-5.0309
X5.9062Y-5.1312
X6.1562Y-5.0312
X16.4688Y-4.7062
X16.5687Y-4.9562
X8.3438Y-3.6313
X8.5938Y-3.5312
X3.6572Y-6.6311
X3.9072Y-6.5311
X5.5312Y-5.8812
X5.7812Y-5.7812
X7.125Y-6.6312
X7.375Y-6.5312
X14.7188Y-6.6312
X14.9688Y-6.5312
X14.7208Y-5.1312
X14.9708Y-5.0312
X10.5951Y-6.6312
X10.8451Y-6.5312
X10.9688Y-4.3812
X11.2188Y-4.2812
X8.1562Y-5.1312
X8.4062Y-5.0312
X14.7188Y-3.6313
X14.9688Y-3.5312
X13.0312Y-6.8187
X13.2812Y-6.7188
X6.4688Y-4.3812
X6.7188Y-4.2812
X8.5313Y-5.8812
X8.7813Y-5.7812
X10.4062Y-5.1312
X10.6562Y-5.0312
X3.8438Y-3.6313
X4.0938Y-3.5312
T9
X4.4625Y-4.1063
X8.1188Y-4.1063
X11.775Y-4.1063
X15.2438Y-4.1063
X15.2438Y-6.3563
X11.3063Y-6.3563
X8.0938Y-6.6375
X3.7937Y-6.3563
X9.5437Y-3.1062
X2.3062Y-3.1687
X16.5562Y-3.1687
X2.3062Y-2.4187
X16.5562Y-2.4187
T2
G00X12.8193Y-2.4579
M15
G01X12.8193Y-2.4264
M16
G05
G00X12.8193Y-2.6048
M15
G01X12.8193Y-2.5457
M16
G05
G00X13.1599Y-2.4579
M15
G01X13.1599Y-2.4264
M16
G05
G00X13.1599Y-2.6048
M15
G01X13.1599Y-2.5457
M16
G05
T0
M30
