G04 #@! TF.GenerationSoftware,KiCad,Pcbnew,(5.1.5-0-10_14)*
G04 #@! TF.CreationDate,2020-04-29T14:18:40-06:00*
G04 #@! TF.ProjectId,NumDiscipline-pcb,4e756d44-6973-4636-9970-6c696e652d70,rev?*
G04 #@! TF.SameCoordinates,Original*
G04 #@! TF.FileFunction,Legend,Top*
G04 #@! TF.FilePolarity,Positive*
%FSLAX46Y46*%
G04 Gerber Fmt 4.6, Leading zero omitted, Abs format (unit mm)*
G04 Created by KiCad (PCBNEW (5.1.5-0-10_14)) date 2020-04-29 14:18:40*
%MOMM*%
%LPD*%
G04 APERTURE LIST*
%ADD10C,0.100000*%
%ADD11C,0.120000*%
%ADD12C,0.150000*%
%ADD13C,0.075000*%
%ADD14C,0.010000*%
%ADD15C,0.400000*%
%ADD16C,0.200000*%
%ADD17C,0.203200*%
%ADD18C,0.300000*%
G04 APERTURE END LIST*
D10*
X335738945Y-79586134D02*
X336357993Y-79586134D01*
X336024659Y-79967087D01*
X336167516Y-79967087D01*
X336262755Y-80014706D01*
X336310374Y-80062325D01*
X336357993Y-80157563D01*
X336357993Y-80395658D01*
X336310374Y-80490896D01*
X336262755Y-80538515D01*
X336167516Y-80586134D01*
X335881802Y-80586134D01*
X335786564Y-80538515D01*
X335738945Y-80490896D01*
X336786564Y-80490896D02*
X336834183Y-80538515D01*
X336786564Y-80586134D01*
X336738945Y-80538515D01*
X336786564Y-80490896D01*
X336786564Y-80586134D01*
X337691326Y-79586134D02*
X337500850Y-79586134D01*
X337405612Y-79633754D01*
X337357993Y-79681373D01*
X337262755Y-79824230D01*
X337215136Y-80014706D01*
X337215136Y-80395658D01*
X337262755Y-80490896D01*
X337310374Y-80538515D01*
X337405612Y-80586134D01*
X337596088Y-80586134D01*
X337691326Y-80538515D01*
X337738945Y-80490896D01*
X337786564Y-80395658D01*
X337786564Y-80157563D01*
X337738945Y-80062325D01*
X337691326Y-80014706D01*
X337596088Y-79967087D01*
X337405612Y-79967087D01*
X337310374Y-80014706D01*
X337262755Y-80062325D01*
X337215136Y-80157563D01*
X338072278Y-79586134D02*
X338405612Y-80586134D01*
X338738945Y-79586134D01*
X333555140Y-80761370D02*
X333555140Y-80161370D01*
X334455140Y-80873870D01*
X334455140Y-80273870D01*
X333983712Y-79872085D02*
X333983712Y-79572085D01*
X334455140Y-79502442D02*
X334455140Y-79931013D01*
X333555140Y-79818513D01*
X333555140Y-79389942D01*
X334455140Y-79116728D02*
X333555140Y-79004228D01*
X334455140Y-78602442D01*
X333555140Y-78489942D01*
X333983712Y-78114942D02*
X333983712Y-77814942D01*
X334455140Y-77745299D02*
X334455140Y-78173870D01*
X333555140Y-78061370D01*
X333555140Y-77632799D01*
X334455140Y-76845299D02*
X334026569Y-77091728D01*
X334455140Y-77359585D02*
X333555140Y-77247085D01*
X333555140Y-76904228D01*
X333597998Y-76823870D01*
X333640855Y-76786370D01*
X333726569Y-76754228D01*
X333855140Y-76770299D01*
X333940855Y-76823870D01*
X333983712Y-76872085D01*
X334026569Y-76963156D01*
X334026569Y-77306013D01*
X334455140Y-75773870D02*
X333555140Y-75661370D01*
X333555140Y-75447085D01*
X333597998Y-75323870D01*
X333683712Y-75248870D01*
X333769426Y-75216728D01*
X333940855Y-75195299D01*
X334069426Y-75211370D01*
X334240855Y-75275656D01*
X334326569Y-75329228D01*
X334412283Y-75425656D01*
X334455140Y-75559585D01*
X334455140Y-75773870D01*
X334455140Y-74873870D02*
X333555140Y-74761370D01*
X333555140Y-74161370D02*
X333555140Y-73989942D01*
X333597998Y-73909585D01*
X333683712Y-73834585D01*
X333855140Y-73813156D01*
X334155140Y-73850656D01*
X334326569Y-73914942D01*
X334412283Y-74011370D01*
X334455140Y-74102442D01*
X334455140Y-74273870D01*
X334412283Y-74354228D01*
X334326569Y-74429228D01*
X334155140Y-74450656D01*
X333855140Y-74413156D01*
X333683712Y-74348870D01*
X333597998Y-74252442D01*
X333555140Y-74161370D01*
X334455140Y-73502442D02*
X333555140Y-73389942D01*
X333555140Y-73175656D01*
X333597998Y-73052442D01*
X333683712Y-72977442D01*
X333769426Y-72945299D01*
X333940855Y-72923870D01*
X334069426Y-72939942D01*
X334240855Y-73004228D01*
X334326569Y-73057799D01*
X334412283Y-73154228D01*
X334455140Y-73288156D01*
X334455140Y-73502442D01*
X333983712Y-72543513D02*
X333983712Y-72243513D01*
X334455140Y-72173870D02*
X334455140Y-72602442D01*
X333555140Y-72489942D01*
X333555140Y-72061370D01*
X334412283Y-71825656D02*
X334455140Y-71702442D01*
X334455140Y-71488156D01*
X334412283Y-71397085D01*
X334369426Y-71348870D01*
X334283712Y-71295299D01*
X334197998Y-71284585D01*
X334112283Y-71316728D01*
X334069426Y-71354228D01*
X334026569Y-71434585D01*
X333983712Y-71600656D01*
X333940855Y-71681013D01*
X333897998Y-71718513D01*
X333812283Y-71750656D01*
X333726569Y-71739942D01*
X333640855Y-71686370D01*
X333597998Y-71638156D01*
X333555140Y-71547085D01*
X333555140Y-71332799D01*
X333597998Y-71209585D01*
D11*
X337787510Y-75514666D02*
X338032482Y-75252196D01*
X339122418Y-75251812D02*
X339367390Y-74989342D01*
X334905400Y-75514282D02*
X335150372Y-75251812D01*
X336252746Y-75251812D02*
X336497718Y-74989342D01*
D12*
X406947630Y-67270130D02*
X406471440Y-67603464D01*
X406947630Y-67841559D02*
X405947630Y-67841559D01*
X405947630Y-67460607D01*
X405995250Y-67365369D01*
X406042869Y-67317750D01*
X406138107Y-67270130D01*
X406280964Y-67270130D01*
X406376202Y-67317750D01*
X406423821Y-67365369D01*
X406471440Y-67460607D01*
X406471440Y-67841559D01*
X406423821Y-66841559D02*
X406423821Y-66508226D01*
X406947630Y-66365369D02*
X406947630Y-66841559D01*
X405947630Y-66841559D01*
X405947630Y-66365369D01*
X406900011Y-65984416D02*
X406947630Y-65841559D01*
X406947630Y-65603464D01*
X406900011Y-65508226D01*
X406852392Y-65460607D01*
X406757154Y-65412988D01*
X406661916Y-65412988D01*
X406566678Y-65460607D01*
X406519059Y-65508226D01*
X406471440Y-65603464D01*
X406423821Y-65793940D01*
X406376202Y-65889178D01*
X406328583Y-65936797D01*
X406233345Y-65984416D01*
X406138107Y-65984416D01*
X406042869Y-65936797D01*
X405995250Y-65889178D01*
X405947630Y-65793940D01*
X405947630Y-65555845D01*
X405995250Y-65412988D01*
X406423821Y-64984416D02*
X406423821Y-64651083D01*
X406947630Y-64508226D02*
X406947630Y-64984416D01*
X405947630Y-64984416D01*
X405947630Y-64508226D01*
X405947630Y-64222511D02*
X405947630Y-63651083D01*
X406947630Y-63936797D02*
X405947630Y-63936797D01*
X335483046Y-59326064D02*
X335483046Y-58326064D01*
X335863998Y-58326064D01*
X335959236Y-58373684D01*
X336006855Y-58421303D01*
X336054474Y-58516541D01*
X336054474Y-58659398D01*
X336006855Y-58754636D01*
X335959236Y-58802255D01*
X335863998Y-58849874D01*
X335483046Y-58849874D01*
X336673522Y-58326064D02*
X336863998Y-58326064D01*
X336959236Y-58373684D01*
X337054474Y-58468922D01*
X337102093Y-58659398D01*
X337102093Y-58992731D01*
X337054474Y-59183207D01*
X336959236Y-59278445D01*
X336863998Y-59326064D01*
X336673522Y-59326064D01*
X336578284Y-59278445D01*
X336483046Y-59183207D01*
X336435427Y-58992731D01*
X336435427Y-58659398D01*
X336483046Y-58468922D01*
X336578284Y-58373684D01*
X336673522Y-58326064D01*
X337435427Y-58326064D02*
X337673522Y-59326064D01*
X337863998Y-58611779D01*
X338054474Y-59326064D01*
X338292570Y-58326064D01*
X338673522Y-58802255D02*
X339006855Y-58802255D01*
X339149712Y-59326064D02*
X338673522Y-59326064D01*
X338673522Y-58326064D01*
X339149712Y-58326064D01*
X340149712Y-59326064D02*
X339816379Y-58849874D01*
X339578284Y-59326064D02*
X339578284Y-58326064D01*
X339959236Y-58326064D01*
X340054474Y-58373684D01*
X340102093Y-58421303D01*
X340149712Y-58516541D01*
X340149712Y-58659398D01*
X340102093Y-58754636D01*
X340054474Y-58802255D01*
X339959236Y-58849874D01*
X339578284Y-58849874D01*
X423013250Y-74453654D02*
X422965630Y-74548892D01*
X422965630Y-74691750D01*
X423013250Y-74834607D01*
X423108488Y-74929845D01*
X423203726Y-74977464D01*
X423394202Y-75025083D01*
X423537059Y-75025083D01*
X423727535Y-74977464D01*
X423822773Y-74929845D01*
X423918011Y-74834607D01*
X423965630Y-74691750D01*
X423965630Y-74596511D01*
X423918011Y-74453654D01*
X423870392Y-74406035D01*
X423537059Y-74406035D01*
X423537059Y-74596511D01*
X423965630Y-73977464D02*
X422965630Y-73977464D01*
X423965630Y-73406035D01*
X422965630Y-73406035D01*
X423965630Y-72929845D02*
X422965630Y-72929845D01*
X422965630Y-72691750D01*
X423013250Y-72548892D01*
X423108488Y-72453654D01*
X423203726Y-72406035D01*
X423394202Y-72358416D01*
X423537059Y-72358416D01*
X423727535Y-72406035D01*
X423822773Y-72453654D01*
X423918011Y-72548892D01*
X423965630Y-72691750D01*
X423965630Y-72929845D01*
D10*
X344250085Y-70192989D02*
X343869133Y-70192989D01*
X343831038Y-70573942D01*
X343869133Y-70535846D01*
X343945323Y-70497751D01*
X344135799Y-70497751D01*
X344211990Y-70535846D01*
X344250085Y-70573942D01*
X344288180Y-70650132D01*
X344288180Y-70840608D01*
X344250085Y-70916799D01*
X344211990Y-70954894D01*
X344135799Y-70992989D01*
X343945323Y-70992989D01*
X343869133Y-70954894D01*
X343831038Y-70916799D01*
X344631038Y-70916799D02*
X344669133Y-70954894D01*
X344631038Y-70992989D01*
X344592942Y-70954894D01*
X344631038Y-70916799D01*
X344631038Y-70992989D01*
X345431038Y-70992989D02*
X344973895Y-70992989D01*
X345202466Y-70992989D02*
X345202466Y-70192989D01*
X345126276Y-70307275D01*
X345050085Y-70383465D01*
X344973895Y-70421561D01*
X345773895Y-70992989D02*
X345773895Y-70192989D01*
X346231038Y-70992989D02*
X345888180Y-70535846D01*
X346231038Y-70192989D02*
X345773895Y-70650132D01*
X344250085Y-67639536D02*
X343869133Y-67639536D01*
X343831038Y-68020489D01*
X343869133Y-67982393D01*
X343945323Y-67944298D01*
X344135799Y-67944298D01*
X344211990Y-67982393D01*
X344250085Y-68020489D01*
X344288180Y-68096679D01*
X344288180Y-68287155D01*
X344250085Y-68363346D01*
X344211990Y-68401441D01*
X344135799Y-68439536D01*
X343945323Y-68439536D01*
X343869133Y-68401441D01*
X343831038Y-68363346D01*
X344631038Y-68363346D02*
X344669133Y-68401441D01*
X344631038Y-68439536D01*
X344592942Y-68401441D01*
X344631038Y-68363346D01*
X344631038Y-68439536D01*
X345431038Y-68439536D02*
X344973895Y-68439536D01*
X345202466Y-68439536D02*
X345202466Y-67639536D01*
X345126276Y-67753822D01*
X345050085Y-67830012D01*
X344973895Y-67868108D01*
X345773895Y-68439536D02*
X345773895Y-67639536D01*
X346231038Y-68439536D02*
X345888180Y-67982393D01*
X346231038Y-67639536D02*
X345773895Y-68096679D01*
X291851210Y-174478614D02*
X291279782Y-174478614D01*
X291565496Y-174478614D02*
X291565496Y-173478614D01*
X291470258Y-173621472D01*
X291375020Y-173716710D01*
X291279782Y-173764329D01*
X292279782Y-173478614D02*
X292279782Y-174288138D01*
X292327401Y-174383376D01*
X292375020Y-174430995D01*
X292470258Y-174478614D01*
X292660734Y-174478614D01*
X292755972Y-174430995D01*
X292803591Y-174383376D01*
X292851210Y-174288138D01*
X292851210Y-173478614D01*
X272760892Y-174478614D02*
X272189464Y-174478614D01*
X272475178Y-174478614D02*
X272475178Y-173478614D01*
X272379940Y-173621472D01*
X272284702Y-173716710D01*
X272189464Y-173764329D01*
X273189464Y-173478614D02*
X273189464Y-174288138D01*
X273237083Y-174383376D01*
X273284702Y-174430995D01*
X273379940Y-174478614D01*
X273570416Y-174478614D01*
X273665654Y-174430995D01*
X273713273Y-174383376D01*
X273760892Y-174288138D01*
X273760892Y-173478614D01*
X253350650Y-174478614D02*
X252779222Y-174478614D01*
X253064936Y-174478614D02*
X253064936Y-173478614D01*
X252969698Y-173621472D01*
X252874460Y-173716710D01*
X252779222Y-173764329D01*
X253779222Y-173478614D02*
X253779222Y-174288138D01*
X253826841Y-174383376D01*
X253874460Y-174430995D01*
X253969698Y-174478614D01*
X254160174Y-174478614D01*
X254255412Y-174430995D01*
X254303031Y-174383376D01*
X254350650Y-174288138D01*
X254350650Y-173478614D01*
X68976474Y-136426063D02*
X69119332Y-136473682D01*
X69357427Y-136473682D01*
X69452665Y-136426063D01*
X69500284Y-136378444D01*
X69547903Y-136283206D01*
X69547903Y-136187968D01*
X69500284Y-136092730D01*
X69452665Y-136045111D01*
X69357427Y-135997492D01*
X69166951Y-135949873D01*
X69071713Y-135902254D01*
X69024094Y-135854635D01*
X68976474Y-135759397D01*
X68976474Y-135664159D01*
X69024094Y-135568921D01*
X69071713Y-135521302D01*
X69166951Y-135473682D01*
X69405046Y-135473682D01*
X69547903Y-135521302D01*
X69833617Y-135473682D02*
X70405046Y-135473682D01*
X70119332Y-136473682D02*
X70119332Y-135473682D01*
X70690760Y-136187968D02*
X71166951Y-136187968D01*
X70595522Y-136473682D02*
X70928855Y-135473682D01*
X71262189Y-136473682D01*
X71595522Y-136473682D02*
X71595522Y-135473682D01*
X72166951Y-136473682D01*
X72166951Y-135473682D01*
X72643141Y-136473682D02*
X72643141Y-135473682D01*
X72881236Y-135473682D01*
X73024094Y-135521302D01*
X73119332Y-135616540D01*
X73166951Y-135711778D01*
X73214570Y-135902254D01*
X73214570Y-136045111D01*
X73166951Y-136235587D01*
X73119332Y-136330825D01*
X73024094Y-136426063D01*
X72881236Y-136473682D01*
X72643141Y-136473682D01*
X73595522Y-136187968D02*
X74071713Y-136187968D01*
X73500284Y-136473682D02*
X73833617Y-135473682D01*
X74166951Y-136473682D01*
X75071713Y-136473682D02*
X74738379Y-135997492D01*
X74500284Y-136473682D02*
X74500284Y-135473682D01*
X74881236Y-135473682D01*
X74976474Y-135521302D01*
X75024094Y-135568921D01*
X75071713Y-135664159D01*
X75071713Y-135807016D01*
X75024094Y-135902254D01*
X74976474Y-135949873D01*
X74881236Y-135997492D01*
X74500284Y-135997492D01*
X75500284Y-136473682D02*
X75500284Y-135473682D01*
X75738379Y-135473682D01*
X75881236Y-135521302D01*
X75976474Y-135616540D01*
X76024094Y-135711778D01*
X76071713Y-135902254D01*
X76071713Y-136045111D01*
X76024094Y-136235587D01*
X75976474Y-136330825D01*
X75881236Y-136426063D01*
X75738379Y-136473682D01*
X75500284Y-136473682D01*
X60056418Y-136426063D02*
X60199275Y-136473682D01*
X60437370Y-136473682D01*
X60532608Y-136426063D01*
X60580227Y-136378444D01*
X60627847Y-136283206D01*
X60627847Y-136187968D01*
X60580227Y-136092730D01*
X60532608Y-136045111D01*
X60437370Y-135997492D01*
X60246894Y-135949873D01*
X60151656Y-135902254D01*
X60104037Y-135854635D01*
X60056418Y-135759397D01*
X60056418Y-135664159D01*
X60104037Y-135568921D01*
X60151656Y-135521302D01*
X60246894Y-135473682D01*
X60484989Y-135473682D01*
X60627847Y-135521302D01*
X60913561Y-135473682D02*
X61484989Y-135473682D01*
X61199275Y-136473682D02*
X61199275Y-135473682D01*
X61818323Y-135949873D02*
X62151656Y-135949873D01*
X62294513Y-136473682D02*
X61818323Y-136473682D01*
X61818323Y-135473682D01*
X62294513Y-135473682D01*
X62723085Y-136473682D02*
X62723085Y-135473682D01*
X63104037Y-135473682D01*
X63199275Y-135521302D01*
X63246894Y-135568921D01*
X63294513Y-135664159D01*
X63294513Y-135807016D01*
X63246894Y-135902254D01*
X63199275Y-135949873D01*
X63104037Y-135997492D01*
X62723085Y-135997492D01*
X63723085Y-136473682D02*
X63723085Y-135473682D01*
X64104037Y-135473682D01*
X64199275Y-135521302D01*
X64246894Y-135568921D01*
X64294513Y-135664159D01*
X64294513Y-135807016D01*
X64246894Y-135902254D01*
X64199275Y-135949873D01*
X64104037Y-135997492D01*
X63723085Y-135997492D01*
X64723085Y-135949873D02*
X65056418Y-135949873D01*
X65199275Y-136473682D02*
X64723085Y-136473682D01*
X64723085Y-135473682D01*
X65199275Y-135473682D01*
X65627847Y-136473682D02*
X65627847Y-135473682D01*
X65865942Y-135473682D01*
X66008799Y-135521302D01*
X66104037Y-135616540D01*
X66151656Y-135711778D01*
X66199275Y-135902254D01*
X66199275Y-136045111D01*
X66151656Y-136235587D01*
X66104037Y-136330825D01*
X66008799Y-136426063D01*
X65865942Y-136473682D01*
X65627847Y-136473682D01*
X286110604Y-174478614D02*
X285539175Y-174478614D01*
X285824889Y-174478614D02*
X285824889Y-173478614D01*
X285729651Y-173621472D01*
X285634413Y-173716710D01*
X285539175Y-173764329D01*
X286539175Y-174383376D02*
X286586794Y-174430995D01*
X286539175Y-174478614D01*
X286491556Y-174430995D01*
X286539175Y-174383376D01*
X286539175Y-174478614D01*
X287491556Y-173478614D02*
X287015365Y-173478614D01*
X286967746Y-173954805D01*
X287015365Y-173907186D01*
X287110604Y-173859567D01*
X287348699Y-173859567D01*
X287443937Y-173907186D01*
X287491556Y-173954805D01*
X287539175Y-174050043D01*
X287539175Y-174288138D01*
X287491556Y-174383376D01*
X287443937Y-174430995D01*
X287348699Y-174478614D01*
X287110604Y-174478614D01*
X287015365Y-174430995D01*
X286967746Y-174383376D01*
X287967746Y-173478614D02*
X287967746Y-174288138D01*
X288015365Y-174383376D01*
X288062985Y-174430995D01*
X288158223Y-174478614D01*
X288348699Y-174478614D01*
X288443937Y-174430995D01*
X288491556Y-174383376D01*
X288539175Y-174288138D01*
X288539175Y-173478614D01*
X257623200Y-174478614D02*
X257051771Y-174478614D01*
X257337485Y-174478614D02*
X257337485Y-173478614D01*
X257242247Y-173621472D01*
X257147009Y-173716710D01*
X257051771Y-173764329D01*
X258051771Y-174383376D02*
X258099390Y-174430995D01*
X258051771Y-174478614D01*
X258004152Y-174430995D01*
X258051771Y-174383376D01*
X258051771Y-174478614D01*
X259004152Y-173478614D02*
X258527961Y-173478614D01*
X258480342Y-173954805D01*
X258527961Y-173907186D01*
X258623200Y-173859567D01*
X258861295Y-173859567D01*
X258956533Y-173907186D01*
X259004152Y-173954805D01*
X259051771Y-174050043D01*
X259051771Y-174288138D01*
X259004152Y-174383376D01*
X258956533Y-174430995D01*
X258861295Y-174478614D01*
X258623200Y-174478614D01*
X258527961Y-174430995D01*
X258480342Y-174383376D01*
X259480342Y-173478614D02*
X259480342Y-174288138D01*
X259527961Y-174383376D01*
X259575581Y-174430995D01*
X259670819Y-174478614D01*
X259861295Y-174478614D01*
X259956533Y-174430995D01*
X260004152Y-174383376D01*
X260051771Y-174288138D01*
X260051771Y-173478614D01*
X95980958Y-174478614D02*
X95409529Y-174478614D01*
X95695243Y-174478614D02*
X95695243Y-173478614D01*
X95600005Y-173621472D01*
X95504767Y-173716710D01*
X95409529Y-173764329D01*
X96409529Y-174383376D02*
X96457148Y-174430995D01*
X96409529Y-174478614D01*
X96361910Y-174430995D01*
X96409529Y-174383376D01*
X96409529Y-174478614D01*
X97361910Y-173478614D02*
X96885719Y-173478614D01*
X96838100Y-173954805D01*
X96885719Y-173907186D01*
X96980958Y-173859567D01*
X97219053Y-173859567D01*
X97314291Y-173907186D01*
X97361910Y-173954805D01*
X97409529Y-174050043D01*
X97409529Y-174288138D01*
X97361910Y-174383376D01*
X97314291Y-174430995D01*
X97219053Y-174478614D01*
X96980958Y-174478614D01*
X96885719Y-174430995D01*
X96838100Y-174383376D01*
X97838100Y-173478614D02*
X97838100Y-174288138D01*
X97885719Y-174383376D01*
X97933339Y-174430995D01*
X98028577Y-174478614D01*
X98219053Y-174478614D01*
X98314291Y-174430995D01*
X98361910Y-174383376D01*
X98409529Y-174288138D01*
X98409529Y-173478614D01*
X67634738Y-174478614D02*
X67063309Y-174478614D01*
X67349023Y-174478614D02*
X67349023Y-173478614D01*
X67253785Y-173621472D01*
X67158547Y-173716710D01*
X67063309Y-173764329D01*
X68063309Y-174383376D02*
X68110928Y-174430995D01*
X68063309Y-174478614D01*
X68015690Y-174430995D01*
X68063309Y-174383376D01*
X68063309Y-174478614D01*
X69015690Y-173478614D02*
X68539499Y-173478614D01*
X68491880Y-173954805D01*
X68539499Y-173907186D01*
X68634738Y-173859567D01*
X68872833Y-173859567D01*
X68968071Y-173907186D01*
X69015690Y-173954805D01*
X69063309Y-174050043D01*
X69063309Y-174288138D01*
X69015690Y-174383376D01*
X68968071Y-174430995D01*
X68872833Y-174478614D01*
X68634738Y-174478614D01*
X68539499Y-174430995D01*
X68491880Y-174383376D01*
X69491880Y-173478614D02*
X69491880Y-174288138D01*
X69539499Y-174383376D01*
X69587119Y-174430995D01*
X69682357Y-174478614D01*
X69872833Y-174478614D01*
X69968071Y-174430995D01*
X70015690Y-174383376D01*
X70063309Y-174288138D01*
X70063309Y-173478614D01*
X112040062Y-174478614D02*
X111468634Y-174478614D01*
X111754348Y-174478614D02*
X111754348Y-173478614D01*
X111659110Y-173621472D01*
X111563872Y-173716710D01*
X111468634Y-173764329D01*
X112468634Y-174383376D02*
X112516253Y-174430995D01*
X112468634Y-174478614D01*
X112421014Y-174430995D01*
X112468634Y-174383376D01*
X112468634Y-174478614D01*
X112897205Y-173573853D02*
X112944824Y-173526234D01*
X113040062Y-173478614D01*
X113278157Y-173478614D01*
X113373395Y-173526234D01*
X113421014Y-173573853D01*
X113468634Y-173669091D01*
X113468634Y-173764329D01*
X113421014Y-173907186D01*
X112849586Y-174478614D01*
X113468634Y-174478614D01*
X114373395Y-173478614D02*
X113897205Y-173478614D01*
X113849586Y-173954805D01*
X113897205Y-173907186D01*
X113992443Y-173859567D01*
X114230538Y-173859567D01*
X114325776Y-173907186D01*
X114373395Y-173954805D01*
X114421014Y-174050043D01*
X114421014Y-174288138D01*
X114373395Y-174383376D01*
X114325776Y-174430995D01*
X114230538Y-174478614D01*
X113992443Y-174478614D01*
X113897205Y-174430995D01*
X113849586Y-174383376D01*
X114849586Y-173478614D02*
X114849586Y-174288138D01*
X114897205Y-174383376D01*
X114944824Y-174430995D01*
X115040062Y-174478614D01*
X115230538Y-174478614D01*
X115325776Y-174430995D01*
X115373395Y-174383376D01*
X115421014Y-174288138D01*
X115421014Y-173478614D01*
X87893282Y-174478614D02*
X87321854Y-174478614D01*
X87607568Y-174478614D02*
X87607568Y-173478614D01*
X87512330Y-173621472D01*
X87417092Y-173716710D01*
X87321854Y-173764329D01*
X88321854Y-174383376D02*
X88369473Y-174430995D01*
X88321854Y-174478614D01*
X88274234Y-174430995D01*
X88321854Y-174383376D01*
X88321854Y-174478614D01*
X88750425Y-173573853D02*
X88798044Y-173526234D01*
X88893282Y-173478614D01*
X89131377Y-173478614D01*
X89226615Y-173526234D01*
X89274234Y-173573853D01*
X89321854Y-173669091D01*
X89321854Y-173764329D01*
X89274234Y-173907186D01*
X88702806Y-174478614D01*
X89321854Y-174478614D01*
X90226615Y-173478614D02*
X89750425Y-173478614D01*
X89702806Y-173954805D01*
X89750425Y-173907186D01*
X89845663Y-173859567D01*
X90083758Y-173859567D01*
X90178996Y-173907186D01*
X90226615Y-173954805D01*
X90274234Y-174050043D01*
X90274234Y-174288138D01*
X90226615Y-174383376D01*
X90178996Y-174430995D01*
X90083758Y-174478614D01*
X89845663Y-174478614D01*
X89750425Y-174430995D01*
X89702806Y-174383376D01*
X90702806Y-173478614D02*
X90702806Y-174288138D01*
X90750425Y-174383376D01*
X90798044Y-174430995D01*
X90893282Y-174478614D01*
X91083758Y-174478614D01*
X91178996Y-174430995D01*
X91226615Y-174383376D01*
X91274234Y-174288138D01*
X91274234Y-173478614D01*
X62224205Y-174478614D02*
X61652777Y-174478614D01*
X61938491Y-174478614D02*
X61938491Y-173478614D01*
X61843253Y-173621472D01*
X61748015Y-173716710D01*
X61652777Y-173764329D01*
X62652777Y-174383376D02*
X62700396Y-174430995D01*
X62652777Y-174478614D01*
X62605157Y-174430995D01*
X62652777Y-174383376D01*
X62652777Y-174478614D01*
X63081348Y-173573853D02*
X63128967Y-173526234D01*
X63224205Y-173478614D01*
X63462300Y-173478614D01*
X63557538Y-173526234D01*
X63605157Y-173573853D01*
X63652777Y-173669091D01*
X63652777Y-173764329D01*
X63605157Y-173907186D01*
X63033729Y-174478614D01*
X63652777Y-174478614D01*
X64557538Y-173478614D02*
X64081348Y-173478614D01*
X64033729Y-173954805D01*
X64081348Y-173907186D01*
X64176586Y-173859567D01*
X64414681Y-173859567D01*
X64509919Y-173907186D01*
X64557538Y-173954805D01*
X64605157Y-174050043D01*
X64605157Y-174288138D01*
X64557538Y-174383376D01*
X64509919Y-174430995D01*
X64414681Y-174478614D01*
X64176586Y-174478614D01*
X64081348Y-174430995D01*
X64033729Y-174383376D01*
X65033729Y-173478614D02*
X65033729Y-174288138D01*
X65081348Y-174383376D01*
X65128967Y-174430995D01*
X65224205Y-174478614D01*
X65414681Y-174478614D01*
X65509919Y-174430995D01*
X65557538Y-174383376D01*
X65605157Y-174288138D01*
X65605157Y-173478614D01*
D13*
X135440107Y-171388773D02*
X135297250Y-171484011D01*
X135011535Y-171484011D01*
X134868678Y-171388773D01*
X134797250Y-171293535D01*
X134725821Y-171103059D01*
X134725821Y-170531630D01*
X134797250Y-170341154D01*
X134868678Y-170245916D01*
X135011535Y-170150678D01*
X135297250Y-170150678D01*
X135440107Y-170245916D01*
X136297250Y-171484011D02*
X136154392Y-171388773D01*
X136082964Y-171293535D01*
X136011535Y-171103059D01*
X136011535Y-170531630D01*
X136082964Y-170341154D01*
X136154392Y-170245916D01*
X136297250Y-170150678D01*
X136511535Y-170150678D01*
X136654392Y-170245916D01*
X136725821Y-170341154D01*
X136797250Y-170531630D01*
X136797250Y-171103059D01*
X136725821Y-171293535D01*
X136654392Y-171388773D01*
X136511535Y-171484011D01*
X136297250Y-171484011D01*
X137368678Y-171388773D02*
X137511535Y-171484011D01*
X137797250Y-171484011D01*
X137940107Y-171388773D01*
X138011535Y-171198297D01*
X138011535Y-171103059D01*
X137940107Y-170912583D01*
X137797250Y-170817345D01*
X137582964Y-170817345D01*
X137440107Y-170722107D01*
X137368678Y-170531630D01*
X137368678Y-170436392D01*
X137440107Y-170245916D01*
X137582964Y-170150678D01*
X137797250Y-170150678D01*
X137940107Y-170245916D01*
X139225821Y-171388773D02*
X139082964Y-171484011D01*
X138797250Y-171484011D01*
X138654392Y-171388773D01*
X138582964Y-171198297D01*
X138582964Y-170436392D01*
X138654392Y-170245916D01*
X138797250Y-170150678D01*
X139082964Y-170150678D01*
X139225821Y-170245916D01*
X139297250Y-170436392D01*
X139297250Y-170626869D01*
X138582964Y-170817345D01*
X139797250Y-170150678D02*
X140154392Y-171484011D01*
X140511535Y-170150678D02*
X140154392Y-171484011D01*
X140011535Y-171960202D01*
X139940107Y-172055440D01*
X139797250Y-172150678D01*
X140868678Y-170150678D02*
X141440107Y-170150678D01*
X141082964Y-171484011D02*
X141082964Y-169769726D01*
X141154392Y-169579250D01*
X141297250Y-169484011D01*
X141440107Y-169484011D01*
X142582964Y-171484011D02*
X142582964Y-170436392D01*
X142511535Y-170245916D01*
X142368678Y-170150678D01*
X142082964Y-170150678D01*
X141940107Y-170245916D01*
X142582964Y-171388773D02*
X142440107Y-171484011D01*
X142082964Y-171484011D01*
X141940107Y-171388773D01*
X141868678Y-171198297D01*
X141868678Y-171007821D01*
X141940107Y-170817345D01*
X142082964Y-170722107D01*
X142440107Y-170722107D01*
X142582964Y-170626869D01*
X143297250Y-170150678D02*
X143297250Y-171484011D01*
X143297250Y-170341154D02*
X143368678Y-170245916D01*
X143511535Y-170150678D01*
X143725821Y-170150678D01*
X143868678Y-170245916D01*
X143940107Y-170436392D01*
X143940107Y-171484011D01*
X144654392Y-170150678D02*
X144654392Y-171484011D01*
X144654392Y-170341154D02*
X144725821Y-170245916D01*
X144868678Y-170150678D01*
X145082964Y-170150678D01*
X145225821Y-170245916D01*
X145297250Y-170436392D01*
X145297250Y-171484011D01*
X146011535Y-171484011D02*
X146011535Y-170150678D01*
X146011535Y-169484011D02*
X145940107Y-169579250D01*
X146011535Y-169674488D01*
X146082964Y-169579250D01*
X146011535Y-169484011D01*
X146011535Y-169674488D01*
X146511535Y-170150678D02*
X147082964Y-170150678D01*
X146725821Y-169484011D02*
X146725821Y-171198297D01*
X146797250Y-171388773D01*
X146940107Y-171484011D01*
X147082964Y-171484011D01*
X148225821Y-170150678D02*
X148225821Y-171484011D01*
X147582964Y-170150678D02*
X147582964Y-171198297D01*
X147654392Y-171388773D01*
X147797250Y-171484011D01*
X148011535Y-171484011D01*
X148154392Y-171388773D01*
X148225821Y-171293535D01*
X148725821Y-170150678D02*
X149297250Y-170150678D01*
X148940107Y-169484011D02*
X148940107Y-171198297D01*
X149011535Y-171388773D01*
X149154392Y-171484011D01*
X149297250Y-171484011D01*
X149582964Y-170150678D02*
X150154392Y-170150678D01*
X149797250Y-169484011D02*
X149797250Y-171198297D01*
X149868678Y-171388773D01*
X150011535Y-171484011D01*
X150154392Y-171484011D01*
X150654392Y-171484011D02*
X150654392Y-170150678D01*
X150654392Y-169484011D02*
X150582964Y-169579250D01*
X150654392Y-169674488D01*
X150725821Y-169579250D01*
X150654392Y-169484011D01*
X150654392Y-169674488D01*
X152440107Y-169674488D02*
X152511535Y-169579250D01*
X152654392Y-169484011D01*
X153011535Y-169484011D01*
X153154392Y-169579250D01*
X153225821Y-169674488D01*
X153297250Y-169864964D01*
X153297250Y-170055440D01*
X153225821Y-170341154D01*
X152368678Y-171484011D01*
X153297250Y-171484011D01*
X154225821Y-169484011D02*
X154368678Y-169484011D01*
X154511535Y-169579250D01*
X154582964Y-169674488D01*
X154654392Y-169864964D01*
X154725821Y-170245916D01*
X154725821Y-170722107D01*
X154654392Y-171103059D01*
X154582964Y-171293535D01*
X154511535Y-171388773D01*
X154368678Y-171484011D01*
X154225821Y-171484011D01*
X154082964Y-171388773D01*
X154011535Y-171293535D01*
X153940107Y-171103059D01*
X153868678Y-170722107D01*
X153868678Y-170245916D01*
X153940107Y-169864964D01*
X154011535Y-169674488D01*
X154082964Y-169579250D01*
X154225821Y-169484011D01*
X156154392Y-171484011D02*
X155297250Y-171484011D01*
X155725821Y-171484011D02*
X155725821Y-169484011D01*
X155582964Y-169769726D01*
X155440107Y-169960202D01*
X155297250Y-170055440D01*
X156868678Y-171484011D02*
X157154392Y-171484011D01*
X157297250Y-171388773D01*
X157368678Y-171293535D01*
X157511535Y-171007821D01*
X157582964Y-170626869D01*
X157582964Y-169864964D01*
X157511535Y-169674488D01*
X157440107Y-169579250D01*
X157297250Y-169484011D01*
X157011535Y-169484011D01*
X156868678Y-169579250D01*
X156797250Y-169674488D01*
X156725821Y-169864964D01*
X156725821Y-170341154D01*
X156797250Y-170531630D01*
X156868678Y-170626869D01*
X157011535Y-170722107D01*
X157297250Y-170722107D01*
X157440107Y-170626869D01*
X157511535Y-170531630D01*
X157582964Y-170341154D01*
X159368678Y-170722107D02*
X160511535Y-170722107D01*
X162368678Y-171484011D02*
X162368678Y-170150678D01*
X162368678Y-170531630D02*
X162440107Y-170341154D01*
X162511535Y-170245916D01*
X162654392Y-170150678D01*
X162797250Y-170150678D01*
X163868678Y-171388773D02*
X163725821Y-171484011D01*
X163440107Y-171484011D01*
X163297250Y-171388773D01*
X163225821Y-171198297D01*
X163225821Y-170436392D01*
X163297250Y-170245916D01*
X163440107Y-170150678D01*
X163725821Y-170150678D01*
X163868678Y-170245916D01*
X163940107Y-170436392D01*
X163940107Y-170626869D01*
X163225821Y-170817345D01*
X164440107Y-170150678D02*
X164797250Y-171484011D01*
X165154392Y-170150678D01*
X166511535Y-171484011D02*
X165654392Y-171484011D01*
X166082964Y-171484011D02*
X166082964Y-169484011D01*
X165940107Y-169769726D01*
X165797250Y-169960202D01*
X165654392Y-170055440D01*
X124940107Y-174559011D02*
X124797250Y-174463773D01*
X124725821Y-174273297D01*
X124725821Y-172559011D01*
X126154392Y-174559011D02*
X126154392Y-173511392D01*
X126082964Y-173320916D01*
X125940107Y-173225678D01*
X125654392Y-173225678D01*
X125511535Y-173320916D01*
X126154392Y-174463773D02*
X126011535Y-174559011D01*
X125654392Y-174559011D01*
X125511535Y-174463773D01*
X125440107Y-174273297D01*
X125440107Y-174082821D01*
X125511535Y-173892345D01*
X125654392Y-173797107D01*
X126011535Y-173797107D01*
X126154392Y-173701869D01*
X127511535Y-173225678D02*
X127511535Y-174559011D01*
X126868678Y-173225678D02*
X126868678Y-174273297D01*
X126940107Y-174463773D01*
X127082964Y-174559011D01*
X127297250Y-174559011D01*
X127440107Y-174463773D01*
X127511535Y-174368535D01*
X128797250Y-174463773D02*
X128654392Y-174559011D01*
X128368678Y-174559011D01*
X128225821Y-174463773D01*
X128154392Y-174273297D01*
X128154392Y-173511392D01*
X128225821Y-173320916D01*
X128368678Y-173225678D01*
X128654392Y-173225678D01*
X128797250Y-173320916D01*
X128868678Y-173511392D01*
X128868678Y-173701869D01*
X128154392Y-173892345D01*
X129511535Y-174559011D02*
X129511535Y-173225678D01*
X129511535Y-173606630D02*
X129582964Y-173416154D01*
X129654392Y-173320916D01*
X129797250Y-173225678D01*
X129940107Y-173225678D01*
X130368678Y-172749488D02*
X130440107Y-172654250D01*
X130582964Y-172559011D01*
X130940107Y-172559011D01*
X131082964Y-172654250D01*
X131154392Y-172749488D01*
X131225821Y-172939964D01*
X131225821Y-173130440D01*
X131154392Y-173416154D01*
X130297250Y-174559011D01*
X131225821Y-174559011D01*
X131725821Y-172559011D02*
X132654392Y-172559011D01*
X132154392Y-173320916D01*
X132368678Y-173320916D01*
X132511535Y-173416154D01*
X132582964Y-173511392D01*
X132654392Y-173701869D01*
X132654392Y-174178059D01*
X132582964Y-174368535D01*
X132511535Y-174463773D01*
X132368678Y-174559011D01*
X131940107Y-174559011D01*
X131797250Y-174463773D01*
X131725821Y-174368535D01*
X134011535Y-172559011D02*
X133297250Y-172559011D01*
X133225821Y-173511392D01*
X133297250Y-173416154D01*
X133440107Y-173320916D01*
X133797250Y-173320916D01*
X133940107Y-173416154D01*
X134011535Y-173511392D01*
X134082964Y-173701869D01*
X134082964Y-174178059D01*
X134011535Y-174368535D01*
X133940107Y-174463773D01*
X133797250Y-174559011D01*
X133440107Y-174559011D01*
X133297250Y-174463773D01*
X133225821Y-174368535D01*
X135368678Y-172559011D02*
X135082964Y-172559011D01*
X134940107Y-172654250D01*
X134868678Y-172749488D01*
X134725821Y-173035202D01*
X134654392Y-173416154D01*
X134654392Y-174178059D01*
X134725821Y-174368535D01*
X134797250Y-174463773D01*
X134940107Y-174559011D01*
X135225821Y-174559011D01*
X135368678Y-174463773D01*
X135440107Y-174368535D01*
X135511535Y-174178059D01*
X135511535Y-173701869D01*
X135440107Y-173511392D01*
X135368678Y-173416154D01*
X135225821Y-173320916D01*
X134940107Y-173320916D01*
X134797250Y-173416154D01*
X134725821Y-173511392D01*
X134654392Y-173701869D01*
X137225821Y-172749488D02*
X137297250Y-172654250D01*
X137440107Y-172559011D01*
X137797250Y-172559011D01*
X137940107Y-172654250D01*
X138011535Y-172749488D01*
X138082964Y-172939964D01*
X138082964Y-173130440D01*
X138011535Y-173416154D01*
X137154392Y-174559011D01*
X138082964Y-174559011D01*
X139011535Y-172559011D02*
X139154392Y-172559011D01*
X139297250Y-172654250D01*
X139368678Y-172749488D01*
X139440107Y-172939964D01*
X139511535Y-173320916D01*
X139511535Y-173797107D01*
X139440107Y-174178059D01*
X139368678Y-174368535D01*
X139297250Y-174463773D01*
X139154392Y-174559011D01*
X139011535Y-174559011D01*
X138868678Y-174463773D01*
X138797250Y-174368535D01*
X138725821Y-174178059D01*
X138654392Y-173797107D01*
X138654392Y-173320916D01*
X138725821Y-172939964D01*
X138797250Y-172749488D01*
X138868678Y-172654250D01*
X139011535Y-172559011D01*
X140082964Y-172749488D02*
X140154392Y-172654250D01*
X140297250Y-172559011D01*
X140654392Y-172559011D01*
X140797250Y-172654250D01*
X140868678Y-172749488D01*
X140940107Y-172939964D01*
X140940107Y-173130440D01*
X140868678Y-173416154D01*
X140011535Y-174559011D01*
X140940107Y-174559011D01*
X141868678Y-172559011D02*
X142011535Y-172559011D01*
X142154392Y-172654250D01*
X142225821Y-172749488D01*
X142297250Y-172939964D01*
X142368678Y-173320916D01*
X142368678Y-173797107D01*
X142297250Y-174178059D01*
X142225821Y-174368535D01*
X142154392Y-174463773D01*
X142011535Y-174559011D01*
X141868678Y-174559011D01*
X141725821Y-174463773D01*
X141654392Y-174368535D01*
X141582964Y-174178059D01*
X141511535Y-173797107D01*
X141511535Y-173320916D01*
X141582964Y-172939964D01*
X141654392Y-172749488D01*
X141725821Y-172654250D01*
X141868678Y-172559011D01*
X144154392Y-173797107D02*
X145297250Y-173797107D01*
X147154392Y-174559011D02*
X147154392Y-173225678D01*
X147154392Y-173606630D02*
X147225821Y-173416154D01*
X147297250Y-173320916D01*
X147440107Y-173225678D01*
X147582964Y-173225678D01*
X148654392Y-174463773D02*
X148511535Y-174559011D01*
X148225821Y-174559011D01*
X148082964Y-174463773D01*
X148011535Y-174273297D01*
X148011535Y-173511392D01*
X148082964Y-173320916D01*
X148225821Y-173225678D01*
X148511535Y-173225678D01*
X148654392Y-173320916D01*
X148725821Y-173511392D01*
X148725821Y-173701869D01*
X148011535Y-173892345D01*
X149225821Y-173225678D02*
X149582964Y-174559011D01*
X149940107Y-173225678D01*
X151582964Y-172749488D02*
X151654392Y-172654250D01*
X151797250Y-172559011D01*
X152154392Y-172559011D01*
X152297250Y-172654250D01*
X152368678Y-172749488D01*
X152440107Y-172939964D01*
X152440107Y-173130440D01*
X152368678Y-173416154D01*
X151511535Y-174559011D01*
X152440107Y-174559011D01*
X153082964Y-174368535D02*
X153154392Y-174463773D01*
X153082964Y-174559011D01*
X153011535Y-174463773D01*
X153082964Y-174368535D01*
X153082964Y-174559011D01*
X154582964Y-174559011D02*
X153725821Y-174559011D01*
X154154392Y-174559011D02*
X154154392Y-172559011D01*
X154011535Y-172844726D01*
X153868678Y-173035202D01*
X153725821Y-173130440D01*
X156797250Y-175320916D02*
X156725821Y-175225678D01*
X156582964Y-174939964D01*
X156511535Y-174749488D01*
X156440107Y-174463773D01*
X156368678Y-173987583D01*
X156368678Y-173606630D01*
X156440107Y-173130440D01*
X156511535Y-172844726D01*
X156582964Y-172654250D01*
X156725821Y-172368535D01*
X156797250Y-172273297D01*
X157368678Y-173225678D02*
X157368678Y-174559011D01*
X157368678Y-173416154D02*
X157440107Y-173320916D01*
X157582964Y-173225678D01*
X157797250Y-173225678D01*
X157940107Y-173320916D01*
X158011535Y-173511392D01*
X158011535Y-174559011D01*
X159368678Y-173225678D02*
X159368678Y-174559011D01*
X158725821Y-173225678D02*
X158725821Y-174273297D01*
X158797250Y-174463773D01*
X158940107Y-174559011D01*
X159154392Y-174559011D01*
X159297250Y-174463773D01*
X159368678Y-174368535D01*
X160082964Y-174559011D02*
X160082964Y-173225678D01*
X160082964Y-173416154D02*
X160154392Y-173320916D01*
X160297250Y-173225678D01*
X160511535Y-173225678D01*
X160654392Y-173320916D01*
X160725821Y-173511392D01*
X160725821Y-174559011D01*
X160725821Y-173511392D02*
X160797250Y-173320916D01*
X160940107Y-173225678D01*
X161154392Y-173225678D01*
X161297250Y-173320916D01*
X161368678Y-173511392D01*
X161368678Y-174559011D01*
X162082964Y-173225678D02*
X162082964Y-175225678D01*
X162082964Y-173320916D02*
X162225821Y-173225678D01*
X162511535Y-173225678D01*
X162654392Y-173320916D01*
X162725821Y-173416154D01*
X162797250Y-173606630D01*
X162797250Y-174178059D01*
X162725821Y-174368535D01*
X162654392Y-174463773D01*
X162511535Y-174559011D01*
X162225821Y-174559011D01*
X162082964Y-174463773D01*
X164082964Y-174559011D02*
X164082964Y-173511392D01*
X164011535Y-173320916D01*
X163868678Y-173225678D01*
X163582964Y-173225678D01*
X163440107Y-173320916D01*
X164082964Y-174463773D02*
X163940107Y-174559011D01*
X163582964Y-174559011D01*
X163440107Y-174463773D01*
X163368678Y-174273297D01*
X163368678Y-174082821D01*
X163440107Y-173892345D01*
X163582964Y-173797107D01*
X163940107Y-173797107D01*
X164082964Y-173701869D01*
X165440107Y-174559011D02*
X165440107Y-172559011D01*
X165440107Y-174463773D02*
X165297250Y-174559011D01*
X165011535Y-174559011D01*
X164868678Y-174463773D01*
X164797250Y-174368535D01*
X164725821Y-174178059D01*
X164725821Y-173606630D01*
X164797250Y-173416154D01*
X164868678Y-173320916D01*
X165011535Y-173225678D01*
X165297250Y-173225678D01*
X165440107Y-173320916D01*
X166011535Y-175320916D02*
X166082964Y-175225678D01*
X166225821Y-174939964D01*
X166297250Y-174749488D01*
X166368678Y-174463773D01*
X166440107Y-173987583D01*
X166440107Y-173606630D01*
X166368678Y-173130440D01*
X166297250Y-172844726D01*
X166225821Y-172654250D01*
X166082964Y-172368535D01*
X166011535Y-172273297D01*
D14*
G36*
X305224586Y-76340571D02*
G01*
X305437695Y-76364674D01*
X305614289Y-76413497D01*
X305767221Y-76489497D01*
X305774374Y-76493990D01*
X305925987Y-76627575D01*
X306039839Y-76807190D01*
X306112774Y-77023493D01*
X306141634Y-77267141D01*
X306123525Y-77527142D01*
X306061206Y-77775207D01*
X305959742Y-77973511D01*
X305815794Y-78126899D01*
X305634396Y-78236454D01*
X305543220Y-78265255D01*
X305415153Y-78289280D01*
X305264011Y-78307841D01*
X305103613Y-78320252D01*
X304947776Y-78325825D01*
X304810317Y-78323874D01*
X304705053Y-78313711D01*
X304645803Y-78294650D01*
X304638576Y-78285971D01*
X304634441Y-78242820D01*
X304631253Y-78143020D01*
X304629089Y-77995211D01*
X304628022Y-77808032D01*
X304628129Y-77590126D01*
X304629483Y-77350132D01*
X304629963Y-77294529D01*
X304636692Y-76560350D01*
X304883497Y-76560350D01*
X304883497Y-78094798D01*
X305137761Y-78094798D01*
X305294969Y-78089386D01*
X305412429Y-78070103D01*
X305515021Y-78032381D01*
X305537697Y-78021340D01*
X305675587Y-77923631D01*
X305772657Y-77786977D01*
X305832282Y-77604904D01*
X305855946Y-77411375D01*
X305854765Y-77179957D01*
X305819529Y-76993918D01*
X305747129Y-76841140D01*
X305690666Y-76767269D01*
X305583985Y-76666863D01*
X305464766Y-76603075D01*
X305316063Y-76569658D01*
X305129404Y-76560350D01*
X304883497Y-76560350D01*
X304636692Y-76560350D01*
X304638638Y-76348139D01*
X304962110Y-76338733D01*
X305224586Y-76340571D01*
G37*
X305224586Y-76340571D02*
X305437695Y-76364674D01*
X305614289Y-76413497D01*
X305767221Y-76489497D01*
X305774374Y-76493990D01*
X305925987Y-76627575D01*
X306039839Y-76807190D01*
X306112774Y-77023493D01*
X306141634Y-77267141D01*
X306123525Y-77527142D01*
X306061206Y-77775207D01*
X305959742Y-77973511D01*
X305815794Y-78126899D01*
X305634396Y-78236454D01*
X305543220Y-78265255D01*
X305415153Y-78289280D01*
X305264011Y-78307841D01*
X305103613Y-78320252D01*
X304947776Y-78325825D01*
X304810317Y-78323874D01*
X304705053Y-78313711D01*
X304645803Y-78294650D01*
X304638576Y-78285971D01*
X304634441Y-78242820D01*
X304631253Y-78143020D01*
X304629089Y-77995211D01*
X304628022Y-77808032D01*
X304628129Y-77590126D01*
X304629483Y-77350132D01*
X304629963Y-77294529D01*
X304636692Y-76560350D01*
X304883497Y-76560350D01*
X304883497Y-78094798D01*
X305137761Y-78094798D01*
X305294969Y-78089386D01*
X305412429Y-78070103D01*
X305515021Y-78032381D01*
X305537697Y-78021340D01*
X305675587Y-77923631D01*
X305772657Y-77786977D01*
X305832282Y-77604904D01*
X305855946Y-77411375D01*
X305854765Y-77179957D01*
X305819529Y-76993918D01*
X305747129Y-76841140D01*
X305690666Y-76767269D01*
X305583985Y-76666863D01*
X305464766Y-76603075D01*
X305316063Y-76569658D01*
X305129404Y-76560350D01*
X304883497Y-76560350D01*
X304636692Y-76560350D01*
X304638638Y-76348139D01*
X304962110Y-76338733D01*
X305224586Y-76340571D01*
G36*
X315243444Y-76337751D02*
G01*
X315413587Y-76346055D01*
X315534134Y-76357565D01*
X315620787Y-76375161D01*
X315689245Y-76401724D01*
X315736397Y-76428215D01*
X315862986Y-76528226D01*
X315940997Y-76648485D01*
X315977770Y-76803611D01*
X315983095Y-76919476D01*
X315959385Y-77131017D01*
X315888240Y-77299434D01*
X315768266Y-77426034D01*
X315598066Y-77512120D01*
X315376247Y-77559000D01*
X315292169Y-77566049D01*
X315036967Y-77580822D01*
X315036967Y-78323332D01*
X314928141Y-78323332D01*
X314847471Y-78317359D01*
X314799024Y-78302852D01*
X314797550Y-78301567D01*
X314791968Y-78264538D01*
X314786915Y-78170626D01*
X314782583Y-78028243D01*
X314779162Y-77845800D01*
X314776843Y-77631708D01*
X314775818Y-77394380D01*
X314775785Y-77342454D01*
X314776222Y-77064449D01*
X314777766Y-76844761D01*
X314780768Y-76676419D01*
X314785270Y-76560350D01*
X315036967Y-76560350D01*
X315036967Y-76946683D01*
X315038708Y-77099408D01*
X315043444Y-77227488D01*
X315050447Y-77317247D01*
X315058732Y-77354780D01*
X315110732Y-77371726D01*
X315204169Y-77375333D01*
X315316704Y-77366263D01*
X315425995Y-77345177D01*
X315431165Y-77343765D01*
X315570097Y-77279575D01*
X315661475Y-77174635D01*
X315709298Y-77023683D01*
X315715686Y-76969417D01*
X315721262Y-76862601D01*
X315709420Y-76793074D01*
X315670791Y-76733330D01*
X315615552Y-76675336D01*
X315551173Y-76614996D01*
X315494898Y-76580577D01*
X315424864Y-76564830D01*
X315319210Y-76560506D01*
X315268767Y-76560350D01*
X315036967Y-76560350D01*
X314785270Y-76560350D01*
X314785577Y-76552448D01*
X314792543Y-76465876D01*
X314802017Y-76409730D01*
X314814349Y-76377036D01*
X314824884Y-76364358D01*
X314873012Y-76345290D01*
X314965239Y-76335310D01*
X315109265Y-76333927D01*
X315243444Y-76337751D01*
G37*
X315243444Y-76337751D02*
X315413587Y-76346055D01*
X315534134Y-76357565D01*
X315620787Y-76375161D01*
X315689245Y-76401724D01*
X315736397Y-76428215D01*
X315862986Y-76528226D01*
X315940997Y-76648485D01*
X315977770Y-76803611D01*
X315983095Y-76919476D01*
X315959385Y-77131017D01*
X315888240Y-77299434D01*
X315768266Y-77426034D01*
X315598066Y-77512120D01*
X315376247Y-77559000D01*
X315292169Y-77566049D01*
X315036967Y-77580822D01*
X315036967Y-78323332D01*
X314928141Y-78323332D01*
X314847471Y-78317359D01*
X314799024Y-78302852D01*
X314797550Y-78301567D01*
X314791968Y-78264538D01*
X314786915Y-78170626D01*
X314782583Y-78028243D01*
X314779162Y-77845800D01*
X314776843Y-77631708D01*
X314775818Y-77394380D01*
X314775785Y-77342454D01*
X314776222Y-77064449D01*
X314777766Y-76844761D01*
X314780768Y-76676419D01*
X314785270Y-76560350D01*
X315036967Y-76560350D01*
X315036967Y-76946683D01*
X315038708Y-77099408D01*
X315043444Y-77227488D01*
X315050447Y-77317247D01*
X315058732Y-77354780D01*
X315110732Y-77371726D01*
X315204169Y-77375333D01*
X315316704Y-77366263D01*
X315425995Y-77345177D01*
X315431165Y-77343765D01*
X315570097Y-77279575D01*
X315661475Y-77174635D01*
X315709298Y-77023683D01*
X315715686Y-76969417D01*
X315721262Y-76862601D01*
X315709420Y-76793074D01*
X315670791Y-76733330D01*
X315615552Y-76675336D01*
X315551173Y-76614996D01*
X315494898Y-76580577D01*
X315424864Y-76564830D01*
X315319210Y-76560506D01*
X315268767Y-76560350D01*
X315036967Y-76560350D01*
X314785270Y-76560350D01*
X314785577Y-76552448D01*
X314792543Y-76465876D01*
X314802017Y-76409730D01*
X314814349Y-76377036D01*
X314824884Y-76364358D01*
X314873012Y-76345290D01*
X314965239Y-76335310D01*
X315109265Y-76333927D01*
X315243444Y-76337751D01*
G36*
X311788180Y-76312999D02*
G01*
X312001038Y-76367159D01*
X312059756Y-76393918D01*
X312164281Y-76461384D01*
X312216550Y-76537656D01*
X312229255Y-76626389D01*
X312214283Y-76689733D01*
X312166523Y-76703552D01*
X312081715Y-76668071D01*
X312031559Y-76636898D01*
X311893384Y-76568198D01*
X311732735Y-76537843D01*
X311712100Y-76536384D01*
X311522856Y-76549226D01*
X311369377Y-76615587D01*
X311246181Y-76738605D01*
X311186443Y-76837151D01*
X311147859Y-76919455D01*
X311123284Y-76997346D01*
X311109671Y-77089310D01*
X311103975Y-77213833D01*
X311103068Y-77343192D01*
X311105111Y-77507298D01*
X311112867Y-77623736D01*
X311129051Y-77710061D01*
X311156379Y-77783833D01*
X311177842Y-77826734D01*
X311288327Y-77970349D01*
X311434594Y-78067402D01*
X311604399Y-78115567D01*
X311785497Y-78112519D01*
X311965643Y-78055931D01*
X312067612Y-77995717D01*
X312139230Y-77951702D01*
X312191174Y-77931674D01*
X312193485Y-77931559D01*
X312224283Y-77957326D01*
X312229710Y-78020126D01*
X312212815Y-78098206D01*
X312176650Y-78169816D01*
X312156916Y-78192296D01*
X312036241Y-78268294D01*
X311873044Y-78320999D01*
X311686999Y-78346999D01*
X311497776Y-78342887D01*
X311392106Y-78324836D01*
X311204595Y-78248220D01*
X311048665Y-78118930D01*
X310927638Y-77943157D01*
X310844833Y-77727090D01*
X310803572Y-77476918D01*
X310804553Y-77229630D01*
X310846158Y-76977128D01*
X310927271Y-76755108D01*
X311043035Y-76574118D01*
X311155878Y-76467019D01*
X311347739Y-76364373D01*
X311564460Y-76312552D01*
X311788180Y-76312999D01*
G37*
X311788180Y-76312999D02*
X312001038Y-76367159D01*
X312059756Y-76393918D01*
X312164281Y-76461384D01*
X312216550Y-76537656D01*
X312229255Y-76626389D01*
X312214283Y-76689733D01*
X312166523Y-76703552D01*
X312081715Y-76668071D01*
X312031559Y-76636898D01*
X311893384Y-76568198D01*
X311732735Y-76537843D01*
X311712100Y-76536384D01*
X311522856Y-76549226D01*
X311369377Y-76615587D01*
X311246181Y-76738605D01*
X311186443Y-76837151D01*
X311147859Y-76919455D01*
X311123284Y-76997346D01*
X311109671Y-77089310D01*
X311103975Y-77213833D01*
X311103068Y-77343192D01*
X311105111Y-77507298D01*
X311112867Y-77623736D01*
X311129051Y-77710061D01*
X311156379Y-77783833D01*
X311177842Y-77826734D01*
X311288327Y-77970349D01*
X311434594Y-78067402D01*
X311604399Y-78115567D01*
X311785497Y-78112519D01*
X311965643Y-78055931D01*
X312067612Y-77995717D01*
X312139230Y-77951702D01*
X312191174Y-77931674D01*
X312193485Y-77931559D01*
X312224283Y-77957326D01*
X312229710Y-78020126D01*
X312212815Y-78098206D01*
X312176650Y-78169816D01*
X312156916Y-78192296D01*
X312036241Y-78268294D01*
X311873044Y-78320999D01*
X311686999Y-78346999D01*
X311497776Y-78342887D01*
X311392106Y-78324836D01*
X311204595Y-78248220D01*
X311048665Y-78118930D01*
X310927638Y-77943157D01*
X310844833Y-77727090D01*
X310803572Y-77476918D01*
X310804553Y-77229630D01*
X310846158Y-76977128D01*
X310927271Y-76755108D01*
X311043035Y-76574118D01*
X311155878Y-76467019D01*
X311347739Y-76364373D01*
X311564460Y-76312552D01*
X311788180Y-76312999D01*
G36*
X309438414Y-76327190D02*
G01*
X309561485Y-76361336D01*
X309653974Y-76405594D01*
X309696200Y-76450431D01*
X309714066Y-76534803D01*
X309707283Y-76608635D01*
X309687554Y-76638985D01*
X309643895Y-76635956D01*
X309567210Y-76607940D01*
X309533736Y-76591941D01*
X309375807Y-76535291D01*
X309226723Y-76524604D01*
X309097391Y-76556014D01*
X308998717Y-76625657D01*
X308941608Y-76729669D01*
X308931826Y-76805209D01*
X308955215Y-76918037D01*
X309029087Y-77017198D01*
X309158998Y-77108499D01*
X309278414Y-77167394D01*
X309505628Y-77283338D01*
X309668946Y-77401810D01*
X309752314Y-77496889D01*
X309794513Y-77604872D01*
X309812219Y-77745807D01*
X309804740Y-77891840D01*
X309771383Y-78015118D01*
X309765518Y-78027234D01*
X309656144Y-78170809D01*
X309502551Y-78275430D01*
X309315538Y-78337305D01*
X309105905Y-78352643D01*
X308915502Y-78325660D01*
X308798913Y-78287135D01*
X308696765Y-78235633D01*
X308632967Y-78183391D01*
X308630333Y-78179692D01*
X308609024Y-78114213D01*
X308609646Y-78038097D01*
X308631250Y-77985399D01*
X308635844Y-77981860D01*
X308680509Y-77984575D01*
X308758907Y-78012975D01*
X308802602Y-78034035D01*
X308976773Y-78101127D01*
X309144422Y-78123096D01*
X309295565Y-78103226D01*
X309420219Y-78044801D01*
X309508401Y-77951104D01*
X309550127Y-77825418D01*
X309552134Y-77787510D01*
X309530647Y-77698300D01*
X309462663Y-77609130D01*
X309342899Y-77515084D01*
X309166072Y-77411246D01*
X309124111Y-77389241D01*
X308940173Y-77285467D01*
X308811070Y-77188497D01*
X308728595Y-77088135D01*
X308684539Y-76974184D01*
X308670693Y-76836449D01*
X308670643Y-76825970D01*
X308696317Y-76638839D01*
X308772972Y-76492376D01*
X308900055Y-76387147D01*
X309077014Y-76323721D01*
X309173272Y-76308917D01*
X309302948Y-76308076D01*
X309438414Y-76327190D01*
G37*
X309438414Y-76327190D02*
X309561485Y-76361336D01*
X309653974Y-76405594D01*
X309696200Y-76450431D01*
X309714066Y-76534803D01*
X309707283Y-76608635D01*
X309687554Y-76638985D01*
X309643895Y-76635956D01*
X309567210Y-76607940D01*
X309533736Y-76591941D01*
X309375807Y-76535291D01*
X309226723Y-76524604D01*
X309097391Y-76556014D01*
X308998717Y-76625657D01*
X308941608Y-76729669D01*
X308931826Y-76805209D01*
X308955215Y-76918037D01*
X309029087Y-77017198D01*
X309158998Y-77108499D01*
X309278414Y-77167394D01*
X309505628Y-77283338D01*
X309668946Y-77401810D01*
X309752314Y-77496889D01*
X309794513Y-77604872D01*
X309812219Y-77745807D01*
X309804740Y-77891840D01*
X309771383Y-78015118D01*
X309765518Y-78027234D01*
X309656144Y-78170809D01*
X309502551Y-78275430D01*
X309315538Y-78337305D01*
X309105905Y-78352643D01*
X308915502Y-78325660D01*
X308798913Y-78287135D01*
X308696765Y-78235633D01*
X308632967Y-78183391D01*
X308630333Y-78179692D01*
X308609024Y-78114213D01*
X308609646Y-78038097D01*
X308631250Y-77985399D01*
X308635844Y-77981860D01*
X308680509Y-77984575D01*
X308758907Y-78012975D01*
X308802602Y-78034035D01*
X308976773Y-78101127D01*
X309144422Y-78123096D01*
X309295565Y-78103226D01*
X309420219Y-78044801D01*
X309508401Y-77951104D01*
X309550127Y-77825418D01*
X309552134Y-77787510D01*
X309530647Y-77698300D01*
X309462663Y-77609130D01*
X309342899Y-77515084D01*
X309166072Y-77411246D01*
X309124111Y-77389241D01*
X308940173Y-77285467D01*
X308811070Y-77188497D01*
X308728595Y-77088135D01*
X308684539Y-76974184D01*
X308670693Y-76836449D01*
X308670643Y-76825970D01*
X308696317Y-76638839D01*
X308772972Y-76492376D01*
X308900055Y-76387147D01*
X309077014Y-76323721D01*
X309173272Y-76308917D01*
X309302948Y-76308076D01*
X309438414Y-76327190D01*
G36*
X317248857Y-76338007D02*
G01*
X317371286Y-76348139D01*
X317388672Y-78092669D01*
X318122186Y-78111121D01*
X318122186Y-78307008D01*
X317646908Y-78316007D01*
X317476902Y-78317722D01*
X317330602Y-78316355D01*
X317220194Y-78312239D01*
X317157864Y-78305708D01*
X317149029Y-78302404D01*
X317143344Y-78265245D01*
X317138182Y-78171034D01*
X317133732Y-78028014D01*
X317130179Y-77844427D01*
X317127710Y-77628518D01*
X317126512Y-77388528D01*
X317126427Y-77303838D01*
X317126427Y-76327874D01*
X317248857Y-76338007D01*
G37*
X317248857Y-76338007D02*
X317371286Y-76348139D01*
X317388672Y-78092669D01*
X318122186Y-78111121D01*
X318122186Y-78307008D01*
X317646908Y-78316007D01*
X317476902Y-78317722D01*
X317330602Y-78316355D01*
X317220194Y-78312239D01*
X317157864Y-78305708D01*
X317149029Y-78302404D01*
X317143344Y-78265245D01*
X317138182Y-78171034D01*
X317133732Y-78028014D01*
X317130179Y-77844427D01*
X317127710Y-77628518D01*
X317126512Y-77388528D01*
X317126427Y-77303838D01*
X317126427Y-76327874D01*
X317248857Y-76338007D01*
G36*
X319273021Y-76338007D02*
G01*
X319395450Y-76348139D01*
X319395450Y-78307008D01*
X319150592Y-78327274D01*
X319150592Y-76327874D01*
X319273021Y-76338007D01*
G37*
X319273021Y-76338007D02*
X319395450Y-76348139D01*
X319395450Y-78307008D01*
X319150592Y-78327274D01*
X319150592Y-76327874D01*
X319273021Y-76338007D01*
G36*
X322113863Y-77317308D02*
G01*
X322105219Y-78307008D01*
X321990952Y-78316623D01*
X321897395Y-78311606D01*
X321825271Y-78286378D01*
X321821953Y-78283976D01*
X321792291Y-78245172D01*
X321735991Y-78156823D01*
X321657654Y-78026718D01*
X321561886Y-77862648D01*
X321453289Y-77672402D01*
X321336468Y-77463772D01*
X321324650Y-77442449D01*
X320882079Y-76643186D01*
X320873340Y-77475097D01*
X320864602Y-78307008D01*
X320758015Y-78317275D01*
X320651428Y-78327541D01*
X320660071Y-77337840D01*
X320668715Y-76348139D01*
X320820133Y-76338338D01*
X320920923Y-76337779D01*
X320983300Y-76358319D01*
X321032344Y-76407612D01*
X321064493Y-76457601D01*
X321122629Y-76556188D01*
X321201720Y-76694510D01*
X321296738Y-76863706D01*
X321402653Y-77054912D01*
X321484911Y-77205039D01*
X321876684Y-77923391D01*
X321909332Y-76348139D01*
X322015919Y-76337873D01*
X322122507Y-76327607D01*
X322113863Y-77317308D01*
G37*
X322113863Y-77317308D02*
X322105219Y-78307008D01*
X321990952Y-78316623D01*
X321897395Y-78311606D01*
X321825271Y-78286378D01*
X321821953Y-78283976D01*
X321792291Y-78245172D01*
X321735991Y-78156823D01*
X321657654Y-78026718D01*
X321561886Y-77862648D01*
X321453289Y-77672402D01*
X321336468Y-77463772D01*
X321324650Y-77442449D01*
X320882079Y-76643186D01*
X320873340Y-77475097D01*
X320864602Y-78307008D01*
X320758015Y-78317275D01*
X320651428Y-78327541D01*
X320660071Y-77337840D01*
X320668715Y-76348139D01*
X320820133Y-76338338D01*
X320920923Y-76337779D01*
X320983300Y-76358319D01*
X321032344Y-76407612D01*
X321064493Y-76457601D01*
X321122629Y-76556188D01*
X321201720Y-76694510D01*
X321296738Y-76863706D01*
X321402653Y-77054912D01*
X321484911Y-77205039D01*
X321876684Y-77923391D01*
X321909332Y-76348139D01*
X322015919Y-76337873D01*
X322122507Y-76327607D01*
X322113863Y-77317308D01*
G36*
X324128866Y-76332408D02*
G01*
X324264565Y-76334965D01*
X324354873Y-76340654D01*
X324409739Y-76350647D01*
X324439113Y-76366110D01*
X324452945Y-76388214D01*
X324454402Y-76392512D01*
X324460815Y-76471559D01*
X324453109Y-76506779D01*
X324435804Y-76529506D01*
X324397336Y-76544875D01*
X324326956Y-76554237D01*
X324213916Y-76558942D01*
X324047468Y-76560340D01*
X324026722Y-76560350D01*
X323620892Y-76560350D01*
X323630279Y-76862343D01*
X323639666Y-77164335D01*
X323990630Y-77173601D01*
X324341594Y-77182868D01*
X324341594Y-77376546D01*
X323623342Y-77376546D01*
X323623342Y-78092847D01*
X324455862Y-78111121D01*
X324455862Y-78307008D01*
X323948980Y-78315962D01*
X323733525Y-78317987D01*
X323576895Y-78315099D01*
X323472779Y-78306940D01*
X323414866Y-78293151D01*
X323402129Y-78284947D01*
X323389762Y-78240622D01*
X323379489Y-78141345D01*
X323371316Y-77997424D01*
X323365246Y-77819164D01*
X323361284Y-77616874D01*
X323359433Y-77400858D01*
X323359699Y-77181426D01*
X323362085Y-76968882D01*
X323366596Y-76773535D01*
X323373236Y-76605691D01*
X323382008Y-76475656D01*
X323392919Y-76393739D01*
X323401337Y-76370993D01*
X323447592Y-76353605D01*
X323548486Y-76341449D01*
X323707476Y-76334271D01*
X323928018Y-76331819D01*
X323937826Y-76331816D01*
X324128866Y-76332408D01*
G37*
X324128866Y-76332408D02*
X324264565Y-76334965D01*
X324354873Y-76340654D01*
X324409739Y-76350647D01*
X324439113Y-76366110D01*
X324452945Y-76388214D01*
X324454402Y-76392512D01*
X324460815Y-76471559D01*
X324453109Y-76506779D01*
X324435804Y-76529506D01*
X324397336Y-76544875D01*
X324326956Y-76554237D01*
X324213916Y-76558942D01*
X324047468Y-76560340D01*
X324026722Y-76560350D01*
X323620892Y-76560350D01*
X323630279Y-76862343D01*
X323639666Y-77164335D01*
X323990630Y-77173601D01*
X324341594Y-77182868D01*
X324341594Y-77376546D01*
X323623342Y-77376546D01*
X323623342Y-78092847D01*
X324455862Y-78111121D01*
X324455862Y-78307008D01*
X323948980Y-78315962D01*
X323733525Y-78317987D01*
X323576895Y-78315099D01*
X323472779Y-78306940D01*
X323414866Y-78293151D01*
X323402129Y-78284947D01*
X323389762Y-78240622D01*
X323379489Y-78141345D01*
X323371316Y-77997424D01*
X323365246Y-77819164D01*
X323361284Y-77616874D01*
X323359433Y-77400858D01*
X323359699Y-77181426D01*
X323362085Y-76968882D01*
X323366596Y-76773535D01*
X323373236Y-76605691D01*
X323382008Y-76475656D01*
X323392919Y-76393739D01*
X323401337Y-76370993D01*
X323447592Y-76353605D01*
X323548486Y-76341449D01*
X323707476Y-76334271D01*
X323928018Y-76331819D01*
X323937826Y-76331816D01*
X324128866Y-76332408D01*
D15*
X302391250Y-80831250D02*
G75*
G02X302391250Y-74151250I0J3340000D01*
G01*
X324691250Y-74151250D02*
G75*
G02X324691250Y-80831250I0J-3340000D01*
G01*
X302421250Y-74151250D02*
X324701250Y-74151250D01*
X302401250Y-80831250D02*
X324701250Y-80831250D01*
D14*
G36*
X307511646Y-78307008D02*
G01*
X307405316Y-78317256D01*
X307319316Y-78312195D01*
X307282373Y-78284210D01*
X307278412Y-78241525D01*
X307275381Y-78142170D01*
X307273351Y-77994764D01*
X307272390Y-77807927D01*
X307272567Y-77590278D01*
X307273953Y-77350438D01*
X307274436Y-77294529D01*
X307283111Y-76348139D01*
X307511646Y-76348139D01*
X307511646Y-78307008D01*
G37*
X307511646Y-78307008D02*
X307405316Y-78317256D01*
X307319316Y-78312195D01*
X307282373Y-78284210D01*
X307278412Y-78241525D01*
X307275381Y-78142170D01*
X307273351Y-77994764D01*
X307272390Y-77807927D01*
X307272567Y-77590278D01*
X307273953Y-77350438D01*
X307274436Y-77294529D01*
X307283111Y-76348139D01*
X307511646Y-76348139D01*
X307511646Y-78307008D01*
G36*
X313535168Y-78323332D02*
G01*
X313419876Y-78323332D01*
X313338989Y-78312781D01*
X313291381Y-78286903D01*
X313288771Y-78282125D01*
X313285015Y-78239991D01*
X313282170Y-78141162D01*
X313280299Y-77994234D01*
X313279463Y-77807801D01*
X313279725Y-77590458D01*
X313281146Y-77350801D01*
X313281634Y-77294529D01*
X313290309Y-76348139D01*
X313412738Y-76338007D01*
X313535168Y-76327874D01*
X313535168Y-78323332D01*
G37*
X313535168Y-78323332D02*
X313419876Y-78323332D01*
X313338989Y-78312781D01*
X313291381Y-78286903D01*
X313288771Y-78282125D01*
X313285015Y-78239991D01*
X313282170Y-78141162D01*
X313280299Y-77994234D01*
X313279463Y-77807801D01*
X313279725Y-77590458D01*
X313281146Y-77350801D01*
X313281634Y-77294529D01*
X313290309Y-76348139D01*
X313412738Y-76338007D01*
X313535168Y-76327874D01*
X313535168Y-78323332D01*
D12*
X334560968Y-60291022D02*
X325310968Y-60291022D01*
X334410968Y-66951022D02*
X325460968Y-66951022D01*
X325455968Y-58541022D02*
X325460968Y-57781022D01*
X334410968Y-57781022D02*
X325460968Y-57781022D01*
X334410968Y-57781022D02*
X334415968Y-58541022D01*
X329935968Y-60291022D02*
X329935968Y-61561022D01*
D11*
X350810930Y-67769182D02*
G75*
G02X350810930Y-69769182I0J-1000000D01*
G01*
X350810930Y-69769182D02*
X350810930Y-75229182D01*
X350810930Y-75229182D02*
X401730930Y-75229182D01*
X401730930Y-75229182D02*
X401730930Y-62309182D01*
X401730930Y-62309182D02*
X350810930Y-62309182D01*
X350810930Y-62309182D02*
X350810930Y-67769182D01*
X291957250Y-62061750D02*
X291957250Y-65031750D01*
X293957250Y-62051750D02*
X293947250Y-65041750D01*
X291957250Y-65041750D02*
X293947250Y-65041750D01*
X292967250Y-65251750D02*
X292967250Y-64131750D01*
X292967250Y-61791750D02*
X292967250Y-63071750D01*
X291957250Y-62051750D02*
X293957250Y-62051750D01*
X292967250Y-63181750D02*
X293507250Y-64131750D01*
X292957250Y-63191750D02*
X292427250Y-64101750D01*
X292427250Y-64131750D02*
X293507250Y-64131750D01*
X292427250Y-63081750D02*
X293507250Y-63081750D01*
X278019000Y-68634000D02*
X278019000Y-71604000D01*
X280019000Y-68624000D02*
X280009000Y-71614000D01*
X278019000Y-71614000D02*
X280009000Y-71614000D01*
X279029000Y-71824000D02*
X279029000Y-70704000D01*
X279029000Y-68364000D02*
X279029000Y-69644000D01*
X278019000Y-68624000D02*
X280019000Y-68624000D01*
X279029000Y-69754000D02*
X279569000Y-70704000D01*
X279019000Y-69764000D02*
X278489000Y-70674000D01*
X278489000Y-70704000D02*
X279569000Y-70704000D01*
X278489000Y-69654000D02*
X279569000Y-69654000D01*
X305759726Y-64918502D02*
X305759726Y-67888502D01*
X307759726Y-64908502D02*
X307749726Y-67898502D01*
X305759726Y-67898502D02*
X307749726Y-67898502D01*
X306769726Y-68108502D02*
X306769726Y-66988502D01*
X306769726Y-64648502D02*
X306769726Y-65928502D01*
X305759726Y-64908502D02*
X307759726Y-64908502D01*
X306769726Y-66038502D02*
X307309726Y-66988502D01*
X306759726Y-66048502D02*
X306229726Y-66958502D01*
X306229726Y-66988502D02*
X307309726Y-66988502D01*
X306229726Y-65938502D02*
X307309726Y-65938502D01*
X294497250Y-62061750D02*
X294497250Y-65031750D01*
X296497250Y-62051750D02*
X296487250Y-65041750D01*
X294497250Y-65041750D02*
X296487250Y-65041750D01*
X295507250Y-65251750D02*
X295507250Y-64131750D01*
X295507250Y-61791750D02*
X295507250Y-63071750D01*
X294497250Y-62051750D02*
X296497250Y-62051750D01*
X295507250Y-63181750D02*
X296047250Y-64131750D01*
X295497250Y-63191750D02*
X294967250Y-64101750D01*
X294967250Y-64131750D02*
X296047250Y-64131750D01*
X294967250Y-63081750D02*
X296047250Y-63081750D01*
X280654250Y-68538750D02*
X280654250Y-71508750D01*
X282654250Y-68528750D02*
X282644250Y-71518750D01*
X280654250Y-71518750D02*
X282644250Y-71518750D01*
X281664250Y-71728750D02*
X281664250Y-70608750D01*
X281664250Y-68268750D02*
X281664250Y-69548750D01*
X280654250Y-68528750D02*
X282654250Y-68528750D01*
X281664250Y-69658750D02*
X282204250Y-70608750D01*
X281654250Y-69668750D02*
X281124250Y-70578750D01*
X281124250Y-70608750D02*
X282204250Y-70608750D01*
X281124250Y-69558750D02*
X282204250Y-69558750D01*
X297291250Y-63331750D02*
X297291250Y-66301750D01*
X299291250Y-63321750D02*
X299281250Y-66311750D01*
X297291250Y-66311750D02*
X299281250Y-66311750D01*
X298301250Y-66521750D02*
X298301250Y-65401750D01*
X298301250Y-63061750D02*
X298301250Y-64341750D01*
X297291250Y-63321750D02*
X299291250Y-63321750D01*
X298301250Y-64451750D02*
X298841250Y-65401750D01*
X298291250Y-64461750D02*
X297761250Y-65371750D01*
X297761250Y-65401750D02*
X298841250Y-65401750D01*
X297761250Y-64351750D02*
X298841250Y-64351750D01*
X283448250Y-70062750D02*
X283448250Y-73032750D01*
X285448250Y-70052750D02*
X285438250Y-73042750D01*
X283448250Y-73042750D02*
X285438250Y-73042750D01*
X284458250Y-73252750D02*
X284458250Y-72132750D01*
X284458250Y-69792750D02*
X284458250Y-71072750D01*
X283448250Y-70052750D02*
X285448250Y-70052750D01*
X284458250Y-71182750D02*
X284998250Y-72132750D01*
X284448250Y-71192750D02*
X283918250Y-72102750D01*
X283918250Y-72132750D02*
X284998250Y-72132750D01*
X283918250Y-71082750D02*
X284998250Y-71082750D01*
X308553726Y-66058973D02*
X308553726Y-69028973D01*
X310553726Y-66048973D02*
X310543726Y-69038973D01*
X308553726Y-69038973D02*
X310543726Y-69038973D01*
X309563726Y-69248973D02*
X309563726Y-68128973D01*
X309563726Y-65788973D02*
X309563726Y-67068973D01*
X308553726Y-66048973D02*
X310553726Y-66048973D01*
X309563726Y-67178973D02*
X310103726Y-68128973D01*
X309553726Y-67188973D02*
X309023726Y-68098973D01*
X309023726Y-68128973D02*
X310103726Y-68128973D01*
X309023726Y-67078973D02*
X310103726Y-67078973D01*
X300085250Y-64855750D02*
X300085250Y-67825750D01*
X302085250Y-64845750D02*
X302075250Y-67835750D01*
X300085250Y-67835750D02*
X302075250Y-67835750D01*
X301095250Y-68045750D02*
X301095250Y-66925750D01*
X301095250Y-64585750D02*
X301095250Y-65865750D01*
X300085250Y-64845750D02*
X302085250Y-64845750D01*
X301095250Y-65975750D02*
X301635250Y-66925750D01*
X301085250Y-65985750D02*
X300555250Y-66895750D01*
X300555250Y-66925750D02*
X301635250Y-66925750D01*
X300555250Y-65875750D02*
X301635250Y-65875750D01*
X286242250Y-71586750D02*
X286242250Y-74556750D01*
X288242250Y-71576750D02*
X288232250Y-74566750D01*
X286242250Y-74566750D02*
X288232250Y-74566750D01*
X287252250Y-74776750D02*
X287252250Y-73656750D01*
X287252250Y-71316750D02*
X287252250Y-72596750D01*
X286242250Y-71576750D02*
X288242250Y-71576750D01*
X287252250Y-72706750D02*
X287792250Y-73656750D01*
X287242250Y-72716750D02*
X286712250Y-73626750D01*
X286712250Y-73656750D02*
X287792250Y-73656750D01*
X286712250Y-72606750D02*
X287792250Y-72606750D01*
X311388250Y-67522750D02*
X311388250Y-70492750D01*
X313388250Y-67512750D02*
X313378250Y-70502750D01*
X311388250Y-70502750D02*
X313378250Y-70502750D01*
X312398250Y-70712750D02*
X312398250Y-69592750D01*
X312398250Y-67252750D02*
X312398250Y-68532750D01*
X311388250Y-67512750D02*
X313388250Y-67512750D01*
X312398250Y-68642750D02*
X312938250Y-69592750D01*
X312388250Y-68652750D02*
X311858250Y-69562750D01*
X311858250Y-69592750D02*
X312938250Y-69592750D01*
X311858250Y-68542750D02*
X312938250Y-68542750D01*
X302879250Y-66379750D02*
X302879250Y-69349750D01*
X304879250Y-66369750D02*
X304869250Y-69359750D01*
X302879250Y-69359750D02*
X304869250Y-69359750D01*
X303889250Y-69569750D02*
X303889250Y-68449750D01*
X303889250Y-66109750D02*
X303889250Y-67389750D01*
X302879250Y-66369750D02*
X304879250Y-66369750D01*
X303889250Y-67499750D02*
X304429250Y-68449750D01*
X303879250Y-67509750D02*
X303349250Y-68419750D01*
X303349250Y-68449750D02*
X304429250Y-68449750D01*
X303349250Y-67399750D02*
X304429250Y-67399750D01*
X289036250Y-73364750D02*
X289036250Y-76334750D01*
X291036250Y-73354750D02*
X291026250Y-76344750D01*
X289036250Y-76344750D02*
X291026250Y-76344750D01*
X290046250Y-76554750D02*
X290046250Y-75434750D01*
X290046250Y-73094750D02*
X290046250Y-74374750D01*
X289036250Y-73354750D02*
X291036250Y-73354750D01*
X290046250Y-74484750D02*
X290586250Y-75434750D01*
X290036250Y-74494750D02*
X289506250Y-75404750D01*
X289506250Y-75434750D02*
X290586250Y-75434750D01*
X289506250Y-74384750D02*
X290586250Y-74384750D01*
X373954144Y-79680020D02*
X376924144Y-79680020D01*
X373944144Y-77680020D02*
X376934144Y-77690020D01*
X376934144Y-79680020D02*
X376934144Y-77690020D01*
X377144144Y-78670020D02*
X376024144Y-78670020D01*
X373684144Y-78670020D02*
X374964144Y-78670020D01*
X373944144Y-79680020D02*
X373944144Y-77680020D01*
X375074144Y-78670020D02*
X376024144Y-78130020D01*
X375084144Y-78680020D02*
X375994144Y-79210020D01*
X376024144Y-79210020D02*
X376024144Y-78130020D01*
X374974144Y-79210020D02*
X374974144Y-78130020D01*
X378990250Y-59926178D02*
X381960250Y-59926178D01*
X378980250Y-57926178D02*
X381970250Y-57936178D01*
X381970250Y-59926178D02*
X381970250Y-57936178D01*
X382180250Y-58916178D02*
X381060250Y-58916178D01*
X378720250Y-58916178D02*
X380000250Y-58916178D01*
X378980250Y-59926178D02*
X378980250Y-57926178D01*
X380110250Y-58916178D02*
X381060250Y-58376178D01*
X380120250Y-58926178D02*
X381030250Y-59456178D01*
X381060250Y-59456178D02*
X381060250Y-58376178D01*
X380010250Y-59456178D02*
X380010250Y-58376178D01*
X395213612Y-81385040D02*
X395213612Y-80127040D01*
X393373612Y-81385040D02*
X393373612Y-80127040D01*
X380999250Y-80690750D02*
X380999250Y-79432750D01*
X379159250Y-80690750D02*
X379159250Y-79432750D01*
X338985176Y-69654866D02*
G75*
G03X338985176Y-69654866I-2120000J0D01*
G01*
X337705176Y-69654866D02*
X338945176Y-69654866D01*
X334785176Y-69654866D02*
X336025176Y-69654866D01*
X337705176Y-69614866D02*
X338945176Y-69614866D01*
X334785176Y-69614866D02*
X336025176Y-69614866D01*
X337705176Y-69574866D02*
X338944176Y-69574866D01*
X334786176Y-69574866D02*
X336025176Y-69574866D01*
X334788176Y-69534866D02*
X336025176Y-69534866D01*
X337705176Y-69534866D02*
X338942176Y-69534866D01*
X334791176Y-69494866D02*
X336025176Y-69494866D01*
X337705176Y-69494866D02*
X338939176Y-69494866D01*
X334794176Y-69454866D02*
X336025176Y-69454866D01*
X337705176Y-69454866D02*
X338936176Y-69454866D01*
X334798176Y-69414866D02*
X336025176Y-69414866D01*
X337705176Y-69414866D02*
X338932176Y-69414866D01*
X334803176Y-69374866D02*
X336025176Y-69374866D01*
X337705176Y-69374866D02*
X338927176Y-69374866D01*
X334809176Y-69334866D02*
X336025176Y-69334866D01*
X337705176Y-69334866D02*
X338921176Y-69334866D01*
X334815176Y-69294866D02*
X336025176Y-69294866D01*
X337705176Y-69294866D02*
X338915176Y-69294866D01*
X334823176Y-69254866D02*
X336025176Y-69254866D01*
X337705176Y-69254866D02*
X338907176Y-69254866D01*
X334831176Y-69214866D02*
X336025176Y-69214866D01*
X337705176Y-69214866D02*
X338899176Y-69214866D01*
X334840176Y-69174866D02*
X336025176Y-69174866D01*
X337705176Y-69174866D02*
X338890176Y-69174866D01*
X334849176Y-69134866D02*
X336025176Y-69134866D01*
X337705176Y-69134866D02*
X338881176Y-69134866D01*
X334860176Y-69094866D02*
X336025176Y-69094866D01*
X337705176Y-69094866D02*
X338870176Y-69094866D01*
X334871176Y-69054866D02*
X336025176Y-69054866D01*
X337705176Y-69054866D02*
X338859176Y-69054866D01*
X334883176Y-69014866D02*
X336025176Y-69014866D01*
X337705176Y-69014866D02*
X338847176Y-69014866D01*
X334897176Y-68974866D02*
X336025176Y-68974866D01*
X337705176Y-68974866D02*
X338833176Y-68974866D01*
X334911176Y-68933866D02*
X336025176Y-68933866D01*
X337705176Y-68933866D02*
X338819176Y-68933866D01*
X334925176Y-68893866D02*
X336025176Y-68893866D01*
X337705176Y-68893866D02*
X338805176Y-68893866D01*
X334941176Y-68853866D02*
X336025176Y-68853866D01*
X337705176Y-68853866D02*
X338789176Y-68853866D01*
X334958176Y-68813866D02*
X336025176Y-68813866D01*
X337705176Y-68813866D02*
X338772176Y-68813866D01*
X334976176Y-68773866D02*
X336025176Y-68773866D01*
X337705176Y-68773866D02*
X338754176Y-68773866D01*
X334995176Y-68733866D02*
X336025176Y-68733866D01*
X337705176Y-68733866D02*
X338735176Y-68733866D01*
X335014176Y-68693866D02*
X336025176Y-68693866D01*
X337705176Y-68693866D02*
X338716176Y-68693866D01*
X335035176Y-68653866D02*
X336025176Y-68653866D01*
X337705176Y-68653866D02*
X338695176Y-68653866D01*
X335057176Y-68613866D02*
X336025176Y-68613866D01*
X337705176Y-68613866D02*
X338673176Y-68613866D01*
X335080176Y-68573866D02*
X336025176Y-68573866D01*
X337705176Y-68573866D02*
X338650176Y-68573866D01*
X335105176Y-68533866D02*
X336025176Y-68533866D01*
X337705176Y-68533866D02*
X338625176Y-68533866D01*
X335130176Y-68493866D02*
X336025176Y-68493866D01*
X337705176Y-68493866D02*
X338600176Y-68493866D01*
X335157176Y-68453866D02*
X336025176Y-68453866D01*
X337705176Y-68453866D02*
X338573176Y-68453866D01*
X335185176Y-68413866D02*
X336025176Y-68413866D01*
X337705176Y-68413866D02*
X338545176Y-68413866D01*
X335215176Y-68373866D02*
X336025176Y-68373866D01*
X337705176Y-68373866D02*
X338515176Y-68373866D01*
X335246176Y-68333866D02*
X336025176Y-68333866D01*
X337705176Y-68333866D02*
X338484176Y-68333866D01*
X335278176Y-68293866D02*
X336025176Y-68293866D01*
X337705176Y-68293866D02*
X338452176Y-68293866D01*
X335313176Y-68253866D02*
X336025176Y-68253866D01*
X337705176Y-68253866D02*
X338417176Y-68253866D01*
X335349176Y-68213866D02*
X336025176Y-68213866D01*
X337705176Y-68213866D02*
X338381176Y-68213866D01*
X335387176Y-68173866D02*
X336025176Y-68173866D01*
X337705176Y-68173866D02*
X338343176Y-68173866D01*
X335427176Y-68133866D02*
X336025176Y-68133866D01*
X337705176Y-68133866D02*
X338303176Y-68133866D01*
X335469176Y-68093866D02*
X336025176Y-68093866D01*
X337705176Y-68093866D02*
X338261176Y-68093866D01*
X335514176Y-68053866D02*
X338216176Y-68053866D01*
X335561176Y-68013866D02*
X338169176Y-68013866D01*
X335611176Y-67973866D02*
X338119176Y-67973866D01*
X335665176Y-67933866D02*
X338065176Y-67933866D01*
X335723176Y-67893866D02*
X338007176Y-67893866D01*
X335785176Y-67853866D02*
X337945176Y-67853866D01*
X335852176Y-67813866D02*
X337878176Y-67813866D01*
X335925176Y-67773866D02*
X337805176Y-67773866D01*
X336006176Y-67733866D02*
X337724176Y-67733866D01*
X336097176Y-67693866D02*
X337633176Y-67693866D01*
X336201176Y-67653866D02*
X337529176Y-67653866D01*
X336328176Y-67613866D02*
X337402176Y-67613866D01*
X336495176Y-67573866D02*
X337235176Y-67573866D01*
X335670176Y-71924667D02*
X335670176Y-71524667D01*
X335470176Y-71724667D02*
X335870176Y-71724667D01*
D16*
X417978750Y-69711250D02*
X417178750Y-69711250D01*
X417178750Y-69711250D02*
X417178750Y-72261250D01*
X417178750Y-72261250D02*
X417978750Y-72261250D01*
D17*
X417988750Y-74771250D02*
X417988750Y-67151250D01*
X423068750Y-67151250D02*
X423068750Y-74771250D01*
X423068750Y-74771250D02*
X417988750Y-74771250D01*
X417988750Y-67151250D02*
X423068750Y-67151250D01*
D11*
X390399144Y-82781240D02*
X383999144Y-82781240D01*
X390399144Y-77731240D02*
X383999144Y-77731240D01*
X390399144Y-77731240D02*
G75*
G02X390399144Y-82781240I0J-2525000D01*
G01*
X383999144Y-77731240D02*
G75*
G03X383999144Y-82781240I0J-2525000D01*
G01*
X346873816Y-76565517D02*
X346873816Y-74725517D01*
X346873816Y-74725517D02*
X343033816Y-74725517D01*
X343033816Y-74725517D02*
X343033816Y-76565517D01*
X343033816Y-76565517D02*
X346873816Y-76565517D01*
X347823816Y-75645517D02*
X346873816Y-75645517D01*
X342083816Y-75645517D02*
X343033816Y-75645517D01*
X346873816Y-74072052D02*
X346873816Y-72232052D01*
X346873816Y-72232052D02*
X343033816Y-72232052D01*
X343033816Y-72232052D02*
X343033816Y-74072052D01*
X343033816Y-74072052D02*
X346873816Y-74072052D01*
X347823816Y-73152052D02*
X346873816Y-73152052D01*
X342083816Y-73152052D02*
X343033816Y-73152052D01*
X346873816Y-79058982D02*
X346873816Y-77218982D01*
X346873816Y-77218982D02*
X343033816Y-77218982D01*
X343033816Y-77218982D02*
X343033816Y-79058982D01*
X343033816Y-79058982D02*
X346873816Y-79058982D01*
X347823816Y-78138982D02*
X346873816Y-78138982D01*
X342083816Y-78138982D02*
X343033816Y-78138982D01*
X343033816Y-69660211D02*
X343033816Y-71500211D01*
X343033816Y-71500211D02*
X346873816Y-71500211D01*
X346873816Y-71500211D02*
X346873816Y-69660211D01*
X346873816Y-69660211D02*
X343033816Y-69660211D01*
X342083816Y-70580211D02*
X343033816Y-70580211D01*
X347823816Y-70580211D02*
X346873816Y-70580211D01*
X343033816Y-67140499D02*
X343033816Y-68980499D01*
X343033816Y-68980499D02*
X346873816Y-68980499D01*
X346873816Y-68980499D02*
X346873816Y-67140499D01*
X346873816Y-67140499D02*
X343033816Y-67140499D01*
X342083816Y-68060499D02*
X343033816Y-68060499D01*
X347823816Y-68060499D02*
X346873816Y-68060499D01*
X343033816Y-64647034D02*
X343033816Y-66487034D01*
X343033816Y-66487034D02*
X346873816Y-66487034D01*
X346873816Y-66487034D02*
X346873816Y-64647034D01*
X346873816Y-64647034D02*
X343033816Y-64647034D01*
X342083816Y-65567034D02*
X343033816Y-65567034D01*
X347823816Y-65567034D02*
X346873816Y-65567034D01*
X346873816Y-63993204D02*
X346873816Y-62153204D01*
X346873816Y-62153204D02*
X343033816Y-62153204D01*
X343033816Y-62153204D02*
X343033816Y-63993204D01*
X343033816Y-63993204D02*
X346873816Y-63993204D01*
X347823816Y-63073204D02*
X346873816Y-63073204D01*
X342083816Y-63073204D02*
X343033816Y-63073204D01*
X336225216Y-63050830D02*
X336225216Y-63206830D01*
X336225216Y-60734830D02*
X336225216Y-60890830D01*
X338826346Y-63050667D02*
G75*
G02X336744255Y-63050830I-1041130J1079837D01*
G01*
X338826346Y-60890993D02*
G75*
G03X336744255Y-60890830I-1041130J-1079837D01*
G01*
X339457551Y-63049438D02*
G75*
G02X336225216Y-63206346I-1672335J1078608D01*
G01*
X339457551Y-60892222D02*
G75*
G03X336225216Y-60735314I-1672335J-1078608D01*
G01*
X410238926Y-80770732D02*
X411738926Y-80770732D01*
X414238926Y-79520732D02*
X414238926Y-75020732D01*
X411738926Y-73770732D02*
X410238926Y-73770732D01*
X407738926Y-75020732D02*
X407738926Y-79520732D01*
X410238926Y-68770732D02*
X411738926Y-68770732D01*
X414238926Y-67520732D02*
X414238926Y-63020732D01*
X411738926Y-61770732D02*
X410238926Y-61770732D01*
X407738926Y-63020732D02*
X407738926Y-67520732D01*
X62600284Y-68545612D02*
X62600284Y-71515612D01*
X64600284Y-68535612D02*
X64590284Y-71525612D01*
X62600284Y-71525612D02*
X64590284Y-71525612D01*
X63610284Y-71735612D02*
X63610284Y-70615612D01*
X63610284Y-68275612D02*
X63610284Y-69555612D01*
X62600284Y-68535612D02*
X64600284Y-68535612D01*
X63610284Y-69665612D02*
X64150284Y-70615612D01*
X63600284Y-69675612D02*
X63070284Y-70585612D01*
X63070284Y-70615612D02*
X64150284Y-70615612D01*
X63070284Y-69565612D02*
X64150284Y-69565612D01*
X72108673Y-73506199D02*
X72108673Y-76476199D01*
X74108673Y-73496199D02*
X74098673Y-76486199D01*
X72108673Y-76486199D02*
X74098673Y-76486199D01*
X73118673Y-76696199D02*
X73118673Y-75576199D01*
X73118673Y-73236199D02*
X73118673Y-74516199D01*
X72108673Y-73496199D02*
X74108673Y-73496199D01*
X73118673Y-74626199D02*
X73658673Y-75576199D01*
X73108673Y-74636199D02*
X72578673Y-75546199D01*
X72578673Y-75576199D02*
X73658673Y-75576199D01*
X72578673Y-74526199D02*
X73658673Y-74526199D01*
X84786525Y-73506199D02*
X84786525Y-76476199D01*
X86786525Y-73496199D02*
X86776525Y-76486199D01*
X84786525Y-76486199D02*
X86776525Y-76486199D01*
X85796525Y-76696199D02*
X85796525Y-75576199D01*
X85796525Y-73236199D02*
X85796525Y-74516199D01*
X84786525Y-73496199D02*
X86786525Y-73496199D01*
X85796525Y-74626199D02*
X86336525Y-75576199D01*
X85786525Y-74636199D02*
X85256525Y-75546199D01*
X85256525Y-75576199D02*
X86336525Y-75576199D01*
X85256525Y-74526199D02*
X86336525Y-74526199D01*
X87955988Y-68545612D02*
X87955988Y-71515612D01*
X89955988Y-68535612D02*
X89945988Y-71525612D01*
X87955988Y-71525612D02*
X89945988Y-71525612D01*
X88965988Y-71735612D02*
X88965988Y-70615612D01*
X88965988Y-68275612D02*
X88965988Y-69555612D01*
X87955988Y-68535612D02*
X89955988Y-68535612D01*
X88965988Y-69665612D02*
X89505988Y-70615612D01*
X88955988Y-69675612D02*
X88425988Y-70585612D01*
X88425988Y-70615612D02*
X89505988Y-70615612D01*
X88425988Y-69565612D02*
X89505988Y-69565612D01*
X100633840Y-68545612D02*
X100633840Y-71515612D01*
X102633840Y-68535612D02*
X102623840Y-71525612D01*
X100633840Y-71525612D02*
X102623840Y-71525612D01*
X101643840Y-71735612D02*
X101643840Y-70615612D01*
X101643840Y-68275612D02*
X101643840Y-69555612D01*
X100633840Y-68535612D02*
X102633840Y-68535612D01*
X101643840Y-69665612D02*
X102183840Y-70615612D01*
X101633840Y-69675612D02*
X101103840Y-70585612D01*
X101103840Y-70615612D02*
X102183840Y-70615612D01*
X101103840Y-69565612D02*
X102183840Y-69565612D01*
X113311692Y-68545612D02*
X113311692Y-71515612D01*
X115311692Y-68535612D02*
X115301692Y-71525612D01*
X113311692Y-71525612D02*
X115301692Y-71525612D01*
X114321692Y-71735612D02*
X114321692Y-70615612D01*
X114321692Y-68275612D02*
X114321692Y-69555612D01*
X113311692Y-68535612D02*
X115311692Y-68535612D01*
X114321692Y-69665612D02*
X114861692Y-70615612D01*
X114311692Y-69675612D02*
X113781692Y-70585612D01*
X113781692Y-70615612D02*
X114861692Y-70615612D01*
X113781692Y-69565612D02*
X114861692Y-69565612D01*
X125989544Y-68545612D02*
X125989544Y-71515612D01*
X127989544Y-68535612D02*
X127979544Y-71525612D01*
X125989544Y-71525612D02*
X127979544Y-71525612D01*
X126999544Y-71735612D02*
X126999544Y-70615612D01*
X126999544Y-68275612D02*
X126999544Y-69555612D01*
X125989544Y-68535612D02*
X127989544Y-68535612D01*
X126999544Y-69665612D02*
X127539544Y-70615612D01*
X126989544Y-69675612D02*
X126459544Y-70585612D01*
X126459544Y-70615612D02*
X127539544Y-70615612D01*
X126459544Y-69565612D02*
X127539544Y-69565612D01*
X138667396Y-68545612D02*
X138667396Y-71515612D01*
X140667396Y-68535612D02*
X140657396Y-71525612D01*
X138667396Y-71525612D02*
X140657396Y-71525612D01*
X139677396Y-71735612D02*
X139677396Y-70615612D01*
X139677396Y-68275612D02*
X139677396Y-69555612D01*
X138667396Y-68535612D02*
X140667396Y-68535612D01*
X139677396Y-69665612D02*
X140217396Y-70615612D01*
X139667396Y-69675612D02*
X139137396Y-70585612D01*
X139137396Y-70615612D02*
X140217396Y-70615612D01*
X139137396Y-69565612D02*
X140217396Y-69565612D01*
X151345248Y-68545612D02*
X151345248Y-71515612D01*
X153345248Y-68535612D02*
X153335248Y-71525612D01*
X151345248Y-71525612D02*
X153335248Y-71525612D01*
X152355248Y-71735612D02*
X152355248Y-70615612D01*
X152355248Y-68275612D02*
X152355248Y-69555612D01*
X151345248Y-68535612D02*
X153345248Y-68535612D01*
X152355248Y-69665612D02*
X152895248Y-70615612D01*
X152345248Y-69675612D02*
X151815248Y-70585612D01*
X151815248Y-70615612D02*
X152895248Y-70615612D01*
X151815248Y-69565612D02*
X152895248Y-69565612D01*
X164023100Y-68545612D02*
X164023100Y-71515612D01*
X166023100Y-68535612D02*
X166013100Y-71525612D01*
X164023100Y-71525612D02*
X166013100Y-71525612D01*
X165033100Y-71735612D02*
X165033100Y-70615612D01*
X165033100Y-68275612D02*
X165033100Y-69555612D01*
X164023100Y-68535612D02*
X166023100Y-68535612D01*
X165033100Y-69665612D02*
X165573100Y-70615612D01*
X165023100Y-69675612D02*
X164493100Y-70585612D01*
X164493100Y-70615612D02*
X165573100Y-70615612D01*
X164493100Y-69565612D02*
X165573100Y-69565612D01*
X176700952Y-68545612D02*
X176700952Y-71515612D01*
X178700952Y-68535612D02*
X178690952Y-71525612D01*
X176700952Y-71525612D02*
X178690952Y-71525612D01*
X177710952Y-71735612D02*
X177710952Y-70615612D01*
X177710952Y-68275612D02*
X177710952Y-69555612D01*
X176700952Y-68535612D02*
X178700952Y-68535612D01*
X177710952Y-69665612D02*
X178250952Y-70615612D01*
X177700952Y-69675612D02*
X177170952Y-70585612D01*
X177170952Y-70615612D02*
X178250952Y-70615612D01*
X177170952Y-69565612D02*
X178250952Y-69565612D01*
X189378804Y-68545612D02*
X189378804Y-71515612D01*
X191378804Y-68535612D02*
X191368804Y-71525612D01*
X189378804Y-71525612D02*
X191368804Y-71525612D01*
X190388804Y-71735612D02*
X190388804Y-70615612D01*
X190388804Y-68275612D02*
X190388804Y-69555612D01*
X189378804Y-68535612D02*
X191378804Y-68535612D01*
X190388804Y-69665612D02*
X190928804Y-70615612D01*
X190378804Y-69675612D02*
X189848804Y-70585612D01*
X189848804Y-70615612D02*
X190928804Y-70615612D01*
X189848804Y-69565612D02*
X190928804Y-69565612D01*
X202056656Y-68545612D02*
X202056656Y-71515612D01*
X204056656Y-68535612D02*
X204046656Y-71525612D01*
X202056656Y-71525612D02*
X204046656Y-71525612D01*
X203066656Y-71735612D02*
X203066656Y-70615612D01*
X203066656Y-68275612D02*
X203066656Y-69555612D01*
X202056656Y-68535612D02*
X204056656Y-68535612D01*
X203066656Y-69665612D02*
X203606656Y-70615612D01*
X203056656Y-69675612D02*
X202526656Y-70585612D01*
X202526656Y-70615612D02*
X203606656Y-70615612D01*
X202526656Y-69565612D02*
X203606656Y-69565612D01*
X214734508Y-68545612D02*
X214734508Y-71515612D01*
X216734508Y-68535612D02*
X216724508Y-71525612D01*
X214734508Y-71525612D02*
X216724508Y-71525612D01*
X215744508Y-71735612D02*
X215744508Y-70615612D01*
X215744508Y-68275612D02*
X215744508Y-69555612D01*
X214734508Y-68535612D02*
X216734508Y-68535612D01*
X215744508Y-69665612D02*
X216284508Y-70615612D01*
X215734508Y-69675612D02*
X215204508Y-70585612D01*
X215204508Y-70615612D02*
X216284508Y-70615612D01*
X215204508Y-69565612D02*
X216284508Y-69565612D01*
X227342376Y-68545612D02*
X227342376Y-71515612D01*
X229342376Y-68535612D02*
X229332376Y-71525612D01*
X227342376Y-71525612D02*
X229332376Y-71525612D01*
X228352376Y-71735612D02*
X228352376Y-70615612D01*
X228352376Y-68275612D02*
X228352376Y-69555612D01*
X227342376Y-68535612D02*
X229342376Y-68535612D01*
X228352376Y-69665612D02*
X228892376Y-70615612D01*
X228342376Y-69675612D02*
X227812376Y-70585612D01*
X227812376Y-70615612D02*
X228892376Y-70615612D01*
X227812376Y-69565612D02*
X228892376Y-69565612D01*
X274541929Y-73506199D02*
X274541929Y-76476199D01*
X276541929Y-73496199D02*
X276531929Y-76486199D01*
X274541929Y-76486199D02*
X276531929Y-76486199D01*
X275551929Y-76696199D02*
X275551929Y-75576199D01*
X275551929Y-73236199D02*
X275551929Y-74516199D01*
X274541929Y-73496199D02*
X276541929Y-73496199D01*
X275551929Y-74626199D02*
X276091929Y-75576199D01*
X275541929Y-74636199D02*
X275011929Y-75546199D01*
X275011929Y-75576199D02*
X276091929Y-75576199D01*
X275011929Y-74526199D02*
X276091929Y-74526199D01*
X65769747Y-70199141D02*
X65769747Y-73169141D01*
X67769747Y-70189141D02*
X67759747Y-73179141D01*
X65769747Y-73179141D02*
X67759747Y-73179141D01*
X66779747Y-73389141D02*
X66779747Y-72269141D01*
X66779747Y-69929141D02*
X66779747Y-71209141D01*
X65769747Y-70189141D02*
X67769747Y-70189141D01*
X66779747Y-71319141D02*
X67319747Y-72269141D01*
X66769747Y-71329141D02*
X66239747Y-72239141D01*
X66239747Y-72269141D02*
X67319747Y-72269141D01*
X66239747Y-71219141D02*
X67319747Y-71219141D01*
X81617062Y-71852670D02*
X81617062Y-74822670D01*
X83617062Y-71842670D02*
X83607062Y-74832670D01*
X81617062Y-74832670D02*
X83607062Y-74832670D01*
X82627062Y-75042670D02*
X82627062Y-73922670D01*
X82627062Y-71582670D02*
X82627062Y-72862670D01*
X81617062Y-71842670D02*
X83617062Y-71842670D01*
X82627062Y-72972670D02*
X83167062Y-73922670D01*
X82617062Y-72982670D02*
X82087062Y-73892670D01*
X82087062Y-73922670D02*
X83167062Y-73922670D01*
X82087062Y-72872670D02*
X83167062Y-72872670D01*
X91125451Y-70199141D02*
X91125451Y-73169141D01*
X93125451Y-70189141D02*
X93115451Y-73179141D01*
X91125451Y-73179141D02*
X93115451Y-73179141D01*
X92135451Y-73389141D02*
X92135451Y-72269141D01*
X92135451Y-69929141D02*
X92135451Y-71209141D01*
X91125451Y-70189141D02*
X93125451Y-70189141D01*
X92135451Y-71319141D02*
X92675451Y-72269141D01*
X92125451Y-71329141D02*
X91595451Y-72239141D01*
X91595451Y-72269141D02*
X92675451Y-72269141D01*
X91595451Y-71219141D02*
X92675451Y-71219141D01*
X103803303Y-70199141D02*
X103803303Y-73169141D01*
X105803303Y-70189141D02*
X105793303Y-73179141D01*
X103803303Y-73179141D02*
X105793303Y-73179141D01*
X104813303Y-73389141D02*
X104813303Y-72269141D01*
X104813303Y-69929141D02*
X104813303Y-71209141D01*
X103803303Y-70189141D02*
X105803303Y-70189141D01*
X104813303Y-71319141D02*
X105353303Y-72269141D01*
X104803303Y-71329141D02*
X104273303Y-72239141D01*
X104273303Y-72269141D02*
X105353303Y-72269141D01*
X104273303Y-71219141D02*
X105353303Y-71219141D01*
X116481155Y-70199141D02*
X116481155Y-73169141D01*
X118481155Y-70189141D02*
X118471155Y-73179141D01*
X116481155Y-73179141D02*
X118471155Y-73179141D01*
X117491155Y-73389141D02*
X117491155Y-72269141D01*
X117491155Y-69929141D02*
X117491155Y-71209141D01*
X116481155Y-70189141D02*
X118481155Y-70189141D01*
X117491155Y-71319141D02*
X118031155Y-72269141D01*
X117481155Y-71329141D02*
X116951155Y-72239141D01*
X116951155Y-72269141D02*
X118031155Y-72269141D01*
X116951155Y-71219141D02*
X118031155Y-71219141D01*
X129159007Y-70199141D02*
X129159007Y-73169141D01*
X131159007Y-70189141D02*
X131149007Y-73179141D01*
X129159007Y-73179141D02*
X131149007Y-73179141D01*
X130169007Y-73389141D02*
X130169007Y-72269141D01*
X130169007Y-69929141D02*
X130169007Y-71209141D01*
X129159007Y-70189141D02*
X131159007Y-70189141D01*
X130169007Y-71319141D02*
X130709007Y-72269141D01*
X130159007Y-71329141D02*
X129629007Y-72239141D01*
X129629007Y-72269141D02*
X130709007Y-72269141D01*
X129629007Y-71219141D02*
X130709007Y-71219141D01*
X141836859Y-70199141D02*
X141836859Y-73169141D01*
X143836859Y-70189141D02*
X143826859Y-73179141D01*
X141836859Y-73179141D02*
X143826859Y-73179141D01*
X142846859Y-73389141D02*
X142846859Y-72269141D01*
X142846859Y-69929141D02*
X142846859Y-71209141D01*
X141836859Y-70189141D02*
X143836859Y-70189141D01*
X142846859Y-71319141D02*
X143386859Y-72269141D01*
X142836859Y-71329141D02*
X142306859Y-72239141D01*
X142306859Y-72269141D02*
X143386859Y-72269141D01*
X142306859Y-71219141D02*
X143386859Y-71219141D01*
X154514711Y-70199141D02*
X154514711Y-73169141D01*
X156514711Y-70189141D02*
X156504711Y-73179141D01*
X154514711Y-73179141D02*
X156504711Y-73179141D01*
X155524711Y-73389141D02*
X155524711Y-72269141D01*
X155524711Y-69929141D02*
X155524711Y-71209141D01*
X154514711Y-70189141D02*
X156514711Y-70189141D01*
X155524711Y-71319141D02*
X156064711Y-72269141D01*
X155514711Y-71329141D02*
X154984711Y-72239141D01*
X154984711Y-72269141D02*
X156064711Y-72269141D01*
X154984711Y-71219141D02*
X156064711Y-71219141D01*
X167192563Y-70199141D02*
X167192563Y-73169141D01*
X169192563Y-70189141D02*
X169182563Y-73179141D01*
X167192563Y-73179141D02*
X169182563Y-73179141D01*
X168202563Y-73389141D02*
X168202563Y-72269141D01*
X168202563Y-69929141D02*
X168202563Y-71209141D01*
X167192563Y-70189141D02*
X169192563Y-70189141D01*
X168202563Y-71319141D02*
X168742563Y-72269141D01*
X168192563Y-71329141D02*
X167662563Y-72239141D01*
X167662563Y-72269141D02*
X168742563Y-72269141D01*
X167662563Y-71219141D02*
X168742563Y-71219141D01*
X179870415Y-70199141D02*
X179870415Y-73169141D01*
X181870415Y-70189141D02*
X181860415Y-73179141D01*
X179870415Y-73179141D02*
X181860415Y-73179141D01*
X180880415Y-73389141D02*
X180880415Y-72269141D01*
X180880415Y-69929141D02*
X180880415Y-71209141D01*
X179870415Y-70189141D02*
X181870415Y-70189141D01*
X180880415Y-71319141D02*
X181420415Y-72269141D01*
X180870415Y-71329141D02*
X180340415Y-72239141D01*
X180340415Y-72269141D02*
X181420415Y-72269141D01*
X180340415Y-71219141D02*
X181420415Y-71219141D01*
X192548267Y-70199141D02*
X192548267Y-73169141D01*
X194548267Y-70189141D02*
X194538267Y-73179141D01*
X192548267Y-73179141D02*
X194538267Y-73179141D01*
X193558267Y-73389141D02*
X193558267Y-72269141D01*
X193558267Y-69929141D02*
X193558267Y-71209141D01*
X192548267Y-70189141D02*
X194548267Y-70189141D01*
X193558267Y-71319141D02*
X194098267Y-72269141D01*
X193548267Y-71329141D02*
X193018267Y-72239141D01*
X193018267Y-72269141D02*
X194098267Y-72269141D01*
X193018267Y-71219141D02*
X194098267Y-71219141D01*
X205226119Y-70199141D02*
X205226119Y-73169141D01*
X207226119Y-70189141D02*
X207216119Y-73179141D01*
X205226119Y-73179141D02*
X207216119Y-73179141D01*
X206236119Y-73389141D02*
X206236119Y-72269141D01*
X206236119Y-69929141D02*
X206236119Y-71209141D01*
X205226119Y-70189141D02*
X207226119Y-70189141D01*
X206236119Y-71319141D02*
X206776119Y-72269141D01*
X206226119Y-71329141D02*
X205696119Y-72239141D01*
X205696119Y-72269141D02*
X206776119Y-72269141D01*
X205696119Y-71219141D02*
X206776119Y-71219141D01*
X217886475Y-70199141D02*
X217886475Y-73169141D01*
X219886475Y-70189141D02*
X219876475Y-73179141D01*
X217886475Y-73179141D02*
X219876475Y-73179141D01*
X218896475Y-73389141D02*
X218896475Y-72269141D01*
X218896475Y-69929141D02*
X218896475Y-71209141D01*
X217886475Y-70189141D02*
X219886475Y-70189141D01*
X218896475Y-71319141D02*
X219436475Y-72269141D01*
X218886475Y-71329141D02*
X218356475Y-72239141D01*
X218356475Y-72269141D02*
X219436475Y-72269141D01*
X218356475Y-71219141D02*
X219436475Y-71219141D01*
X230493149Y-70199141D02*
X230493149Y-73169141D01*
X232493149Y-70189141D02*
X232483149Y-73179141D01*
X230493149Y-73179141D02*
X232483149Y-73179141D01*
X231503149Y-73389141D02*
X231503149Y-72269141D01*
X231503149Y-69929141D02*
X231503149Y-71209141D01*
X230493149Y-70189141D02*
X232493149Y-70189141D01*
X231503149Y-71319141D02*
X232043149Y-72269141D01*
X231493149Y-71329141D02*
X230963149Y-72239141D01*
X230963149Y-72269141D02*
X232043149Y-72269141D01*
X230963149Y-71219141D02*
X232043149Y-71219141D01*
X271453205Y-71852670D02*
X271453205Y-74822670D01*
X273453205Y-71842670D02*
X273443205Y-74832670D01*
X271453205Y-74832670D02*
X273443205Y-74832670D01*
X272463205Y-75042670D02*
X272463205Y-73922670D01*
X272463205Y-71582670D02*
X272463205Y-72862670D01*
X271453205Y-71842670D02*
X273453205Y-71842670D01*
X272463205Y-72972670D02*
X273003205Y-73922670D01*
X272453205Y-72982670D02*
X271923205Y-73892670D01*
X271923205Y-73922670D02*
X273003205Y-73922670D01*
X271923205Y-72872670D02*
X273003205Y-72872670D01*
X68939210Y-71852670D02*
X68939210Y-74822670D01*
X70939210Y-71842670D02*
X70929210Y-74832670D01*
X68939210Y-74832670D02*
X70929210Y-74832670D01*
X69949210Y-75042670D02*
X69949210Y-73922670D01*
X69949210Y-71582670D02*
X69949210Y-72862670D01*
X68939210Y-71842670D02*
X70939210Y-71842670D01*
X69949210Y-72972670D02*
X70489210Y-73922670D01*
X69939210Y-72982670D02*
X69409210Y-73892670D01*
X69409210Y-73922670D02*
X70489210Y-73922670D01*
X69409210Y-72872670D02*
X70489210Y-72872670D01*
X78447599Y-70199141D02*
X78447599Y-73169141D01*
X80447599Y-70189141D02*
X80437599Y-73179141D01*
X78447599Y-73179141D02*
X80437599Y-73179141D01*
X79457599Y-73389141D02*
X79457599Y-72269141D01*
X79457599Y-69929141D02*
X79457599Y-71209141D01*
X78447599Y-70189141D02*
X80447599Y-70189141D01*
X79457599Y-71319141D02*
X79997599Y-72269141D01*
X79447599Y-71329141D02*
X78917599Y-72239141D01*
X78917599Y-72269141D02*
X79997599Y-72269141D01*
X78917599Y-71219141D02*
X79997599Y-71219141D01*
X94294914Y-71852670D02*
X94294914Y-74822670D01*
X96294914Y-71842670D02*
X96284914Y-74832670D01*
X94294914Y-74832670D02*
X96284914Y-74832670D01*
X95304914Y-75042670D02*
X95304914Y-73922670D01*
X95304914Y-71582670D02*
X95304914Y-72862670D01*
X94294914Y-71842670D02*
X96294914Y-71842670D01*
X95304914Y-72972670D02*
X95844914Y-73922670D01*
X95294914Y-72982670D02*
X94764914Y-73892670D01*
X94764914Y-73922670D02*
X95844914Y-73922670D01*
X94764914Y-72872670D02*
X95844914Y-72872670D01*
X106972766Y-71852670D02*
X106972766Y-74822670D01*
X108972766Y-71842670D02*
X108962766Y-74832670D01*
X106972766Y-74832670D02*
X108962766Y-74832670D01*
X107982766Y-75042670D02*
X107982766Y-73922670D01*
X107982766Y-71582670D02*
X107982766Y-72862670D01*
X106972766Y-71842670D02*
X108972766Y-71842670D01*
X107982766Y-72972670D02*
X108522766Y-73922670D01*
X107972766Y-72982670D02*
X107442766Y-73892670D01*
X107442766Y-73922670D02*
X108522766Y-73922670D01*
X107442766Y-72872670D02*
X108522766Y-72872670D01*
X119650618Y-71852670D02*
X119650618Y-74822670D01*
X121650618Y-71842670D02*
X121640618Y-74832670D01*
X119650618Y-74832670D02*
X121640618Y-74832670D01*
X120660618Y-75042670D02*
X120660618Y-73922670D01*
X120660618Y-71582670D02*
X120660618Y-72862670D01*
X119650618Y-71842670D02*
X121650618Y-71842670D01*
X120660618Y-72972670D02*
X121200618Y-73922670D01*
X120650618Y-72982670D02*
X120120618Y-73892670D01*
X120120618Y-73922670D02*
X121200618Y-73922670D01*
X120120618Y-72872670D02*
X121200618Y-72872670D01*
X132328470Y-71852670D02*
X132328470Y-74822670D01*
X134328470Y-71842670D02*
X134318470Y-74832670D01*
X132328470Y-74832670D02*
X134318470Y-74832670D01*
X133338470Y-75042670D02*
X133338470Y-73922670D01*
X133338470Y-71582670D02*
X133338470Y-72862670D01*
X132328470Y-71842670D02*
X134328470Y-71842670D01*
X133338470Y-72972670D02*
X133878470Y-73922670D01*
X133328470Y-72982670D02*
X132798470Y-73892670D01*
X132798470Y-73922670D02*
X133878470Y-73922670D01*
X132798470Y-72872670D02*
X133878470Y-72872670D01*
X145006322Y-71852670D02*
X145006322Y-74822670D01*
X147006322Y-71842670D02*
X146996322Y-74832670D01*
X145006322Y-74832670D02*
X146996322Y-74832670D01*
X146016322Y-75042670D02*
X146016322Y-73922670D01*
X146016322Y-71582670D02*
X146016322Y-72862670D01*
X145006322Y-71842670D02*
X147006322Y-71842670D01*
X146016322Y-72972670D02*
X146556322Y-73922670D01*
X146006322Y-72982670D02*
X145476322Y-73892670D01*
X145476322Y-73922670D02*
X146556322Y-73922670D01*
X145476322Y-72872670D02*
X146556322Y-72872670D01*
X157684174Y-71852670D02*
X157684174Y-74822670D01*
X159684174Y-71842670D02*
X159674174Y-74832670D01*
X157684174Y-74832670D02*
X159674174Y-74832670D01*
X158694174Y-75042670D02*
X158694174Y-73922670D01*
X158694174Y-71582670D02*
X158694174Y-72862670D01*
X157684174Y-71842670D02*
X159684174Y-71842670D01*
X158694174Y-72972670D02*
X159234174Y-73922670D01*
X158684174Y-72982670D02*
X158154174Y-73892670D01*
X158154174Y-73922670D02*
X159234174Y-73922670D01*
X158154174Y-72872670D02*
X159234174Y-72872670D01*
X170362026Y-71852670D02*
X170362026Y-74822670D01*
X172362026Y-71842670D02*
X172352026Y-74832670D01*
X170362026Y-74832670D02*
X172352026Y-74832670D01*
X171372026Y-75042670D02*
X171372026Y-73922670D01*
X171372026Y-71582670D02*
X171372026Y-72862670D01*
X170362026Y-71842670D02*
X172362026Y-71842670D01*
X171372026Y-72972670D02*
X171912026Y-73922670D01*
X171362026Y-72982670D02*
X170832026Y-73892670D01*
X170832026Y-73922670D02*
X171912026Y-73922670D01*
X170832026Y-72872670D02*
X171912026Y-72872670D01*
X183039878Y-71852670D02*
X183039878Y-74822670D01*
X185039878Y-71842670D02*
X185029878Y-74832670D01*
X183039878Y-74832670D02*
X185029878Y-74832670D01*
X184049878Y-75042670D02*
X184049878Y-73922670D01*
X184049878Y-71582670D02*
X184049878Y-72862670D01*
X183039878Y-71842670D02*
X185039878Y-71842670D01*
X184049878Y-72972670D02*
X184589878Y-73922670D01*
X184039878Y-72982670D02*
X183509878Y-73892670D01*
X183509878Y-73922670D02*
X184589878Y-73922670D01*
X183509878Y-72872670D02*
X184589878Y-72872670D01*
X195717730Y-71852670D02*
X195717730Y-74822670D01*
X197717730Y-71842670D02*
X197707730Y-74832670D01*
X195717730Y-74832670D02*
X197707730Y-74832670D01*
X196727730Y-75042670D02*
X196727730Y-73922670D01*
X196727730Y-71582670D02*
X196727730Y-72862670D01*
X195717730Y-71842670D02*
X197717730Y-71842670D01*
X196727730Y-72972670D02*
X197267730Y-73922670D01*
X196717730Y-72982670D02*
X196187730Y-73892670D01*
X196187730Y-73922670D02*
X197267730Y-73922670D01*
X196187730Y-72872670D02*
X197267730Y-72872670D01*
X208395582Y-71852670D02*
X208395582Y-74822670D01*
X210395582Y-71842670D02*
X210385582Y-74832670D01*
X208395582Y-74832670D02*
X210385582Y-74832670D01*
X209405582Y-75042670D02*
X209405582Y-73922670D01*
X209405582Y-71582670D02*
X209405582Y-72862670D01*
X208395582Y-71842670D02*
X210395582Y-71842670D01*
X209405582Y-72972670D02*
X209945582Y-73922670D01*
X209395582Y-72982670D02*
X208865582Y-73892670D01*
X208865582Y-73922670D02*
X209945582Y-73922670D01*
X208865582Y-72872670D02*
X209945582Y-72872670D01*
X233643922Y-71852670D02*
X233643922Y-74822670D01*
X235643922Y-71842670D02*
X235633922Y-74832670D01*
X233643922Y-74832670D02*
X235633922Y-74832670D01*
X234653922Y-75042670D02*
X234653922Y-73922670D01*
X234653922Y-71582670D02*
X234653922Y-72862670D01*
X233643922Y-71842670D02*
X235643922Y-71842670D01*
X234653922Y-72972670D02*
X235193922Y-73922670D01*
X234643922Y-72982670D02*
X234113922Y-73892670D01*
X234113922Y-73922670D02*
X235193922Y-73922670D01*
X234113922Y-72872670D02*
X235193922Y-72872670D01*
X268364481Y-70199141D02*
X268364481Y-73169141D01*
X270364481Y-70189141D02*
X270354481Y-73179141D01*
X268364481Y-73179141D02*
X270354481Y-73179141D01*
X269374481Y-73389141D02*
X269374481Y-72269141D01*
X269374481Y-69929141D02*
X269374481Y-71209141D01*
X268364481Y-70189141D02*
X270364481Y-70189141D01*
X269374481Y-71319141D02*
X269914481Y-72269141D01*
X269364481Y-71329141D02*
X268834481Y-72239141D01*
X268834481Y-72269141D02*
X269914481Y-72269141D01*
X268834481Y-71219141D02*
X269914481Y-71219141D01*
X97464377Y-73506199D02*
X97464377Y-76476199D01*
X99464377Y-73496199D02*
X99454377Y-76486199D01*
X97464377Y-76486199D02*
X99454377Y-76486199D01*
X98474377Y-76696199D02*
X98474377Y-75576199D01*
X98474377Y-73236199D02*
X98474377Y-74516199D01*
X97464377Y-73496199D02*
X99464377Y-73496199D01*
X98474377Y-74626199D02*
X99014377Y-75576199D01*
X98464377Y-74636199D02*
X97934377Y-75546199D01*
X97934377Y-75576199D02*
X99014377Y-75576199D01*
X97934377Y-74526199D02*
X99014377Y-74526199D01*
X110142229Y-73506199D02*
X110142229Y-76476199D01*
X112142229Y-73496199D02*
X112132229Y-76486199D01*
X110142229Y-76486199D02*
X112132229Y-76486199D01*
X111152229Y-76696199D02*
X111152229Y-75576199D01*
X111152229Y-73236199D02*
X111152229Y-74516199D01*
X110142229Y-73496199D02*
X112142229Y-73496199D01*
X111152229Y-74626199D02*
X111692229Y-75576199D01*
X111142229Y-74636199D02*
X110612229Y-75546199D01*
X110612229Y-75576199D02*
X111692229Y-75576199D01*
X110612229Y-74526199D02*
X111692229Y-74526199D01*
X122820081Y-73506199D02*
X122820081Y-76476199D01*
X124820081Y-73496199D02*
X124810081Y-76486199D01*
X122820081Y-76486199D02*
X124810081Y-76486199D01*
X123830081Y-76696199D02*
X123830081Y-75576199D01*
X123830081Y-73236199D02*
X123830081Y-74516199D01*
X122820081Y-73496199D02*
X124820081Y-73496199D01*
X123830081Y-74626199D02*
X124370081Y-75576199D01*
X123820081Y-74636199D02*
X123290081Y-75546199D01*
X123290081Y-75576199D02*
X124370081Y-75576199D01*
X123290081Y-74526199D02*
X124370081Y-74526199D01*
X135497933Y-73506199D02*
X135497933Y-76476199D01*
X137497933Y-73496199D02*
X137487933Y-76486199D01*
X135497933Y-76486199D02*
X137487933Y-76486199D01*
X136507933Y-76696199D02*
X136507933Y-75576199D01*
X136507933Y-73236199D02*
X136507933Y-74516199D01*
X135497933Y-73496199D02*
X137497933Y-73496199D01*
X136507933Y-74626199D02*
X137047933Y-75576199D01*
X136497933Y-74636199D02*
X135967933Y-75546199D01*
X135967933Y-75576199D02*
X137047933Y-75576199D01*
X135967933Y-74526199D02*
X137047933Y-74526199D01*
X148175785Y-73506199D02*
X148175785Y-76476199D01*
X150175785Y-73496199D02*
X150165785Y-76486199D01*
X148175785Y-76486199D02*
X150165785Y-76486199D01*
X149185785Y-76696199D02*
X149185785Y-75576199D01*
X149185785Y-73236199D02*
X149185785Y-74516199D01*
X148175785Y-73496199D02*
X150175785Y-73496199D01*
X149185785Y-74626199D02*
X149725785Y-75576199D01*
X149175785Y-74636199D02*
X148645785Y-75546199D01*
X148645785Y-75576199D02*
X149725785Y-75576199D01*
X148645785Y-74526199D02*
X149725785Y-74526199D01*
X160853637Y-73506199D02*
X160853637Y-76476199D01*
X162853637Y-73496199D02*
X162843637Y-76486199D01*
X160853637Y-76486199D02*
X162843637Y-76486199D01*
X161863637Y-76696199D02*
X161863637Y-75576199D01*
X161863637Y-73236199D02*
X161863637Y-74516199D01*
X160853637Y-73496199D02*
X162853637Y-73496199D01*
X161863637Y-74626199D02*
X162403637Y-75576199D01*
X161853637Y-74636199D02*
X161323637Y-75546199D01*
X161323637Y-75576199D02*
X162403637Y-75576199D01*
X161323637Y-74526199D02*
X162403637Y-74526199D01*
X173531489Y-73506199D02*
X173531489Y-76476199D01*
X175531489Y-73496199D02*
X175521489Y-76486199D01*
X173531489Y-76486199D02*
X175521489Y-76486199D01*
X174541489Y-76696199D02*
X174541489Y-75576199D01*
X174541489Y-73236199D02*
X174541489Y-74516199D01*
X173531489Y-73496199D02*
X175531489Y-73496199D01*
X174541489Y-74626199D02*
X175081489Y-75576199D01*
X174531489Y-74636199D02*
X174001489Y-75546199D01*
X174001489Y-75576199D02*
X175081489Y-75576199D01*
X174001489Y-74526199D02*
X175081489Y-74526199D01*
X186209341Y-73506199D02*
X186209341Y-76476199D01*
X188209341Y-73496199D02*
X188199341Y-76486199D01*
X186209341Y-76486199D02*
X188199341Y-76486199D01*
X187219341Y-76696199D02*
X187219341Y-75576199D01*
X187219341Y-73236199D02*
X187219341Y-74516199D01*
X186209341Y-73496199D02*
X188209341Y-73496199D01*
X187219341Y-74626199D02*
X187759341Y-75576199D01*
X187209341Y-74636199D02*
X186679341Y-75546199D01*
X186679341Y-75576199D02*
X187759341Y-75576199D01*
X186679341Y-74526199D02*
X187759341Y-74526199D01*
X198887193Y-73506199D02*
X198887193Y-76476199D01*
X200887193Y-73496199D02*
X200877193Y-76486199D01*
X198887193Y-76486199D02*
X200877193Y-76486199D01*
X199897193Y-76696199D02*
X199897193Y-75576199D01*
X199897193Y-73236199D02*
X199897193Y-74516199D01*
X198887193Y-73496199D02*
X200887193Y-73496199D01*
X199897193Y-74626199D02*
X200437193Y-75576199D01*
X199887193Y-74636199D02*
X199357193Y-75546199D01*
X199357193Y-75576199D02*
X200437193Y-75576199D01*
X199357193Y-74526199D02*
X200437193Y-74526199D01*
X211565045Y-73506199D02*
X211565045Y-76476199D01*
X213565045Y-73496199D02*
X213555045Y-76486199D01*
X211565045Y-76486199D02*
X213555045Y-76486199D01*
X212575045Y-76696199D02*
X212575045Y-75576199D01*
X212575045Y-73236199D02*
X212575045Y-74516199D01*
X211565045Y-73496199D02*
X213565045Y-73496199D01*
X212575045Y-74626199D02*
X213115045Y-75576199D01*
X212565045Y-74636199D02*
X212035045Y-75546199D01*
X212035045Y-75576199D02*
X213115045Y-75576199D01*
X212035045Y-74526199D02*
X213115045Y-74526199D01*
X221038442Y-71852670D02*
X221038442Y-74822670D01*
X223038442Y-71842670D02*
X223028442Y-74832670D01*
X221038442Y-74832670D02*
X223028442Y-74832670D01*
X222048442Y-75042670D02*
X222048442Y-73922670D01*
X222048442Y-71582670D02*
X222048442Y-72862670D01*
X221038442Y-71842670D02*
X223038442Y-71842670D01*
X222048442Y-72972670D02*
X222588442Y-73922670D01*
X222038442Y-72982670D02*
X221508442Y-73892670D01*
X221508442Y-73922670D02*
X222588442Y-73922670D01*
X221508442Y-72872670D02*
X222588442Y-72872670D01*
X236794695Y-73506199D02*
X236794695Y-76476199D01*
X238794695Y-73496199D02*
X238784695Y-76486199D01*
X236794695Y-76486199D02*
X238784695Y-76486199D01*
X237804695Y-76696199D02*
X237804695Y-75576199D01*
X237804695Y-73236199D02*
X237804695Y-74516199D01*
X236794695Y-73496199D02*
X238794695Y-73496199D01*
X237804695Y-74626199D02*
X238344695Y-75576199D01*
X237794695Y-74636199D02*
X237264695Y-75546199D01*
X237264695Y-75576199D02*
X238344695Y-75576199D01*
X237264695Y-74526199D02*
X238344695Y-74526199D01*
X265089606Y-68545612D02*
X265089606Y-71515612D01*
X267089606Y-68535612D02*
X267079606Y-71525612D01*
X265089606Y-71525612D02*
X267079606Y-71525612D01*
X266099606Y-71735612D02*
X266099606Y-70615612D01*
X266099606Y-68275612D02*
X266099606Y-69555612D01*
X265089606Y-68535612D02*
X267089606Y-68535612D01*
X266099606Y-69665612D02*
X266639606Y-70615612D01*
X266089606Y-69675612D02*
X265559606Y-70585612D01*
X265559606Y-70615612D02*
X266639606Y-70615612D01*
X265559606Y-69565612D02*
X266639606Y-69565612D01*
X258788058Y-71852670D02*
X258788058Y-74822670D01*
X260788058Y-71842670D02*
X260778058Y-74832670D01*
X258788058Y-74832670D02*
X260778058Y-74832670D01*
X259798058Y-75042670D02*
X259798058Y-73922670D01*
X259798058Y-71582670D02*
X259798058Y-72862670D01*
X258788058Y-71842670D02*
X260788058Y-71842670D01*
X259798058Y-72972670D02*
X260338058Y-73922670D01*
X259788058Y-72982670D02*
X259258058Y-73892670D01*
X259258058Y-73922670D02*
X260338058Y-73922670D01*
X259258058Y-72872670D02*
X260338058Y-72872670D01*
X75278136Y-68545612D02*
X75278136Y-71515612D01*
X77278136Y-68535612D02*
X77268136Y-71525612D01*
X75278136Y-71525612D02*
X77268136Y-71525612D01*
X76288136Y-71735612D02*
X76288136Y-70615612D01*
X76288136Y-68275612D02*
X76288136Y-69555612D01*
X75278136Y-68535612D02*
X77278136Y-68535612D01*
X76288136Y-69665612D02*
X76828136Y-70615612D01*
X76278136Y-69675612D02*
X75748136Y-70585612D01*
X75748136Y-70615612D02*
X76828136Y-70615612D01*
X75748136Y-69565612D02*
X76828136Y-69565612D01*
X255637284Y-70199141D02*
X255637284Y-73169141D01*
X257637284Y-70189141D02*
X257627284Y-73179141D01*
X255637284Y-73179141D02*
X257627284Y-73179141D01*
X256647284Y-73389141D02*
X256647284Y-72269141D01*
X256647284Y-69929141D02*
X256647284Y-71209141D01*
X255637284Y-70189141D02*
X257637284Y-70189141D01*
X256647284Y-71319141D02*
X257187284Y-72269141D01*
X256637284Y-71329141D02*
X256107284Y-72239141D01*
X256107284Y-72269141D02*
X257187284Y-72269141D01*
X256107284Y-71219141D02*
X257187284Y-71219141D01*
X252486511Y-68545612D02*
X252486511Y-71515612D01*
X254486511Y-68535612D02*
X254476511Y-71525612D01*
X252486511Y-71525612D02*
X254476511Y-71525612D01*
X253496511Y-71735612D02*
X253496511Y-70615612D01*
X253496511Y-68275612D02*
X253496511Y-69555612D01*
X252486511Y-68535612D02*
X254486511Y-68535612D01*
X253496511Y-69665612D02*
X254036511Y-70615612D01*
X253486511Y-69675612D02*
X252956511Y-70585612D01*
X252956511Y-70615612D02*
X254036511Y-70615612D01*
X252956511Y-69565612D02*
X254036511Y-69565612D01*
X249335738Y-73506199D02*
X249335738Y-76476199D01*
X251335738Y-73496199D02*
X251325738Y-76486199D01*
X249335738Y-76486199D02*
X251325738Y-76486199D01*
X250345738Y-76696199D02*
X250345738Y-75576199D01*
X250345738Y-73236199D02*
X250345738Y-74516199D01*
X249335738Y-73496199D02*
X251335738Y-73496199D01*
X250345738Y-74626199D02*
X250885738Y-75576199D01*
X250335738Y-74636199D02*
X249805738Y-75546199D01*
X249805738Y-75576199D02*
X250885738Y-75576199D01*
X249805738Y-74526199D02*
X250885738Y-74526199D01*
X224190409Y-73506199D02*
X224190409Y-76476199D01*
X226190409Y-73496199D02*
X226180409Y-76486199D01*
X224190409Y-76486199D02*
X226180409Y-76486199D01*
X225200409Y-76696199D02*
X225200409Y-75576199D01*
X225200409Y-73236199D02*
X225200409Y-74516199D01*
X224190409Y-73496199D02*
X226190409Y-73496199D01*
X225200409Y-74626199D02*
X225740409Y-75576199D01*
X225190409Y-74636199D02*
X224660409Y-75546199D01*
X224660409Y-75576199D02*
X225740409Y-75576199D01*
X224660409Y-74526199D02*
X225740409Y-74526199D01*
X243096241Y-70199141D02*
X243096241Y-73169141D01*
X245096241Y-70189141D02*
X245086241Y-73179141D01*
X243096241Y-73179141D02*
X245086241Y-73179141D01*
X244106241Y-73389141D02*
X244106241Y-72269141D01*
X244106241Y-69929141D02*
X244106241Y-71209141D01*
X243096241Y-70189141D02*
X245096241Y-70189141D01*
X244106241Y-71319141D02*
X244646241Y-72269141D01*
X244096241Y-71329141D02*
X243566241Y-72239141D01*
X243566241Y-72269141D02*
X244646241Y-72269141D01*
X243566241Y-71219141D02*
X244646241Y-71219141D01*
X239945468Y-68545612D02*
X239945468Y-71515612D01*
X241945468Y-68535612D02*
X241935468Y-71525612D01*
X239945468Y-71525612D02*
X241935468Y-71525612D01*
X240955468Y-71735612D02*
X240955468Y-70615612D01*
X240955468Y-68275612D02*
X240955468Y-69555612D01*
X239945468Y-68535612D02*
X241945468Y-68535612D01*
X240955468Y-69665612D02*
X241495468Y-70615612D01*
X240945468Y-69675612D02*
X240415468Y-70585612D01*
X240415468Y-70615612D02*
X241495468Y-70615612D01*
X240415468Y-69565612D02*
X241495468Y-69565612D01*
X261938832Y-73506199D02*
X261938832Y-76476199D01*
X263938832Y-73496199D02*
X263928832Y-76486199D01*
X261938832Y-76486199D02*
X263928832Y-76486199D01*
X262948832Y-76696199D02*
X262948832Y-75576199D01*
X262948832Y-73236199D02*
X262948832Y-74516199D01*
X261938832Y-73496199D02*
X263938832Y-73496199D01*
X262948832Y-74626199D02*
X263488832Y-75576199D01*
X262938832Y-74636199D02*
X262408832Y-75546199D01*
X262408832Y-75576199D02*
X263488832Y-75576199D01*
X262408832Y-74526199D02*
X263488832Y-74526199D01*
X246184965Y-71852670D02*
X246184965Y-74822670D01*
X248184965Y-71842670D02*
X248174965Y-74832670D01*
X246184965Y-74832670D02*
X248174965Y-74832670D01*
X247194965Y-75042670D02*
X247194965Y-73922670D01*
X247194965Y-71582670D02*
X247194965Y-72862670D01*
X246184965Y-71842670D02*
X248184965Y-71842670D01*
X247194965Y-72972670D02*
X247734965Y-73922670D01*
X247184965Y-72982670D02*
X246654965Y-73892670D01*
X246654965Y-73922670D02*
X247734965Y-73922670D01*
X246654965Y-72872670D02*
X247734965Y-72872670D01*
X337562482Y-74232196D02*
X337562482Y-77202196D01*
X339562482Y-74222196D02*
X339552482Y-77212196D01*
X337562482Y-77212196D02*
X339552482Y-77212196D01*
X338572482Y-77422196D02*
X338572482Y-76302196D01*
X338572482Y-73962196D02*
X338572482Y-75242196D01*
X337562482Y-74222196D02*
X339562482Y-74222196D01*
X338572482Y-75352196D02*
X339112482Y-76302196D01*
X338562482Y-75362196D02*
X338032482Y-76272196D01*
X338032482Y-76302196D02*
X339112482Y-76302196D01*
X338032482Y-75252196D02*
X339112482Y-75252196D01*
X334692810Y-74232196D02*
X334692810Y-77202196D01*
X336692810Y-74222196D02*
X336682810Y-77212196D01*
X334692810Y-77212196D02*
X336682810Y-77212196D01*
X335702810Y-77422196D02*
X335702810Y-76302196D01*
X335702810Y-73962196D02*
X335702810Y-75242196D01*
X334692810Y-74222196D02*
X336692810Y-74222196D01*
X335702810Y-75352196D02*
X336242810Y-76302196D01*
X335692810Y-75362196D02*
X335162810Y-76272196D01*
X335162810Y-76302196D02*
X336242810Y-76302196D01*
X335162810Y-75252196D02*
X336242810Y-75252196D01*
D18*
X302652964Y-76989821D02*
X303724392Y-76989821D01*
X303081535Y-76346964D02*
X302652964Y-78275535D01*
X303581535Y-77632678D02*
X302510107Y-77632678D01*
X303152964Y-78275535D02*
X303581535Y-76346964D01*
D12*
X328215370Y-58606032D02*
X328215370Y-59415556D01*
X328262989Y-59510794D01*
X328310608Y-59558413D01*
X328405846Y-59606032D01*
X328596323Y-59606032D01*
X328691561Y-59558413D01*
X328739180Y-59510794D01*
X328786799Y-59415556D01*
X328786799Y-58606032D01*
X329215370Y-59558413D02*
X329358227Y-59606032D01*
X329596323Y-59606032D01*
X329691561Y-59558413D01*
X329739180Y-59510794D01*
X329786799Y-59415556D01*
X329786799Y-59320318D01*
X329739180Y-59225080D01*
X329691561Y-59177461D01*
X329596323Y-59129842D01*
X329405846Y-59082223D01*
X329310608Y-59034604D01*
X329262989Y-58986985D01*
X329215370Y-58891747D01*
X329215370Y-58796509D01*
X329262989Y-58701271D01*
X329310608Y-58653652D01*
X329405846Y-58606032D01*
X329643942Y-58606032D01*
X329786799Y-58653652D01*
X330548704Y-59082223D02*
X330691561Y-59129842D01*
X330739180Y-59177461D01*
X330786799Y-59272699D01*
X330786799Y-59415556D01*
X330739180Y-59510794D01*
X330691561Y-59558413D01*
X330596323Y-59606032D01*
X330215370Y-59606032D01*
X330215370Y-58606032D01*
X330548704Y-58606032D01*
X330643942Y-58653652D01*
X330691561Y-58701271D01*
X330739180Y-58796509D01*
X330739180Y-58891747D01*
X330691561Y-58986985D01*
X330643942Y-59034604D01*
X330548704Y-59082223D01*
X330215370Y-59082223D01*
X331739180Y-59606032D02*
X331167751Y-59606032D01*
X331453466Y-59606032D02*
X331453466Y-58606032D01*
X331358227Y-58748890D01*
X331262989Y-58844128D01*
X331167751Y-58891747D01*
X375543763Y-68317422D02*
X375543763Y-69126946D01*
X375591382Y-69222184D01*
X375639001Y-69269803D01*
X375734239Y-69317422D01*
X375924715Y-69317422D01*
X376019953Y-69269803D01*
X376067572Y-69222184D01*
X376115191Y-69126946D01*
X376115191Y-68317422D01*
X377115191Y-69317422D02*
X376543763Y-69317422D01*
X376829477Y-69317422D02*
X376829477Y-68317422D01*
X376734239Y-68460280D01*
X376639001Y-68555518D01*
X376543763Y-68603137D01*
X370960276Y-66494498D02*
X371436467Y-66494498D01*
X370865038Y-66780212D02*
X371198372Y-65780212D01*
X371531705Y-66780212D01*
X371722181Y-65780212D02*
X372293610Y-65780212D01*
X372007895Y-66780212D02*
X372007895Y-65780212D01*
X372626943Y-66780212D02*
X372626943Y-66113546D01*
X372626943Y-66208784D02*
X372674562Y-66161165D01*
X372769800Y-66113546D01*
X372912657Y-66113546D01*
X373007895Y-66161165D01*
X373055514Y-66256403D01*
X373055514Y-66780212D01*
X373055514Y-66256403D02*
X373103134Y-66161165D01*
X373198372Y-66113546D01*
X373341229Y-66113546D01*
X373436467Y-66161165D01*
X373484086Y-66256403D01*
X373484086Y-66780212D01*
X374341229Y-66732593D02*
X374245991Y-66780212D01*
X374055514Y-66780212D01*
X373960276Y-66732593D01*
X373912657Y-66637355D01*
X373912657Y-66256403D01*
X373960276Y-66161165D01*
X374055514Y-66113546D01*
X374245991Y-66113546D01*
X374341229Y-66161165D01*
X374388848Y-66256403D01*
X374388848Y-66351641D01*
X373912657Y-66446879D01*
X375245991Y-66113546D02*
X375245991Y-66923070D01*
X375198372Y-67018308D01*
X375150753Y-67065927D01*
X375055514Y-67113546D01*
X374912657Y-67113546D01*
X374817419Y-67065927D01*
X375245991Y-66732593D02*
X375150753Y-66780212D01*
X374960276Y-66780212D01*
X374865038Y-66732593D01*
X374817419Y-66684974D01*
X374769800Y-66589736D01*
X374769800Y-66304022D01*
X374817419Y-66208784D01*
X374865038Y-66161165D01*
X374960276Y-66113546D01*
X375150753Y-66113546D01*
X375245991Y-66161165D01*
X376150753Y-66780212D02*
X376150753Y-66256403D01*
X376103134Y-66161165D01*
X376007895Y-66113546D01*
X375817419Y-66113546D01*
X375722181Y-66161165D01*
X376150753Y-66732593D02*
X376055514Y-66780212D01*
X375817419Y-66780212D01*
X375722181Y-66732593D01*
X375674562Y-66637355D01*
X375674562Y-66542117D01*
X375722181Y-66446879D01*
X375817419Y-66399260D01*
X376055514Y-66399260D01*
X376150753Y-66351641D01*
X376531705Y-65780212D02*
X377150753Y-65780212D01*
X376817419Y-66161165D01*
X376960276Y-66161165D01*
X377055514Y-66208784D01*
X377103134Y-66256403D01*
X377150753Y-66351641D01*
X377150753Y-66589736D01*
X377103134Y-66684974D01*
X377055514Y-66732593D01*
X376960276Y-66780212D01*
X376674562Y-66780212D01*
X376579324Y-66732593D01*
X376531705Y-66684974D01*
X377531705Y-65875451D02*
X377579324Y-65827832D01*
X377674562Y-65780212D01*
X377912657Y-65780212D01*
X378007895Y-65827832D01*
X378055514Y-65875451D01*
X378103134Y-65970689D01*
X378103134Y-66065927D01*
X378055514Y-66208784D01*
X377484086Y-66780212D01*
X378103134Y-66780212D01*
X378484086Y-66494498D02*
X378960276Y-66494498D01*
X378388848Y-66780212D02*
X378722181Y-65780212D01*
X379055514Y-66780212D01*
X379388848Y-66399260D02*
X380150753Y-66399260D01*
X380626943Y-66780212D02*
X380626943Y-65780212D01*
X381007895Y-65780212D01*
X381103134Y-65827832D01*
X381150753Y-65875451D01*
X381198372Y-65970689D01*
X381198372Y-66113546D01*
X381150753Y-66208784D01*
X381103134Y-66256403D01*
X381007895Y-66304022D01*
X380626943Y-66304022D01*
X381626943Y-65780212D02*
X381626943Y-66589736D01*
X381674562Y-66684974D01*
X381722181Y-66732593D01*
X381817419Y-66780212D01*
X382007895Y-66780212D01*
X382103134Y-66732593D01*
X382150753Y-66684974D01*
X382198372Y-66589736D01*
X382198372Y-65780212D01*
X394231933Y-84130480D02*
X394184314Y-84178099D01*
X394041457Y-84225718D01*
X393946219Y-84225718D01*
X393803361Y-84178099D01*
X393708123Y-84082861D01*
X393660504Y-83987623D01*
X393612885Y-83797147D01*
X393612885Y-83654290D01*
X393660504Y-83463814D01*
X393708123Y-83368576D01*
X393803361Y-83273338D01*
X393946219Y-83225718D01*
X394041457Y-83225718D01*
X394184314Y-83273338D01*
X394231933Y-83320957D01*
X395184314Y-84225718D02*
X394612885Y-84225718D01*
X394898600Y-84225718D02*
X394898600Y-83225718D01*
X394803361Y-83368576D01*
X394708123Y-83463814D01*
X394612885Y-83511433D01*
X393527623Y-84719265D02*
X393575242Y-84671646D01*
X393670480Y-84624026D01*
X393908575Y-84624026D01*
X394003813Y-84671646D01*
X394051432Y-84719265D01*
X394099051Y-84814503D01*
X394099051Y-84909741D01*
X394051432Y-85052598D01*
X393480004Y-85624026D01*
X394099051Y-85624026D01*
X394480004Y-84719265D02*
X394527623Y-84671646D01*
X394622861Y-84624026D01*
X394860956Y-84624026D01*
X394956194Y-84671646D01*
X395003813Y-84719265D01*
X395051432Y-84814503D01*
X395051432Y-84909741D01*
X395003813Y-85052598D01*
X394432385Y-85624026D01*
X395051432Y-85624026D01*
X395480004Y-84957360D02*
X395480004Y-85957360D01*
X395480004Y-85004979D02*
X395575242Y-84957360D01*
X395765718Y-84957360D01*
X395860956Y-85004979D01*
X395908575Y-85052598D01*
X395956194Y-85147836D01*
X395956194Y-85433550D01*
X395908575Y-85528788D01*
X395860956Y-85576407D01*
X395765718Y-85624026D01*
X395575242Y-85624026D01*
X395480004Y-85576407D01*
X379965077Y-83488684D02*
X379917458Y-83536303D01*
X379774601Y-83583922D01*
X379679363Y-83583922D01*
X379536505Y-83536303D01*
X379441267Y-83441065D01*
X379393648Y-83345827D01*
X379346029Y-83155351D01*
X379346029Y-83012494D01*
X379393648Y-82822018D01*
X379441267Y-82726780D01*
X379536505Y-82631542D01*
X379679363Y-82583922D01*
X379774601Y-82583922D01*
X379917458Y-82631542D01*
X379965077Y-82679161D01*
X380346029Y-82679161D02*
X380393648Y-82631542D01*
X380488886Y-82583922D01*
X380726982Y-82583922D01*
X380822220Y-82631542D01*
X380869839Y-82679161D01*
X380917458Y-82774399D01*
X380917458Y-82869637D01*
X380869839Y-83012494D01*
X380298410Y-83583922D01*
X380917458Y-83583922D01*
X379051067Y-84024975D02*
X379098686Y-83977356D01*
X379193924Y-83929736D01*
X379432019Y-83929736D01*
X379527257Y-83977356D01*
X379574876Y-84024975D01*
X379622495Y-84120213D01*
X379622495Y-84215451D01*
X379574876Y-84358308D01*
X379003448Y-84929736D01*
X379622495Y-84929736D01*
X380003448Y-84024975D02*
X380051067Y-83977356D01*
X380146305Y-83929736D01*
X380384400Y-83929736D01*
X380479638Y-83977356D01*
X380527257Y-84024975D01*
X380574876Y-84120213D01*
X380574876Y-84215451D01*
X380527257Y-84358308D01*
X379955829Y-84929736D01*
X380574876Y-84929736D01*
X381003448Y-84263070D02*
X381003448Y-85263070D01*
X381003448Y-84310689D02*
X381098686Y-84263070D01*
X381289162Y-84263070D01*
X381384400Y-84310689D01*
X381432019Y-84358308D01*
X381479638Y-84453546D01*
X381479638Y-84739260D01*
X381432019Y-84834498D01*
X381384400Y-84882117D01*
X381289162Y-84929736D01*
X381098686Y-84929736D01*
X381003448Y-84882117D01*
X336611019Y-67087428D02*
X336563400Y-67135047D01*
X336420543Y-67182666D01*
X336325305Y-67182666D01*
X336182447Y-67135047D01*
X336087209Y-67039809D01*
X336039590Y-66944571D01*
X335991971Y-66754095D01*
X335991971Y-66611238D01*
X336039590Y-66420762D01*
X336087209Y-66325524D01*
X336182447Y-66230286D01*
X336325305Y-66182666D01*
X336420543Y-66182666D01*
X336563400Y-66230286D01*
X336611019Y-66277905D01*
X336944352Y-66182666D02*
X337563400Y-66182666D01*
X337230066Y-66563619D01*
X337372924Y-66563619D01*
X337468162Y-66611238D01*
X337515781Y-66658857D01*
X337563400Y-66754095D01*
X337563400Y-66992190D01*
X337515781Y-67087428D01*
X337468162Y-67135047D01*
X337372924Y-67182666D01*
X337087209Y-67182666D01*
X336991971Y-67135047D01*
X336944352Y-67087428D01*
X386722953Y-80213494D02*
X386722953Y-80689684D01*
X386389620Y-79689684D02*
X386722953Y-80213494D01*
X387056286Y-79689684D01*
X387913429Y-80689684D02*
X387342001Y-80689684D01*
X387627715Y-80689684D02*
X387627715Y-79689684D01*
X387532477Y-79832542D01*
X387437239Y-79927780D01*
X387342001Y-79975399D01*
D10*
X350589749Y-75760001D02*
X350208797Y-76026668D01*
X350589749Y-76217144D02*
X349789749Y-76217144D01*
X349789749Y-75912382D01*
X349827845Y-75836191D01*
X349865940Y-75798096D01*
X349942130Y-75760001D01*
X350056416Y-75760001D01*
X350132606Y-75798096D01*
X350170702Y-75836191D01*
X350208797Y-75912382D01*
X350208797Y-76217144D01*
X350056416Y-75074287D02*
X350589749Y-75074287D01*
X349751654Y-75264763D02*
X350323083Y-75455239D01*
X350323083Y-74960001D01*
X343983418Y-75232317D02*
X344516752Y-75232317D01*
X344173895Y-76032317D01*
X345202466Y-75232317D02*
X344821514Y-75232317D01*
X344783418Y-75613270D01*
X344821514Y-75575174D01*
X344897704Y-75537079D01*
X345088180Y-75537079D01*
X345164371Y-75575174D01*
X345202466Y-75613270D01*
X345240561Y-75689460D01*
X345240561Y-75879936D01*
X345202466Y-75956127D01*
X345164371Y-75994222D01*
X345088180Y-76032317D01*
X344897704Y-76032317D01*
X344821514Y-75994222D01*
X344783418Y-75956127D01*
X346040561Y-76032317D02*
X345773895Y-75651365D01*
X345583418Y-76032317D02*
X345583418Y-75232317D01*
X345888180Y-75232317D01*
X345964371Y-75270413D01*
X346002466Y-75308508D01*
X346040561Y-75384698D01*
X346040561Y-75498984D01*
X346002466Y-75575174D01*
X345964371Y-75613270D01*
X345888180Y-75651365D01*
X345583418Y-75651365D01*
X350589749Y-73249086D02*
X350208797Y-73515753D01*
X350589749Y-73706229D02*
X349789749Y-73706229D01*
X349789749Y-73401467D01*
X349827845Y-73325276D01*
X349865940Y-73287181D01*
X349942130Y-73249086D01*
X350056416Y-73249086D01*
X350132606Y-73287181D01*
X350170702Y-73325276D01*
X350208797Y-73401467D01*
X350208797Y-73706229D01*
X349789749Y-72982419D02*
X349789749Y-72487181D01*
X350094511Y-72753848D01*
X350094511Y-72639562D01*
X350132606Y-72563372D01*
X350170702Y-72525276D01*
X350246892Y-72487181D01*
X350437368Y-72487181D01*
X350513559Y-72525276D01*
X350551654Y-72563372D01*
X350589749Y-72639562D01*
X350589749Y-72868133D01*
X350551654Y-72944324D01*
X350513559Y-72982419D01*
X343983418Y-72765146D02*
X344516752Y-72765146D01*
X344173895Y-73565146D01*
X345202466Y-72765146D02*
X344821514Y-72765146D01*
X344783418Y-73146099D01*
X344821514Y-73108003D01*
X344897704Y-73069908D01*
X345088180Y-73069908D01*
X345164371Y-73108003D01*
X345202466Y-73146099D01*
X345240561Y-73222289D01*
X345240561Y-73412765D01*
X345202466Y-73488956D01*
X345164371Y-73527051D01*
X345088180Y-73565146D01*
X344897704Y-73565146D01*
X344821514Y-73527051D01*
X344783418Y-73488956D01*
X346040561Y-73565146D02*
X345773895Y-73184194D01*
X345583418Y-73565146D02*
X345583418Y-72765146D01*
X345888180Y-72765146D01*
X345964371Y-72803242D01*
X346002466Y-72841337D01*
X346040561Y-72917527D01*
X346040561Y-73031813D01*
X346002466Y-73108003D01*
X345964371Y-73146099D01*
X345888180Y-73184194D01*
X345583418Y-73184194D01*
X350589749Y-78270917D02*
X350208797Y-78537584D01*
X350589749Y-78728060D02*
X349789749Y-78728060D01*
X349789749Y-78423298D01*
X349827845Y-78347107D01*
X349865940Y-78309012D01*
X349942130Y-78270917D01*
X350056416Y-78270917D01*
X350132606Y-78309012D01*
X350170702Y-78347107D01*
X350208797Y-78423298D01*
X350208797Y-78728060D01*
X349789749Y-77547107D02*
X349789749Y-77928060D01*
X350170702Y-77966155D01*
X350132606Y-77928060D01*
X350094511Y-77851869D01*
X350094511Y-77661393D01*
X350132606Y-77585203D01*
X350170702Y-77547107D01*
X350246892Y-77509012D01*
X350437368Y-77509012D01*
X350513559Y-77547107D01*
X350551654Y-77585203D01*
X350589749Y-77661393D01*
X350589749Y-77851869D01*
X350551654Y-77928060D01*
X350513559Y-77966155D01*
X344364371Y-78551981D02*
X343907228Y-78551981D01*
X344135799Y-78551981D02*
X344135799Y-77751981D01*
X344059609Y-77866267D01*
X343983418Y-77942457D01*
X343907228Y-77980553D01*
X344707228Y-78475791D02*
X344745323Y-78513886D01*
X344707228Y-78551981D01*
X344669133Y-78513886D01*
X344707228Y-78475791D01*
X344707228Y-78551981D01*
X345469133Y-77751981D02*
X345088180Y-77751981D01*
X345050085Y-78132934D01*
X345088180Y-78094838D01*
X345164371Y-78056743D01*
X345354847Y-78056743D01*
X345431038Y-78094838D01*
X345469133Y-78132934D01*
X345507228Y-78209124D01*
X345507228Y-78399600D01*
X345469133Y-78475791D01*
X345431038Y-78513886D01*
X345354847Y-78551981D01*
X345164371Y-78551981D01*
X345088180Y-78513886D01*
X345050085Y-78475791D01*
X345850085Y-78551981D02*
X345850085Y-77751981D01*
X345926276Y-78247219D02*
X346154847Y-78551981D01*
X346154847Y-78018648D02*
X345850085Y-78323410D01*
X350589749Y-68227256D02*
X350208797Y-68493923D01*
X350589749Y-68684399D02*
X349789749Y-68684399D01*
X349789749Y-68379637D01*
X349827845Y-68303446D01*
X349865940Y-68265351D01*
X349942130Y-68227256D01*
X350056416Y-68227256D01*
X350132606Y-68265351D01*
X350170702Y-68303446D01*
X350208797Y-68379637D01*
X350208797Y-68684399D01*
X350589749Y-67465351D02*
X350589749Y-67922494D01*
X350589749Y-67693923D02*
X349789749Y-67693923D01*
X349904035Y-67770113D01*
X349980225Y-67846303D01*
X350018321Y-67922494D01*
X350589749Y-70738171D02*
X350208797Y-71004838D01*
X350589749Y-71195314D02*
X349789749Y-71195314D01*
X349789749Y-70890552D01*
X349827845Y-70814361D01*
X349865940Y-70776266D01*
X349942130Y-70738171D01*
X350056416Y-70738171D01*
X350132606Y-70776266D01*
X350170702Y-70814361D01*
X350208797Y-70890552D01*
X350208797Y-71195314D01*
X349865940Y-70433409D02*
X349827845Y-70395314D01*
X349789749Y-70319123D01*
X349789749Y-70128647D01*
X349827845Y-70052457D01*
X349865940Y-70014361D01*
X349942130Y-69976266D01*
X350018321Y-69976266D01*
X350132606Y-70014361D01*
X350589749Y-70471504D01*
X350589749Y-69976266D01*
X350589749Y-65716341D02*
X350208797Y-65983008D01*
X350589749Y-66173484D02*
X349789749Y-66173484D01*
X349789749Y-65868722D01*
X349827845Y-65792531D01*
X349865940Y-65754436D01*
X349942130Y-65716341D01*
X350056416Y-65716341D01*
X350132606Y-65754436D01*
X350170702Y-65792531D01*
X350208797Y-65868722D01*
X350208797Y-66173484D01*
X349789749Y-65030627D02*
X349789749Y-65183008D01*
X349827845Y-65259198D01*
X349865940Y-65297293D01*
X349980225Y-65373484D01*
X350132606Y-65411579D01*
X350437368Y-65411579D01*
X350513559Y-65373484D01*
X350551654Y-65335388D01*
X350589749Y-65259198D01*
X350589749Y-65106817D01*
X350551654Y-65030627D01*
X350513559Y-64992531D01*
X350437368Y-64954436D01*
X350246892Y-64954436D01*
X350170702Y-64992531D01*
X350132606Y-65030627D01*
X350094511Y-65106817D01*
X350094511Y-65259198D01*
X350132606Y-65335388D01*
X350170702Y-65373484D01*
X350246892Y-65411579D01*
X344288180Y-65972318D02*
X343831038Y-65972318D01*
X344059609Y-65972318D02*
X344059609Y-65172318D01*
X343983418Y-65286604D01*
X343907228Y-65362794D01*
X343831038Y-65400890D01*
X344631038Y-65896128D02*
X344669133Y-65934223D01*
X344631038Y-65972318D01*
X344592942Y-65934223D01*
X344631038Y-65896128D01*
X344631038Y-65972318D01*
X345392942Y-65172318D02*
X345011990Y-65172318D01*
X344973895Y-65553271D01*
X345011990Y-65515175D01*
X345088180Y-65477080D01*
X345278657Y-65477080D01*
X345354847Y-65515175D01*
X345392942Y-65553271D01*
X345431038Y-65629461D01*
X345431038Y-65819937D01*
X345392942Y-65896128D01*
X345354847Y-65934223D01*
X345278657Y-65972318D01*
X345088180Y-65972318D01*
X345011990Y-65934223D01*
X344973895Y-65896128D01*
X345773895Y-65972318D02*
X345773895Y-65172318D01*
X346231038Y-65972318D02*
X345888180Y-65515175D01*
X346231038Y-65172318D02*
X345773895Y-65629461D01*
X350589749Y-63205426D02*
X350208797Y-63472093D01*
X350589749Y-63662569D02*
X349789749Y-63662569D01*
X349789749Y-63357807D01*
X349827845Y-63281616D01*
X349865940Y-63243521D01*
X349942130Y-63205426D01*
X350056416Y-63205426D01*
X350132606Y-63243521D01*
X350170702Y-63281616D01*
X350208797Y-63357807D01*
X350208797Y-63662569D01*
X349789749Y-62938759D02*
X349789749Y-62405426D01*
X350589749Y-62748283D01*
X344554847Y-63483772D02*
X344097704Y-63483772D01*
X344326276Y-63483772D02*
X344326276Y-62683772D01*
X344250085Y-62798058D01*
X344173895Y-62874248D01*
X344097704Y-62912344D01*
X345050085Y-62683772D02*
X345126276Y-62683772D01*
X345202466Y-62721868D01*
X345240561Y-62759963D01*
X345278657Y-62836153D01*
X345316752Y-62988534D01*
X345316752Y-63179010D01*
X345278657Y-63331391D01*
X345240561Y-63407582D01*
X345202466Y-63445677D01*
X345126276Y-63483772D01*
X345050085Y-63483772D01*
X344973895Y-63445677D01*
X344935799Y-63407582D01*
X344897704Y-63331391D01*
X344859609Y-63179010D01*
X344859609Y-62988534D01*
X344897704Y-62836153D01*
X344935799Y-62759963D01*
X344973895Y-62721868D01*
X345050085Y-62683772D01*
X345659609Y-63483772D02*
X345659609Y-62683772D01*
X345735799Y-63179010D02*
X345964371Y-63483772D01*
X345964371Y-62950439D02*
X345659609Y-63255201D01*
D12*
X322393685Y-63190361D02*
X322393685Y-63523695D01*
X322917494Y-63523695D02*
X321917494Y-63523695D01*
X321917494Y-63047504D01*
X321917494Y-62666552D02*
X322727018Y-62666552D01*
X322822256Y-62618933D01*
X322869875Y-62571314D01*
X322917494Y-62476076D01*
X322917494Y-62285599D01*
X322869875Y-62190361D01*
X322822256Y-62142742D01*
X322727018Y-62095123D01*
X321917494Y-62095123D01*
X322869875Y-61666552D02*
X322917494Y-61523695D01*
X322917494Y-61285599D01*
X322869875Y-61190361D01*
X322822256Y-61142742D01*
X322727018Y-61095123D01*
X322631780Y-61095123D01*
X322536542Y-61142742D01*
X322488923Y-61190361D01*
X322441304Y-61285599D01*
X322393685Y-61476076D01*
X322346066Y-61571314D01*
X322298447Y-61618933D01*
X322203209Y-61666552D01*
X322107971Y-61666552D01*
X322012733Y-61618933D01*
X321965114Y-61571314D01*
X321917494Y-61476076D01*
X321917494Y-61237980D01*
X321965114Y-61095123D01*
X322393685Y-60666552D02*
X322393685Y-60333218D01*
X322917494Y-60190361D02*
X322917494Y-60666552D01*
X321917494Y-60666552D01*
X321917494Y-60190361D01*
X406939377Y-78669963D02*
X406986996Y-78527106D01*
X407034615Y-78479487D01*
X407129853Y-78431868D01*
X407272710Y-78431868D01*
X407367948Y-78479487D01*
X407415567Y-78527106D01*
X407463186Y-78622344D01*
X407463186Y-79003297D01*
X406463186Y-79003297D01*
X406463186Y-78669963D01*
X406510806Y-78574725D01*
X406558425Y-78527106D01*
X406653663Y-78479487D01*
X406748901Y-78479487D01*
X406844139Y-78527106D01*
X406891758Y-78574725D01*
X406939377Y-78669963D01*
X406939377Y-79003297D01*
X406463186Y-77812821D02*
X406463186Y-77622344D01*
X406510806Y-77527106D01*
X406606044Y-77431868D01*
X406796520Y-77384249D01*
X407129853Y-77384249D01*
X407320329Y-77431868D01*
X407415567Y-77527106D01*
X407463186Y-77622344D01*
X407463186Y-77812821D01*
X407415567Y-77908059D01*
X407320329Y-78003297D01*
X407129853Y-78050916D01*
X406796520Y-78050916D01*
X406606044Y-78003297D01*
X406510806Y-77908059D01*
X406463186Y-77812821D01*
X406463186Y-76765201D02*
X406463186Y-76574725D01*
X406510806Y-76479487D01*
X406606044Y-76384249D01*
X406796520Y-76336630D01*
X407129853Y-76336630D01*
X407320329Y-76384249D01*
X407415567Y-76479487D01*
X407463186Y-76574725D01*
X407463186Y-76765201D01*
X407415567Y-76860440D01*
X407320329Y-76955678D01*
X407129853Y-77003297D01*
X406796520Y-77003297D01*
X406606044Y-76955678D01*
X406510806Y-76860440D01*
X406463186Y-76765201D01*
X406463186Y-76050916D02*
X406463186Y-75479487D01*
X407463186Y-75765201D02*
X406463186Y-75765201D01*
X63962188Y-75566088D02*
X63162188Y-75566088D01*
X63162188Y-75375612D01*
X63200284Y-75261326D01*
X63276474Y-75185135D01*
X63352664Y-75147040D01*
X63505045Y-75108945D01*
X63619331Y-75108945D01*
X63771712Y-75147040D01*
X63847903Y-75185135D01*
X63924093Y-75261326D01*
X63962188Y-75375612D01*
X63962188Y-75566088D01*
X63962188Y-74347040D02*
X63962188Y-74804183D01*
X63962188Y-74575612D02*
X63162188Y-74575612D01*
X63276474Y-74651802D01*
X63352664Y-74727992D01*
X63390760Y-74804183D01*
X73470577Y-80907627D02*
X72670577Y-80907627D01*
X72670577Y-80717151D01*
X72708673Y-80602865D01*
X72784863Y-80526675D01*
X72861053Y-80488579D01*
X73013434Y-80450484D01*
X73127720Y-80450484D01*
X73280101Y-80488579D01*
X73356292Y-80526675D01*
X73432482Y-80602865D01*
X73470577Y-80717151D01*
X73470577Y-80907627D01*
X72937244Y-79764770D02*
X73470577Y-79764770D01*
X72632482Y-79955246D02*
X73203911Y-80145722D01*
X73203911Y-79650484D01*
X72670577Y-78964770D02*
X72670577Y-79345722D01*
X73051530Y-79383818D01*
X73013434Y-79345722D01*
X72975339Y-79269532D01*
X72975339Y-79079056D01*
X73013434Y-79002865D01*
X73051530Y-78964770D01*
X73127720Y-78926675D01*
X73318196Y-78926675D01*
X73394387Y-78964770D01*
X73432482Y-79002865D01*
X73470577Y-79079056D01*
X73470577Y-79269532D01*
X73432482Y-79345722D01*
X73394387Y-79383818D01*
X86148429Y-80526675D02*
X85348429Y-80526675D01*
X85348429Y-80336199D01*
X85386525Y-80221913D01*
X85462715Y-80145722D01*
X85538905Y-80107627D01*
X85691286Y-80069532D01*
X85805572Y-80069532D01*
X85957953Y-80107627D01*
X86034144Y-80145722D01*
X86110334Y-80221913D01*
X86148429Y-80336199D01*
X86148429Y-80526675D01*
X85424620Y-79764770D02*
X85386525Y-79726675D01*
X85348429Y-79650484D01*
X85348429Y-79460008D01*
X85386525Y-79383818D01*
X85424620Y-79345722D01*
X85500810Y-79307627D01*
X85577001Y-79307627D01*
X85691286Y-79345722D01*
X86148429Y-79802865D01*
X86148429Y-79307627D01*
X89317892Y-75566088D02*
X88517892Y-75566088D01*
X88517892Y-75375612D01*
X88555988Y-75261326D01*
X88632178Y-75185135D01*
X88708368Y-75147040D01*
X88860749Y-75108945D01*
X88975035Y-75108945D01*
X89127416Y-75147040D01*
X89203607Y-75185135D01*
X89279797Y-75261326D01*
X89317892Y-75375612D01*
X89317892Y-75566088D01*
X88517892Y-74842278D02*
X88517892Y-74347040D01*
X88822654Y-74613707D01*
X88822654Y-74499421D01*
X88860749Y-74423231D01*
X88898845Y-74385135D01*
X88975035Y-74347040D01*
X89165511Y-74347040D01*
X89241702Y-74385135D01*
X89279797Y-74423231D01*
X89317892Y-74499421D01*
X89317892Y-74727992D01*
X89279797Y-74804183D01*
X89241702Y-74842278D01*
X101995744Y-75566088D02*
X101195744Y-75566088D01*
X101195744Y-75375612D01*
X101233840Y-75261326D01*
X101310030Y-75185135D01*
X101386220Y-75147040D01*
X101538601Y-75108945D01*
X101652887Y-75108945D01*
X101805268Y-75147040D01*
X101881459Y-75185135D01*
X101957649Y-75261326D01*
X101995744Y-75375612D01*
X101995744Y-75566088D01*
X101462411Y-74423231D02*
X101995744Y-74423231D01*
X101157649Y-74613707D02*
X101729078Y-74804183D01*
X101729078Y-74308945D01*
X114673596Y-75566088D02*
X113873596Y-75566088D01*
X113873596Y-75375612D01*
X113911692Y-75261326D01*
X113987882Y-75185135D01*
X114064072Y-75147040D01*
X114216453Y-75108945D01*
X114330739Y-75108945D01*
X114483120Y-75147040D01*
X114559311Y-75185135D01*
X114635501Y-75261326D01*
X114673596Y-75375612D01*
X114673596Y-75566088D01*
X113873596Y-74385135D02*
X113873596Y-74766088D01*
X114254549Y-74804183D01*
X114216453Y-74766088D01*
X114178358Y-74689897D01*
X114178358Y-74499421D01*
X114216453Y-74423231D01*
X114254549Y-74385135D01*
X114330739Y-74347040D01*
X114521215Y-74347040D01*
X114597406Y-74385135D01*
X114635501Y-74423231D01*
X114673596Y-74499421D01*
X114673596Y-74689897D01*
X114635501Y-74766088D01*
X114597406Y-74804183D01*
X127351448Y-75566088D02*
X126551448Y-75566088D01*
X126551448Y-75375612D01*
X126589544Y-75261326D01*
X126665734Y-75185135D01*
X126741924Y-75147040D01*
X126894305Y-75108945D01*
X127008591Y-75108945D01*
X127160972Y-75147040D01*
X127237163Y-75185135D01*
X127313353Y-75261326D01*
X127351448Y-75375612D01*
X127351448Y-75566088D01*
X126551448Y-74423231D02*
X126551448Y-74575612D01*
X126589544Y-74651802D01*
X126627639Y-74689897D01*
X126741924Y-74766088D01*
X126894305Y-74804183D01*
X127199067Y-74804183D01*
X127275258Y-74766088D01*
X127313353Y-74727992D01*
X127351448Y-74651802D01*
X127351448Y-74499421D01*
X127313353Y-74423231D01*
X127275258Y-74385135D01*
X127199067Y-74347040D01*
X127008591Y-74347040D01*
X126932401Y-74385135D01*
X126894305Y-74423231D01*
X126856210Y-74499421D01*
X126856210Y-74651802D01*
X126894305Y-74727992D01*
X126932401Y-74766088D01*
X127008591Y-74804183D01*
X140029300Y-75566088D02*
X139229300Y-75566088D01*
X139229300Y-75375612D01*
X139267396Y-75261326D01*
X139343586Y-75185135D01*
X139419776Y-75147040D01*
X139572157Y-75108945D01*
X139686443Y-75108945D01*
X139838824Y-75147040D01*
X139915015Y-75185135D01*
X139991205Y-75261326D01*
X140029300Y-75375612D01*
X140029300Y-75566088D01*
X139229300Y-74842278D02*
X139229300Y-74308945D01*
X140029300Y-74651802D01*
X152707152Y-75566088D02*
X151907152Y-75566088D01*
X151907152Y-75375612D01*
X151945248Y-75261326D01*
X152021438Y-75185135D01*
X152097628Y-75147040D01*
X152250009Y-75108945D01*
X152364295Y-75108945D01*
X152516676Y-75147040D01*
X152592867Y-75185135D01*
X152669057Y-75261326D01*
X152707152Y-75375612D01*
X152707152Y-75566088D01*
X152250009Y-74651802D02*
X152211914Y-74727992D01*
X152173819Y-74766088D01*
X152097628Y-74804183D01*
X152059533Y-74804183D01*
X151983343Y-74766088D01*
X151945248Y-74727992D01*
X151907152Y-74651802D01*
X151907152Y-74499421D01*
X151945248Y-74423231D01*
X151983343Y-74385135D01*
X152059533Y-74347040D01*
X152097628Y-74347040D01*
X152173819Y-74385135D01*
X152211914Y-74423231D01*
X152250009Y-74499421D01*
X152250009Y-74651802D01*
X152288105Y-74727992D01*
X152326200Y-74766088D01*
X152402390Y-74804183D01*
X152554771Y-74804183D01*
X152630962Y-74766088D01*
X152669057Y-74727992D01*
X152707152Y-74651802D01*
X152707152Y-74499421D01*
X152669057Y-74423231D01*
X152630962Y-74385135D01*
X152554771Y-74347040D01*
X152402390Y-74347040D01*
X152326200Y-74385135D01*
X152288105Y-74423231D01*
X152250009Y-74499421D01*
X165385004Y-75566088D02*
X164585004Y-75566088D01*
X164585004Y-75375612D01*
X164623100Y-75261326D01*
X164699290Y-75185135D01*
X164775480Y-75147040D01*
X164927861Y-75108945D01*
X165042147Y-75108945D01*
X165194528Y-75147040D01*
X165270719Y-75185135D01*
X165346909Y-75261326D01*
X165385004Y-75375612D01*
X165385004Y-75566088D01*
X165385004Y-74727992D02*
X165385004Y-74575612D01*
X165346909Y-74499421D01*
X165308814Y-74461326D01*
X165194528Y-74385135D01*
X165042147Y-74347040D01*
X164737385Y-74347040D01*
X164661195Y-74385135D01*
X164623100Y-74423231D01*
X164585004Y-74499421D01*
X164585004Y-74651802D01*
X164623100Y-74727992D01*
X164661195Y-74766088D01*
X164737385Y-74804183D01*
X164927861Y-74804183D01*
X165004052Y-74766088D01*
X165042147Y-74727992D01*
X165080242Y-74651802D01*
X165080242Y-74499421D01*
X165042147Y-74423231D01*
X165004052Y-74385135D01*
X164927861Y-74347040D01*
X178062856Y-75947040D02*
X177262856Y-75947040D01*
X177262856Y-75756564D01*
X177300952Y-75642278D01*
X177377142Y-75566088D01*
X177453332Y-75527992D01*
X177605713Y-75489897D01*
X177719999Y-75489897D01*
X177872380Y-75527992D01*
X177948571Y-75566088D01*
X178024761Y-75642278D01*
X178062856Y-75756564D01*
X178062856Y-75947040D01*
X178062856Y-74727992D02*
X178062856Y-75185135D01*
X178062856Y-74956564D02*
X177262856Y-74956564D01*
X177377142Y-75032754D01*
X177453332Y-75108945D01*
X177491428Y-75185135D01*
X177262856Y-74232754D02*
X177262856Y-74156564D01*
X177300952Y-74080373D01*
X177339047Y-74042278D01*
X177415237Y-74004183D01*
X177567618Y-73966088D01*
X177758094Y-73966088D01*
X177910475Y-74004183D01*
X177986666Y-74042278D01*
X178024761Y-74080373D01*
X178062856Y-74156564D01*
X178062856Y-74232754D01*
X178024761Y-74308945D01*
X177986666Y-74347040D01*
X177910475Y-74385135D01*
X177758094Y-74423231D01*
X177567618Y-74423231D01*
X177415237Y-74385135D01*
X177339047Y-74347040D01*
X177300952Y-74308945D01*
X177262856Y-74232754D01*
X190740708Y-75947040D02*
X189940708Y-75947040D01*
X189940708Y-75756564D01*
X189978804Y-75642278D01*
X190054994Y-75566088D01*
X190131184Y-75527992D01*
X190283565Y-75489897D01*
X190397851Y-75489897D01*
X190550232Y-75527992D01*
X190626423Y-75566088D01*
X190702613Y-75642278D01*
X190740708Y-75756564D01*
X190740708Y-75947040D01*
X190740708Y-74727992D02*
X190740708Y-75185135D01*
X190740708Y-74956564D02*
X189940708Y-74956564D01*
X190054994Y-75032754D01*
X190131184Y-75108945D01*
X190169280Y-75185135D01*
X190740708Y-73966088D02*
X190740708Y-74423231D01*
X190740708Y-74194659D02*
X189940708Y-74194659D01*
X190054994Y-74270850D01*
X190131184Y-74347040D01*
X190169280Y-74423231D01*
X203418560Y-75947040D02*
X202618560Y-75947040D01*
X202618560Y-75756564D01*
X202656656Y-75642278D01*
X202732846Y-75566088D01*
X202809036Y-75527992D01*
X202961417Y-75489897D01*
X203075703Y-75489897D01*
X203228084Y-75527992D01*
X203304275Y-75566088D01*
X203380465Y-75642278D01*
X203418560Y-75756564D01*
X203418560Y-75947040D01*
X203418560Y-74727992D02*
X203418560Y-75185135D01*
X203418560Y-74956564D02*
X202618560Y-74956564D01*
X202732846Y-75032754D01*
X202809036Y-75108945D01*
X202847132Y-75185135D01*
X202694751Y-74423231D02*
X202656656Y-74385135D01*
X202618560Y-74308945D01*
X202618560Y-74118469D01*
X202656656Y-74042278D01*
X202694751Y-74004183D01*
X202770941Y-73966088D01*
X202847132Y-73966088D01*
X202961417Y-74004183D01*
X203418560Y-74461326D01*
X203418560Y-73966088D01*
X216096412Y-75947040D02*
X215296412Y-75947040D01*
X215296412Y-75756564D01*
X215334508Y-75642278D01*
X215410698Y-75566088D01*
X215486888Y-75527992D01*
X215639269Y-75489897D01*
X215753555Y-75489897D01*
X215905936Y-75527992D01*
X215982127Y-75566088D01*
X216058317Y-75642278D01*
X216096412Y-75756564D01*
X216096412Y-75947040D01*
X216096412Y-74727992D02*
X216096412Y-75185135D01*
X216096412Y-74956564D02*
X215296412Y-74956564D01*
X215410698Y-75032754D01*
X215486888Y-75108945D01*
X215524984Y-75185135D01*
X215296412Y-74461326D02*
X215296412Y-73966088D01*
X215601174Y-74232754D01*
X215601174Y-74118469D01*
X215639269Y-74042278D01*
X215677365Y-74004183D01*
X215753555Y-73966088D01*
X215944031Y-73966088D01*
X216020222Y-74004183D01*
X216058317Y-74042278D01*
X216096412Y-74118469D01*
X216096412Y-74347040D01*
X216058317Y-74423231D01*
X216020222Y-74461326D01*
X228704280Y-75947040D02*
X227904280Y-75947040D01*
X227904280Y-75756564D01*
X227942376Y-75642278D01*
X228018566Y-75566088D01*
X228094756Y-75527992D01*
X228247137Y-75489897D01*
X228361423Y-75489897D01*
X228513804Y-75527992D01*
X228589995Y-75566088D01*
X228666185Y-75642278D01*
X228704280Y-75756564D01*
X228704280Y-75947040D01*
X228704280Y-74727992D02*
X228704280Y-75185135D01*
X228704280Y-74956564D02*
X227904280Y-74956564D01*
X228018566Y-75032754D01*
X228094756Y-75108945D01*
X228132852Y-75185135D01*
X228170947Y-74042278D02*
X228704280Y-74042278D01*
X227866185Y-74232754D02*
X228437614Y-74423231D01*
X228437614Y-73927992D01*
X275903833Y-80907627D02*
X275103833Y-80907627D01*
X275103833Y-80717151D01*
X275141929Y-80602865D01*
X275218119Y-80526675D01*
X275294309Y-80488579D01*
X275446690Y-80450484D01*
X275560976Y-80450484D01*
X275713357Y-80488579D01*
X275789548Y-80526675D01*
X275865738Y-80602865D01*
X275903833Y-80717151D01*
X275903833Y-80907627D01*
X275903833Y-79688579D02*
X275903833Y-80145722D01*
X275903833Y-79917151D02*
X275103833Y-79917151D01*
X275218119Y-79993341D01*
X275294309Y-80069532D01*
X275332405Y-80145722D01*
X275103833Y-78964770D02*
X275103833Y-79345722D01*
X275484786Y-79383818D01*
X275446690Y-79345722D01*
X275408595Y-79269532D01*
X275408595Y-79079056D01*
X275446690Y-79002865D01*
X275484786Y-78964770D01*
X275560976Y-78926675D01*
X275751452Y-78926675D01*
X275827643Y-78964770D01*
X275865738Y-79002865D01*
X275903833Y-79079056D01*
X275903833Y-79269532D01*
X275865738Y-79345722D01*
X275827643Y-79383818D01*
X67131651Y-77600569D02*
X66331651Y-77600569D01*
X66331651Y-77410093D01*
X66369747Y-77295807D01*
X66445937Y-77219617D01*
X66522127Y-77181521D01*
X66674508Y-77143426D01*
X66788794Y-77143426D01*
X66941175Y-77181521D01*
X67017366Y-77219617D01*
X67093556Y-77295807D01*
X67131651Y-77410093D01*
X67131651Y-77600569D01*
X67131651Y-76381521D02*
X67131651Y-76838664D01*
X67131651Y-76610093D02*
X66331651Y-76610093D01*
X66445937Y-76686283D01*
X66522127Y-76762474D01*
X66560223Y-76838664D01*
X66331651Y-75695807D02*
X66331651Y-75848188D01*
X66369747Y-75924379D01*
X66407842Y-75962474D01*
X66522127Y-76038664D01*
X66674508Y-76076760D01*
X66979270Y-76076760D01*
X67055461Y-76038664D01*
X67093556Y-76000569D01*
X67131651Y-75924379D01*
X67131651Y-75771998D01*
X67093556Y-75695807D01*
X67055461Y-75657712D01*
X66979270Y-75619617D01*
X66788794Y-75619617D01*
X66712604Y-75657712D01*
X66674508Y-75695807D01*
X66636413Y-75771998D01*
X66636413Y-75924379D01*
X66674508Y-76000569D01*
X66712604Y-76038664D01*
X66788794Y-76076760D01*
X82978966Y-79254098D02*
X82178966Y-79254098D01*
X82178966Y-79063622D01*
X82217062Y-78949336D01*
X82293252Y-78873146D01*
X82369442Y-78835050D01*
X82521823Y-78796955D01*
X82636109Y-78796955D01*
X82788490Y-78835050D01*
X82864681Y-78873146D01*
X82940871Y-78949336D01*
X82978966Y-79063622D01*
X82978966Y-79254098D01*
X82978966Y-78035050D02*
X82978966Y-78492193D01*
X82978966Y-78263622D02*
X82178966Y-78263622D01*
X82293252Y-78339812D01*
X82369442Y-78416003D01*
X82407538Y-78492193D01*
X82178966Y-77768384D02*
X82178966Y-77235050D01*
X82978966Y-77577908D01*
X92487355Y-77600569D02*
X91687355Y-77600569D01*
X91687355Y-77410093D01*
X91725451Y-77295807D01*
X91801641Y-77219617D01*
X91877831Y-77181521D01*
X92030212Y-77143426D01*
X92144498Y-77143426D01*
X92296879Y-77181521D01*
X92373070Y-77219617D01*
X92449260Y-77295807D01*
X92487355Y-77410093D01*
X92487355Y-77600569D01*
X92487355Y-76381521D02*
X92487355Y-76838664D01*
X92487355Y-76610093D02*
X91687355Y-76610093D01*
X91801641Y-76686283D01*
X91877831Y-76762474D01*
X91915927Y-76838664D01*
X92030212Y-75924379D02*
X91992117Y-76000569D01*
X91954022Y-76038664D01*
X91877831Y-76076760D01*
X91839736Y-76076760D01*
X91763546Y-76038664D01*
X91725451Y-76000569D01*
X91687355Y-75924379D01*
X91687355Y-75771998D01*
X91725451Y-75695807D01*
X91763546Y-75657712D01*
X91839736Y-75619617D01*
X91877831Y-75619617D01*
X91954022Y-75657712D01*
X91992117Y-75695807D01*
X92030212Y-75771998D01*
X92030212Y-75924379D01*
X92068308Y-76000569D01*
X92106403Y-76038664D01*
X92182593Y-76076760D01*
X92334974Y-76076760D01*
X92411165Y-76038664D01*
X92449260Y-76000569D01*
X92487355Y-75924379D01*
X92487355Y-75771998D01*
X92449260Y-75695807D01*
X92411165Y-75657712D01*
X92334974Y-75619617D01*
X92182593Y-75619617D01*
X92106403Y-75657712D01*
X92068308Y-75695807D01*
X92030212Y-75771998D01*
X105165207Y-77600569D02*
X104365207Y-77600569D01*
X104365207Y-77410093D01*
X104403303Y-77295807D01*
X104479493Y-77219617D01*
X104555683Y-77181521D01*
X104708064Y-77143426D01*
X104822350Y-77143426D01*
X104974731Y-77181521D01*
X105050922Y-77219617D01*
X105127112Y-77295807D01*
X105165207Y-77410093D01*
X105165207Y-77600569D01*
X105165207Y-76381521D02*
X105165207Y-76838664D01*
X105165207Y-76610093D02*
X104365207Y-76610093D01*
X104479493Y-76686283D01*
X104555683Y-76762474D01*
X104593779Y-76838664D01*
X105165207Y-76000569D02*
X105165207Y-75848188D01*
X105127112Y-75771998D01*
X105089017Y-75733902D01*
X104974731Y-75657712D01*
X104822350Y-75619617D01*
X104517588Y-75619617D01*
X104441398Y-75657712D01*
X104403303Y-75695807D01*
X104365207Y-75771998D01*
X104365207Y-75924379D01*
X104403303Y-76000569D01*
X104441398Y-76038664D01*
X104517588Y-76076760D01*
X104708064Y-76076760D01*
X104784255Y-76038664D01*
X104822350Y-76000569D01*
X104860445Y-75924379D01*
X104860445Y-75771998D01*
X104822350Y-75695807D01*
X104784255Y-75657712D01*
X104708064Y-75619617D01*
X117843059Y-77600569D02*
X117043059Y-77600569D01*
X117043059Y-77410093D01*
X117081155Y-77295807D01*
X117157345Y-77219617D01*
X117233535Y-77181521D01*
X117385916Y-77143426D01*
X117500202Y-77143426D01*
X117652583Y-77181521D01*
X117728774Y-77219617D01*
X117804964Y-77295807D01*
X117843059Y-77410093D01*
X117843059Y-77600569D01*
X117119250Y-76838664D02*
X117081155Y-76800569D01*
X117043059Y-76724379D01*
X117043059Y-76533902D01*
X117081155Y-76457712D01*
X117119250Y-76419617D01*
X117195440Y-76381521D01*
X117271631Y-76381521D01*
X117385916Y-76419617D01*
X117843059Y-76876760D01*
X117843059Y-76381521D01*
X117043059Y-75886283D02*
X117043059Y-75810093D01*
X117081155Y-75733902D01*
X117119250Y-75695807D01*
X117195440Y-75657712D01*
X117347821Y-75619617D01*
X117538297Y-75619617D01*
X117690678Y-75657712D01*
X117766869Y-75695807D01*
X117804964Y-75733902D01*
X117843059Y-75810093D01*
X117843059Y-75886283D01*
X117804964Y-75962474D01*
X117766869Y-76000569D01*
X117690678Y-76038664D01*
X117538297Y-76076760D01*
X117347821Y-76076760D01*
X117195440Y-76038664D01*
X117119250Y-76000569D01*
X117081155Y-75962474D01*
X117043059Y-75886283D01*
X130520911Y-77600569D02*
X129720911Y-77600569D01*
X129720911Y-77410093D01*
X129759007Y-77295807D01*
X129835197Y-77219617D01*
X129911387Y-77181521D01*
X130063768Y-77143426D01*
X130178054Y-77143426D01*
X130330435Y-77181521D01*
X130406626Y-77219617D01*
X130482816Y-77295807D01*
X130520911Y-77410093D01*
X130520911Y-77600569D01*
X129797102Y-76838664D02*
X129759007Y-76800569D01*
X129720911Y-76724379D01*
X129720911Y-76533902D01*
X129759007Y-76457712D01*
X129797102Y-76419617D01*
X129873292Y-76381521D01*
X129949483Y-76381521D01*
X130063768Y-76419617D01*
X130520911Y-76876760D01*
X130520911Y-76381521D01*
X130520911Y-75619617D02*
X130520911Y-76076760D01*
X130520911Y-75848188D02*
X129720911Y-75848188D01*
X129835197Y-75924379D01*
X129911387Y-76000569D01*
X129949483Y-76076760D01*
X143198763Y-77600569D02*
X142398763Y-77600569D01*
X142398763Y-77410093D01*
X142436859Y-77295807D01*
X142513049Y-77219617D01*
X142589239Y-77181521D01*
X142741620Y-77143426D01*
X142855906Y-77143426D01*
X143008287Y-77181521D01*
X143084478Y-77219617D01*
X143160668Y-77295807D01*
X143198763Y-77410093D01*
X143198763Y-77600569D01*
X142474954Y-76838664D02*
X142436859Y-76800569D01*
X142398763Y-76724379D01*
X142398763Y-76533902D01*
X142436859Y-76457712D01*
X142474954Y-76419617D01*
X142551144Y-76381521D01*
X142627335Y-76381521D01*
X142741620Y-76419617D01*
X143198763Y-76876760D01*
X143198763Y-76381521D01*
X142474954Y-76076760D02*
X142436859Y-76038664D01*
X142398763Y-75962474D01*
X142398763Y-75771998D01*
X142436859Y-75695807D01*
X142474954Y-75657712D01*
X142551144Y-75619617D01*
X142627335Y-75619617D01*
X142741620Y-75657712D01*
X143198763Y-76114855D01*
X143198763Y-75619617D01*
X155876615Y-77600569D02*
X155076615Y-77600569D01*
X155076615Y-77410093D01*
X155114711Y-77295807D01*
X155190901Y-77219617D01*
X155267091Y-77181521D01*
X155419472Y-77143426D01*
X155533758Y-77143426D01*
X155686139Y-77181521D01*
X155762330Y-77219617D01*
X155838520Y-77295807D01*
X155876615Y-77410093D01*
X155876615Y-77600569D01*
X155152806Y-76838664D02*
X155114711Y-76800569D01*
X155076615Y-76724379D01*
X155076615Y-76533902D01*
X155114711Y-76457712D01*
X155152806Y-76419617D01*
X155228996Y-76381521D01*
X155305187Y-76381521D01*
X155419472Y-76419617D01*
X155876615Y-76876760D01*
X155876615Y-76381521D01*
X155076615Y-76114855D02*
X155076615Y-75619617D01*
X155381377Y-75886283D01*
X155381377Y-75771998D01*
X155419472Y-75695807D01*
X155457568Y-75657712D01*
X155533758Y-75619617D01*
X155724234Y-75619617D01*
X155800425Y-75657712D01*
X155838520Y-75695807D01*
X155876615Y-75771998D01*
X155876615Y-76000569D01*
X155838520Y-76076760D01*
X155800425Y-76114855D01*
X168554467Y-77600569D02*
X167754467Y-77600569D01*
X167754467Y-77410093D01*
X167792563Y-77295807D01*
X167868753Y-77219617D01*
X167944943Y-77181521D01*
X168097324Y-77143426D01*
X168211610Y-77143426D01*
X168363991Y-77181521D01*
X168440182Y-77219617D01*
X168516372Y-77295807D01*
X168554467Y-77410093D01*
X168554467Y-77600569D01*
X167830658Y-76838664D02*
X167792563Y-76800569D01*
X167754467Y-76724379D01*
X167754467Y-76533902D01*
X167792563Y-76457712D01*
X167830658Y-76419617D01*
X167906848Y-76381521D01*
X167983039Y-76381521D01*
X168097324Y-76419617D01*
X168554467Y-76876760D01*
X168554467Y-76381521D01*
X168021134Y-75695807D02*
X168554467Y-75695807D01*
X167716372Y-75886283D02*
X168287801Y-76076760D01*
X168287801Y-75581521D01*
X181232319Y-77600569D02*
X180432319Y-77600569D01*
X180432319Y-77410093D01*
X180470415Y-77295807D01*
X180546605Y-77219617D01*
X180622795Y-77181521D01*
X180775176Y-77143426D01*
X180889462Y-77143426D01*
X181041843Y-77181521D01*
X181118034Y-77219617D01*
X181194224Y-77295807D01*
X181232319Y-77410093D01*
X181232319Y-77600569D01*
X180508510Y-76838664D02*
X180470415Y-76800569D01*
X180432319Y-76724379D01*
X180432319Y-76533902D01*
X180470415Y-76457712D01*
X180508510Y-76419617D01*
X180584700Y-76381521D01*
X180660891Y-76381521D01*
X180775176Y-76419617D01*
X181232319Y-76876760D01*
X181232319Y-76381521D01*
X180432319Y-75657712D02*
X180432319Y-76038664D01*
X180813272Y-76076760D01*
X180775176Y-76038664D01*
X180737081Y-75962474D01*
X180737081Y-75771998D01*
X180775176Y-75695807D01*
X180813272Y-75657712D01*
X180889462Y-75619617D01*
X181079938Y-75619617D01*
X181156129Y-75657712D01*
X181194224Y-75695807D01*
X181232319Y-75771998D01*
X181232319Y-75962474D01*
X181194224Y-76038664D01*
X181156129Y-76076760D01*
X193910171Y-77600569D02*
X193110171Y-77600569D01*
X193110171Y-77410093D01*
X193148267Y-77295807D01*
X193224457Y-77219617D01*
X193300647Y-77181521D01*
X193453028Y-77143426D01*
X193567314Y-77143426D01*
X193719695Y-77181521D01*
X193795886Y-77219617D01*
X193872076Y-77295807D01*
X193910171Y-77410093D01*
X193910171Y-77600569D01*
X193186362Y-76838664D02*
X193148267Y-76800569D01*
X193110171Y-76724379D01*
X193110171Y-76533902D01*
X193148267Y-76457712D01*
X193186362Y-76419617D01*
X193262552Y-76381521D01*
X193338743Y-76381521D01*
X193453028Y-76419617D01*
X193910171Y-76876760D01*
X193910171Y-76381521D01*
X193110171Y-75695807D02*
X193110171Y-75848188D01*
X193148267Y-75924379D01*
X193186362Y-75962474D01*
X193300647Y-76038664D01*
X193453028Y-76076760D01*
X193757790Y-76076760D01*
X193833981Y-76038664D01*
X193872076Y-76000569D01*
X193910171Y-75924379D01*
X193910171Y-75771998D01*
X193872076Y-75695807D01*
X193833981Y-75657712D01*
X193757790Y-75619617D01*
X193567314Y-75619617D01*
X193491124Y-75657712D01*
X193453028Y-75695807D01*
X193414933Y-75771998D01*
X193414933Y-75924379D01*
X193453028Y-76000569D01*
X193491124Y-76038664D01*
X193567314Y-76076760D01*
X206588023Y-77600569D02*
X205788023Y-77600569D01*
X205788023Y-77410093D01*
X205826119Y-77295807D01*
X205902309Y-77219617D01*
X205978499Y-77181521D01*
X206130880Y-77143426D01*
X206245166Y-77143426D01*
X206397547Y-77181521D01*
X206473738Y-77219617D01*
X206549928Y-77295807D01*
X206588023Y-77410093D01*
X206588023Y-77600569D01*
X205864214Y-76838664D02*
X205826119Y-76800569D01*
X205788023Y-76724379D01*
X205788023Y-76533902D01*
X205826119Y-76457712D01*
X205864214Y-76419617D01*
X205940404Y-76381521D01*
X206016595Y-76381521D01*
X206130880Y-76419617D01*
X206588023Y-76876760D01*
X206588023Y-76381521D01*
X205788023Y-76114855D02*
X205788023Y-75581521D01*
X206588023Y-75924379D01*
X219248379Y-77600569D02*
X218448379Y-77600569D01*
X218448379Y-77410093D01*
X218486475Y-77295807D01*
X218562665Y-77219617D01*
X218638855Y-77181521D01*
X218791236Y-77143426D01*
X218905522Y-77143426D01*
X219057903Y-77181521D01*
X219134094Y-77219617D01*
X219210284Y-77295807D01*
X219248379Y-77410093D01*
X219248379Y-77600569D01*
X218524570Y-76838664D02*
X218486475Y-76800569D01*
X218448379Y-76724379D01*
X218448379Y-76533902D01*
X218486475Y-76457712D01*
X218524570Y-76419617D01*
X218600760Y-76381521D01*
X218676951Y-76381521D01*
X218791236Y-76419617D01*
X219248379Y-76876760D01*
X219248379Y-76381521D01*
X218791236Y-75924379D02*
X218753141Y-76000569D01*
X218715046Y-76038664D01*
X218638855Y-76076760D01*
X218600760Y-76076760D01*
X218524570Y-76038664D01*
X218486475Y-76000569D01*
X218448379Y-75924379D01*
X218448379Y-75771998D01*
X218486475Y-75695807D01*
X218524570Y-75657712D01*
X218600760Y-75619617D01*
X218638855Y-75619617D01*
X218715046Y-75657712D01*
X218753141Y-75695807D01*
X218791236Y-75771998D01*
X218791236Y-75924379D01*
X218829332Y-76000569D01*
X218867427Y-76038664D01*
X218943617Y-76076760D01*
X219095998Y-76076760D01*
X219172189Y-76038664D01*
X219210284Y-76000569D01*
X219248379Y-75924379D01*
X219248379Y-75771998D01*
X219210284Y-75695807D01*
X219172189Y-75657712D01*
X219095998Y-75619617D01*
X218943617Y-75619617D01*
X218867427Y-75657712D01*
X218829332Y-75695807D01*
X218791236Y-75771998D01*
X231855053Y-77600569D02*
X231055053Y-77600569D01*
X231055053Y-77410093D01*
X231093149Y-77295807D01*
X231169339Y-77219617D01*
X231245529Y-77181521D01*
X231397910Y-77143426D01*
X231512196Y-77143426D01*
X231664577Y-77181521D01*
X231740768Y-77219617D01*
X231816958Y-77295807D01*
X231855053Y-77410093D01*
X231855053Y-77600569D01*
X231131244Y-76838664D02*
X231093149Y-76800569D01*
X231055053Y-76724379D01*
X231055053Y-76533902D01*
X231093149Y-76457712D01*
X231131244Y-76419617D01*
X231207434Y-76381521D01*
X231283625Y-76381521D01*
X231397910Y-76419617D01*
X231855053Y-76876760D01*
X231855053Y-76381521D01*
X231855053Y-76000569D02*
X231855053Y-75848188D01*
X231816958Y-75771998D01*
X231778863Y-75733902D01*
X231664577Y-75657712D01*
X231512196Y-75619617D01*
X231207434Y-75619617D01*
X231131244Y-75657712D01*
X231093149Y-75695807D01*
X231055053Y-75771998D01*
X231055053Y-75924379D01*
X231093149Y-76000569D01*
X231131244Y-76038664D01*
X231207434Y-76076760D01*
X231397910Y-76076760D01*
X231474101Y-76038664D01*
X231512196Y-76000569D01*
X231550291Y-75924379D01*
X231550291Y-75771998D01*
X231512196Y-75695807D01*
X231474101Y-75657712D01*
X231397910Y-75619617D01*
X272815109Y-79254098D02*
X272015109Y-79254098D01*
X272015109Y-79063622D01*
X272053205Y-78949336D01*
X272129395Y-78873146D01*
X272205585Y-78835050D01*
X272357966Y-78796955D01*
X272472252Y-78796955D01*
X272624633Y-78835050D01*
X272700824Y-78873146D01*
X272777014Y-78949336D01*
X272815109Y-79063622D01*
X272815109Y-79254098D01*
X272015109Y-78530289D02*
X272015109Y-78035050D01*
X272319871Y-78301717D01*
X272319871Y-78187431D01*
X272357966Y-78111241D01*
X272396062Y-78073146D01*
X272472252Y-78035050D01*
X272662728Y-78035050D01*
X272738919Y-78073146D01*
X272777014Y-78111241D01*
X272815109Y-78187431D01*
X272815109Y-78416003D01*
X272777014Y-78492193D01*
X272738919Y-78530289D01*
X272015109Y-77539812D02*
X272015109Y-77463622D01*
X272053205Y-77387431D01*
X272091300Y-77349336D01*
X272167490Y-77311241D01*
X272319871Y-77273146D01*
X272510347Y-77273146D01*
X272662728Y-77311241D01*
X272738919Y-77349336D01*
X272777014Y-77387431D01*
X272815109Y-77463622D01*
X272815109Y-77539812D01*
X272777014Y-77616003D01*
X272738919Y-77654098D01*
X272662728Y-77692193D01*
X272510347Y-77730289D01*
X272319871Y-77730289D01*
X272167490Y-77692193D01*
X272091300Y-77654098D01*
X272053205Y-77616003D01*
X272015109Y-77539812D01*
X70301114Y-79254098D02*
X69501114Y-79254098D01*
X69501114Y-79063622D01*
X69539210Y-78949336D01*
X69615400Y-78873146D01*
X69691590Y-78835050D01*
X69843971Y-78796955D01*
X69958257Y-78796955D01*
X70110638Y-78835050D01*
X70186829Y-78873146D01*
X70263019Y-78949336D01*
X70301114Y-79063622D01*
X70301114Y-79254098D01*
X69501114Y-78530289D02*
X69501114Y-78035050D01*
X69805876Y-78301717D01*
X69805876Y-78187431D01*
X69843971Y-78111241D01*
X69882067Y-78073146D01*
X69958257Y-78035050D01*
X70148733Y-78035050D01*
X70224924Y-78073146D01*
X70263019Y-78111241D01*
X70301114Y-78187431D01*
X70301114Y-78416003D01*
X70263019Y-78492193D01*
X70224924Y-78530289D01*
X70301114Y-77273146D02*
X70301114Y-77730289D01*
X70301114Y-77501717D02*
X69501114Y-77501717D01*
X69615400Y-77577908D01*
X69691590Y-77654098D01*
X69729686Y-77730289D01*
X79809503Y-77600569D02*
X79009503Y-77600569D01*
X79009503Y-77410093D01*
X79047599Y-77295807D01*
X79123789Y-77219617D01*
X79199979Y-77181521D01*
X79352360Y-77143426D01*
X79466646Y-77143426D01*
X79619027Y-77181521D01*
X79695218Y-77219617D01*
X79771408Y-77295807D01*
X79809503Y-77410093D01*
X79809503Y-77600569D01*
X79009503Y-76876760D02*
X79009503Y-76381521D01*
X79314265Y-76648188D01*
X79314265Y-76533902D01*
X79352360Y-76457712D01*
X79390456Y-76419617D01*
X79466646Y-76381521D01*
X79657122Y-76381521D01*
X79733313Y-76419617D01*
X79771408Y-76457712D01*
X79809503Y-76533902D01*
X79809503Y-76762474D01*
X79771408Y-76838664D01*
X79733313Y-76876760D01*
X79085694Y-76076760D02*
X79047599Y-76038664D01*
X79009503Y-75962474D01*
X79009503Y-75771998D01*
X79047599Y-75695807D01*
X79085694Y-75657712D01*
X79161884Y-75619617D01*
X79238075Y-75619617D01*
X79352360Y-75657712D01*
X79809503Y-76114855D01*
X79809503Y-75619617D01*
X95656818Y-79254098D02*
X94856818Y-79254098D01*
X94856818Y-79063622D01*
X94894914Y-78949336D01*
X94971104Y-78873146D01*
X95047294Y-78835050D01*
X95199675Y-78796955D01*
X95313961Y-78796955D01*
X95466342Y-78835050D01*
X95542533Y-78873146D01*
X95618723Y-78949336D01*
X95656818Y-79063622D01*
X95656818Y-79254098D01*
X94856818Y-78530289D02*
X94856818Y-78035050D01*
X95161580Y-78301717D01*
X95161580Y-78187431D01*
X95199675Y-78111241D01*
X95237771Y-78073146D01*
X95313961Y-78035050D01*
X95504437Y-78035050D01*
X95580628Y-78073146D01*
X95618723Y-78111241D01*
X95656818Y-78187431D01*
X95656818Y-78416003D01*
X95618723Y-78492193D01*
X95580628Y-78530289D01*
X94856818Y-77768384D02*
X94856818Y-77273146D01*
X95161580Y-77539812D01*
X95161580Y-77425527D01*
X95199675Y-77349336D01*
X95237771Y-77311241D01*
X95313961Y-77273146D01*
X95504437Y-77273146D01*
X95580628Y-77311241D01*
X95618723Y-77349336D01*
X95656818Y-77425527D01*
X95656818Y-77654098D01*
X95618723Y-77730289D01*
X95580628Y-77768384D01*
X108334670Y-79254098D02*
X107534670Y-79254098D01*
X107534670Y-79063622D01*
X107572766Y-78949336D01*
X107648956Y-78873146D01*
X107725146Y-78835050D01*
X107877527Y-78796955D01*
X107991813Y-78796955D01*
X108144194Y-78835050D01*
X108220385Y-78873146D01*
X108296575Y-78949336D01*
X108334670Y-79063622D01*
X108334670Y-79254098D01*
X107534670Y-78530289D02*
X107534670Y-78035050D01*
X107839432Y-78301717D01*
X107839432Y-78187431D01*
X107877527Y-78111241D01*
X107915623Y-78073146D01*
X107991813Y-78035050D01*
X108182289Y-78035050D01*
X108258480Y-78073146D01*
X108296575Y-78111241D01*
X108334670Y-78187431D01*
X108334670Y-78416003D01*
X108296575Y-78492193D01*
X108258480Y-78530289D01*
X107801337Y-77349336D02*
X108334670Y-77349336D01*
X107496575Y-77539812D02*
X108068004Y-77730289D01*
X108068004Y-77235050D01*
X121012522Y-79254098D02*
X120212522Y-79254098D01*
X120212522Y-79063622D01*
X120250618Y-78949336D01*
X120326808Y-78873146D01*
X120402998Y-78835050D01*
X120555379Y-78796955D01*
X120669665Y-78796955D01*
X120822046Y-78835050D01*
X120898237Y-78873146D01*
X120974427Y-78949336D01*
X121012522Y-79063622D01*
X121012522Y-79254098D01*
X120212522Y-78530289D02*
X120212522Y-78035050D01*
X120517284Y-78301717D01*
X120517284Y-78187431D01*
X120555379Y-78111241D01*
X120593475Y-78073146D01*
X120669665Y-78035050D01*
X120860141Y-78035050D01*
X120936332Y-78073146D01*
X120974427Y-78111241D01*
X121012522Y-78187431D01*
X121012522Y-78416003D01*
X120974427Y-78492193D01*
X120936332Y-78530289D01*
X120212522Y-77311241D02*
X120212522Y-77692193D01*
X120593475Y-77730289D01*
X120555379Y-77692193D01*
X120517284Y-77616003D01*
X120517284Y-77425527D01*
X120555379Y-77349336D01*
X120593475Y-77311241D01*
X120669665Y-77273146D01*
X120860141Y-77273146D01*
X120936332Y-77311241D01*
X120974427Y-77349336D01*
X121012522Y-77425527D01*
X121012522Y-77616003D01*
X120974427Y-77692193D01*
X120936332Y-77730289D01*
X133690374Y-79254098D02*
X132890374Y-79254098D01*
X132890374Y-79063622D01*
X132928470Y-78949336D01*
X133004660Y-78873146D01*
X133080850Y-78835050D01*
X133233231Y-78796955D01*
X133347517Y-78796955D01*
X133499898Y-78835050D01*
X133576089Y-78873146D01*
X133652279Y-78949336D01*
X133690374Y-79063622D01*
X133690374Y-79254098D01*
X132890374Y-78530289D02*
X132890374Y-78035050D01*
X133195136Y-78301717D01*
X133195136Y-78187431D01*
X133233231Y-78111241D01*
X133271327Y-78073146D01*
X133347517Y-78035050D01*
X133537993Y-78035050D01*
X133614184Y-78073146D01*
X133652279Y-78111241D01*
X133690374Y-78187431D01*
X133690374Y-78416003D01*
X133652279Y-78492193D01*
X133614184Y-78530289D01*
X132890374Y-77349336D02*
X132890374Y-77501717D01*
X132928470Y-77577908D01*
X132966565Y-77616003D01*
X133080850Y-77692193D01*
X133233231Y-77730289D01*
X133537993Y-77730289D01*
X133614184Y-77692193D01*
X133652279Y-77654098D01*
X133690374Y-77577908D01*
X133690374Y-77425527D01*
X133652279Y-77349336D01*
X133614184Y-77311241D01*
X133537993Y-77273146D01*
X133347517Y-77273146D01*
X133271327Y-77311241D01*
X133233231Y-77349336D01*
X133195136Y-77425527D01*
X133195136Y-77577908D01*
X133233231Y-77654098D01*
X133271327Y-77692193D01*
X133347517Y-77730289D01*
X146368226Y-79254098D02*
X145568226Y-79254098D01*
X145568226Y-79063622D01*
X145606322Y-78949336D01*
X145682512Y-78873146D01*
X145758702Y-78835050D01*
X145911083Y-78796955D01*
X146025369Y-78796955D01*
X146177750Y-78835050D01*
X146253941Y-78873146D01*
X146330131Y-78949336D01*
X146368226Y-79063622D01*
X146368226Y-79254098D01*
X145568226Y-78530289D02*
X145568226Y-78035050D01*
X145872988Y-78301717D01*
X145872988Y-78187431D01*
X145911083Y-78111241D01*
X145949179Y-78073146D01*
X146025369Y-78035050D01*
X146215845Y-78035050D01*
X146292036Y-78073146D01*
X146330131Y-78111241D01*
X146368226Y-78187431D01*
X146368226Y-78416003D01*
X146330131Y-78492193D01*
X146292036Y-78530289D01*
X145568226Y-77768384D02*
X145568226Y-77235050D01*
X146368226Y-77577908D01*
X159046078Y-79254098D02*
X158246078Y-79254098D01*
X158246078Y-79063622D01*
X158284174Y-78949336D01*
X158360364Y-78873146D01*
X158436554Y-78835050D01*
X158588935Y-78796955D01*
X158703221Y-78796955D01*
X158855602Y-78835050D01*
X158931793Y-78873146D01*
X159007983Y-78949336D01*
X159046078Y-79063622D01*
X159046078Y-79254098D01*
X158246078Y-78530289D02*
X158246078Y-78035050D01*
X158550840Y-78301717D01*
X158550840Y-78187431D01*
X158588935Y-78111241D01*
X158627031Y-78073146D01*
X158703221Y-78035050D01*
X158893697Y-78035050D01*
X158969888Y-78073146D01*
X159007983Y-78111241D01*
X159046078Y-78187431D01*
X159046078Y-78416003D01*
X159007983Y-78492193D01*
X158969888Y-78530289D01*
X158588935Y-77577908D02*
X158550840Y-77654098D01*
X158512745Y-77692193D01*
X158436554Y-77730289D01*
X158398459Y-77730289D01*
X158322269Y-77692193D01*
X158284174Y-77654098D01*
X158246078Y-77577908D01*
X158246078Y-77425527D01*
X158284174Y-77349336D01*
X158322269Y-77311241D01*
X158398459Y-77273146D01*
X158436554Y-77273146D01*
X158512745Y-77311241D01*
X158550840Y-77349336D01*
X158588935Y-77425527D01*
X158588935Y-77577908D01*
X158627031Y-77654098D01*
X158665126Y-77692193D01*
X158741316Y-77730289D01*
X158893697Y-77730289D01*
X158969888Y-77692193D01*
X159007983Y-77654098D01*
X159046078Y-77577908D01*
X159046078Y-77425527D01*
X159007983Y-77349336D01*
X158969888Y-77311241D01*
X158893697Y-77273146D01*
X158741316Y-77273146D01*
X158665126Y-77311241D01*
X158627031Y-77349336D01*
X158588935Y-77425527D01*
X171723930Y-79254098D02*
X170923930Y-79254098D01*
X170923930Y-79063622D01*
X170962026Y-78949336D01*
X171038216Y-78873146D01*
X171114406Y-78835050D01*
X171266787Y-78796955D01*
X171381073Y-78796955D01*
X171533454Y-78835050D01*
X171609645Y-78873146D01*
X171685835Y-78949336D01*
X171723930Y-79063622D01*
X171723930Y-79254098D01*
X170923930Y-78530289D02*
X170923930Y-78035050D01*
X171228692Y-78301717D01*
X171228692Y-78187431D01*
X171266787Y-78111241D01*
X171304883Y-78073146D01*
X171381073Y-78035050D01*
X171571549Y-78035050D01*
X171647740Y-78073146D01*
X171685835Y-78111241D01*
X171723930Y-78187431D01*
X171723930Y-78416003D01*
X171685835Y-78492193D01*
X171647740Y-78530289D01*
X171723930Y-77654098D02*
X171723930Y-77501717D01*
X171685835Y-77425527D01*
X171647740Y-77387431D01*
X171533454Y-77311241D01*
X171381073Y-77273146D01*
X171076311Y-77273146D01*
X171000121Y-77311241D01*
X170962026Y-77349336D01*
X170923930Y-77425527D01*
X170923930Y-77577908D01*
X170962026Y-77654098D01*
X171000121Y-77692193D01*
X171076311Y-77730289D01*
X171266787Y-77730289D01*
X171342978Y-77692193D01*
X171381073Y-77654098D01*
X171419168Y-77577908D01*
X171419168Y-77425527D01*
X171381073Y-77349336D01*
X171342978Y-77311241D01*
X171266787Y-77273146D01*
X184401782Y-79254098D02*
X183601782Y-79254098D01*
X183601782Y-79063622D01*
X183639878Y-78949336D01*
X183716068Y-78873146D01*
X183792258Y-78835050D01*
X183944639Y-78796955D01*
X184058925Y-78796955D01*
X184211306Y-78835050D01*
X184287497Y-78873146D01*
X184363687Y-78949336D01*
X184401782Y-79063622D01*
X184401782Y-79254098D01*
X183868449Y-78111241D02*
X184401782Y-78111241D01*
X183563687Y-78301717D02*
X184135116Y-78492193D01*
X184135116Y-77996955D01*
X183601782Y-77539812D02*
X183601782Y-77463622D01*
X183639878Y-77387431D01*
X183677973Y-77349336D01*
X183754163Y-77311241D01*
X183906544Y-77273146D01*
X184097020Y-77273146D01*
X184249401Y-77311241D01*
X184325592Y-77349336D01*
X184363687Y-77387431D01*
X184401782Y-77463622D01*
X184401782Y-77539812D01*
X184363687Y-77616003D01*
X184325592Y-77654098D01*
X184249401Y-77692193D01*
X184097020Y-77730289D01*
X183906544Y-77730289D01*
X183754163Y-77692193D01*
X183677973Y-77654098D01*
X183639878Y-77616003D01*
X183601782Y-77539812D01*
X197079634Y-79254098D02*
X196279634Y-79254098D01*
X196279634Y-79063622D01*
X196317730Y-78949336D01*
X196393920Y-78873146D01*
X196470110Y-78835050D01*
X196622491Y-78796955D01*
X196736777Y-78796955D01*
X196889158Y-78835050D01*
X196965349Y-78873146D01*
X197041539Y-78949336D01*
X197079634Y-79063622D01*
X197079634Y-79254098D01*
X196546301Y-78111241D02*
X197079634Y-78111241D01*
X196241539Y-78301717D02*
X196812968Y-78492193D01*
X196812968Y-77996955D01*
X197079634Y-77273146D02*
X197079634Y-77730289D01*
X197079634Y-77501717D02*
X196279634Y-77501717D01*
X196393920Y-77577908D01*
X196470110Y-77654098D01*
X196508206Y-77730289D01*
X209757486Y-79254098D02*
X208957486Y-79254098D01*
X208957486Y-79063622D01*
X208995582Y-78949336D01*
X209071772Y-78873146D01*
X209147962Y-78835050D01*
X209300343Y-78796955D01*
X209414629Y-78796955D01*
X209567010Y-78835050D01*
X209643201Y-78873146D01*
X209719391Y-78949336D01*
X209757486Y-79063622D01*
X209757486Y-79254098D01*
X209224153Y-78111241D02*
X209757486Y-78111241D01*
X208919391Y-78301717D02*
X209490820Y-78492193D01*
X209490820Y-77996955D01*
X209033677Y-77730289D02*
X208995582Y-77692193D01*
X208957486Y-77616003D01*
X208957486Y-77425527D01*
X208995582Y-77349336D01*
X209033677Y-77311241D01*
X209109867Y-77273146D01*
X209186058Y-77273146D01*
X209300343Y-77311241D01*
X209757486Y-77768384D01*
X209757486Y-77273146D01*
X235005826Y-79254098D02*
X234205826Y-79254098D01*
X234205826Y-79063622D01*
X234243922Y-78949336D01*
X234320112Y-78873146D01*
X234396302Y-78835050D01*
X234548683Y-78796955D01*
X234662969Y-78796955D01*
X234815350Y-78835050D01*
X234891541Y-78873146D01*
X234967731Y-78949336D01*
X235005826Y-79063622D01*
X235005826Y-79254098D01*
X234472493Y-78111241D02*
X235005826Y-78111241D01*
X234167731Y-78301717D02*
X234739160Y-78492193D01*
X234739160Y-77996955D01*
X234205826Y-77768384D02*
X234205826Y-77273146D01*
X234510588Y-77539812D01*
X234510588Y-77425527D01*
X234548683Y-77349336D01*
X234586779Y-77311241D01*
X234662969Y-77273146D01*
X234853445Y-77273146D01*
X234929636Y-77311241D01*
X234967731Y-77349336D01*
X235005826Y-77425527D01*
X235005826Y-77654098D01*
X234967731Y-77730289D01*
X234929636Y-77768384D01*
X269726385Y-77600569D02*
X268926385Y-77600569D01*
X268926385Y-77410093D01*
X268964481Y-77295807D01*
X269040671Y-77219617D01*
X269116861Y-77181521D01*
X269269242Y-77143426D01*
X269383528Y-77143426D01*
X269535909Y-77181521D01*
X269612100Y-77219617D01*
X269688290Y-77295807D01*
X269726385Y-77410093D01*
X269726385Y-77600569D01*
X269193052Y-76457712D02*
X269726385Y-76457712D01*
X268888290Y-76648188D02*
X269459719Y-76838664D01*
X269459719Y-76343426D01*
X269193052Y-75695807D02*
X269726385Y-75695807D01*
X268888290Y-75886283D02*
X269459719Y-76076760D01*
X269459719Y-75581521D01*
X98826281Y-80907627D02*
X98026281Y-80907627D01*
X98026281Y-80717151D01*
X98064377Y-80602865D01*
X98140567Y-80526675D01*
X98216757Y-80488579D01*
X98369138Y-80450484D01*
X98483424Y-80450484D01*
X98635805Y-80488579D01*
X98711996Y-80526675D01*
X98788186Y-80602865D01*
X98826281Y-80717151D01*
X98826281Y-80907627D01*
X98292948Y-79764770D02*
X98826281Y-79764770D01*
X97988186Y-79955246D02*
X98559615Y-80145722D01*
X98559615Y-79650484D01*
X98026281Y-79002865D02*
X98026281Y-79155246D01*
X98064377Y-79231437D01*
X98102472Y-79269532D01*
X98216757Y-79345722D01*
X98369138Y-79383818D01*
X98673900Y-79383818D01*
X98750091Y-79345722D01*
X98788186Y-79307627D01*
X98826281Y-79231437D01*
X98826281Y-79079056D01*
X98788186Y-79002865D01*
X98750091Y-78964770D01*
X98673900Y-78926675D01*
X98483424Y-78926675D01*
X98407234Y-78964770D01*
X98369138Y-79002865D01*
X98331043Y-79079056D01*
X98331043Y-79231437D01*
X98369138Y-79307627D01*
X98407234Y-79345722D01*
X98483424Y-79383818D01*
X111504133Y-80907627D02*
X110704133Y-80907627D01*
X110704133Y-80717151D01*
X110742229Y-80602865D01*
X110818419Y-80526675D01*
X110894609Y-80488579D01*
X111046990Y-80450484D01*
X111161276Y-80450484D01*
X111313657Y-80488579D01*
X111389848Y-80526675D01*
X111466038Y-80602865D01*
X111504133Y-80717151D01*
X111504133Y-80907627D01*
X110970800Y-79764770D02*
X111504133Y-79764770D01*
X110666038Y-79955246D02*
X111237467Y-80145722D01*
X111237467Y-79650484D01*
X110704133Y-79421913D02*
X110704133Y-78888579D01*
X111504133Y-79231437D01*
X124181985Y-80907627D02*
X123381985Y-80907627D01*
X123381985Y-80717151D01*
X123420081Y-80602865D01*
X123496271Y-80526675D01*
X123572461Y-80488579D01*
X123724842Y-80450484D01*
X123839128Y-80450484D01*
X123991509Y-80488579D01*
X124067700Y-80526675D01*
X124143890Y-80602865D01*
X124181985Y-80717151D01*
X124181985Y-80907627D01*
X123648652Y-79764770D02*
X124181985Y-79764770D01*
X123343890Y-79955246D02*
X123915319Y-80145722D01*
X123915319Y-79650484D01*
X123724842Y-79231437D02*
X123686747Y-79307627D01*
X123648652Y-79345722D01*
X123572461Y-79383818D01*
X123534366Y-79383818D01*
X123458176Y-79345722D01*
X123420081Y-79307627D01*
X123381985Y-79231437D01*
X123381985Y-79079056D01*
X123420081Y-79002865D01*
X123458176Y-78964770D01*
X123534366Y-78926675D01*
X123572461Y-78926675D01*
X123648652Y-78964770D01*
X123686747Y-79002865D01*
X123724842Y-79079056D01*
X123724842Y-79231437D01*
X123762938Y-79307627D01*
X123801033Y-79345722D01*
X123877223Y-79383818D01*
X124029604Y-79383818D01*
X124105795Y-79345722D01*
X124143890Y-79307627D01*
X124181985Y-79231437D01*
X124181985Y-79079056D01*
X124143890Y-79002865D01*
X124105795Y-78964770D01*
X124029604Y-78926675D01*
X123877223Y-78926675D01*
X123801033Y-78964770D01*
X123762938Y-79002865D01*
X123724842Y-79079056D01*
X136859837Y-80907627D02*
X136059837Y-80907627D01*
X136059837Y-80717151D01*
X136097933Y-80602865D01*
X136174123Y-80526675D01*
X136250313Y-80488579D01*
X136402694Y-80450484D01*
X136516980Y-80450484D01*
X136669361Y-80488579D01*
X136745552Y-80526675D01*
X136821742Y-80602865D01*
X136859837Y-80717151D01*
X136859837Y-80907627D01*
X136326504Y-79764770D02*
X136859837Y-79764770D01*
X136021742Y-79955246D02*
X136593171Y-80145722D01*
X136593171Y-79650484D01*
X136859837Y-79307627D02*
X136859837Y-79155246D01*
X136821742Y-79079056D01*
X136783647Y-79040960D01*
X136669361Y-78964770D01*
X136516980Y-78926675D01*
X136212218Y-78926675D01*
X136136028Y-78964770D01*
X136097933Y-79002865D01*
X136059837Y-79079056D01*
X136059837Y-79231437D01*
X136097933Y-79307627D01*
X136136028Y-79345722D01*
X136212218Y-79383818D01*
X136402694Y-79383818D01*
X136478885Y-79345722D01*
X136516980Y-79307627D01*
X136555075Y-79231437D01*
X136555075Y-79079056D01*
X136516980Y-79002865D01*
X136478885Y-78964770D01*
X136402694Y-78926675D01*
X149537689Y-80907627D02*
X148737689Y-80907627D01*
X148737689Y-80717151D01*
X148775785Y-80602865D01*
X148851975Y-80526675D01*
X148928165Y-80488579D01*
X149080546Y-80450484D01*
X149194832Y-80450484D01*
X149347213Y-80488579D01*
X149423404Y-80526675D01*
X149499594Y-80602865D01*
X149537689Y-80717151D01*
X149537689Y-80907627D01*
X148737689Y-79726675D02*
X148737689Y-80107627D01*
X149118642Y-80145722D01*
X149080546Y-80107627D01*
X149042451Y-80031437D01*
X149042451Y-79840960D01*
X149080546Y-79764770D01*
X149118642Y-79726675D01*
X149194832Y-79688579D01*
X149385308Y-79688579D01*
X149461499Y-79726675D01*
X149499594Y-79764770D01*
X149537689Y-79840960D01*
X149537689Y-80031437D01*
X149499594Y-80107627D01*
X149461499Y-80145722D01*
X148737689Y-79193341D02*
X148737689Y-79117151D01*
X148775785Y-79040960D01*
X148813880Y-79002865D01*
X148890070Y-78964770D01*
X149042451Y-78926675D01*
X149232927Y-78926675D01*
X149385308Y-78964770D01*
X149461499Y-79002865D01*
X149499594Y-79040960D01*
X149537689Y-79117151D01*
X149537689Y-79193341D01*
X149499594Y-79269532D01*
X149461499Y-79307627D01*
X149385308Y-79345722D01*
X149232927Y-79383818D01*
X149042451Y-79383818D01*
X148890070Y-79345722D01*
X148813880Y-79307627D01*
X148775785Y-79269532D01*
X148737689Y-79193341D01*
X162215541Y-80907627D02*
X161415541Y-80907627D01*
X161415541Y-80717151D01*
X161453637Y-80602865D01*
X161529827Y-80526675D01*
X161606017Y-80488579D01*
X161758398Y-80450484D01*
X161872684Y-80450484D01*
X162025065Y-80488579D01*
X162101256Y-80526675D01*
X162177446Y-80602865D01*
X162215541Y-80717151D01*
X162215541Y-80907627D01*
X161415541Y-79726675D02*
X161415541Y-80107627D01*
X161796494Y-80145722D01*
X161758398Y-80107627D01*
X161720303Y-80031437D01*
X161720303Y-79840960D01*
X161758398Y-79764770D01*
X161796494Y-79726675D01*
X161872684Y-79688579D01*
X162063160Y-79688579D01*
X162139351Y-79726675D01*
X162177446Y-79764770D01*
X162215541Y-79840960D01*
X162215541Y-80031437D01*
X162177446Y-80107627D01*
X162139351Y-80145722D01*
X162215541Y-78926675D02*
X162215541Y-79383818D01*
X162215541Y-79155246D02*
X161415541Y-79155246D01*
X161529827Y-79231437D01*
X161606017Y-79307627D01*
X161644113Y-79383818D01*
X174893393Y-80907627D02*
X174093393Y-80907627D01*
X174093393Y-80717151D01*
X174131489Y-80602865D01*
X174207679Y-80526675D01*
X174283869Y-80488579D01*
X174436250Y-80450484D01*
X174550536Y-80450484D01*
X174702917Y-80488579D01*
X174779108Y-80526675D01*
X174855298Y-80602865D01*
X174893393Y-80717151D01*
X174893393Y-80907627D01*
X174093393Y-79726675D02*
X174093393Y-80107627D01*
X174474346Y-80145722D01*
X174436250Y-80107627D01*
X174398155Y-80031437D01*
X174398155Y-79840960D01*
X174436250Y-79764770D01*
X174474346Y-79726675D01*
X174550536Y-79688579D01*
X174741012Y-79688579D01*
X174817203Y-79726675D01*
X174855298Y-79764770D01*
X174893393Y-79840960D01*
X174893393Y-80031437D01*
X174855298Y-80107627D01*
X174817203Y-80145722D01*
X174169584Y-79383818D02*
X174131489Y-79345722D01*
X174093393Y-79269532D01*
X174093393Y-79079056D01*
X174131489Y-79002865D01*
X174169584Y-78964770D01*
X174245774Y-78926675D01*
X174321965Y-78926675D01*
X174436250Y-78964770D01*
X174893393Y-79421913D01*
X174893393Y-78926675D01*
X187571245Y-80907627D02*
X186771245Y-80907627D01*
X186771245Y-80717151D01*
X186809341Y-80602865D01*
X186885531Y-80526675D01*
X186961721Y-80488579D01*
X187114102Y-80450484D01*
X187228388Y-80450484D01*
X187380769Y-80488579D01*
X187456960Y-80526675D01*
X187533150Y-80602865D01*
X187571245Y-80717151D01*
X187571245Y-80907627D01*
X186771245Y-79726675D02*
X186771245Y-80107627D01*
X187152198Y-80145722D01*
X187114102Y-80107627D01*
X187076007Y-80031437D01*
X187076007Y-79840960D01*
X187114102Y-79764770D01*
X187152198Y-79726675D01*
X187228388Y-79688579D01*
X187418864Y-79688579D01*
X187495055Y-79726675D01*
X187533150Y-79764770D01*
X187571245Y-79840960D01*
X187571245Y-80031437D01*
X187533150Y-80107627D01*
X187495055Y-80145722D01*
X186771245Y-79421913D02*
X186771245Y-78926675D01*
X187076007Y-79193341D01*
X187076007Y-79079056D01*
X187114102Y-79002865D01*
X187152198Y-78964770D01*
X187228388Y-78926675D01*
X187418864Y-78926675D01*
X187495055Y-78964770D01*
X187533150Y-79002865D01*
X187571245Y-79079056D01*
X187571245Y-79307627D01*
X187533150Y-79383818D01*
X187495055Y-79421913D01*
X200249097Y-80907627D02*
X199449097Y-80907627D01*
X199449097Y-80717151D01*
X199487193Y-80602865D01*
X199563383Y-80526675D01*
X199639573Y-80488579D01*
X199791954Y-80450484D01*
X199906240Y-80450484D01*
X200058621Y-80488579D01*
X200134812Y-80526675D01*
X200211002Y-80602865D01*
X200249097Y-80717151D01*
X200249097Y-80907627D01*
X199449097Y-79726675D02*
X199449097Y-80107627D01*
X199830050Y-80145722D01*
X199791954Y-80107627D01*
X199753859Y-80031437D01*
X199753859Y-79840960D01*
X199791954Y-79764770D01*
X199830050Y-79726675D01*
X199906240Y-79688579D01*
X200096716Y-79688579D01*
X200172907Y-79726675D01*
X200211002Y-79764770D01*
X200249097Y-79840960D01*
X200249097Y-80031437D01*
X200211002Y-80107627D01*
X200172907Y-80145722D01*
X199715764Y-79002865D02*
X200249097Y-79002865D01*
X199411002Y-79193341D02*
X199982431Y-79383818D01*
X199982431Y-78888579D01*
X212926949Y-80907627D02*
X212126949Y-80907627D01*
X212126949Y-80717151D01*
X212165045Y-80602865D01*
X212241235Y-80526675D01*
X212317425Y-80488579D01*
X212469806Y-80450484D01*
X212584092Y-80450484D01*
X212736473Y-80488579D01*
X212812664Y-80526675D01*
X212888854Y-80602865D01*
X212926949Y-80717151D01*
X212926949Y-80907627D01*
X212126949Y-79726675D02*
X212126949Y-80107627D01*
X212507902Y-80145722D01*
X212469806Y-80107627D01*
X212431711Y-80031437D01*
X212431711Y-79840960D01*
X212469806Y-79764770D01*
X212507902Y-79726675D01*
X212584092Y-79688579D01*
X212774568Y-79688579D01*
X212850759Y-79726675D01*
X212888854Y-79764770D01*
X212926949Y-79840960D01*
X212926949Y-80031437D01*
X212888854Y-80107627D01*
X212850759Y-80145722D01*
X212126949Y-78964770D02*
X212126949Y-79345722D01*
X212507902Y-79383818D01*
X212469806Y-79345722D01*
X212431711Y-79269532D01*
X212431711Y-79079056D01*
X212469806Y-79002865D01*
X212507902Y-78964770D01*
X212584092Y-78926675D01*
X212774568Y-78926675D01*
X212850759Y-78964770D01*
X212888854Y-79002865D01*
X212926949Y-79079056D01*
X212926949Y-79269532D01*
X212888854Y-79345722D01*
X212850759Y-79383818D01*
X222400346Y-79254098D02*
X221600346Y-79254098D01*
X221600346Y-79063622D01*
X221638442Y-78949336D01*
X221714632Y-78873146D01*
X221790822Y-78835050D01*
X221943203Y-78796955D01*
X222057489Y-78796955D01*
X222209870Y-78835050D01*
X222286061Y-78873146D01*
X222362251Y-78949336D01*
X222400346Y-79063622D01*
X222400346Y-79254098D01*
X221600346Y-78073146D02*
X221600346Y-78454098D01*
X221981299Y-78492193D01*
X221943203Y-78454098D01*
X221905108Y-78377908D01*
X221905108Y-78187431D01*
X221943203Y-78111241D01*
X221981299Y-78073146D01*
X222057489Y-78035050D01*
X222247965Y-78035050D01*
X222324156Y-78073146D01*
X222362251Y-78111241D01*
X222400346Y-78187431D01*
X222400346Y-78377908D01*
X222362251Y-78454098D01*
X222324156Y-78492193D01*
X221600346Y-77349336D02*
X221600346Y-77501717D01*
X221638442Y-77577908D01*
X221676537Y-77616003D01*
X221790822Y-77692193D01*
X221943203Y-77730289D01*
X222247965Y-77730289D01*
X222324156Y-77692193D01*
X222362251Y-77654098D01*
X222400346Y-77577908D01*
X222400346Y-77425527D01*
X222362251Y-77349336D01*
X222324156Y-77311241D01*
X222247965Y-77273146D01*
X222057489Y-77273146D01*
X221981299Y-77311241D01*
X221943203Y-77349336D01*
X221905108Y-77425527D01*
X221905108Y-77577908D01*
X221943203Y-77654098D01*
X221981299Y-77692193D01*
X222057489Y-77730289D01*
X238156599Y-80907627D02*
X237356599Y-80907627D01*
X237356599Y-80717151D01*
X237394695Y-80602865D01*
X237470885Y-80526675D01*
X237547075Y-80488579D01*
X237699456Y-80450484D01*
X237813742Y-80450484D01*
X237966123Y-80488579D01*
X238042314Y-80526675D01*
X238118504Y-80602865D01*
X238156599Y-80717151D01*
X238156599Y-80907627D01*
X237356599Y-79726675D02*
X237356599Y-80107627D01*
X237737552Y-80145722D01*
X237699456Y-80107627D01*
X237661361Y-80031437D01*
X237661361Y-79840960D01*
X237699456Y-79764770D01*
X237737552Y-79726675D01*
X237813742Y-79688579D01*
X238004218Y-79688579D01*
X238080409Y-79726675D01*
X238118504Y-79764770D01*
X238156599Y-79840960D01*
X238156599Y-80031437D01*
X238118504Y-80107627D01*
X238080409Y-80145722D01*
X237356599Y-79421913D02*
X237356599Y-78888579D01*
X238156599Y-79231437D01*
X266451510Y-75947040D02*
X265651510Y-75947040D01*
X265651510Y-75756564D01*
X265689606Y-75642278D01*
X265765796Y-75566088D01*
X265841986Y-75527992D01*
X265994367Y-75489897D01*
X266108653Y-75489897D01*
X266261034Y-75527992D01*
X266337225Y-75566088D01*
X266413415Y-75642278D01*
X266451510Y-75756564D01*
X266451510Y-75947040D01*
X265651510Y-74766088D02*
X265651510Y-75147040D01*
X266032463Y-75185135D01*
X265994367Y-75147040D01*
X265956272Y-75070850D01*
X265956272Y-74880373D01*
X265994367Y-74804183D01*
X266032463Y-74766088D01*
X266108653Y-74727992D01*
X266299129Y-74727992D01*
X266375320Y-74766088D01*
X266413415Y-74804183D01*
X266451510Y-74880373D01*
X266451510Y-75070850D01*
X266413415Y-75147040D01*
X266375320Y-75185135D01*
X265994367Y-74270850D02*
X265956272Y-74347040D01*
X265918177Y-74385135D01*
X265841986Y-74423231D01*
X265803891Y-74423231D01*
X265727701Y-74385135D01*
X265689606Y-74347040D01*
X265651510Y-74270850D01*
X265651510Y-74118469D01*
X265689606Y-74042278D01*
X265727701Y-74004183D01*
X265803891Y-73966088D01*
X265841986Y-73966088D01*
X265918177Y-74004183D01*
X265956272Y-74042278D01*
X265994367Y-74118469D01*
X265994367Y-74270850D01*
X266032463Y-74347040D01*
X266070558Y-74385135D01*
X266146748Y-74423231D01*
X266299129Y-74423231D01*
X266375320Y-74385135D01*
X266413415Y-74347040D01*
X266451510Y-74270850D01*
X266451510Y-74118469D01*
X266413415Y-74042278D01*
X266375320Y-74004183D01*
X266299129Y-73966088D01*
X266146748Y-73966088D01*
X266070558Y-74004183D01*
X266032463Y-74042278D01*
X265994367Y-74118469D01*
X260149962Y-79254098D02*
X259349962Y-79254098D01*
X259349962Y-79063622D01*
X259388058Y-78949336D01*
X259464248Y-78873146D01*
X259540438Y-78835050D01*
X259692819Y-78796955D01*
X259807105Y-78796955D01*
X259959486Y-78835050D01*
X260035677Y-78873146D01*
X260111867Y-78949336D01*
X260149962Y-79063622D01*
X260149962Y-79254098D01*
X259349962Y-78073146D02*
X259349962Y-78454098D01*
X259730915Y-78492193D01*
X259692819Y-78454098D01*
X259654724Y-78377908D01*
X259654724Y-78187431D01*
X259692819Y-78111241D01*
X259730915Y-78073146D01*
X259807105Y-78035050D01*
X259997581Y-78035050D01*
X260073772Y-78073146D01*
X260111867Y-78111241D01*
X260149962Y-78187431D01*
X260149962Y-78377908D01*
X260111867Y-78454098D01*
X260073772Y-78492193D01*
X260149962Y-77654098D02*
X260149962Y-77501717D01*
X260111867Y-77425527D01*
X260073772Y-77387431D01*
X259959486Y-77311241D01*
X259807105Y-77273146D01*
X259502343Y-77273146D01*
X259426153Y-77311241D01*
X259388058Y-77349336D01*
X259349962Y-77425527D01*
X259349962Y-77577908D01*
X259388058Y-77654098D01*
X259426153Y-77692193D01*
X259502343Y-77730289D01*
X259692819Y-77730289D01*
X259769010Y-77692193D01*
X259807105Y-77654098D01*
X259845200Y-77577908D01*
X259845200Y-77425527D01*
X259807105Y-77349336D01*
X259769010Y-77311241D01*
X259692819Y-77273146D01*
X76640040Y-75947040D02*
X75840040Y-75947040D01*
X75840040Y-75756564D01*
X75878136Y-75642278D01*
X75954326Y-75566088D01*
X76030516Y-75527992D01*
X76182897Y-75489897D01*
X76297183Y-75489897D01*
X76449564Y-75527992D01*
X76525755Y-75566088D01*
X76601945Y-75642278D01*
X76640040Y-75756564D01*
X76640040Y-75947040D01*
X75840040Y-74804183D02*
X75840040Y-74956564D01*
X75878136Y-75032754D01*
X75916231Y-75070850D01*
X76030516Y-75147040D01*
X76182897Y-75185135D01*
X76487659Y-75185135D01*
X76563850Y-75147040D01*
X76601945Y-75108945D01*
X76640040Y-75032754D01*
X76640040Y-74880373D01*
X76601945Y-74804183D01*
X76563850Y-74766088D01*
X76487659Y-74727992D01*
X76297183Y-74727992D01*
X76220993Y-74766088D01*
X76182897Y-74804183D01*
X76144802Y-74880373D01*
X76144802Y-75032754D01*
X76182897Y-75108945D01*
X76220993Y-75147040D01*
X76297183Y-75185135D01*
X75840040Y-74232754D02*
X75840040Y-74156564D01*
X75878136Y-74080373D01*
X75916231Y-74042278D01*
X75992421Y-74004183D01*
X76144802Y-73966088D01*
X76335278Y-73966088D01*
X76487659Y-74004183D01*
X76563850Y-74042278D01*
X76601945Y-74080373D01*
X76640040Y-74156564D01*
X76640040Y-74232754D01*
X76601945Y-74308945D01*
X76563850Y-74347040D01*
X76487659Y-74385135D01*
X76335278Y-74423231D01*
X76144802Y-74423231D01*
X75992421Y-74385135D01*
X75916231Y-74347040D01*
X75878136Y-74308945D01*
X75840040Y-74232754D01*
X256999188Y-77600569D02*
X256199188Y-77600569D01*
X256199188Y-77410093D01*
X256237284Y-77295807D01*
X256313474Y-77219617D01*
X256389664Y-77181521D01*
X256542045Y-77143426D01*
X256656331Y-77143426D01*
X256808712Y-77181521D01*
X256884903Y-77219617D01*
X256961093Y-77295807D01*
X256999188Y-77410093D01*
X256999188Y-77600569D01*
X256199188Y-76457712D02*
X256199188Y-76610093D01*
X256237284Y-76686283D01*
X256275379Y-76724379D01*
X256389664Y-76800569D01*
X256542045Y-76838664D01*
X256846807Y-76838664D01*
X256922998Y-76800569D01*
X256961093Y-76762474D01*
X256999188Y-76686283D01*
X256999188Y-76533902D01*
X256961093Y-76457712D01*
X256922998Y-76419617D01*
X256846807Y-76381521D01*
X256656331Y-76381521D01*
X256580141Y-76419617D01*
X256542045Y-76457712D01*
X256503950Y-76533902D01*
X256503950Y-76686283D01*
X256542045Y-76762474D01*
X256580141Y-76800569D01*
X256656331Y-76838664D01*
X256999188Y-75619617D02*
X256999188Y-76076760D01*
X256999188Y-75848188D02*
X256199188Y-75848188D01*
X256313474Y-75924379D01*
X256389664Y-76000569D01*
X256427760Y-76076760D01*
X253848415Y-75947040D02*
X253048415Y-75947040D01*
X253048415Y-75756564D01*
X253086511Y-75642278D01*
X253162701Y-75566088D01*
X253238891Y-75527992D01*
X253391272Y-75489897D01*
X253505558Y-75489897D01*
X253657939Y-75527992D01*
X253734130Y-75566088D01*
X253810320Y-75642278D01*
X253848415Y-75756564D01*
X253848415Y-75947040D01*
X253048415Y-74804183D02*
X253048415Y-74956564D01*
X253086511Y-75032754D01*
X253124606Y-75070850D01*
X253238891Y-75147040D01*
X253391272Y-75185135D01*
X253696034Y-75185135D01*
X253772225Y-75147040D01*
X253810320Y-75108945D01*
X253848415Y-75032754D01*
X253848415Y-74880373D01*
X253810320Y-74804183D01*
X253772225Y-74766088D01*
X253696034Y-74727992D01*
X253505558Y-74727992D01*
X253429368Y-74766088D01*
X253391272Y-74804183D01*
X253353177Y-74880373D01*
X253353177Y-75032754D01*
X253391272Y-75108945D01*
X253429368Y-75147040D01*
X253505558Y-75185135D01*
X253124606Y-74423231D02*
X253086511Y-74385135D01*
X253048415Y-74308945D01*
X253048415Y-74118469D01*
X253086511Y-74042278D01*
X253124606Y-74004183D01*
X253200796Y-73966088D01*
X253276987Y-73966088D01*
X253391272Y-74004183D01*
X253848415Y-74461326D01*
X253848415Y-73966088D01*
X250697642Y-80907627D02*
X249897642Y-80907627D01*
X249897642Y-80717151D01*
X249935738Y-80602865D01*
X250011928Y-80526675D01*
X250088118Y-80488579D01*
X250240499Y-80450484D01*
X250354785Y-80450484D01*
X250507166Y-80488579D01*
X250583357Y-80526675D01*
X250659547Y-80602865D01*
X250697642Y-80717151D01*
X250697642Y-80907627D01*
X249897642Y-79764770D02*
X249897642Y-79917151D01*
X249935738Y-79993341D01*
X249973833Y-80031437D01*
X250088118Y-80107627D01*
X250240499Y-80145722D01*
X250545261Y-80145722D01*
X250621452Y-80107627D01*
X250659547Y-80069532D01*
X250697642Y-79993341D01*
X250697642Y-79840960D01*
X250659547Y-79764770D01*
X250621452Y-79726675D01*
X250545261Y-79688579D01*
X250354785Y-79688579D01*
X250278595Y-79726675D01*
X250240499Y-79764770D01*
X250202404Y-79840960D01*
X250202404Y-79993341D01*
X250240499Y-80069532D01*
X250278595Y-80107627D01*
X250354785Y-80145722D01*
X249897642Y-79421913D02*
X249897642Y-78926675D01*
X250202404Y-79193341D01*
X250202404Y-79079056D01*
X250240499Y-79002865D01*
X250278595Y-78964770D01*
X250354785Y-78926675D01*
X250545261Y-78926675D01*
X250621452Y-78964770D01*
X250659547Y-79002865D01*
X250697642Y-79079056D01*
X250697642Y-79307627D01*
X250659547Y-79383818D01*
X250621452Y-79421913D01*
X225552313Y-80907627D02*
X224752313Y-80907627D01*
X224752313Y-80717151D01*
X224790409Y-80602865D01*
X224866599Y-80526675D01*
X224942789Y-80488579D01*
X225095170Y-80450484D01*
X225209456Y-80450484D01*
X225361837Y-80488579D01*
X225438028Y-80526675D01*
X225514218Y-80602865D01*
X225552313Y-80717151D01*
X225552313Y-80907627D01*
X224752313Y-79764770D02*
X224752313Y-79917151D01*
X224790409Y-79993341D01*
X224828504Y-80031437D01*
X224942789Y-80107627D01*
X225095170Y-80145722D01*
X225399932Y-80145722D01*
X225476123Y-80107627D01*
X225514218Y-80069532D01*
X225552313Y-79993341D01*
X225552313Y-79840960D01*
X225514218Y-79764770D01*
X225476123Y-79726675D01*
X225399932Y-79688579D01*
X225209456Y-79688579D01*
X225133266Y-79726675D01*
X225095170Y-79764770D01*
X225057075Y-79840960D01*
X225057075Y-79993341D01*
X225095170Y-80069532D01*
X225133266Y-80107627D01*
X225209456Y-80145722D01*
X225018980Y-79002865D02*
X225552313Y-79002865D01*
X224714218Y-79193341D02*
X225285647Y-79383818D01*
X225285647Y-78888579D01*
X244458145Y-77600569D02*
X243658145Y-77600569D01*
X243658145Y-77410093D01*
X243696241Y-77295807D01*
X243772431Y-77219617D01*
X243848621Y-77181521D01*
X244001002Y-77143426D01*
X244115288Y-77143426D01*
X244267669Y-77181521D01*
X244343860Y-77219617D01*
X244420050Y-77295807D01*
X244458145Y-77410093D01*
X244458145Y-77600569D01*
X243658145Y-76457712D02*
X243658145Y-76610093D01*
X243696241Y-76686283D01*
X243734336Y-76724379D01*
X243848621Y-76800569D01*
X244001002Y-76838664D01*
X244305764Y-76838664D01*
X244381955Y-76800569D01*
X244420050Y-76762474D01*
X244458145Y-76686283D01*
X244458145Y-76533902D01*
X244420050Y-76457712D01*
X244381955Y-76419617D01*
X244305764Y-76381521D01*
X244115288Y-76381521D01*
X244039098Y-76419617D01*
X244001002Y-76457712D01*
X243962907Y-76533902D01*
X243962907Y-76686283D01*
X244001002Y-76762474D01*
X244039098Y-76800569D01*
X244115288Y-76838664D01*
X243658145Y-75657712D02*
X243658145Y-76038664D01*
X244039098Y-76076760D01*
X244001002Y-76038664D01*
X243962907Y-75962474D01*
X243962907Y-75771998D01*
X244001002Y-75695807D01*
X244039098Y-75657712D01*
X244115288Y-75619617D01*
X244305764Y-75619617D01*
X244381955Y-75657712D01*
X244420050Y-75695807D01*
X244458145Y-75771998D01*
X244458145Y-75962474D01*
X244420050Y-76038664D01*
X244381955Y-76076760D01*
X241307372Y-75947040D02*
X240507372Y-75947040D01*
X240507372Y-75756564D01*
X240545468Y-75642278D01*
X240621658Y-75566088D01*
X240697848Y-75527992D01*
X240850229Y-75489897D01*
X240964515Y-75489897D01*
X241116896Y-75527992D01*
X241193087Y-75566088D01*
X241269277Y-75642278D01*
X241307372Y-75756564D01*
X241307372Y-75947040D01*
X240507372Y-74804183D02*
X240507372Y-74956564D01*
X240545468Y-75032754D01*
X240583563Y-75070850D01*
X240697848Y-75147040D01*
X240850229Y-75185135D01*
X241154991Y-75185135D01*
X241231182Y-75147040D01*
X241269277Y-75108945D01*
X241307372Y-75032754D01*
X241307372Y-74880373D01*
X241269277Y-74804183D01*
X241231182Y-74766088D01*
X241154991Y-74727992D01*
X240964515Y-74727992D01*
X240888325Y-74766088D01*
X240850229Y-74804183D01*
X240812134Y-74880373D01*
X240812134Y-75032754D01*
X240850229Y-75108945D01*
X240888325Y-75147040D01*
X240964515Y-75185135D01*
X240507372Y-74042278D02*
X240507372Y-74194659D01*
X240545468Y-74270850D01*
X240583563Y-74308945D01*
X240697848Y-74385135D01*
X240850229Y-74423231D01*
X241154991Y-74423231D01*
X241231182Y-74385135D01*
X241269277Y-74347040D01*
X241307372Y-74270850D01*
X241307372Y-74118469D01*
X241269277Y-74042278D01*
X241231182Y-74004183D01*
X241154991Y-73966088D01*
X240964515Y-73966088D01*
X240888325Y-74004183D01*
X240850229Y-74042278D01*
X240812134Y-74118469D01*
X240812134Y-74270850D01*
X240850229Y-74347040D01*
X240888325Y-74385135D01*
X240964515Y-74423231D01*
X263300736Y-80907627D02*
X262500736Y-80907627D01*
X262500736Y-80717151D01*
X262538832Y-80602865D01*
X262615022Y-80526675D01*
X262691212Y-80488579D01*
X262843593Y-80450484D01*
X262957879Y-80450484D01*
X263110260Y-80488579D01*
X263186451Y-80526675D01*
X263262641Y-80602865D01*
X263300736Y-80717151D01*
X263300736Y-80907627D01*
X262500736Y-79764770D02*
X262500736Y-79917151D01*
X262538832Y-79993341D01*
X262576927Y-80031437D01*
X262691212Y-80107627D01*
X262843593Y-80145722D01*
X263148355Y-80145722D01*
X263224546Y-80107627D01*
X263262641Y-80069532D01*
X263300736Y-79993341D01*
X263300736Y-79840960D01*
X263262641Y-79764770D01*
X263224546Y-79726675D01*
X263148355Y-79688579D01*
X262957879Y-79688579D01*
X262881689Y-79726675D01*
X262843593Y-79764770D01*
X262805498Y-79840960D01*
X262805498Y-79993341D01*
X262843593Y-80069532D01*
X262881689Y-80107627D01*
X262957879Y-80145722D01*
X262500736Y-79421913D02*
X262500736Y-78888579D01*
X263300736Y-79231437D01*
X247546869Y-79254098D02*
X246746869Y-79254098D01*
X246746869Y-79063622D01*
X246784965Y-78949336D01*
X246861155Y-78873146D01*
X246937345Y-78835050D01*
X247089726Y-78796955D01*
X247204012Y-78796955D01*
X247356393Y-78835050D01*
X247432584Y-78873146D01*
X247508774Y-78949336D01*
X247546869Y-79063622D01*
X247546869Y-79254098D01*
X246746869Y-78111241D02*
X246746869Y-78263622D01*
X246784965Y-78339812D01*
X246823060Y-78377908D01*
X246937345Y-78454098D01*
X247089726Y-78492193D01*
X247394488Y-78492193D01*
X247470679Y-78454098D01*
X247508774Y-78416003D01*
X247546869Y-78339812D01*
X247546869Y-78187431D01*
X247508774Y-78111241D01*
X247470679Y-78073146D01*
X247394488Y-78035050D01*
X247204012Y-78035050D01*
X247127822Y-78073146D01*
X247089726Y-78111241D01*
X247051631Y-78187431D01*
X247051631Y-78339812D01*
X247089726Y-78416003D01*
X247127822Y-78454098D01*
X247204012Y-78492193D01*
X247089726Y-77577908D02*
X247051631Y-77654098D01*
X247013536Y-77692193D01*
X246937345Y-77730289D01*
X246899250Y-77730289D01*
X246823060Y-77692193D01*
X246784965Y-77654098D01*
X246746869Y-77577908D01*
X246746869Y-77425527D01*
X246784965Y-77349336D01*
X246823060Y-77311241D01*
X246899250Y-77273146D01*
X246937345Y-77273146D01*
X247013536Y-77311241D01*
X247051631Y-77349336D01*
X247089726Y-77425527D01*
X247089726Y-77577908D01*
X247127822Y-77654098D01*
X247165917Y-77692193D01*
X247242107Y-77730289D01*
X247394488Y-77730289D01*
X247470679Y-77692193D01*
X247508774Y-77654098D01*
X247546869Y-77577908D01*
X247546869Y-77425527D01*
X247508774Y-77349336D01*
X247470679Y-77311241D01*
X247394488Y-77273146D01*
X247242107Y-77273146D01*
X247165917Y-77311241D01*
X247127822Y-77349336D01*
X247089726Y-77425527D01*
M02*
