G04 #@! TF.GenerationSoftware,KiCad,Pcbnew,(5.1.5-0-10_14)*
G04 #@! TF.CreationDate,2020-05-13T15:04:30-06:00*
G04 #@! TF.ProjectId,NumDiscipline-bottom,4e756d44-6973-4636-9970-6c696e652d62,rev?*
G04 #@! TF.SameCoordinates,Original*
G04 #@! TF.FileFunction,Copper,L1,Top*
G04 #@! TF.FilePolarity,Positive*
%FSLAX46Y46*%
G04 Gerber Fmt 4.6, Leading zero omitted, Abs format (unit mm)*
G04 Created by KiCad (PCBNEW (5.1.5-0-10_14)) date 2020-05-13 15:04:30*
%MOMM*%
%LPD*%
G04 APERTURE LIST*
%ADD10C,6.400000*%
%ADD11C,4.400000*%
%ADD12C,0.254000*%
G04 APERTURE END LIST*
D10*
X318134950Y-87619870D03*
D11*
X363378700Y-156676120D03*
X282416200Y-99526120D03*
D10*
X482441200Y-87619870D03*
X149066200Y-87619870D03*
D11*
X134778700Y-56663620D03*
X463391200Y-156676120D03*
X134778700Y-75713620D03*
X496728700Y-56663620D03*
X496728700Y-75713620D03*
X377666150Y-99526120D03*
X168116150Y-99515990D03*
X282416200Y-166201120D03*
X318610700Y-56663620D03*
X463391200Y-99526120D03*
X172878700Y-156676120D03*
X318611200Y-74126120D03*
D12*
G36*
X498731712Y-53685168D02*
G01*
X499216291Y-53831471D01*
X499663223Y-54069109D01*
X500055488Y-54389033D01*
X500378136Y-54779047D01*
X500618889Y-55224311D01*
X500768571Y-55707855D01*
X500824950Y-56244267D01*
X500824951Y-172384631D01*
X500772151Y-172923132D01*
X500625848Y-173407713D01*
X500388210Y-173854646D01*
X500068287Y-174246907D01*
X499678270Y-174569558D01*
X499233009Y-174810309D01*
X498749465Y-174959991D01*
X498213053Y-175016370D01*
X441946073Y-175016370D01*
X441914768Y-175019453D01*
X441899980Y-175019350D01*
X441890114Y-175020317D01*
X441427968Y-175068890D01*
X441364924Y-175081831D01*
X441301720Y-175093888D01*
X441292238Y-175096752D01*
X441292231Y-175096753D01*
X441292225Y-175096756D01*
X440848322Y-175234167D01*
X440789046Y-175259084D01*
X440729334Y-175283210D01*
X440720581Y-175287864D01*
X440311818Y-175508882D01*
X440258501Y-175544845D01*
X440204624Y-175580101D01*
X440196942Y-175586367D01*
X439838892Y-175882571D01*
X439793560Y-175928220D01*
X439747570Y-175973257D01*
X439741256Y-175980890D01*
X439741252Y-175980894D01*
X439741251Y-175980896D01*
X439447554Y-176341005D01*
X439411966Y-176394570D01*
X439375587Y-176447699D01*
X439370873Y-176456420D01*
X439152714Y-176866715D01*
X439128201Y-176926189D01*
X439102840Y-176985359D01*
X439099909Y-176994829D01*
X438965599Y-177439686D01*
X438953099Y-177502816D01*
X438939721Y-177565755D01*
X438938685Y-177575614D01*
X438893339Y-178038086D01*
X438854787Y-178431272D01*
X438760718Y-178742844D01*
X438607925Y-179030203D01*
X438402227Y-179282415D01*
X438151458Y-179489868D01*
X437865167Y-179644666D01*
X437554271Y-179740904D01*
X437197807Y-179778370D01*
X384865670Y-179778370D01*
X384507048Y-179743207D01*
X384195476Y-179649138D01*
X383908117Y-179496345D01*
X383655905Y-179290647D01*
X383448452Y-179039878D01*
X383293654Y-178753587D01*
X383197416Y-178442691D01*
X383156764Y-178055914D01*
X383156970Y-178026400D01*
X383156003Y-178016534D01*
X383107430Y-177554388D01*
X383094489Y-177491344D01*
X383082432Y-177428140D01*
X383079568Y-177418658D01*
X383079567Y-177418651D01*
X383079564Y-177418645D01*
X382942153Y-176974742D01*
X382917236Y-176915466D01*
X382893110Y-176855754D01*
X382888456Y-176847001D01*
X382667438Y-176438238D01*
X382631475Y-176384921D01*
X382596219Y-176331044D01*
X382589953Y-176323362D01*
X382293749Y-175965312D01*
X382248096Y-175919976D01*
X382203063Y-175873990D01*
X382195430Y-175867676D01*
X382195426Y-175867672D01*
X382195422Y-175867669D01*
X381835315Y-175573974D01*
X381781750Y-175538386D01*
X381728621Y-175502007D01*
X381719903Y-175497294D01*
X381719895Y-175497290D01*
X381309605Y-175279134D01*
X381250131Y-175254621D01*
X381190961Y-175229260D01*
X381181491Y-175226329D01*
X380736634Y-175092019D01*
X380673504Y-175079519D01*
X380610565Y-175066141D01*
X380600706Y-175065105D01*
X380138234Y-175019759D01*
X380138232Y-175019759D01*
X380103818Y-175016370D01*
X133310354Y-175019370D01*
X132771493Y-174967028D01*
X132286781Y-174821164D01*
X131839636Y-174583933D01*
X131447081Y-174264366D01*
X131124078Y-173874641D01*
X130882921Y-173429597D01*
X130732801Y-172946190D01*
X130675950Y-172409963D01*
X130675950Y-168190895D01*
X280606030Y-168190895D01*
X280846176Y-168578138D01*
X281340077Y-168838761D01*
X281875333Y-168998021D01*
X282431374Y-169049798D01*
X282986832Y-168992101D01*
X283520361Y-168827148D01*
X283986224Y-168578138D01*
X284226370Y-168190895D01*
X282416200Y-166380725D01*
X280606030Y-168190895D01*
X130675950Y-168190895D01*
X130675950Y-166216294D01*
X279567522Y-166216294D01*
X279625219Y-166771752D01*
X279790172Y-167305281D01*
X280039182Y-167771144D01*
X280426425Y-168011290D01*
X282236595Y-166201120D01*
X282595805Y-166201120D01*
X284405975Y-168011290D01*
X284793218Y-167771144D01*
X285053841Y-167277243D01*
X285213101Y-166741987D01*
X285264878Y-166185946D01*
X285207181Y-165630488D01*
X285042228Y-165096959D01*
X284793218Y-164631096D01*
X284405975Y-164390950D01*
X282595805Y-166201120D01*
X282236595Y-166201120D01*
X280426425Y-164390950D01*
X280039182Y-164631096D01*
X279778559Y-165124997D01*
X279619299Y-165660253D01*
X279567522Y-166216294D01*
X130675950Y-166216294D01*
X130675950Y-164211345D01*
X280606030Y-164211345D01*
X282416200Y-166021515D01*
X284226370Y-164211345D01*
X283986224Y-163824102D01*
X283492323Y-163563479D01*
X282957067Y-163404219D01*
X282401026Y-163352442D01*
X281845568Y-163410139D01*
X281312039Y-163575092D01*
X280846176Y-163824102D01*
X280606030Y-164211345D01*
X130675950Y-164211345D01*
X130675950Y-156396897D01*
X170043700Y-156396897D01*
X170043700Y-156955343D01*
X170152648Y-157503059D01*
X170366356Y-158018996D01*
X170676612Y-158483327D01*
X171071493Y-158878208D01*
X171535824Y-159188464D01*
X172051761Y-159402172D01*
X172599477Y-159511120D01*
X173157923Y-159511120D01*
X173705639Y-159402172D01*
X174221576Y-159188464D01*
X174685907Y-158878208D01*
X175080788Y-158483327D01*
X175391044Y-158018996D01*
X175604752Y-157503059D01*
X175713700Y-156955343D01*
X175713700Y-156396897D01*
X360543700Y-156396897D01*
X360543700Y-156955343D01*
X360652648Y-157503059D01*
X360866356Y-158018996D01*
X361176612Y-158483327D01*
X361571493Y-158878208D01*
X362035824Y-159188464D01*
X362551761Y-159402172D01*
X363099477Y-159511120D01*
X363657923Y-159511120D01*
X364205639Y-159402172D01*
X364721576Y-159188464D01*
X365185907Y-158878208D01*
X365580788Y-158483327D01*
X365891044Y-158018996D01*
X366104752Y-157503059D01*
X366213700Y-156955343D01*
X366213700Y-156396897D01*
X460556200Y-156396897D01*
X460556200Y-156955343D01*
X460665148Y-157503059D01*
X460878856Y-158018996D01*
X461189112Y-158483327D01*
X461583993Y-158878208D01*
X462048324Y-159188464D01*
X462564261Y-159402172D01*
X463111977Y-159511120D01*
X463670423Y-159511120D01*
X464218139Y-159402172D01*
X464734076Y-159188464D01*
X465198407Y-158878208D01*
X465593288Y-158483327D01*
X465903544Y-158018996D01*
X466117252Y-157503059D01*
X466226200Y-156955343D01*
X466226200Y-156396897D01*
X466117252Y-155849181D01*
X465903544Y-155333244D01*
X465593288Y-154868913D01*
X465198407Y-154474032D01*
X464734076Y-154163776D01*
X464218139Y-153950068D01*
X463670423Y-153841120D01*
X463111977Y-153841120D01*
X462564261Y-153950068D01*
X462048324Y-154163776D01*
X461583993Y-154474032D01*
X461189112Y-154868913D01*
X460878856Y-155333244D01*
X460665148Y-155849181D01*
X460556200Y-156396897D01*
X366213700Y-156396897D01*
X366104752Y-155849181D01*
X365891044Y-155333244D01*
X365580788Y-154868913D01*
X365185907Y-154474032D01*
X364721576Y-154163776D01*
X364205639Y-153950068D01*
X363657923Y-153841120D01*
X363099477Y-153841120D01*
X362551761Y-153950068D01*
X362035824Y-154163776D01*
X361571493Y-154474032D01*
X361176612Y-154868913D01*
X360866356Y-155333244D01*
X360652648Y-155849181D01*
X360543700Y-156396897D01*
X175713700Y-156396897D01*
X175604752Y-155849181D01*
X175391044Y-155333244D01*
X175080788Y-154868913D01*
X174685907Y-154474032D01*
X174221576Y-154163776D01*
X173705639Y-153950068D01*
X173157923Y-153841120D01*
X172599477Y-153841120D01*
X172051761Y-153950068D01*
X171535824Y-154163776D01*
X171071493Y-154474032D01*
X170676612Y-154868913D01*
X170366356Y-155333244D01*
X170152648Y-155849181D01*
X170043700Y-156396897D01*
X130675950Y-156396897D01*
X130675950Y-99236767D01*
X165281150Y-99236767D01*
X165281150Y-99795213D01*
X165390098Y-100342929D01*
X165603806Y-100858866D01*
X165914062Y-101323197D01*
X166308943Y-101718078D01*
X166773274Y-102028334D01*
X167289211Y-102242042D01*
X167836927Y-102350990D01*
X168395373Y-102350990D01*
X168943089Y-102242042D01*
X169459026Y-102028334D01*
X169923357Y-101718078D01*
X170318238Y-101323197D01*
X170628494Y-100858866D01*
X170842202Y-100342929D01*
X170951150Y-99795213D01*
X170951150Y-99246897D01*
X279581200Y-99246897D01*
X279581200Y-99805343D01*
X279690148Y-100353059D01*
X279903856Y-100868996D01*
X280214112Y-101333327D01*
X280608993Y-101728208D01*
X281073324Y-102038464D01*
X281589261Y-102252172D01*
X282136977Y-102361120D01*
X282695423Y-102361120D01*
X283243139Y-102252172D01*
X283759076Y-102038464D01*
X284223407Y-101728208D01*
X284618288Y-101333327D01*
X284928544Y-100868996D01*
X285142252Y-100353059D01*
X285251200Y-99805343D01*
X285251200Y-99246897D01*
X374831150Y-99246897D01*
X374831150Y-99805343D01*
X374940098Y-100353059D01*
X375153806Y-100868996D01*
X375464062Y-101333327D01*
X375858943Y-101728208D01*
X376323274Y-102038464D01*
X376839211Y-102252172D01*
X377386927Y-102361120D01*
X377945373Y-102361120D01*
X378493089Y-102252172D01*
X379009026Y-102038464D01*
X379473357Y-101728208D01*
X379868238Y-101333327D01*
X380178494Y-100868996D01*
X380392202Y-100353059D01*
X380501150Y-99805343D01*
X380501150Y-99246897D01*
X460556200Y-99246897D01*
X460556200Y-99805343D01*
X460665148Y-100353059D01*
X460878856Y-100868996D01*
X461189112Y-101333327D01*
X461583993Y-101728208D01*
X462048324Y-102038464D01*
X462564261Y-102252172D01*
X463111977Y-102361120D01*
X463670423Y-102361120D01*
X464218139Y-102252172D01*
X464734076Y-102038464D01*
X465198407Y-101728208D01*
X465593288Y-101333327D01*
X465903544Y-100868996D01*
X466117252Y-100353059D01*
X466226200Y-99805343D01*
X466226200Y-99246897D01*
X466117252Y-98699181D01*
X465903544Y-98183244D01*
X465593288Y-97718913D01*
X465198407Y-97324032D01*
X464734076Y-97013776D01*
X464218139Y-96800068D01*
X463670423Y-96691120D01*
X463111977Y-96691120D01*
X462564261Y-96800068D01*
X462048324Y-97013776D01*
X461583993Y-97324032D01*
X461189112Y-97718913D01*
X460878856Y-98183244D01*
X460665148Y-98699181D01*
X460556200Y-99246897D01*
X380501150Y-99246897D01*
X380392202Y-98699181D01*
X380178494Y-98183244D01*
X379868238Y-97718913D01*
X379473357Y-97324032D01*
X379009026Y-97013776D01*
X378493089Y-96800068D01*
X377945373Y-96691120D01*
X377386927Y-96691120D01*
X376839211Y-96800068D01*
X376323274Y-97013776D01*
X375858943Y-97324032D01*
X375464062Y-97718913D01*
X375153806Y-98183244D01*
X374940098Y-98699181D01*
X374831150Y-99246897D01*
X285251200Y-99246897D01*
X285142252Y-98699181D01*
X284928544Y-98183244D01*
X284618288Y-97718913D01*
X284223407Y-97324032D01*
X283759076Y-97013776D01*
X283243139Y-96800068D01*
X282695423Y-96691120D01*
X282136977Y-96691120D01*
X281589261Y-96800068D01*
X281073324Y-97013776D01*
X280608993Y-97324032D01*
X280214112Y-97718913D01*
X279903856Y-98183244D01*
X279690148Y-98699181D01*
X279581200Y-99246897D01*
X170951150Y-99246897D01*
X170951150Y-99236767D01*
X170842202Y-98689051D01*
X170628494Y-98173114D01*
X170318238Y-97708783D01*
X169923357Y-97313902D01*
X169459026Y-97003646D01*
X168943089Y-96789938D01*
X168395373Y-96680990D01*
X167836927Y-96680990D01*
X167289211Y-96789938D01*
X166773274Y-97003646D01*
X166308943Y-97313902D01*
X165914062Y-97708783D01*
X165603806Y-98173114D01*
X165390098Y-98689051D01*
X165281150Y-99236767D01*
X130675950Y-99236767D01*
X130675950Y-87242155D01*
X145231200Y-87242155D01*
X145231200Y-87997585D01*
X145378577Y-88738498D01*
X145667667Y-89436424D01*
X146087361Y-90064540D01*
X146621530Y-90598709D01*
X147249646Y-91018403D01*
X147947572Y-91307493D01*
X148688485Y-91454870D01*
X149443915Y-91454870D01*
X150184828Y-91307493D01*
X150882754Y-91018403D01*
X151510870Y-90598709D01*
X152045039Y-90064540D01*
X152464733Y-89436424D01*
X152753823Y-88738498D01*
X152901200Y-87997585D01*
X152901200Y-87242155D01*
X314299950Y-87242155D01*
X314299950Y-87997585D01*
X314447327Y-88738498D01*
X314736417Y-89436424D01*
X315156111Y-90064540D01*
X315690280Y-90598709D01*
X316318396Y-91018403D01*
X317016322Y-91307493D01*
X317757235Y-91454870D01*
X318512665Y-91454870D01*
X319253578Y-91307493D01*
X319951504Y-91018403D01*
X320579620Y-90598709D01*
X321113789Y-90064540D01*
X321533483Y-89436424D01*
X321822573Y-88738498D01*
X321969950Y-87997585D01*
X321969950Y-87242155D01*
X478606200Y-87242155D01*
X478606200Y-87997585D01*
X478753577Y-88738498D01*
X479042667Y-89436424D01*
X479462361Y-90064540D01*
X479996530Y-90598709D01*
X480624646Y-91018403D01*
X481322572Y-91307493D01*
X482063485Y-91454870D01*
X482818915Y-91454870D01*
X483559828Y-91307493D01*
X484257754Y-91018403D01*
X484885870Y-90598709D01*
X485420039Y-90064540D01*
X485839733Y-89436424D01*
X486128823Y-88738498D01*
X486276200Y-87997585D01*
X486276200Y-87242155D01*
X486128823Y-86501242D01*
X485839733Y-85803316D01*
X485420039Y-85175200D01*
X484885870Y-84641031D01*
X484257754Y-84221337D01*
X483559828Y-83932247D01*
X482818915Y-83784870D01*
X482063485Y-83784870D01*
X481322572Y-83932247D01*
X480624646Y-84221337D01*
X479996530Y-84641031D01*
X479462361Y-85175200D01*
X479042667Y-85803316D01*
X478753577Y-86501242D01*
X478606200Y-87242155D01*
X321969950Y-87242155D01*
X321822573Y-86501242D01*
X321533483Y-85803316D01*
X321113789Y-85175200D01*
X320579620Y-84641031D01*
X319951504Y-84221337D01*
X319253578Y-83932247D01*
X318512665Y-83784870D01*
X317757235Y-83784870D01*
X317016322Y-83932247D01*
X316318396Y-84221337D01*
X315690280Y-84641031D01*
X315156111Y-85175200D01*
X314736417Y-85803316D01*
X314447327Y-86501242D01*
X314299950Y-87242155D01*
X152901200Y-87242155D01*
X152753823Y-86501242D01*
X152464733Y-85803316D01*
X152045039Y-85175200D01*
X151510870Y-84641031D01*
X150882754Y-84221337D01*
X150184828Y-83932247D01*
X149443915Y-83784870D01*
X148688485Y-83784870D01*
X147947572Y-83932247D01*
X147249646Y-84221337D01*
X146621530Y-84641031D01*
X146087361Y-85175200D01*
X145667667Y-85803316D01*
X145378577Y-86501242D01*
X145231200Y-87242155D01*
X130675950Y-87242155D01*
X130675950Y-75434397D01*
X131943700Y-75434397D01*
X131943700Y-75992843D01*
X132052648Y-76540559D01*
X132266356Y-77056496D01*
X132576612Y-77520827D01*
X132971493Y-77915708D01*
X133435824Y-78225964D01*
X133951761Y-78439672D01*
X134499477Y-78548620D01*
X135057923Y-78548620D01*
X135605639Y-78439672D01*
X136121576Y-78225964D01*
X136585907Y-77915708D01*
X136980788Y-77520827D01*
X137291044Y-77056496D01*
X137504752Y-76540559D01*
X137613700Y-75992843D01*
X137613700Y-75434397D01*
X137504752Y-74886681D01*
X137291044Y-74370744D01*
X136980788Y-73906413D01*
X136921272Y-73846897D01*
X315776200Y-73846897D01*
X315776200Y-74405343D01*
X315885148Y-74953059D01*
X316098856Y-75468996D01*
X316409112Y-75933327D01*
X316803993Y-76328208D01*
X317268324Y-76638464D01*
X317784261Y-76852172D01*
X318331977Y-76961120D01*
X318890423Y-76961120D01*
X319438139Y-76852172D01*
X319954076Y-76638464D01*
X320418407Y-76328208D01*
X320813288Y-75933327D01*
X321123544Y-75468996D01*
X321137875Y-75434397D01*
X493893700Y-75434397D01*
X493893700Y-75992843D01*
X494002648Y-76540559D01*
X494216356Y-77056496D01*
X494526612Y-77520827D01*
X494921493Y-77915708D01*
X495385824Y-78225964D01*
X495901761Y-78439672D01*
X496449477Y-78548620D01*
X497007923Y-78548620D01*
X497555639Y-78439672D01*
X498071576Y-78225964D01*
X498535907Y-77915708D01*
X498930788Y-77520827D01*
X499241044Y-77056496D01*
X499454752Y-76540559D01*
X499563700Y-75992843D01*
X499563700Y-75434397D01*
X499454752Y-74886681D01*
X499241044Y-74370744D01*
X498930788Y-73906413D01*
X498535907Y-73511532D01*
X498071576Y-73201276D01*
X497555639Y-72987568D01*
X497007923Y-72878620D01*
X496449477Y-72878620D01*
X495901761Y-72987568D01*
X495385824Y-73201276D01*
X494921493Y-73511532D01*
X494526612Y-73906413D01*
X494216356Y-74370744D01*
X494002648Y-74886681D01*
X493893700Y-75434397D01*
X321137875Y-75434397D01*
X321337252Y-74953059D01*
X321446200Y-74405343D01*
X321446200Y-73846897D01*
X321337252Y-73299181D01*
X321123544Y-72783244D01*
X320813288Y-72318913D01*
X320418407Y-71924032D01*
X319954076Y-71613776D01*
X319438139Y-71400068D01*
X318890423Y-71291120D01*
X318331977Y-71291120D01*
X317784261Y-71400068D01*
X317268324Y-71613776D01*
X316803993Y-71924032D01*
X316409112Y-72318913D01*
X316098856Y-72783244D01*
X315885148Y-73299181D01*
X315776200Y-73846897D01*
X136921272Y-73846897D01*
X136585907Y-73511532D01*
X136121576Y-73201276D01*
X135605639Y-72987568D01*
X135057923Y-72878620D01*
X134499477Y-72878620D01*
X133951761Y-72987568D01*
X133435824Y-73201276D01*
X132971493Y-73511532D01*
X132576612Y-73906413D01*
X132266356Y-74370744D01*
X132052648Y-74886681D01*
X131943700Y-75434397D01*
X130675950Y-75434397D01*
X130675950Y-56384397D01*
X131943700Y-56384397D01*
X131943700Y-56942843D01*
X132052648Y-57490559D01*
X132266356Y-58006496D01*
X132576612Y-58470827D01*
X132971493Y-58865708D01*
X133435824Y-59175964D01*
X133951761Y-59389672D01*
X134499477Y-59498620D01*
X135057923Y-59498620D01*
X135605639Y-59389672D01*
X136121576Y-59175964D01*
X136585907Y-58865708D01*
X136980788Y-58470827D01*
X137291044Y-58006496D01*
X137504752Y-57490559D01*
X137613700Y-56942843D01*
X137613700Y-56384397D01*
X315775700Y-56384397D01*
X315775700Y-56942843D01*
X315884648Y-57490559D01*
X316098356Y-58006496D01*
X316408612Y-58470827D01*
X316803493Y-58865708D01*
X317267824Y-59175964D01*
X317783761Y-59389672D01*
X318331477Y-59498620D01*
X318889923Y-59498620D01*
X319437639Y-59389672D01*
X319953576Y-59175964D01*
X320417907Y-58865708D01*
X320812788Y-58470827D01*
X321123044Y-58006496D01*
X321336752Y-57490559D01*
X321445700Y-56942843D01*
X321445700Y-56384397D01*
X493893700Y-56384397D01*
X493893700Y-56942843D01*
X494002648Y-57490559D01*
X494216356Y-58006496D01*
X494526612Y-58470827D01*
X494921493Y-58865708D01*
X495385824Y-59175964D01*
X495901761Y-59389672D01*
X496449477Y-59498620D01*
X497007923Y-59498620D01*
X497555639Y-59389672D01*
X498071576Y-59175964D01*
X498535907Y-58865708D01*
X498930788Y-58470827D01*
X499241044Y-58006496D01*
X499454752Y-57490559D01*
X499563700Y-56942843D01*
X499563700Y-56384397D01*
X499454752Y-55836681D01*
X499241044Y-55320744D01*
X498930788Y-54856413D01*
X498535907Y-54461532D01*
X498071576Y-54151276D01*
X497555639Y-53937568D01*
X497007923Y-53828620D01*
X496449477Y-53828620D01*
X495901761Y-53937568D01*
X495385824Y-54151276D01*
X494921493Y-54461532D01*
X494526612Y-54856413D01*
X494216356Y-55320744D01*
X494002648Y-55836681D01*
X493893700Y-56384397D01*
X321445700Y-56384397D01*
X321336752Y-55836681D01*
X321123044Y-55320744D01*
X320812788Y-54856413D01*
X320417907Y-54461532D01*
X319953576Y-54151276D01*
X319437639Y-53937568D01*
X318889923Y-53828620D01*
X318331477Y-53828620D01*
X317783761Y-53937568D01*
X317267824Y-54151276D01*
X316803493Y-54461532D01*
X316408612Y-54856413D01*
X316098356Y-55320744D01*
X315884648Y-55836681D01*
X315775700Y-56384397D01*
X137613700Y-56384397D01*
X137504752Y-55836681D01*
X137291044Y-55320744D01*
X136980788Y-54856413D01*
X136585907Y-54461532D01*
X136121576Y-54151276D01*
X135605639Y-53937568D01*
X135057923Y-53828620D01*
X134499477Y-53828620D01*
X133951761Y-53937568D01*
X133435824Y-54151276D01*
X132971493Y-54461532D01*
X132576612Y-54856413D01*
X132266356Y-55320744D01*
X132052648Y-55836681D01*
X131943700Y-56384397D01*
X130675950Y-56384397D01*
X130675950Y-56264090D01*
X130728748Y-55725608D01*
X130875051Y-55241029D01*
X131112689Y-54794097D01*
X131432613Y-54401832D01*
X131822627Y-54079184D01*
X132267891Y-53838431D01*
X132751435Y-53688749D01*
X133287847Y-53632370D01*
X498193230Y-53632370D01*
X498731712Y-53685168D01*
G37*
X498731712Y-53685168D02*
X499216291Y-53831471D01*
X499663223Y-54069109D01*
X500055488Y-54389033D01*
X500378136Y-54779047D01*
X500618889Y-55224311D01*
X500768571Y-55707855D01*
X500824950Y-56244267D01*
X500824951Y-172384631D01*
X500772151Y-172923132D01*
X500625848Y-173407713D01*
X500388210Y-173854646D01*
X500068287Y-174246907D01*
X499678270Y-174569558D01*
X499233009Y-174810309D01*
X498749465Y-174959991D01*
X498213053Y-175016370D01*
X441946073Y-175016370D01*
X441914768Y-175019453D01*
X441899980Y-175019350D01*
X441890114Y-175020317D01*
X441427968Y-175068890D01*
X441364924Y-175081831D01*
X441301720Y-175093888D01*
X441292238Y-175096752D01*
X441292231Y-175096753D01*
X441292225Y-175096756D01*
X440848322Y-175234167D01*
X440789046Y-175259084D01*
X440729334Y-175283210D01*
X440720581Y-175287864D01*
X440311818Y-175508882D01*
X440258501Y-175544845D01*
X440204624Y-175580101D01*
X440196942Y-175586367D01*
X439838892Y-175882571D01*
X439793560Y-175928220D01*
X439747570Y-175973257D01*
X439741256Y-175980890D01*
X439741252Y-175980894D01*
X439741251Y-175980896D01*
X439447554Y-176341005D01*
X439411966Y-176394570D01*
X439375587Y-176447699D01*
X439370873Y-176456420D01*
X439152714Y-176866715D01*
X439128201Y-176926189D01*
X439102840Y-176985359D01*
X439099909Y-176994829D01*
X438965599Y-177439686D01*
X438953099Y-177502816D01*
X438939721Y-177565755D01*
X438938685Y-177575614D01*
X438893339Y-178038086D01*
X438854787Y-178431272D01*
X438760718Y-178742844D01*
X438607925Y-179030203D01*
X438402227Y-179282415D01*
X438151458Y-179489868D01*
X437865167Y-179644666D01*
X437554271Y-179740904D01*
X437197807Y-179778370D01*
X384865670Y-179778370D01*
X384507048Y-179743207D01*
X384195476Y-179649138D01*
X383908117Y-179496345D01*
X383655905Y-179290647D01*
X383448452Y-179039878D01*
X383293654Y-178753587D01*
X383197416Y-178442691D01*
X383156764Y-178055914D01*
X383156970Y-178026400D01*
X383156003Y-178016534D01*
X383107430Y-177554388D01*
X383094489Y-177491344D01*
X383082432Y-177428140D01*
X383079568Y-177418658D01*
X383079567Y-177418651D01*
X383079564Y-177418645D01*
X382942153Y-176974742D01*
X382917236Y-176915466D01*
X382893110Y-176855754D01*
X382888456Y-176847001D01*
X382667438Y-176438238D01*
X382631475Y-176384921D01*
X382596219Y-176331044D01*
X382589953Y-176323362D01*
X382293749Y-175965312D01*
X382248096Y-175919976D01*
X382203063Y-175873990D01*
X382195430Y-175867676D01*
X382195426Y-175867672D01*
X382195422Y-175867669D01*
X381835315Y-175573974D01*
X381781750Y-175538386D01*
X381728621Y-175502007D01*
X381719903Y-175497294D01*
X381719895Y-175497290D01*
X381309605Y-175279134D01*
X381250131Y-175254621D01*
X381190961Y-175229260D01*
X381181491Y-175226329D01*
X380736634Y-175092019D01*
X380673504Y-175079519D01*
X380610565Y-175066141D01*
X380600706Y-175065105D01*
X380138234Y-175019759D01*
X380138232Y-175019759D01*
X380103818Y-175016370D01*
X133310354Y-175019370D01*
X132771493Y-174967028D01*
X132286781Y-174821164D01*
X131839636Y-174583933D01*
X131447081Y-174264366D01*
X131124078Y-173874641D01*
X130882921Y-173429597D01*
X130732801Y-172946190D01*
X130675950Y-172409963D01*
X130675950Y-168190895D01*
X280606030Y-168190895D01*
X280846176Y-168578138D01*
X281340077Y-168838761D01*
X281875333Y-168998021D01*
X282431374Y-169049798D01*
X282986832Y-168992101D01*
X283520361Y-168827148D01*
X283986224Y-168578138D01*
X284226370Y-168190895D01*
X282416200Y-166380725D01*
X280606030Y-168190895D01*
X130675950Y-168190895D01*
X130675950Y-166216294D01*
X279567522Y-166216294D01*
X279625219Y-166771752D01*
X279790172Y-167305281D01*
X280039182Y-167771144D01*
X280426425Y-168011290D01*
X282236595Y-166201120D01*
X282595805Y-166201120D01*
X284405975Y-168011290D01*
X284793218Y-167771144D01*
X285053841Y-167277243D01*
X285213101Y-166741987D01*
X285264878Y-166185946D01*
X285207181Y-165630488D01*
X285042228Y-165096959D01*
X284793218Y-164631096D01*
X284405975Y-164390950D01*
X282595805Y-166201120D01*
X282236595Y-166201120D01*
X280426425Y-164390950D01*
X280039182Y-164631096D01*
X279778559Y-165124997D01*
X279619299Y-165660253D01*
X279567522Y-166216294D01*
X130675950Y-166216294D01*
X130675950Y-164211345D01*
X280606030Y-164211345D01*
X282416200Y-166021515D01*
X284226370Y-164211345D01*
X283986224Y-163824102D01*
X283492323Y-163563479D01*
X282957067Y-163404219D01*
X282401026Y-163352442D01*
X281845568Y-163410139D01*
X281312039Y-163575092D01*
X280846176Y-163824102D01*
X280606030Y-164211345D01*
X130675950Y-164211345D01*
X130675950Y-156396897D01*
X170043700Y-156396897D01*
X170043700Y-156955343D01*
X170152648Y-157503059D01*
X170366356Y-158018996D01*
X170676612Y-158483327D01*
X171071493Y-158878208D01*
X171535824Y-159188464D01*
X172051761Y-159402172D01*
X172599477Y-159511120D01*
X173157923Y-159511120D01*
X173705639Y-159402172D01*
X174221576Y-159188464D01*
X174685907Y-158878208D01*
X175080788Y-158483327D01*
X175391044Y-158018996D01*
X175604752Y-157503059D01*
X175713700Y-156955343D01*
X175713700Y-156396897D01*
X360543700Y-156396897D01*
X360543700Y-156955343D01*
X360652648Y-157503059D01*
X360866356Y-158018996D01*
X361176612Y-158483327D01*
X361571493Y-158878208D01*
X362035824Y-159188464D01*
X362551761Y-159402172D01*
X363099477Y-159511120D01*
X363657923Y-159511120D01*
X364205639Y-159402172D01*
X364721576Y-159188464D01*
X365185907Y-158878208D01*
X365580788Y-158483327D01*
X365891044Y-158018996D01*
X366104752Y-157503059D01*
X366213700Y-156955343D01*
X366213700Y-156396897D01*
X460556200Y-156396897D01*
X460556200Y-156955343D01*
X460665148Y-157503059D01*
X460878856Y-158018996D01*
X461189112Y-158483327D01*
X461583993Y-158878208D01*
X462048324Y-159188464D01*
X462564261Y-159402172D01*
X463111977Y-159511120D01*
X463670423Y-159511120D01*
X464218139Y-159402172D01*
X464734076Y-159188464D01*
X465198407Y-158878208D01*
X465593288Y-158483327D01*
X465903544Y-158018996D01*
X466117252Y-157503059D01*
X466226200Y-156955343D01*
X466226200Y-156396897D01*
X466117252Y-155849181D01*
X465903544Y-155333244D01*
X465593288Y-154868913D01*
X465198407Y-154474032D01*
X464734076Y-154163776D01*
X464218139Y-153950068D01*
X463670423Y-153841120D01*
X463111977Y-153841120D01*
X462564261Y-153950068D01*
X462048324Y-154163776D01*
X461583993Y-154474032D01*
X461189112Y-154868913D01*
X460878856Y-155333244D01*
X460665148Y-155849181D01*
X460556200Y-156396897D01*
X366213700Y-156396897D01*
X366104752Y-155849181D01*
X365891044Y-155333244D01*
X365580788Y-154868913D01*
X365185907Y-154474032D01*
X364721576Y-154163776D01*
X364205639Y-153950068D01*
X363657923Y-153841120D01*
X363099477Y-153841120D01*
X362551761Y-153950068D01*
X362035824Y-154163776D01*
X361571493Y-154474032D01*
X361176612Y-154868913D01*
X360866356Y-155333244D01*
X360652648Y-155849181D01*
X360543700Y-156396897D01*
X175713700Y-156396897D01*
X175604752Y-155849181D01*
X175391044Y-155333244D01*
X175080788Y-154868913D01*
X174685907Y-154474032D01*
X174221576Y-154163776D01*
X173705639Y-153950068D01*
X173157923Y-153841120D01*
X172599477Y-153841120D01*
X172051761Y-153950068D01*
X171535824Y-154163776D01*
X171071493Y-154474032D01*
X170676612Y-154868913D01*
X170366356Y-155333244D01*
X170152648Y-155849181D01*
X170043700Y-156396897D01*
X130675950Y-156396897D01*
X130675950Y-99236767D01*
X165281150Y-99236767D01*
X165281150Y-99795213D01*
X165390098Y-100342929D01*
X165603806Y-100858866D01*
X165914062Y-101323197D01*
X166308943Y-101718078D01*
X166773274Y-102028334D01*
X167289211Y-102242042D01*
X167836927Y-102350990D01*
X168395373Y-102350990D01*
X168943089Y-102242042D01*
X169459026Y-102028334D01*
X169923357Y-101718078D01*
X170318238Y-101323197D01*
X170628494Y-100858866D01*
X170842202Y-100342929D01*
X170951150Y-99795213D01*
X170951150Y-99246897D01*
X279581200Y-99246897D01*
X279581200Y-99805343D01*
X279690148Y-100353059D01*
X279903856Y-100868996D01*
X280214112Y-101333327D01*
X280608993Y-101728208D01*
X281073324Y-102038464D01*
X281589261Y-102252172D01*
X282136977Y-102361120D01*
X282695423Y-102361120D01*
X283243139Y-102252172D01*
X283759076Y-102038464D01*
X284223407Y-101728208D01*
X284618288Y-101333327D01*
X284928544Y-100868996D01*
X285142252Y-100353059D01*
X285251200Y-99805343D01*
X285251200Y-99246897D01*
X374831150Y-99246897D01*
X374831150Y-99805343D01*
X374940098Y-100353059D01*
X375153806Y-100868996D01*
X375464062Y-101333327D01*
X375858943Y-101728208D01*
X376323274Y-102038464D01*
X376839211Y-102252172D01*
X377386927Y-102361120D01*
X377945373Y-102361120D01*
X378493089Y-102252172D01*
X379009026Y-102038464D01*
X379473357Y-101728208D01*
X379868238Y-101333327D01*
X380178494Y-100868996D01*
X380392202Y-100353059D01*
X380501150Y-99805343D01*
X380501150Y-99246897D01*
X460556200Y-99246897D01*
X460556200Y-99805343D01*
X460665148Y-100353059D01*
X460878856Y-100868996D01*
X461189112Y-101333327D01*
X461583993Y-101728208D01*
X462048324Y-102038464D01*
X462564261Y-102252172D01*
X463111977Y-102361120D01*
X463670423Y-102361120D01*
X464218139Y-102252172D01*
X464734076Y-102038464D01*
X465198407Y-101728208D01*
X465593288Y-101333327D01*
X465903544Y-100868996D01*
X466117252Y-100353059D01*
X466226200Y-99805343D01*
X466226200Y-99246897D01*
X466117252Y-98699181D01*
X465903544Y-98183244D01*
X465593288Y-97718913D01*
X465198407Y-97324032D01*
X464734076Y-97013776D01*
X464218139Y-96800068D01*
X463670423Y-96691120D01*
X463111977Y-96691120D01*
X462564261Y-96800068D01*
X462048324Y-97013776D01*
X461583993Y-97324032D01*
X461189112Y-97718913D01*
X460878856Y-98183244D01*
X460665148Y-98699181D01*
X460556200Y-99246897D01*
X380501150Y-99246897D01*
X380392202Y-98699181D01*
X380178494Y-98183244D01*
X379868238Y-97718913D01*
X379473357Y-97324032D01*
X379009026Y-97013776D01*
X378493089Y-96800068D01*
X377945373Y-96691120D01*
X377386927Y-96691120D01*
X376839211Y-96800068D01*
X376323274Y-97013776D01*
X375858943Y-97324032D01*
X375464062Y-97718913D01*
X375153806Y-98183244D01*
X374940098Y-98699181D01*
X374831150Y-99246897D01*
X285251200Y-99246897D01*
X285142252Y-98699181D01*
X284928544Y-98183244D01*
X284618288Y-97718913D01*
X284223407Y-97324032D01*
X283759076Y-97013776D01*
X283243139Y-96800068D01*
X282695423Y-96691120D01*
X282136977Y-96691120D01*
X281589261Y-96800068D01*
X281073324Y-97013776D01*
X280608993Y-97324032D01*
X280214112Y-97718913D01*
X279903856Y-98183244D01*
X279690148Y-98699181D01*
X279581200Y-99246897D01*
X170951150Y-99246897D01*
X170951150Y-99236767D01*
X170842202Y-98689051D01*
X170628494Y-98173114D01*
X170318238Y-97708783D01*
X169923357Y-97313902D01*
X169459026Y-97003646D01*
X168943089Y-96789938D01*
X168395373Y-96680990D01*
X167836927Y-96680990D01*
X167289211Y-96789938D01*
X166773274Y-97003646D01*
X166308943Y-97313902D01*
X165914062Y-97708783D01*
X165603806Y-98173114D01*
X165390098Y-98689051D01*
X165281150Y-99236767D01*
X130675950Y-99236767D01*
X130675950Y-87242155D01*
X145231200Y-87242155D01*
X145231200Y-87997585D01*
X145378577Y-88738498D01*
X145667667Y-89436424D01*
X146087361Y-90064540D01*
X146621530Y-90598709D01*
X147249646Y-91018403D01*
X147947572Y-91307493D01*
X148688485Y-91454870D01*
X149443915Y-91454870D01*
X150184828Y-91307493D01*
X150882754Y-91018403D01*
X151510870Y-90598709D01*
X152045039Y-90064540D01*
X152464733Y-89436424D01*
X152753823Y-88738498D01*
X152901200Y-87997585D01*
X152901200Y-87242155D01*
X314299950Y-87242155D01*
X314299950Y-87997585D01*
X314447327Y-88738498D01*
X314736417Y-89436424D01*
X315156111Y-90064540D01*
X315690280Y-90598709D01*
X316318396Y-91018403D01*
X317016322Y-91307493D01*
X317757235Y-91454870D01*
X318512665Y-91454870D01*
X319253578Y-91307493D01*
X319951504Y-91018403D01*
X320579620Y-90598709D01*
X321113789Y-90064540D01*
X321533483Y-89436424D01*
X321822573Y-88738498D01*
X321969950Y-87997585D01*
X321969950Y-87242155D01*
X478606200Y-87242155D01*
X478606200Y-87997585D01*
X478753577Y-88738498D01*
X479042667Y-89436424D01*
X479462361Y-90064540D01*
X479996530Y-90598709D01*
X480624646Y-91018403D01*
X481322572Y-91307493D01*
X482063485Y-91454870D01*
X482818915Y-91454870D01*
X483559828Y-91307493D01*
X484257754Y-91018403D01*
X484885870Y-90598709D01*
X485420039Y-90064540D01*
X485839733Y-89436424D01*
X486128823Y-88738498D01*
X486276200Y-87997585D01*
X486276200Y-87242155D01*
X486128823Y-86501242D01*
X485839733Y-85803316D01*
X485420039Y-85175200D01*
X484885870Y-84641031D01*
X484257754Y-84221337D01*
X483559828Y-83932247D01*
X482818915Y-83784870D01*
X482063485Y-83784870D01*
X481322572Y-83932247D01*
X480624646Y-84221337D01*
X479996530Y-84641031D01*
X479462361Y-85175200D01*
X479042667Y-85803316D01*
X478753577Y-86501242D01*
X478606200Y-87242155D01*
X321969950Y-87242155D01*
X321822573Y-86501242D01*
X321533483Y-85803316D01*
X321113789Y-85175200D01*
X320579620Y-84641031D01*
X319951504Y-84221337D01*
X319253578Y-83932247D01*
X318512665Y-83784870D01*
X317757235Y-83784870D01*
X317016322Y-83932247D01*
X316318396Y-84221337D01*
X315690280Y-84641031D01*
X315156111Y-85175200D01*
X314736417Y-85803316D01*
X314447327Y-86501242D01*
X314299950Y-87242155D01*
X152901200Y-87242155D01*
X152753823Y-86501242D01*
X152464733Y-85803316D01*
X152045039Y-85175200D01*
X151510870Y-84641031D01*
X150882754Y-84221337D01*
X150184828Y-83932247D01*
X149443915Y-83784870D01*
X148688485Y-83784870D01*
X147947572Y-83932247D01*
X147249646Y-84221337D01*
X146621530Y-84641031D01*
X146087361Y-85175200D01*
X145667667Y-85803316D01*
X145378577Y-86501242D01*
X145231200Y-87242155D01*
X130675950Y-87242155D01*
X130675950Y-75434397D01*
X131943700Y-75434397D01*
X131943700Y-75992843D01*
X132052648Y-76540559D01*
X132266356Y-77056496D01*
X132576612Y-77520827D01*
X132971493Y-77915708D01*
X133435824Y-78225964D01*
X133951761Y-78439672D01*
X134499477Y-78548620D01*
X135057923Y-78548620D01*
X135605639Y-78439672D01*
X136121576Y-78225964D01*
X136585907Y-77915708D01*
X136980788Y-77520827D01*
X137291044Y-77056496D01*
X137504752Y-76540559D01*
X137613700Y-75992843D01*
X137613700Y-75434397D01*
X137504752Y-74886681D01*
X137291044Y-74370744D01*
X136980788Y-73906413D01*
X136921272Y-73846897D01*
X315776200Y-73846897D01*
X315776200Y-74405343D01*
X315885148Y-74953059D01*
X316098856Y-75468996D01*
X316409112Y-75933327D01*
X316803993Y-76328208D01*
X317268324Y-76638464D01*
X317784261Y-76852172D01*
X318331977Y-76961120D01*
X318890423Y-76961120D01*
X319438139Y-76852172D01*
X319954076Y-76638464D01*
X320418407Y-76328208D01*
X320813288Y-75933327D01*
X321123544Y-75468996D01*
X321137875Y-75434397D01*
X493893700Y-75434397D01*
X493893700Y-75992843D01*
X494002648Y-76540559D01*
X494216356Y-77056496D01*
X494526612Y-77520827D01*
X494921493Y-77915708D01*
X495385824Y-78225964D01*
X495901761Y-78439672D01*
X496449477Y-78548620D01*
X497007923Y-78548620D01*
X497555639Y-78439672D01*
X498071576Y-78225964D01*
X498535907Y-77915708D01*
X498930788Y-77520827D01*
X499241044Y-77056496D01*
X499454752Y-76540559D01*
X499563700Y-75992843D01*
X499563700Y-75434397D01*
X499454752Y-74886681D01*
X499241044Y-74370744D01*
X498930788Y-73906413D01*
X498535907Y-73511532D01*
X498071576Y-73201276D01*
X497555639Y-72987568D01*
X497007923Y-72878620D01*
X496449477Y-72878620D01*
X495901761Y-72987568D01*
X495385824Y-73201276D01*
X494921493Y-73511532D01*
X494526612Y-73906413D01*
X494216356Y-74370744D01*
X494002648Y-74886681D01*
X493893700Y-75434397D01*
X321137875Y-75434397D01*
X321337252Y-74953059D01*
X321446200Y-74405343D01*
X321446200Y-73846897D01*
X321337252Y-73299181D01*
X321123544Y-72783244D01*
X320813288Y-72318913D01*
X320418407Y-71924032D01*
X319954076Y-71613776D01*
X319438139Y-71400068D01*
X318890423Y-71291120D01*
X318331977Y-71291120D01*
X317784261Y-71400068D01*
X317268324Y-71613776D01*
X316803993Y-71924032D01*
X316409112Y-72318913D01*
X316098856Y-72783244D01*
X315885148Y-73299181D01*
X315776200Y-73846897D01*
X136921272Y-73846897D01*
X136585907Y-73511532D01*
X136121576Y-73201276D01*
X135605639Y-72987568D01*
X135057923Y-72878620D01*
X134499477Y-72878620D01*
X133951761Y-72987568D01*
X133435824Y-73201276D01*
X132971493Y-73511532D01*
X132576612Y-73906413D01*
X132266356Y-74370744D01*
X132052648Y-74886681D01*
X131943700Y-75434397D01*
X130675950Y-75434397D01*
X130675950Y-56384397D01*
X131943700Y-56384397D01*
X131943700Y-56942843D01*
X132052648Y-57490559D01*
X132266356Y-58006496D01*
X132576612Y-58470827D01*
X132971493Y-58865708D01*
X133435824Y-59175964D01*
X133951761Y-59389672D01*
X134499477Y-59498620D01*
X135057923Y-59498620D01*
X135605639Y-59389672D01*
X136121576Y-59175964D01*
X136585907Y-58865708D01*
X136980788Y-58470827D01*
X137291044Y-58006496D01*
X137504752Y-57490559D01*
X137613700Y-56942843D01*
X137613700Y-56384397D01*
X315775700Y-56384397D01*
X315775700Y-56942843D01*
X315884648Y-57490559D01*
X316098356Y-58006496D01*
X316408612Y-58470827D01*
X316803493Y-58865708D01*
X317267824Y-59175964D01*
X317783761Y-59389672D01*
X318331477Y-59498620D01*
X318889923Y-59498620D01*
X319437639Y-59389672D01*
X319953576Y-59175964D01*
X320417907Y-58865708D01*
X320812788Y-58470827D01*
X321123044Y-58006496D01*
X321336752Y-57490559D01*
X321445700Y-56942843D01*
X321445700Y-56384397D01*
X493893700Y-56384397D01*
X493893700Y-56942843D01*
X494002648Y-57490559D01*
X494216356Y-58006496D01*
X494526612Y-58470827D01*
X494921493Y-58865708D01*
X495385824Y-59175964D01*
X495901761Y-59389672D01*
X496449477Y-59498620D01*
X497007923Y-59498620D01*
X497555639Y-59389672D01*
X498071576Y-59175964D01*
X498535907Y-58865708D01*
X498930788Y-58470827D01*
X499241044Y-58006496D01*
X499454752Y-57490559D01*
X499563700Y-56942843D01*
X499563700Y-56384397D01*
X499454752Y-55836681D01*
X499241044Y-55320744D01*
X498930788Y-54856413D01*
X498535907Y-54461532D01*
X498071576Y-54151276D01*
X497555639Y-53937568D01*
X497007923Y-53828620D01*
X496449477Y-53828620D01*
X495901761Y-53937568D01*
X495385824Y-54151276D01*
X494921493Y-54461532D01*
X494526612Y-54856413D01*
X494216356Y-55320744D01*
X494002648Y-55836681D01*
X493893700Y-56384397D01*
X321445700Y-56384397D01*
X321336752Y-55836681D01*
X321123044Y-55320744D01*
X320812788Y-54856413D01*
X320417907Y-54461532D01*
X319953576Y-54151276D01*
X319437639Y-53937568D01*
X318889923Y-53828620D01*
X318331477Y-53828620D01*
X317783761Y-53937568D01*
X317267824Y-54151276D01*
X316803493Y-54461532D01*
X316408612Y-54856413D01*
X316098356Y-55320744D01*
X315884648Y-55836681D01*
X315775700Y-56384397D01*
X137613700Y-56384397D01*
X137504752Y-55836681D01*
X137291044Y-55320744D01*
X136980788Y-54856413D01*
X136585907Y-54461532D01*
X136121576Y-54151276D01*
X135605639Y-53937568D01*
X135057923Y-53828620D01*
X134499477Y-53828620D01*
X133951761Y-53937568D01*
X133435824Y-54151276D01*
X132971493Y-54461532D01*
X132576612Y-54856413D01*
X132266356Y-55320744D01*
X132052648Y-55836681D01*
X131943700Y-56384397D01*
X130675950Y-56384397D01*
X130675950Y-56264090D01*
X130728748Y-55725608D01*
X130875051Y-55241029D01*
X131112689Y-54794097D01*
X131432613Y-54401832D01*
X131822627Y-54079184D01*
X132267891Y-53838431D01*
X132751435Y-53688749D01*
X133287847Y-53632370D01*
X498193230Y-53632370D01*
X498731712Y-53685168D01*
M02*
