G04 #@! TF.GenerationSoftware,KiCad,Pcbnew,(5.1.5-0-10_14)*
G04 #@! TF.CreationDate,2020-05-13T15:04:30-06:00*
G04 #@! TF.ProjectId,NumDiscipline-bottom,4e756d44-6973-4636-9970-6c696e652d62,rev?*
G04 #@! TF.SameCoordinates,Original*
G04 #@! TF.FileFunction,Copper,L2,Bot*
G04 #@! TF.FilePolarity,Positive*
%FSLAX46Y46*%
G04 Gerber Fmt 4.6, Leading zero omitted, Abs format (unit mm)*
G04 Created by KiCad (PCBNEW (5.1.5-0-10_14)) date 2020-05-13 15:04:30*
%MOMM*%
%LPD*%
G04 APERTURE LIST*
%ADD10C,0.150000*%
%ADD11C,3.000000*%
%ADD12C,0.010000*%
%ADD13C,6.400000*%
%ADD14C,4.400000*%
%ADD15C,0.254000*%
G04 APERTURE END LIST*
D10*
X494347400Y-168572240D02*
G75*
G03X494347400Y-168572240I-2381250J0D01*
G01*
X494347400Y-80465990D02*
G75*
G03X494347400Y-80465990I-2381250J0D01*
G01*
X320516150Y-168572240D02*
G75*
G03X320516150Y-168572240I-2381250J0D01*
G01*
X141922400Y-168572240D02*
G75*
G03X141922400Y-168572240I-2381250J0D01*
G01*
X141922400Y-80465990D02*
G75*
G03X141922400Y-80465990I-2381250J0D01*
G01*
D11*
X426719176Y-109527905D02*
X412433461Y-109527905D01*
X421004890Y-100956477D02*
X426719176Y-126670762D01*
X414338223Y-118099334D02*
X428623938Y-118099334D01*
X420052509Y-126670762D02*
X414338223Y-100956477D01*
D12*
G36*
X354169810Y-103998248D02*
G01*
X352942257Y-104338837D01*
X352019744Y-104780280D01*
X351598562Y-105227498D01*
X351420356Y-106069056D01*
X351488012Y-106805490D01*
X351684799Y-107108212D01*
X352120270Y-107077991D01*
X352885160Y-106798549D01*
X353219037Y-106638969D01*
X354794279Y-106073930D01*
X356281293Y-105967330D01*
X357571297Y-106280626D01*
X358555505Y-106975272D01*
X359125133Y-108012725D01*
X359222706Y-108766184D01*
X358989415Y-109891575D01*
X358252591Y-110880643D01*
X356956810Y-111791307D01*
X355765714Y-112378749D01*
X353499395Y-113535213D01*
X351870405Y-114716901D01*
X351038858Y-115665246D01*
X350617955Y-116742314D01*
X350441344Y-118148049D01*
X350515941Y-119604635D01*
X350848664Y-120834256D01*
X350907164Y-120955105D01*
X351998093Y-122387170D01*
X353530086Y-123430694D01*
X355395420Y-124047861D01*
X357486377Y-124200850D01*
X359385527Y-123931706D01*
X360548427Y-123547452D01*
X361567287Y-123033749D01*
X362203626Y-122512666D01*
X362229899Y-122475768D01*
X362442444Y-121822659D01*
X362436243Y-121063456D01*
X362220756Y-120537824D01*
X362174932Y-120502523D01*
X361729430Y-120529604D01*
X360947458Y-120812875D01*
X360511627Y-121022940D01*
X358774388Y-121692139D01*
X357102199Y-121911266D01*
X355594641Y-121713076D01*
X354351293Y-121130319D01*
X353471736Y-120195750D01*
X353055549Y-118942119D01*
X353035527Y-118564008D01*
X353249848Y-117674193D01*
X353927944Y-116784779D01*
X355122514Y-115846732D01*
X356886254Y-114811016D01*
X357304784Y-114591532D01*
X359139449Y-113556455D01*
X360427163Y-112589241D01*
X361249801Y-111588190D01*
X361689234Y-110451605D01*
X361827336Y-109077789D01*
X361827834Y-108973259D01*
X361571750Y-107106754D01*
X360807169Y-105645875D01*
X359539599Y-104596287D01*
X357774548Y-103963655D01*
X356814432Y-103815995D01*
X355521003Y-103807604D01*
X354169810Y-103998248D01*
G37*
X354169810Y-103998248D02*
X352942257Y-104338837D01*
X352019744Y-104780280D01*
X351598562Y-105227498D01*
X351420356Y-106069056D01*
X351488012Y-106805490D01*
X351684799Y-107108212D01*
X352120270Y-107077991D01*
X352885160Y-106798549D01*
X353219037Y-106638969D01*
X354794279Y-106073930D01*
X356281293Y-105967330D01*
X357571297Y-106280626D01*
X358555505Y-106975272D01*
X359125133Y-108012725D01*
X359222706Y-108766184D01*
X358989415Y-109891575D01*
X358252591Y-110880643D01*
X356956810Y-111791307D01*
X355765714Y-112378749D01*
X353499395Y-113535213D01*
X351870405Y-114716901D01*
X351038858Y-115665246D01*
X350617955Y-116742314D01*
X350441344Y-118148049D01*
X350515941Y-119604635D01*
X350848664Y-120834256D01*
X350907164Y-120955105D01*
X351998093Y-122387170D01*
X353530086Y-123430694D01*
X355395420Y-124047861D01*
X357486377Y-124200850D01*
X359385527Y-123931706D01*
X360548427Y-123547452D01*
X361567287Y-123033749D01*
X362203626Y-122512666D01*
X362229899Y-122475768D01*
X362442444Y-121822659D01*
X362436243Y-121063456D01*
X362220756Y-120537824D01*
X362174932Y-120502523D01*
X361729430Y-120529604D01*
X360947458Y-120812875D01*
X360511627Y-121022940D01*
X358774388Y-121692139D01*
X357102199Y-121911266D01*
X355594641Y-121713076D01*
X354351293Y-121130319D01*
X353471736Y-120195750D01*
X353055549Y-118942119D01*
X353035527Y-118564008D01*
X353249848Y-117674193D01*
X353927944Y-116784779D01*
X355122514Y-115846732D01*
X356886254Y-114811016D01*
X357304784Y-114591532D01*
X359139449Y-113556455D01*
X360427163Y-112589241D01*
X361249801Y-111588190D01*
X361689234Y-110451605D01*
X361827336Y-109077789D01*
X361827834Y-108973259D01*
X361571750Y-107106754D01*
X360807169Y-105645875D01*
X359539599Y-104596287D01*
X357774548Y-103963655D01*
X356814432Y-103815995D01*
X355521003Y-103807604D01*
X354169810Y-103998248D01*
G36*
X330732403Y-103856703D02*
G01*
X328609285Y-104396913D01*
X328023602Y-104663820D01*
X326981041Y-105336748D01*
X326459682Y-106097514D01*
X326332962Y-106982574D01*
X326482303Y-107614391D01*
X326958669Y-107752222D01*
X327804579Y-107398327D01*
X328304851Y-107087387D01*
X329683061Y-106402153D01*
X331285428Y-106099382D01*
X331491257Y-106084825D01*
X333378841Y-106212919D01*
X334909692Y-106874831D01*
X336138493Y-108101851D01*
X336734347Y-109084784D01*
X337119194Y-109905714D01*
X337364316Y-110682626D01*
X337500094Y-111599907D01*
X337556906Y-112841946D01*
X337565957Y-114132220D01*
X337545578Y-115769078D01*
X337468216Y-116930465D01*
X337306790Y-117791509D01*
X337034217Y-118527333D01*
X336820130Y-118955241D01*
X335718117Y-120387711D01*
X334259197Y-121355752D01*
X332565502Y-121836167D01*
X330759168Y-121805761D01*
X328962326Y-121241340D01*
X327945246Y-120640744D01*
X327230900Y-120201719D01*
X326712796Y-120001950D01*
X326689744Y-120000800D01*
X326382550Y-120257810D01*
X326328426Y-120884200D01*
X326496941Y-121663005D01*
X326857665Y-122377264D01*
X327054502Y-122601491D01*
X328258155Y-123359525D01*
X329885935Y-123885215D01*
X331741621Y-124144555D01*
X333628992Y-124103542D01*
X334682986Y-123923493D01*
X336553293Y-123159294D01*
X338108592Y-121869714D01*
X339315763Y-120116488D01*
X340141686Y-117961355D01*
X340553240Y-115466050D01*
X340543449Y-112999518D01*
X340128471Y-110480971D01*
X339319414Y-108266460D01*
X338164749Y-106461201D01*
X337039207Y-105392954D01*
X335125522Y-104369132D01*
X332963868Y-103852245D01*
X330732403Y-103856703D01*
G37*
X330732403Y-103856703D02*
X328609285Y-104396913D01*
X328023602Y-104663820D01*
X326981041Y-105336748D01*
X326459682Y-106097514D01*
X326332962Y-106982574D01*
X326482303Y-107614391D01*
X326958669Y-107752222D01*
X327804579Y-107398327D01*
X328304851Y-107087387D01*
X329683061Y-106402153D01*
X331285428Y-106099382D01*
X331491257Y-106084825D01*
X333378841Y-106212919D01*
X334909692Y-106874831D01*
X336138493Y-108101851D01*
X336734347Y-109084784D01*
X337119194Y-109905714D01*
X337364316Y-110682626D01*
X337500094Y-111599907D01*
X337556906Y-112841946D01*
X337565957Y-114132220D01*
X337545578Y-115769078D01*
X337468216Y-116930465D01*
X337306790Y-117791509D01*
X337034217Y-118527333D01*
X336820130Y-118955241D01*
X335718117Y-120387711D01*
X334259197Y-121355752D01*
X332565502Y-121836167D01*
X330759168Y-121805761D01*
X328962326Y-121241340D01*
X327945246Y-120640744D01*
X327230900Y-120201719D01*
X326712796Y-120001950D01*
X326689744Y-120000800D01*
X326382550Y-120257810D01*
X326328426Y-120884200D01*
X326496941Y-121663005D01*
X326857665Y-122377264D01*
X327054502Y-122601491D01*
X328258155Y-123359525D01*
X329885935Y-123885215D01*
X331741621Y-124144555D01*
X333628992Y-124103542D01*
X334682986Y-123923493D01*
X336553293Y-123159294D01*
X338108592Y-121869714D01*
X339315763Y-120116488D01*
X340141686Y-117961355D01*
X340553240Y-115466050D01*
X340543449Y-112999518D01*
X340128471Y-110480971D01*
X339319414Y-108266460D01*
X338164749Y-106461201D01*
X337039207Y-105392954D01*
X335125522Y-104369132D01*
X332963868Y-103852245D01*
X330732403Y-103856703D01*
G36*
X396200048Y-104131723D02*
G01*
X394074419Y-104372129D01*
X392313003Y-104859108D01*
X390787613Y-105617162D01*
X390716260Y-105661973D01*
X389204021Y-106994399D01*
X388068417Y-108785948D01*
X387340940Y-110943430D01*
X387053082Y-113373660D01*
X387233700Y-115967008D01*
X387855298Y-118441289D01*
X388867335Y-120419247D01*
X390303128Y-121949198D01*
X392112450Y-123041937D01*
X393021872Y-123329208D01*
X394299263Y-123568839D01*
X395806802Y-123753976D01*
X397406670Y-123877767D01*
X398961047Y-123933358D01*
X400332114Y-123913896D01*
X401382050Y-123812528D01*
X401973037Y-123622401D01*
X402045120Y-123535841D01*
X402086367Y-123105438D01*
X402118159Y-122109993D01*
X402139749Y-120635689D01*
X402150387Y-118768707D01*
X402149325Y-116595231D01*
X402135814Y-114201442D01*
X402131032Y-113646836D01*
X402063905Y-106323877D01*
X399602193Y-106323877D01*
X399602193Y-121629005D01*
X397066065Y-121629005D01*
X395498015Y-121575025D01*
X394326432Y-121382697D01*
X393303139Y-121006437D01*
X393076962Y-120896313D01*
X391701597Y-119921729D01*
X390733394Y-118558692D01*
X390138664Y-116742632D01*
X389902633Y-114812300D01*
X389914415Y-112504053D01*
X390265869Y-110648436D01*
X390988010Y-109124579D01*
X391551193Y-108387762D01*
X392615275Y-107386273D01*
X393804405Y-106750029D01*
X395287619Y-106416713D01*
X397149426Y-106323877D01*
X399602193Y-106323877D01*
X402063905Y-106323877D01*
X402044501Y-104207210D01*
X398818080Y-104113388D01*
X396200048Y-104131723D01*
G37*
X396200048Y-104131723D02*
X394074419Y-104372129D01*
X392313003Y-104859108D01*
X390787613Y-105617162D01*
X390716260Y-105661973D01*
X389204021Y-106994399D01*
X388068417Y-108785948D01*
X387340940Y-110943430D01*
X387053082Y-113373660D01*
X387233700Y-115967008D01*
X387855298Y-118441289D01*
X388867335Y-120419247D01*
X390303128Y-121949198D01*
X392112450Y-123041937D01*
X393021872Y-123329208D01*
X394299263Y-123568839D01*
X395806802Y-123753976D01*
X397406670Y-123877767D01*
X398961047Y-123933358D01*
X400332114Y-123913896D01*
X401382050Y-123812528D01*
X401973037Y-123622401D01*
X402045120Y-123535841D01*
X402086367Y-123105438D01*
X402118159Y-122109993D01*
X402139749Y-120635689D01*
X402150387Y-118768707D01*
X402149325Y-116595231D01*
X402135814Y-114201442D01*
X402131032Y-113646836D01*
X402063905Y-106323877D01*
X399602193Y-106323877D01*
X399602193Y-121629005D01*
X397066065Y-121629005D01*
X395498015Y-121575025D01*
X394326432Y-121382697D01*
X393303139Y-121006437D01*
X393076962Y-120896313D01*
X391701597Y-119921729D01*
X390733394Y-118558692D01*
X390138664Y-116742632D01*
X389902633Y-114812300D01*
X389914415Y-112504053D01*
X390265869Y-110648436D01*
X390988010Y-109124579D01*
X391551193Y-108387762D01*
X392615275Y-107386273D01*
X393804405Y-106750029D01*
X395287619Y-106416713D01*
X397149426Y-106323877D01*
X399602193Y-106323877D01*
X402063905Y-106323877D01*
X402044501Y-104207210D01*
X398818080Y-104113388D01*
X396200048Y-104131723D01*
G36*
X373388091Y-123745672D02*
G01*
X374448663Y-123847881D01*
X375306456Y-123797407D01*
X375674938Y-123518276D01*
X375714452Y-123092519D01*
X375744679Y-122101512D01*
X375764930Y-120631231D01*
X375774514Y-118767651D01*
X375772743Y-116596748D01*
X375758927Y-114204498D01*
X375754109Y-113646836D01*
X375667578Y-104207210D01*
X373388091Y-104207210D01*
X373388091Y-123745672D01*
G37*
X373388091Y-123745672D02*
X374448663Y-123847881D01*
X375306456Y-123797407D01*
X375674938Y-123518276D01*
X375714452Y-123092519D01*
X375744679Y-122101512D01*
X375764930Y-120631231D01*
X375774514Y-118767651D01*
X375772743Y-116596748D01*
X375758927Y-114204498D01*
X375754109Y-113646836D01*
X375667578Y-104207210D01*
X373388091Y-104207210D01*
X373388091Y-123745672D01*
G36*
X313307321Y-123908492D02*
G01*
X314457285Y-123908492D01*
X315264076Y-123803249D01*
X315738940Y-123545137D01*
X315764970Y-123497477D01*
X315802434Y-123077219D01*
X315830808Y-122091465D01*
X315849474Y-120625946D01*
X315857811Y-118766393D01*
X315855200Y-116598539D01*
X315841022Y-114208113D01*
X315836160Y-113646836D01*
X315749629Y-104207210D01*
X314528475Y-104106142D01*
X313307321Y-104005075D01*
X313307321Y-123908492D01*
G37*
X313307321Y-123908492D02*
X314457285Y-123908492D01*
X315264076Y-123803249D01*
X315738940Y-123545137D01*
X315764970Y-123497477D01*
X315802434Y-123077219D01*
X315830808Y-122091465D01*
X315849474Y-120625946D01*
X315857811Y-118766393D01*
X315855200Y-116598539D01*
X315841022Y-114208113D01*
X315836160Y-113646836D01*
X315749629Y-104207210D01*
X314528475Y-104106142D01*
X313307321Y-104005075D01*
X313307321Y-123908492D01*
G36*
X296268361Y-104103589D02*
G01*
X294571297Y-104186419D01*
X293368911Y-104301220D01*
X292504605Y-104476729D01*
X291821785Y-104741684D01*
X291351471Y-105005912D01*
X290088822Y-106003461D01*
X289310716Y-107202968D01*
X288943924Y-108750250D01*
X288890819Y-109905928D01*
X289127305Y-112015910D01*
X289836928Y-113695766D01*
X291033599Y-114958514D01*
X292731231Y-115817175D01*
X294943735Y-116284766D01*
X295782360Y-116355074D01*
X298327834Y-116502429D01*
X298327834Y-123908492D01*
X299413304Y-123908492D01*
X300217936Y-123848916D01*
X300701163Y-123704218D01*
X300715868Y-123691398D01*
X300771547Y-123322060D01*
X300821944Y-122385349D01*
X300865154Y-120965166D01*
X300899275Y-119145412D01*
X300922402Y-117009986D01*
X300932631Y-114642790D01*
X300932962Y-114124861D01*
X300928604Y-111351934D01*
X300913200Y-109160693D01*
X300883260Y-107481585D01*
X300838351Y-106323877D01*
X298327834Y-106323877D01*
X298327834Y-110177296D01*
X298310470Y-111700627D01*
X298263227Y-112978146D01*
X298193380Y-113873436D01*
X298110740Y-114247808D01*
X297592074Y-114416828D01*
X296660098Y-114452809D01*
X295537642Y-114362342D01*
X294447535Y-114152017D01*
X294395961Y-114137941D01*
X293010204Y-113497683D01*
X292098769Y-112450973D01*
X291621763Y-110945326D01*
X291558052Y-110404060D01*
X291502427Y-109338634D01*
X291620550Y-108645150D01*
X292005844Y-108049240D01*
X292556822Y-107470786D01*
X293198956Y-106868932D01*
X293760269Y-106525622D01*
X294458815Y-106368555D01*
X295512645Y-106325432D01*
X296015783Y-106323877D01*
X298327834Y-106323877D01*
X300838351Y-106323877D01*
X300835293Y-106245057D01*
X300765806Y-105381557D01*
X300671308Y-104821533D01*
X300548308Y-104495432D01*
X300443229Y-104368975D01*
X299963179Y-104178792D01*
X299043272Y-104079243D01*
X297606706Y-104065445D01*
X296268361Y-104103589D01*
G37*
X296268361Y-104103589D02*
X294571297Y-104186419D01*
X293368911Y-104301220D01*
X292504605Y-104476729D01*
X291821785Y-104741684D01*
X291351471Y-105005912D01*
X290088822Y-106003461D01*
X289310716Y-107202968D01*
X288943924Y-108750250D01*
X288890819Y-109905928D01*
X289127305Y-112015910D01*
X289836928Y-113695766D01*
X291033599Y-114958514D01*
X292731231Y-115817175D01*
X294943735Y-116284766D01*
X295782360Y-116355074D01*
X298327834Y-116502429D01*
X298327834Y-123908492D01*
X299413304Y-123908492D01*
X300217936Y-123848916D01*
X300701163Y-123704218D01*
X300715868Y-123691398D01*
X300771547Y-123322060D01*
X300821944Y-122385349D01*
X300865154Y-120965166D01*
X300899275Y-119145412D01*
X300922402Y-117009986D01*
X300932631Y-114642790D01*
X300932962Y-114124861D01*
X300928604Y-111351934D01*
X300913200Y-109160693D01*
X300883260Y-107481585D01*
X300838351Y-106323877D01*
X298327834Y-106323877D01*
X298327834Y-110177296D01*
X298310470Y-111700627D01*
X298263227Y-112978146D01*
X298193380Y-113873436D01*
X298110740Y-114247808D01*
X297592074Y-114416828D01*
X296660098Y-114452809D01*
X295537642Y-114362342D01*
X294447535Y-114152017D01*
X294395961Y-114137941D01*
X293010204Y-113497683D01*
X292098769Y-112450973D01*
X291621763Y-110945326D01*
X291558052Y-110404060D01*
X291502427Y-109338634D01*
X291620550Y-108645150D01*
X292005844Y-108049240D01*
X292556822Y-107470786D01*
X293198956Y-106868932D01*
X293760269Y-106525622D01*
X294458815Y-106368555D01*
X295512645Y-106325432D01*
X296015783Y-106323877D01*
X298327834Y-106323877D01*
X300838351Y-106323877D01*
X300835293Y-106245057D01*
X300765806Y-105381557D01*
X300671308Y-104821533D01*
X300548308Y-104495432D01*
X300443229Y-104368975D01*
X299963179Y-104178792D01*
X299043272Y-104079243D01*
X297606706Y-104065445D01*
X296268361Y-104103589D01*
G36*
X276265655Y-104106142D02*
G01*
X275044501Y-104207210D01*
X274871083Y-121607774D01*
X267554757Y-121791826D01*
X267554757Y-123745672D01*
X272295342Y-123835429D01*
X273991051Y-123852531D01*
X275450298Y-123838897D01*
X276551544Y-123797847D01*
X277173248Y-123732703D01*
X277261368Y-123699745D01*
X277318078Y-123329106D01*
X277369559Y-122389411D01*
X277413949Y-120962877D01*
X277449387Y-119131722D01*
X277474012Y-116978163D01*
X277485963Y-114584417D01*
X277486809Y-113739689D01*
X277486809Y-104005075D01*
X276265655Y-104106142D01*
G37*
X276265655Y-104106142D02*
X275044501Y-104207210D01*
X274871083Y-121607774D01*
X267554757Y-121791826D01*
X267554757Y-123745672D01*
X272295342Y-123835429D01*
X273991051Y-123852531D01*
X275450298Y-123838897D01*
X276551544Y-123797847D01*
X277173248Y-123732703D01*
X277261368Y-123699745D01*
X277318078Y-123329106D01*
X277369559Y-122389411D01*
X277413949Y-120962877D01*
X277449387Y-119131722D01*
X277474012Y-116978163D01*
X277485963Y-114584417D01*
X277486809Y-113739689D01*
X277486809Y-104005075D01*
X276265655Y-104106142D01*
G36*
X256075911Y-104106142D02*
G01*
X254854757Y-104207210D01*
X254854757Y-123745672D01*
X256075911Y-123846739D01*
X257297065Y-123947807D01*
X257297065Y-104005075D01*
X256075911Y-104106142D01*
G37*
X256075911Y-104106142D02*
X254854757Y-104207210D01*
X254854757Y-123745672D01*
X256075911Y-123846739D01*
X257297065Y-123947807D01*
X257297065Y-104005075D01*
X256075911Y-104106142D01*
G36*
X227740336Y-113874040D02*
G01*
X227826552Y-123745672D01*
X228966296Y-123841575D01*
X229899459Y-123791529D01*
X230618858Y-123539898D01*
X230651952Y-123515934D01*
X230947806Y-123128894D01*
X231509369Y-122247667D01*
X232290723Y-120949955D01*
X233245950Y-119313460D01*
X234329133Y-117415883D01*
X235494352Y-115334927D01*
X235612228Y-115122248D01*
X240026591Y-107150106D01*
X240200911Y-123745672D01*
X241264051Y-123848073D01*
X242327190Y-123950473D01*
X242240974Y-114078842D01*
X242154757Y-104207210D01*
X240644460Y-104109448D01*
X239639143Y-104103870D01*
X239016976Y-104308747D01*
X238527793Y-104800408D01*
X238207123Y-105299022D01*
X237627262Y-106282363D01*
X236838377Y-107662037D01*
X235890634Y-109349653D01*
X234834197Y-111256817D01*
X234013732Y-112754231D01*
X230106039Y-119919332D01*
X229943219Y-112063271D01*
X229780398Y-104207210D01*
X228717259Y-104104809D01*
X227654119Y-104002408D01*
X227740336Y-113874040D01*
G37*
X227740336Y-113874040D02*
X227826552Y-123745672D01*
X228966296Y-123841575D01*
X229899459Y-123791529D01*
X230618858Y-123539898D01*
X230651952Y-123515934D01*
X230947806Y-123128894D01*
X231509369Y-122247667D01*
X232290723Y-120949955D01*
X233245950Y-119313460D01*
X234329133Y-117415883D01*
X235494352Y-115334927D01*
X235612228Y-115122248D01*
X240026591Y-107150106D01*
X240200911Y-123745672D01*
X241264051Y-123848073D01*
X242327190Y-123950473D01*
X242240974Y-114078842D01*
X242154757Y-104207210D01*
X240644460Y-104109448D01*
X239639143Y-104103870D01*
X239016976Y-104308747D01*
X238527793Y-104800408D01*
X238207123Y-105299022D01*
X237627262Y-106282363D01*
X236838377Y-107662037D01*
X235890634Y-109349653D01*
X234834197Y-111256817D01*
X234013732Y-112754231D01*
X230106039Y-119919332D01*
X229943219Y-112063271D01*
X229780398Y-104207210D01*
X228717259Y-104104809D01*
X227654119Y-104002408D01*
X227740336Y-113874040D01*
G36*
X207641970Y-104050299D02*
G01*
X206288460Y-104075799D01*
X205387700Y-104132552D01*
X204840446Y-104232218D01*
X204547456Y-104386458D01*
X204409489Y-104606933D01*
X204394959Y-104649796D01*
X204330989Y-105438244D01*
X204407854Y-105789540D01*
X204580457Y-106016222D01*
X204964153Y-106169518D01*
X205666150Y-106262897D01*
X206793651Y-106309826D01*
X208453861Y-106323777D01*
X208660792Y-106323877D01*
X212708684Y-106323877D01*
X212615054Y-109336056D01*
X212521424Y-112348236D01*
X205520142Y-112533090D01*
X205520142Y-114464902D01*
X212684245Y-114464902D01*
X212684245Y-121609547D01*
X208532321Y-121700686D01*
X204380398Y-121791826D01*
X204380398Y-123745672D01*
X209436218Y-123834980D01*
X211585245Y-123855181D01*
X213147527Y-123826374D01*
X214186016Y-123744989D01*
X214763663Y-123607457D01*
X214890705Y-123525621D01*
X215014061Y-123083510D01*
X215116522Y-122093290D01*
X215198045Y-120657765D01*
X215258589Y-118879740D01*
X215298111Y-116862019D01*
X215316569Y-114707406D01*
X215313919Y-112518705D01*
X215290119Y-110398721D01*
X215245127Y-108450258D01*
X215178900Y-106776119D01*
X215091396Y-105479111D01*
X214982572Y-104662035D01*
X214898603Y-104435159D01*
X214437242Y-104261727D01*
X213430889Y-104140473D01*
X211845068Y-104068877D01*
X209645299Y-104044423D01*
X209547471Y-104044390D01*
X207641970Y-104050299D01*
G37*
X207641970Y-104050299D02*
X206288460Y-104075799D01*
X205387700Y-104132552D01*
X204840446Y-104232218D01*
X204547456Y-104386458D01*
X204409489Y-104606933D01*
X204394959Y-104649796D01*
X204330989Y-105438244D01*
X204407854Y-105789540D01*
X204580457Y-106016222D01*
X204964153Y-106169518D01*
X205666150Y-106262897D01*
X206793651Y-106309826D01*
X208453861Y-106323777D01*
X208660792Y-106323877D01*
X212708684Y-106323877D01*
X212615054Y-109336056D01*
X212521424Y-112348236D01*
X205520142Y-112533090D01*
X205520142Y-114464902D01*
X212684245Y-114464902D01*
X212684245Y-121609547D01*
X208532321Y-121700686D01*
X204380398Y-121791826D01*
X204380398Y-123745672D01*
X209436218Y-123834980D01*
X211585245Y-123855181D01*
X213147527Y-123826374D01*
X214186016Y-123744989D01*
X214763663Y-123607457D01*
X214890705Y-123525621D01*
X215014061Y-123083510D01*
X215116522Y-122093290D01*
X215198045Y-120657765D01*
X215258589Y-118879740D01*
X215298111Y-116862019D01*
X215316569Y-114707406D01*
X215313919Y-112518705D01*
X215290119Y-110398721D01*
X215245127Y-108450258D01*
X215178900Y-106776119D01*
X215091396Y-105479111D01*
X214982572Y-104662035D01*
X214898603Y-104435159D01*
X214437242Y-104261727D01*
X213430889Y-104140473D01*
X211845068Y-104068877D01*
X209645299Y-104044423D01*
X209547471Y-104044390D01*
X207641970Y-104050299D01*
D11*
X426392450Y-147503620D02*
G75*
G03X426392450Y-80803620I0J33350000D01*
G01*
X207582450Y-80803620D02*
G75*
G03X207582450Y-147503620I0J-33350000D01*
G01*
X426322450Y-80773620D02*
X207002450Y-80803620D01*
X426772450Y-147423620D02*
X207452450Y-147453620D01*
D13*
X318134950Y-87619870D03*
D14*
X363378700Y-156676120D03*
X282416200Y-99526120D03*
D13*
X482441200Y-87619870D03*
X149066200Y-87619870D03*
D14*
X134778700Y-56663620D03*
X463391200Y-156676120D03*
X134778700Y-75713620D03*
X496728700Y-56663620D03*
X496728700Y-75713620D03*
X377666150Y-99526120D03*
X168116150Y-99515990D03*
X282416200Y-166201120D03*
X318610700Y-56663620D03*
X463391200Y-99526120D03*
X172878700Y-156676120D03*
X318611200Y-74126120D03*
D15*
G36*
X498731712Y-53685168D02*
G01*
X499216291Y-53831471D01*
X499663223Y-54069109D01*
X500055488Y-54389033D01*
X500378136Y-54779047D01*
X500618889Y-55224311D01*
X500768571Y-55707855D01*
X500824950Y-56244267D01*
X500824951Y-172384631D01*
X500772151Y-172923132D01*
X500625848Y-173407713D01*
X500388210Y-173854646D01*
X500068287Y-174246907D01*
X499678270Y-174569558D01*
X499233009Y-174810309D01*
X498749465Y-174959991D01*
X498213053Y-175016370D01*
X441946073Y-175016370D01*
X441914768Y-175019453D01*
X441899980Y-175019350D01*
X441890114Y-175020317D01*
X441427968Y-175068890D01*
X441364924Y-175081831D01*
X441301720Y-175093888D01*
X441292238Y-175096752D01*
X441292231Y-175096753D01*
X441292225Y-175096756D01*
X440848322Y-175234167D01*
X440789046Y-175259084D01*
X440729334Y-175283210D01*
X440720581Y-175287864D01*
X440311818Y-175508882D01*
X440258501Y-175544845D01*
X440204624Y-175580101D01*
X440196942Y-175586367D01*
X439838892Y-175882571D01*
X439793560Y-175928220D01*
X439747570Y-175973257D01*
X439741256Y-175980890D01*
X439741252Y-175980894D01*
X439741251Y-175980896D01*
X439447554Y-176341005D01*
X439411966Y-176394570D01*
X439375587Y-176447699D01*
X439370873Y-176456420D01*
X439152714Y-176866715D01*
X439128201Y-176926189D01*
X439102840Y-176985359D01*
X439099909Y-176994829D01*
X438965599Y-177439686D01*
X438953099Y-177502816D01*
X438939721Y-177565755D01*
X438938685Y-177575614D01*
X438893339Y-178038086D01*
X438854787Y-178431272D01*
X438760718Y-178742844D01*
X438607925Y-179030203D01*
X438402227Y-179282415D01*
X438151458Y-179489868D01*
X437865167Y-179644666D01*
X437554271Y-179740904D01*
X437197807Y-179778370D01*
X384865670Y-179778370D01*
X384507048Y-179743207D01*
X384195476Y-179649138D01*
X383908117Y-179496345D01*
X383655905Y-179290647D01*
X383448452Y-179039878D01*
X383293654Y-178753587D01*
X383197416Y-178442691D01*
X383156764Y-178055914D01*
X383156970Y-178026400D01*
X383156003Y-178016534D01*
X383107430Y-177554388D01*
X383094489Y-177491344D01*
X383082432Y-177428140D01*
X383079568Y-177418658D01*
X383079567Y-177418651D01*
X383079564Y-177418645D01*
X382942153Y-176974742D01*
X382917236Y-176915466D01*
X382893110Y-176855754D01*
X382888456Y-176847001D01*
X382667438Y-176438238D01*
X382631475Y-176384921D01*
X382596219Y-176331044D01*
X382589953Y-176323362D01*
X382293749Y-175965312D01*
X382248096Y-175919976D01*
X382203063Y-175873990D01*
X382195430Y-175867676D01*
X382195426Y-175867672D01*
X382195422Y-175867669D01*
X381835315Y-175573974D01*
X381781750Y-175538386D01*
X381728621Y-175502007D01*
X381719903Y-175497294D01*
X381719895Y-175497290D01*
X381309605Y-175279134D01*
X381250131Y-175254621D01*
X381190961Y-175229260D01*
X381181491Y-175226329D01*
X380736634Y-175092019D01*
X380673504Y-175079519D01*
X380610565Y-175066141D01*
X380600706Y-175065105D01*
X380138234Y-175019759D01*
X380138232Y-175019759D01*
X380103818Y-175016370D01*
X133310354Y-175019370D01*
X132771493Y-174967028D01*
X132286781Y-174821164D01*
X131839636Y-174583933D01*
X131447081Y-174264366D01*
X131124078Y-173874641D01*
X130882921Y-173429597D01*
X130732801Y-172946190D01*
X130675950Y-172409963D01*
X130675950Y-168267284D01*
X136444882Y-168267284D01*
X136444882Y-168877196D01*
X136563869Y-169475388D01*
X136797272Y-170038873D01*
X137136121Y-170545996D01*
X137567394Y-170977269D01*
X138074517Y-171316118D01*
X138638002Y-171549521D01*
X139236194Y-171668508D01*
X139846106Y-171668508D01*
X140444298Y-171549521D01*
X141007783Y-171316118D01*
X141514906Y-170977269D01*
X141946179Y-170545996D01*
X142285028Y-170038873D01*
X142518431Y-169475388D01*
X142637418Y-168877196D01*
X142637418Y-168267284D01*
X142622224Y-168190895D01*
X280606030Y-168190895D01*
X280846176Y-168578138D01*
X281340077Y-168838761D01*
X281875333Y-168998021D01*
X282431374Y-169049798D01*
X282986832Y-168992101D01*
X283520361Y-168827148D01*
X283986224Y-168578138D01*
X284178997Y-168267284D01*
X315038632Y-168267284D01*
X315038632Y-168877196D01*
X315157619Y-169475388D01*
X315391022Y-170038873D01*
X315729871Y-170545996D01*
X316161144Y-170977269D01*
X316668267Y-171316118D01*
X317231752Y-171549521D01*
X317829944Y-171668508D01*
X318439856Y-171668508D01*
X319038048Y-171549521D01*
X319601533Y-171316118D01*
X320108656Y-170977269D01*
X320539929Y-170545996D01*
X320878778Y-170038873D01*
X321112181Y-169475388D01*
X321231168Y-168877196D01*
X321231168Y-168267284D01*
X488869882Y-168267284D01*
X488869882Y-168877196D01*
X488988869Y-169475388D01*
X489222272Y-170038873D01*
X489561121Y-170545996D01*
X489992394Y-170977269D01*
X490499517Y-171316118D01*
X491063002Y-171549521D01*
X491661194Y-171668508D01*
X492271106Y-171668508D01*
X492869298Y-171549521D01*
X493432783Y-171316118D01*
X493939906Y-170977269D01*
X494371179Y-170545996D01*
X494710028Y-170038873D01*
X494943431Y-169475388D01*
X495062418Y-168877196D01*
X495062418Y-168267284D01*
X494943431Y-167669092D01*
X494710028Y-167105607D01*
X494371179Y-166598484D01*
X493939906Y-166167211D01*
X493432783Y-165828362D01*
X492869298Y-165594959D01*
X492271106Y-165475972D01*
X491661194Y-165475972D01*
X491063002Y-165594959D01*
X490499517Y-165828362D01*
X489992394Y-166167211D01*
X489561121Y-166598484D01*
X489222272Y-167105607D01*
X488988869Y-167669092D01*
X488869882Y-168267284D01*
X321231168Y-168267284D01*
X321112181Y-167669092D01*
X320878778Y-167105607D01*
X320539929Y-166598484D01*
X320108656Y-166167211D01*
X319601533Y-165828362D01*
X319038048Y-165594959D01*
X318439856Y-165475972D01*
X317829944Y-165475972D01*
X317231752Y-165594959D01*
X316668267Y-165828362D01*
X316161144Y-166167211D01*
X315729871Y-166598484D01*
X315391022Y-167105607D01*
X315157619Y-167669092D01*
X315038632Y-168267284D01*
X284178997Y-168267284D01*
X284226370Y-168190895D01*
X282416200Y-166380725D01*
X280606030Y-168190895D01*
X142622224Y-168190895D01*
X142518431Y-167669092D01*
X142285028Y-167105607D01*
X141946179Y-166598484D01*
X141563989Y-166216294D01*
X279567522Y-166216294D01*
X279625219Y-166771752D01*
X279790172Y-167305281D01*
X280039182Y-167771144D01*
X280426425Y-168011290D01*
X282236595Y-166201120D01*
X282595805Y-166201120D01*
X284405975Y-168011290D01*
X284793218Y-167771144D01*
X285053841Y-167277243D01*
X285213101Y-166741987D01*
X285264878Y-166185946D01*
X285207181Y-165630488D01*
X285042228Y-165096959D01*
X284793218Y-164631096D01*
X284405975Y-164390950D01*
X282595805Y-166201120D01*
X282236595Y-166201120D01*
X280426425Y-164390950D01*
X280039182Y-164631096D01*
X279778559Y-165124997D01*
X279619299Y-165660253D01*
X279567522Y-166216294D01*
X141563989Y-166216294D01*
X141514906Y-166167211D01*
X141007783Y-165828362D01*
X140444298Y-165594959D01*
X139846106Y-165475972D01*
X139236194Y-165475972D01*
X138638002Y-165594959D01*
X138074517Y-165828362D01*
X137567394Y-166167211D01*
X137136121Y-166598484D01*
X136797272Y-167105607D01*
X136563869Y-167669092D01*
X136444882Y-168267284D01*
X130675950Y-168267284D01*
X130675950Y-164211345D01*
X280606030Y-164211345D01*
X282416200Y-166021515D01*
X284226370Y-164211345D01*
X283986224Y-163824102D01*
X283492323Y-163563479D01*
X282957067Y-163404219D01*
X282401026Y-163352442D01*
X281845568Y-163410139D01*
X281312039Y-163575092D01*
X280846176Y-163824102D01*
X280606030Y-164211345D01*
X130675950Y-164211345D01*
X130675950Y-156396897D01*
X170043700Y-156396897D01*
X170043700Y-156955343D01*
X170152648Y-157503059D01*
X170366356Y-158018996D01*
X170676612Y-158483327D01*
X171071493Y-158878208D01*
X171535824Y-159188464D01*
X172051761Y-159402172D01*
X172599477Y-159511120D01*
X173157923Y-159511120D01*
X173705639Y-159402172D01*
X174221576Y-159188464D01*
X174685907Y-158878208D01*
X175080788Y-158483327D01*
X175391044Y-158018996D01*
X175604752Y-157503059D01*
X175713700Y-156955343D01*
X175713700Y-156396897D01*
X360543700Y-156396897D01*
X360543700Y-156955343D01*
X360652648Y-157503059D01*
X360866356Y-158018996D01*
X361176612Y-158483327D01*
X361571493Y-158878208D01*
X362035824Y-159188464D01*
X362551761Y-159402172D01*
X363099477Y-159511120D01*
X363657923Y-159511120D01*
X364205639Y-159402172D01*
X364721576Y-159188464D01*
X365185907Y-158878208D01*
X365580788Y-158483327D01*
X365891044Y-158018996D01*
X366104752Y-157503059D01*
X366213700Y-156955343D01*
X366213700Y-156396897D01*
X460556200Y-156396897D01*
X460556200Y-156955343D01*
X460665148Y-157503059D01*
X460878856Y-158018996D01*
X461189112Y-158483327D01*
X461583993Y-158878208D01*
X462048324Y-159188464D01*
X462564261Y-159402172D01*
X463111977Y-159511120D01*
X463670423Y-159511120D01*
X464218139Y-159402172D01*
X464734076Y-159188464D01*
X465198407Y-158878208D01*
X465593288Y-158483327D01*
X465903544Y-158018996D01*
X466117252Y-157503059D01*
X466226200Y-156955343D01*
X466226200Y-156396897D01*
X466117252Y-155849181D01*
X465903544Y-155333244D01*
X465593288Y-154868913D01*
X465198407Y-154474032D01*
X464734076Y-154163776D01*
X464218139Y-153950068D01*
X463670423Y-153841120D01*
X463111977Y-153841120D01*
X462564261Y-153950068D01*
X462048324Y-154163776D01*
X461583993Y-154474032D01*
X461189112Y-154868913D01*
X460878856Y-155333244D01*
X460665148Y-155849181D01*
X460556200Y-156396897D01*
X366213700Y-156396897D01*
X366104752Y-155849181D01*
X365891044Y-155333244D01*
X365580788Y-154868913D01*
X365185907Y-154474032D01*
X364721576Y-154163776D01*
X364205639Y-153950068D01*
X363657923Y-153841120D01*
X363099477Y-153841120D01*
X362551761Y-153950068D01*
X362035824Y-154163776D01*
X361571493Y-154474032D01*
X361176612Y-154868913D01*
X360866356Y-155333244D01*
X360652648Y-155849181D01*
X360543700Y-156396897D01*
X175713700Y-156396897D01*
X175604752Y-155849181D01*
X175391044Y-155333244D01*
X175080788Y-154868913D01*
X174685907Y-154474032D01*
X174221576Y-154163776D01*
X173705639Y-153950068D01*
X173157923Y-153841120D01*
X172599477Y-153841120D01*
X172051761Y-153950068D01*
X171535824Y-154163776D01*
X171071493Y-154474032D01*
X170676612Y-154868913D01*
X170366356Y-155333244D01*
X170152648Y-155849181D01*
X170043700Y-156396897D01*
X130675950Y-156396897D01*
X130675950Y-114266763D01*
X172098792Y-114266763D01*
X172099114Y-114328239D01*
X172098792Y-114389714D01*
X172099553Y-114412059D01*
X172188658Y-116679934D01*
X172193158Y-116741220D01*
X172197020Y-116802600D01*
X172199299Y-116824840D01*
X172442448Y-119081402D01*
X172451110Y-119142265D01*
X172459135Y-119203216D01*
X172462921Y-119225250D01*
X172858988Y-121460049D01*
X172871754Y-121520106D01*
X172883920Y-121580444D01*
X172889197Y-121602170D01*
X173436345Y-123804855D01*
X173453186Y-123863976D01*
X173469409Y-123923276D01*
X173476151Y-123944593D01*
X174171850Y-126104963D01*
X174192660Y-126162766D01*
X174212892Y-126220862D01*
X174221068Y-126241671D01*
X175062095Y-128349719D01*
X175086794Y-128405984D01*
X175110924Y-128462556D01*
X175120496Y-128482761D01*
X176102954Y-130528726D01*
X176131447Y-130583228D01*
X176159346Y-130637982D01*
X176170270Y-130657489D01*
X177289610Y-132631893D01*
X177321719Y-132684290D01*
X177353301Y-132737060D01*
X177365517Y-132755763D01*
X177365527Y-132755779D01*
X177365536Y-132755792D01*
X178616564Y-134649478D01*
X178652159Y-134699565D01*
X178687261Y-134750070D01*
X178700732Y-134767914D01*
X180077673Y-136572139D01*
X180116608Y-136619708D01*
X180155048Y-136667689D01*
X180169701Y-136684575D01*
X181666168Y-138390969D01*
X181708251Y-138435784D01*
X181749863Y-138481036D01*
X181765630Y-138496886D01*
X183374694Y-140097546D01*
X183419705Y-140139373D01*
X183464321Y-140181712D01*
X183481130Y-140196453D01*
X185195336Y-141683965D01*
X185243095Y-141722639D01*
X185290480Y-141761839D01*
X185308253Y-141775403D01*
X187119662Y-143142878D01*
X187169981Y-143178243D01*
X187219883Y-143214101D01*
X187238513Y-143226408D01*
X187238537Y-143226425D01*
X187238558Y-143226438D01*
X189138761Y-144467529D01*
X189191284Y-144499338D01*
X189243593Y-144531771D01*
X189263042Y-144542797D01*
X191243280Y-145651784D01*
X191297878Y-145679964D01*
X191352240Y-145708747D01*
X191372394Y-145718424D01*
X193423475Y-146690157D01*
X193479900Y-146714574D01*
X193536056Y-146739576D01*
X193556822Y-146747861D01*
X195669245Y-147577838D01*
X195727183Y-147598355D01*
X195784926Y-147619486D01*
X195806207Y-147626339D01*
X197970191Y-148310717D01*
X198029389Y-148327245D01*
X198088437Y-148344400D01*
X198110135Y-148349790D01*
X200315656Y-148885399D01*
X200375784Y-148897851D01*
X200435919Y-148910962D01*
X200457933Y-148914863D01*
X202694775Y-149299222D01*
X202755639Y-149307559D01*
X202816498Y-149316546D01*
X202838727Y-149318941D01*
X205096531Y-149550272D01*
X205157829Y-149554451D01*
X205219152Y-149559277D01*
X205241490Y-149560155D01*
X205241492Y-149560155D01*
X207509802Y-149637384D01*
X207655099Y-149637384D01*
X207800059Y-149627502D01*
X207944011Y-149607782D01*
X208036929Y-149588540D01*
X425814845Y-149558750D01*
X425948561Y-149591965D01*
X426091629Y-149617320D01*
X426236089Y-149632887D01*
X426381274Y-149638591D01*
X426403631Y-149638591D01*
X426752865Y-149636762D01*
X426783582Y-149635555D01*
X426814332Y-149635555D01*
X426836672Y-149634677D01*
X429104049Y-149533699D01*
X429165332Y-149528876D01*
X429226670Y-149524694D01*
X429248899Y-149522299D01*
X431504157Y-149267338D01*
X431564971Y-149258358D01*
X431625880Y-149250014D01*
X431647889Y-149246114D01*
X431647895Y-149246113D01*
X431647900Y-149246112D01*
X433880589Y-148838351D01*
X433940627Y-148825260D01*
X434000853Y-148812788D01*
X434022551Y-148807398D01*
X436222340Y-148248722D01*
X436281326Y-148231585D01*
X436340587Y-148215039D01*
X436361868Y-148208186D01*
X438518566Y-147501184D01*
X438576260Y-147480071D01*
X438634247Y-147459537D01*
X438655002Y-147451256D01*
X438655014Y-147451252D01*
X438655024Y-147451248D01*
X440758629Y-146599200D01*
X440814783Y-146574199D01*
X440871210Y-146549780D01*
X440891351Y-146540108D01*
X440891365Y-146540102D01*
X440891376Y-146540096D01*
X442932156Y-145546945D01*
X442986427Y-145518211D01*
X443041116Y-145489983D01*
X443060565Y-145478957D01*
X445029082Y-144349294D01*
X445081344Y-144316890D01*
X445133914Y-144285052D01*
X445152568Y-144272729D01*
X447039691Y-143011794D01*
X447089574Y-142975949D01*
X447139912Y-142940571D01*
X447157684Y-142927007D01*
X448954676Y-141540638D01*
X449002050Y-141501447D01*
X449049820Y-141462763D01*
X449066629Y-141448022D01*
X450765164Y-139942640D01*
X450809777Y-139900304D01*
X450854790Y-139858475D01*
X450870558Y-139842625D01*
X452462771Y-138225204D01*
X452504383Y-138179952D01*
X452546466Y-138135137D01*
X452561119Y-138118251D01*
X454039635Y-136396280D01*
X454078051Y-136348329D01*
X454117011Y-136300729D01*
X454130481Y-136282886D01*
X455488453Y-134464340D01*
X455523510Y-134413899D01*
X455559150Y-134363749D01*
X455571375Y-134345030D01*
X456802514Y-132438334D01*
X456834074Y-132385602D01*
X456866207Y-132333166D01*
X456877122Y-132313675D01*
X456877131Y-132313660D01*
X456877137Y-132313647D01*
X457975734Y-130327641D01*
X458003619Y-130272914D01*
X458032125Y-130218386D01*
X458041697Y-130198181D01*
X459002676Y-128142041D01*
X459026787Y-128085514D01*
X459051506Y-128029203D01*
X459059669Y-128008424D01*
X459059682Y-128008394D01*
X459059691Y-128008368D01*
X459878586Y-125891654D01*
X459898795Y-125833624D01*
X459919628Y-125775756D01*
X459926370Y-125754439D01*
X460599408Y-123586902D01*
X460615645Y-123527551D01*
X460632471Y-123468481D01*
X460637739Y-123446788D01*
X460637748Y-123446755D01*
X460637754Y-123446727D01*
X461161801Y-121238462D01*
X461173944Y-121178239D01*
X461186734Y-121118065D01*
X461190521Y-121096031D01*
X461563162Y-118857208D01*
X461571181Y-118796304D01*
X461579849Y-118735395D01*
X461582128Y-118713154D01*
X461801633Y-116454168D01*
X461805494Y-116392799D01*
X461809995Y-116331504D01*
X461810756Y-116309160D01*
X461876108Y-114040477D01*
X461875786Y-113979002D01*
X461876108Y-113917526D01*
X461875347Y-113895182D01*
X461786242Y-111627306D01*
X461781742Y-111566023D01*
X461777880Y-111504640D01*
X461775601Y-111482399D01*
X461532452Y-109225838D01*
X461523788Y-109164963D01*
X461515765Y-109104025D01*
X461511979Y-109081990D01*
X461115912Y-106847191D01*
X461103143Y-106787119D01*
X461090980Y-106726796D01*
X461085703Y-106705070D01*
X460538554Y-104502385D01*
X460521728Y-104443315D01*
X460505491Y-104383964D01*
X460498749Y-104362647D01*
X459803050Y-102202277D01*
X459782240Y-102144475D01*
X459762008Y-102086378D01*
X459753832Y-102065569D01*
X458912805Y-99957521D01*
X458888106Y-99901256D01*
X458863976Y-99844684D01*
X458854404Y-99824480D01*
X458577053Y-99246897D01*
X460556200Y-99246897D01*
X460556200Y-99805343D01*
X460665148Y-100353059D01*
X460878856Y-100868996D01*
X461189112Y-101333327D01*
X461583993Y-101728208D01*
X462048324Y-102038464D01*
X462564261Y-102252172D01*
X463111977Y-102361120D01*
X463670423Y-102361120D01*
X464218139Y-102252172D01*
X464734076Y-102038464D01*
X465198407Y-101728208D01*
X465593288Y-101333327D01*
X465903544Y-100868996D01*
X466117252Y-100353059D01*
X466226200Y-99805343D01*
X466226200Y-99246897D01*
X466117252Y-98699181D01*
X465903544Y-98183244D01*
X465593288Y-97718913D01*
X465198407Y-97324032D01*
X464734076Y-97013776D01*
X464218139Y-96800068D01*
X463670423Y-96691120D01*
X463111977Y-96691120D01*
X462564261Y-96800068D01*
X462048324Y-97013776D01*
X461583993Y-97324032D01*
X461189112Y-97718913D01*
X460878856Y-98183244D01*
X460665148Y-98699181D01*
X460556200Y-99246897D01*
X458577053Y-99246897D01*
X457871946Y-97778514D01*
X457843453Y-97724012D01*
X457815554Y-97669258D01*
X457804630Y-97649751D01*
X456685290Y-95675347D01*
X456653181Y-95622950D01*
X456621599Y-95570180D01*
X456609383Y-95551477D01*
X456609373Y-95551461D01*
X456609364Y-95551448D01*
X455358336Y-93657762D01*
X455322741Y-93607675D01*
X455287639Y-93557170D01*
X455274168Y-93539326D01*
X453897227Y-91735101D01*
X453858276Y-91687512D01*
X453819852Y-91639551D01*
X453805213Y-91622682D01*
X453805199Y-91622664D01*
X453805186Y-91622650D01*
X452308732Y-89916271D01*
X452266689Y-89871500D01*
X452225037Y-89826204D01*
X452209270Y-89810354D01*
X450600207Y-88209694D01*
X450555168Y-88167841D01*
X450510579Y-88125528D01*
X450493770Y-88110787D01*
X449492761Y-87242155D01*
X478606200Y-87242155D01*
X478606200Y-87997585D01*
X478753577Y-88738498D01*
X479042667Y-89436424D01*
X479462361Y-90064540D01*
X479996530Y-90598709D01*
X480624646Y-91018403D01*
X481322572Y-91307493D01*
X482063485Y-91454870D01*
X482818915Y-91454870D01*
X483559828Y-91307493D01*
X484257754Y-91018403D01*
X484885870Y-90598709D01*
X485420039Y-90064540D01*
X485839733Y-89436424D01*
X486128823Y-88738498D01*
X486276200Y-87997585D01*
X486276200Y-87242155D01*
X486128823Y-86501242D01*
X485839733Y-85803316D01*
X485420039Y-85175200D01*
X484885870Y-84641031D01*
X484257754Y-84221337D01*
X483559828Y-83932247D01*
X482818915Y-83784870D01*
X482063485Y-83784870D01*
X481322572Y-83932247D01*
X480624646Y-84221337D01*
X479996530Y-84641031D01*
X479462361Y-85175200D01*
X479042667Y-85803316D01*
X478753577Y-86501242D01*
X478606200Y-87242155D01*
X449492761Y-87242155D01*
X448779564Y-86623275D01*
X448731785Y-86584584D01*
X448684420Y-86545401D01*
X448666647Y-86531837D01*
X446855237Y-85164362D01*
X446804945Y-85129016D01*
X446755017Y-85093139D01*
X446736387Y-85080832D01*
X446736363Y-85080815D01*
X446736342Y-85080802D01*
X444836139Y-83839711D01*
X444783616Y-83807902D01*
X444731307Y-83775469D01*
X444711857Y-83764443D01*
X442731620Y-82655456D01*
X442676979Y-82627254D01*
X442622660Y-82598494D01*
X442602506Y-82588816D01*
X440551425Y-81617084D01*
X440495046Y-81592686D01*
X440438844Y-81567664D01*
X440418079Y-81559379D01*
X438305655Y-80729402D01*
X438247681Y-80708872D01*
X438189974Y-80687755D01*
X438168693Y-80680901D01*
X436524889Y-80161034D01*
X488869882Y-80161034D01*
X488869882Y-80770946D01*
X488988869Y-81369138D01*
X489222272Y-81932623D01*
X489561121Y-82439746D01*
X489992394Y-82871019D01*
X490499517Y-83209868D01*
X491063002Y-83443271D01*
X491661194Y-83562258D01*
X492271106Y-83562258D01*
X492869298Y-83443271D01*
X493432783Y-83209868D01*
X493939906Y-82871019D01*
X494371179Y-82439746D01*
X494710028Y-81932623D01*
X494943431Y-81369138D01*
X495062418Y-80770946D01*
X495062418Y-80161034D01*
X494943431Y-79562842D01*
X494710028Y-78999357D01*
X494371179Y-78492234D01*
X493939906Y-78060961D01*
X493432783Y-77722112D01*
X492869298Y-77488709D01*
X492271106Y-77369722D01*
X491661194Y-77369722D01*
X491063002Y-77488709D01*
X490499517Y-77722112D01*
X489992394Y-78060961D01*
X489561121Y-78492234D01*
X489222272Y-78999357D01*
X488988869Y-79562842D01*
X488869882Y-80161034D01*
X436524889Y-80161034D01*
X436004710Y-79996523D01*
X435945487Y-79979988D01*
X435886463Y-79962840D01*
X435864765Y-79957450D01*
X433659245Y-79421841D01*
X433599088Y-79409383D01*
X433538981Y-79396278D01*
X433516973Y-79392378D01*
X433516967Y-79392377D01*
X433516962Y-79392376D01*
X431280125Y-79008018D01*
X431219261Y-78999681D01*
X431158402Y-78990694D01*
X431136174Y-78988299D01*
X428878369Y-78756968D01*
X428817071Y-78752789D01*
X428755748Y-78747963D01*
X428733410Y-78747085D01*
X428733408Y-78747085D01*
X426777047Y-78680477D01*
X426740695Y-78669455D01*
X426427039Y-78638606D01*
X206897276Y-78668635D01*
X206626294Y-78695362D01*
X204870851Y-78773541D01*
X204809565Y-78778364D01*
X204748230Y-78782546D01*
X204726001Y-78784941D01*
X202470743Y-79039902D01*
X202409929Y-79048882D01*
X202349020Y-79057226D01*
X202327011Y-79061126D01*
X202327005Y-79061127D01*
X202327000Y-79061128D01*
X200094312Y-79468889D01*
X200034254Y-79481984D01*
X199974047Y-79494452D01*
X199952349Y-79499842D01*
X197752559Y-80058518D01*
X197693534Y-80075667D01*
X197634314Y-80092201D01*
X197613033Y-80099054D01*
X195456334Y-80806055D01*
X195398604Y-80827181D01*
X195340653Y-80847703D01*
X195319887Y-80855988D01*
X193216271Y-81708040D01*
X193160117Y-81733041D01*
X193103690Y-81757460D01*
X193083549Y-81767132D01*
X193083535Y-81767138D01*
X193083524Y-81767144D01*
X191042744Y-82760295D01*
X190988473Y-82789029D01*
X190933784Y-82817257D01*
X190914335Y-82828283D01*
X188945818Y-83957946D01*
X188893556Y-83990350D01*
X188840986Y-84022188D01*
X188822331Y-84034511D01*
X186935209Y-85295446D01*
X186885281Y-85331323D01*
X186834989Y-85366669D01*
X186817232Y-85380221D01*
X186817215Y-85380233D01*
X186817201Y-85380244D01*
X185020225Y-86766602D01*
X184972878Y-86805771D01*
X184925080Y-86844477D01*
X184908271Y-86859218D01*
X183209736Y-88364600D01*
X183165123Y-88406936D01*
X183120110Y-88448765D01*
X183104342Y-88464615D01*
X181512129Y-90082036D01*
X181470517Y-90127288D01*
X181428434Y-90172103D01*
X181413781Y-90188989D01*
X179935265Y-91910960D01*
X179896849Y-91958911D01*
X179857889Y-92006511D01*
X179844419Y-92024354D01*
X178486447Y-93842900D01*
X178451390Y-93893341D01*
X178415750Y-93943491D01*
X178403525Y-93962210D01*
X177172386Y-95868906D01*
X177140813Y-95921660D01*
X177108694Y-95974074D01*
X177097769Y-95993580D01*
X175999166Y-97979599D01*
X175971281Y-98034326D01*
X175942775Y-98088854D01*
X175933203Y-98109059D01*
X174972224Y-100165199D01*
X174948113Y-100221726D01*
X174923394Y-100278037D01*
X174915231Y-100298816D01*
X174915218Y-100298846D01*
X174915209Y-100298872D01*
X174096314Y-102415586D01*
X174076105Y-102473616D01*
X174055272Y-102531484D01*
X174048530Y-102552801D01*
X173375492Y-104720338D01*
X173359255Y-104779689D01*
X173342429Y-104838759D01*
X173337152Y-104860485D01*
X172813099Y-107068779D01*
X172800948Y-107129038D01*
X172788166Y-107189175D01*
X172784379Y-107211210D01*
X172411737Y-109450032D01*
X172403713Y-109510984D01*
X172395051Y-109571845D01*
X172392777Y-109594052D01*
X172392772Y-109594086D01*
X172392770Y-109594115D01*
X172173267Y-111853071D01*
X172169406Y-111914444D01*
X172164905Y-111975736D01*
X172164144Y-111998080D01*
X172098792Y-114266763D01*
X130675950Y-114266763D01*
X130675950Y-99236767D01*
X165281150Y-99236767D01*
X165281150Y-99795213D01*
X165390098Y-100342929D01*
X165603806Y-100858866D01*
X165914062Y-101323197D01*
X166308943Y-101718078D01*
X166773274Y-102028334D01*
X167289211Y-102242042D01*
X167836927Y-102350990D01*
X168395373Y-102350990D01*
X168943089Y-102242042D01*
X169459026Y-102028334D01*
X169923357Y-101718078D01*
X170318238Y-101323197D01*
X170628494Y-100858866D01*
X170842202Y-100342929D01*
X170951150Y-99795213D01*
X170951150Y-99236767D01*
X170842202Y-98689051D01*
X170628494Y-98173114D01*
X170318238Y-97708783D01*
X169923357Y-97313902D01*
X169459026Y-97003646D01*
X168943089Y-96789938D01*
X168395373Y-96680990D01*
X167836927Y-96680990D01*
X167289211Y-96789938D01*
X166773274Y-97003646D01*
X166308943Y-97313902D01*
X165914062Y-97708783D01*
X165603806Y-98173114D01*
X165390098Y-98689051D01*
X165281150Y-99236767D01*
X130675950Y-99236767D01*
X130675950Y-87242155D01*
X145231200Y-87242155D01*
X145231200Y-87997585D01*
X145378577Y-88738498D01*
X145667667Y-89436424D01*
X146087361Y-90064540D01*
X146621530Y-90598709D01*
X147249646Y-91018403D01*
X147947572Y-91307493D01*
X148688485Y-91454870D01*
X149443915Y-91454870D01*
X150184828Y-91307493D01*
X150882754Y-91018403D01*
X151510870Y-90598709D01*
X152045039Y-90064540D01*
X152464733Y-89436424D01*
X152753823Y-88738498D01*
X152901200Y-87997585D01*
X152901200Y-87242155D01*
X152753823Y-86501242D01*
X152464733Y-85803316D01*
X152045039Y-85175200D01*
X151510870Y-84641031D01*
X150882754Y-84221337D01*
X150184828Y-83932247D01*
X149443915Y-83784870D01*
X148688485Y-83784870D01*
X147947572Y-83932247D01*
X147249646Y-84221337D01*
X146621530Y-84641031D01*
X146087361Y-85175200D01*
X145667667Y-85803316D01*
X145378577Y-86501242D01*
X145231200Y-87242155D01*
X130675950Y-87242155D01*
X130675950Y-80161034D01*
X136444882Y-80161034D01*
X136444882Y-80770946D01*
X136563869Y-81369138D01*
X136797272Y-81932623D01*
X137136121Y-82439746D01*
X137567394Y-82871019D01*
X138074517Y-83209868D01*
X138638002Y-83443271D01*
X139236194Y-83562258D01*
X139846106Y-83562258D01*
X140444298Y-83443271D01*
X141007783Y-83209868D01*
X141514906Y-82871019D01*
X141946179Y-82439746D01*
X142285028Y-81932623D01*
X142518431Y-81369138D01*
X142637418Y-80770946D01*
X142637418Y-80161034D01*
X142518431Y-79562842D01*
X142285028Y-78999357D01*
X141946179Y-78492234D01*
X141514906Y-78060961D01*
X141007783Y-77722112D01*
X140444298Y-77488709D01*
X139846106Y-77369722D01*
X139236194Y-77369722D01*
X138638002Y-77488709D01*
X138074517Y-77722112D01*
X137567394Y-78060961D01*
X137136121Y-78492234D01*
X136797272Y-78999357D01*
X136563869Y-79562842D01*
X136444882Y-80161034D01*
X130675950Y-80161034D01*
X130675950Y-75434397D01*
X131943700Y-75434397D01*
X131943700Y-75992843D01*
X132052648Y-76540559D01*
X132266356Y-77056496D01*
X132576612Y-77520827D01*
X132971493Y-77915708D01*
X133435824Y-78225964D01*
X133951761Y-78439672D01*
X134499477Y-78548620D01*
X135057923Y-78548620D01*
X135605639Y-78439672D01*
X136121576Y-78225964D01*
X136585907Y-77915708D01*
X136980788Y-77520827D01*
X137291044Y-77056496D01*
X137504752Y-76540559D01*
X137613700Y-75992843D01*
X137613700Y-75434397D01*
X137504752Y-74886681D01*
X137291044Y-74370744D01*
X136980788Y-73906413D01*
X136921272Y-73846897D01*
X315776200Y-73846897D01*
X315776200Y-74405343D01*
X315885148Y-74953059D01*
X316098856Y-75468996D01*
X316409112Y-75933327D01*
X316803993Y-76328208D01*
X317268324Y-76638464D01*
X317784261Y-76852172D01*
X318331977Y-76961120D01*
X318890423Y-76961120D01*
X319438139Y-76852172D01*
X319954076Y-76638464D01*
X320418407Y-76328208D01*
X320813288Y-75933327D01*
X321123544Y-75468996D01*
X321137875Y-75434397D01*
X493893700Y-75434397D01*
X493893700Y-75992843D01*
X494002648Y-76540559D01*
X494216356Y-77056496D01*
X494526612Y-77520827D01*
X494921493Y-77915708D01*
X495385824Y-78225964D01*
X495901761Y-78439672D01*
X496449477Y-78548620D01*
X497007923Y-78548620D01*
X497555639Y-78439672D01*
X498071576Y-78225964D01*
X498535907Y-77915708D01*
X498930788Y-77520827D01*
X499241044Y-77056496D01*
X499454752Y-76540559D01*
X499563700Y-75992843D01*
X499563700Y-75434397D01*
X499454752Y-74886681D01*
X499241044Y-74370744D01*
X498930788Y-73906413D01*
X498535907Y-73511532D01*
X498071576Y-73201276D01*
X497555639Y-72987568D01*
X497007923Y-72878620D01*
X496449477Y-72878620D01*
X495901761Y-72987568D01*
X495385824Y-73201276D01*
X494921493Y-73511532D01*
X494526612Y-73906413D01*
X494216356Y-74370744D01*
X494002648Y-74886681D01*
X493893700Y-75434397D01*
X321137875Y-75434397D01*
X321337252Y-74953059D01*
X321446200Y-74405343D01*
X321446200Y-73846897D01*
X321337252Y-73299181D01*
X321123544Y-72783244D01*
X320813288Y-72318913D01*
X320418407Y-71924032D01*
X319954076Y-71613776D01*
X319438139Y-71400068D01*
X318890423Y-71291120D01*
X318331977Y-71291120D01*
X317784261Y-71400068D01*
X317268324Y-71613776D01*
X316803993Y-71924032D01*
X316409112Y-72318913D01*
X316098856Y-72783244D01*
X315885148Y-73299181D01*
X315776200Y-73846897D01*
X136921272Y-73846897D01*
X136585907Y-73511532D01*
X136121576Y-73201276D01*
X135605639Y-72987568D01*
X135057923Y-72878620D01*
X134499477Y-72878620D01*
X133951761Y-72987568D01*
X133435824Y-73201276D01*
X132971493Y-73511532D01*
X132576612Y-73906413D01*
X132266356Y-74370744D01*
X132052648Y-74886681D01*
X131943700Y-75434397D01*
X130675950Y-75434397D01*
X130675950Y-56384397D01*
X131943700Y-56384397D01*
X131943700Y-56942843D01*
X132052648Y-57490559D01*
X132266356Y-58006496D01*
X132576612Y-58470827D01*
X132971493Y-58865708D01*
X133435824Y-59175964D01*
X133951761Y-59389672D01*
X134499477Y-59498620D01*
X135057923Y-59498620D01*
X135605639Y-59389672D01*
X136121576Y-59175964D01*
X136585907Y-58865708D01*
X136980788Y-58470827D01*
X137291044Y-58006496D01*
X137504752Y-57490559D01*
X137613700Y-56942843D01*
X137613700Y-56384397D01*
X315775700Y-56384397D01*
X315775700Y-56942843D01*
X315884648Y-57490559D01*
X316098356Y-58006496D01*
X316408612Y-58470827D01*
X316803493Y-58865708D01*
X317267824Y-59175964D01*
X317783761Y-59389672D01*
X318331477Y-59498620D01*
X318889923Y-59498620D01*
X319437639Y-59389672D01*
X319953576Y-59175964D01*
X320417907Y-58865708D01*
X320812788Y-58470827D01*
X321123044Y-58006496D01*
X321336752Y-57490559D01*
X321445700Y-56942843D01*
X321445700Y-56384397D01*
X493893700Y-56384397D01*
X493893700Y-56942843D01*
X494002648Y-57490559D01*
X494216356Y-58006496D01*
X494526612Y-58470827D01*
X494921493Y-58865708D01*
X495385824Y-59175964D01*
X495901761Y-59389672D01*
X496449477Y-59498620D01*
X497007923Y-59498620D01*
X497555639Y-59389672D01*
X498071576Y-59175964D01*
X498535907Y-58865708D01*
X498930788Y-58470827D01*
X499241044Y-58006496D01*
X499454752Y-57490559D01*
X499563700Y-56942843D01*
X499563700Y-56384397D01*
X499454752Y-55836681D01*
X499241044Y-55320744D01*
X498930788Y-54856413D01*
X498535907Y-54461532D01*
X498071576Y-54151276D01*
X497555639Y-53937568D01*
X497007923Y-53828620D01*
X496449477Y-53828620D01*
X495901761Y-53937568D01*
X495385824Y-54151276D01*
X494921493Y-54461532D01*
X494526612Y-54856413D01*
X494216356Y-55320744D01*
X494002648Y-55836681D01*
X493893700Y-56384397D01*
X321445700Y-56384397D01*
X321336752Y-55836681D01*
X321123044Y-55320744D01*
X320812788Y-54856413D01*
X320417907Y-54461532D01*
X319953576Y-54151276D01*
X319437639Y-53937568D01*
X318889923Y-53828620D01*
X318331477Y-53828620D01*
X317783761Y-53937568D01*
X317267824Y-54151276D01*
X316803493Y-54461532D01*
X316408612Y-54856413D01*
X316098356Y-55320744D01*
X315884648Y-55836681D01*
X315775700Y-56384397D01*
X137613700Y-56384397D01*
X137504752Y-55836681D01*
X137291044Y-55320744D01*
X136980788Y-54856413D01*
X136585907Y-54461532D01*
X136121576Y-54151276D01*
X135605639Y-53937568D01*
X135057923Y-53828620D01*
X134499477Y-53828620D01*
X133951761Y-53937568D01*
X133435824Y-54151276D01*
X132971493Y-54461532D01*
X132576612Y-54856413D01*
X132266356Y-55320744D01*
X132052648Y-55836681D01*
X131943700Y-56384397D01*
X130675950Y-56384397D01*
X130675950Y-56264090D01*
X130728748Y-55725608D01*
X130875051Y-55241029D01*
X131112689Y-54794097D01*
X131432613Y-54401832D01*
X131822627Y-54079184D01*
X132267891Y-53838431D01*
X132751435Y-53688749D01*
X133287847Y-53632370D01*
X498193230Y-53632370D01*
X498731712Y-53685168D01*
G37*
X498731712Y-53685168D02*
X499216291Y-53831471D01*
X499663223Y-54069109D01*
X500055488Y-54389033D01*
X500378136Y-54779047D01*
X500618889Y-55224311D01*
X500768571Y-55707855D01*
X500824950Y-56244267D01*
X500824951Y-172384631D01*
X500772151Y-172923132D01*
X500625848Y-173407713D01*
X500388210Y-173854646D01*
X500068287Y-174246907D01*
X499678270Y-174569558D01*
X499233009Y-174810309D01*
X498749465Y-174959991D01*
X498213053Y-175016370D01*
X441946073Y-175016370D01*
X441914768Y-175019453D01*
X441899980Y-175019350D01*
X441890114Y-175020317D01*
X441427968Y-175068890D01*
X441364924Y-175081831D01*
X441301720Y-175093888D01*
X441292238Y-175096752D01*
X441292231Y-175096753D01*
X441292225Y-175096756D01*
X440848322Y-175234167D01*
X440789046Y-175259084D01*
X440729334Y-175283210D01*
X440720581Y-175287864D01*
X440311818Y-175508882D01*
X440258501Y-175544845D01*
X440204624Y-175580101D01*
X440196942Y-175586367D01*
X439838892Y-175882571D01*
X439793560Y-175928220D01*
X439747570Y-175973257D01*
X439741256Y-175980890D01*
X439741252Y-175980894D01*
X439741251Y-175980896D01*
X439447554Y-176341005D01*
X439411966Y-176394570D01*
X439375587Y-176447699D01*
X439370873Y-176456420D01*
X439152714Y-176866715D01*
X439128201Y-176926189D01*
X439102840Y-176985359D01*
X439099909Y-176994829D01*
X438965599Y-177439686D01*
X438953099Y-177502816D01*
X438939721Y-177565755D01*
X438938685Y-177575614D01*
X438893339Y-178038086D01*
X438854787Y-178431272D01*
X438760718Y-178742844D01*
X438607925Y-179030203D01*
X438402227Y-179282415D01*
X438151458Y-179489868D01*
X437865167Y-179644666D01*
X437554271Y-179740904D01*
X437197807Y-179778370D01*
X384865670Y-179778370D01*
X384507048Y-179743207D01*
X384195476Y-179649138D01*
X383908117Y-179496345D01*
X383655905Y-179290647D01*
X383448452Y-179039878D01*
X383293654Y-178753587D01*
X383197416Y-178442691D01*
X383156764Y-178055914D01*
X383156970Y-178026400D01*
X383156003Y-178016534D01*
X383107430Y-177554388D01*
X383094489Y-177491344D01*
X383082432Y-177428140D01*
X383079568Y-177418658D01*
X383079567Y-177418651D01*
X383079564Y-177418645D01*
X382942153Y-176974742D01*
X382917236Y-176915466D01*
X382893110Y-176855754D01*
X382888456Y-176847001D01*
X382667438Y-176438238D01*
X382631475Y-176384921D01*
X382596219Y-176331044D01*
X382589953Y-176323362D01*
X382293749Y-175965312D01*
X382248096Y-175919976D01*
X382203063Y-175873990D01*
X382195430Y-175867676D01*
X382195426Y-175867672D01*
X382195422Y-175867669D01*
X381835315Y-175573974D01*
X381781750Y-175538386D01*
X381728621Y-175502007D01*
X381719903Y-175497294D01*
X381719895Y-175497290D01*
X381309605Y-175279134D01*
X381250131Y-175254621D01*
X381190961Y-175229260D01*
X381181491Y-175226329D01*
X380736634Y-175092019D01*
X380673504Y-175079519D01*
X380610565Y-175066141D01*
X380600706Y-175065105D01*
X380138234Y-175019759D01*
X380138232Y-175019759D01*
X380103818Y-175016370D01*
X133310354Y-175019370D01*
X132771493Y-174967028D01*
X132286781Y-174821164D01*
X131839636Y-174583933D01*
X131447081Y-174264366D01*
X131124078Y-173874641D01*
X130882921Y-173429597D01*
X130732801Y-172946190D01*
X130675950Y-172409963D01*
X130675950Y-168267284D01*
X136444882Y-168267284D01*
X136444882Y-168877196D01*
X136563869Y-169475388D01*
X136797272Y-170038873D01*
X137136121Y-170545996D01*
X137567394Y-170977269D01*
X138074517Y-171316118D01*
X138638002Y-171549521D01*
X139236194Y-171668508D01*
X139846106Y-171668508D01*
X140444298Y-171549521D01*
X141007783Y-171316118D01*
X141514906Y-170977269D01*
X141946179Y-170545996D01*
X142285028Y-170038873D01*
X142518431Y-169475388D01*
X142637418Y-168877196D01*
X142637418Y-168267284D01*
X142622224Y-168190895D01*
X280606030Y-168190895D01*
X280846176Y-168578138D01*
X281340077Y-168838761D01*
X281875333Y-168998021D01*
X282431374Y-169049798D01*
X282986832Y-168992101D01*
X283520361Y-168827148D01*
X283986224Y-168578138D01*
X284178997Y-168267284D01*
X315038632Y-168267284D01*
X315038632Y-168877196D01*
X315157619Y-169475388D01*
X315391022Y-170038873D01*
X315729871Y-170545996D01*
X316161144Y-170977269D01*
X316668267Y-171316118D01*
X317231752Y-171549521D01*
X317829944Y-171668508D01*
X318439856Y-171668508D01*
X319038048Y-171549521D01*
X319601533Y-171316118D01*
X320108656Y-170977269D01*
X320539929Y-170545996D01*
X320878778Y-170038873D01*
X321112181Y-169475388D01*
X321231168Y-168877196D01*
X321231168Y-168267284D01*
X488869882Y-168267284D01*
X488869882Y-168877196D01*
X488988869Y-169475388D01*
X489222272Y-170038873D01*
X489561121Y-170545996D01*
X489992394Y-170977269D01*
X490499517Y-171316118D01*
X491063002Y-171549521D01*
X491661194Y-171668508D01*
X492271106Y-171668508D01*
X492869298Y-171549521D01*
X493432783Y-171316118D01*
X493939906Y-170977269D01*
X494371179Y-170545996D01*
X494710028Y-170038873D01*
X494943431Y-169475388D01*
X495062418Y-168877196D01*
X495062418Y-168267284D01*
X494943431Y-167669092D01*
X494710028Y-167105607D01*
X494371179Y-166598484D01*
X493939906Y-166167211D01*
X493432783Y-165828362D01*
X492869298Y-165594959D01*
X492271106Y-165475972D01*
X491661194Y-165475972D01*
X491063002Y-165594959D01*
X490499517Y-165828362D01*
X489992394Y-166167211D01*
X489561121Y-166598484D01*
X489222272Y-167105607D01*
X488988869Y-167669092D01*
X488869882Y-168267284D01*
X321231168Y-168267284D01*
X321112181Y-167669092D01*
X320878778Y-167105607D01*
X320539929Y-166598484D01*
X320108656Y-166167211D01*
X319601533Y-165828362D01*
X319038048Y-165594959D01*
X318439856Y-165475972D01*
X317829944Y-165475972D01*
X317231752Y-165594959D01*
X316668267Y-165828362D01*
X316161144Y-166167211D01*
X315729871Y-166598484D01*
X315391022Y-167105607D01*
X315157619Y-167669092D01*
X315038632Y-168267284D01*
X284178997Y-168267284D01*
X284226370Y-168190895D01*
X282416200Y-166380725D01*
X280606030Y-168190895D01*
X142622224Y-168190895D01*
X142518431Y-167669092D01*
X142285028Y-167105607D01*
X141946179Y-166598484D01*
X141563989Y-166216294D01*
X279567522Y-166216294D01*
X279625219Y-166771752D01*
X279790172Y-167305281D01*
X280039182Y-167771144D01*
X280426425Y-168011290D01*
X282236595Y-166201120D01*
X282595805Y-166201120D01*
X284405975Y-168011290D01*
X284793218Y-167771144D01*
X285053841Y-167277243D01*
X285213101Y-166741987D01*
X285264878Y-166185946D01*
X285207181Y-165630488D01*
X285042228Y-165096959D01*
X284793218Y-164631096D01*
X284405975Y-164390950D01*
X282595805Y-166201120D01*
X282236595Y-166201120D01*
X280426425Y-164390950D01*
X280039182Y-164631096D01*
X279778559Y-165124997D01*
X279619299Y-165660253D01*
X279567522Y-166216294D01*
X141563989Y-166216294D01*
X141514906Y-166167211D01*
X141007783Y-165828362D01*
X140444298Y-165594959D01*
X139846106Y-165475972D01*
X139236194Y-165475972D01*
X138638002Y-165594959D01*
X138074517Y-165828362D01*
X137567394Y-166167211D01*
X137136121Y-166598484D01*
X136797272Y-167105607D01*
X136563869Y-167669092D01*
X136444882Y-168267284D01*
X130675950Y-168267284D01*
X130675950Y-164211345D01*
X280606030Y-164211345D01*
X282416200Y-166021515D01*
X284226370Y-164211345D01*
X283986224Y-163824102D01*
X283492323Y-163563479D01*
X282957067Y-163404219D01*
X282401026Y-163352442D01*
X281845568Y-163410139D01*
X281312039Y-163575092D01*
X280846176Y-163824102D01*
X280606030Y-164211345D01*
X130675950Y-164211345D01*
X130675950Y-156396897D01*
X170043700Y-156396897D01*
X170043700Y-156955343D01*
X170152648Y-157503059D01*
X170366356Y-158018996D01*
X170676612Y-158483327D01*
X171071493Y-158878208D01*
X171535824Y-159188464D01*
X172051761Y-159402172D01*
X172599477Y-159511120D01*
X173157923Y-159511120D01*
X173705639Y-159402172D01*
X174221576Y-159188464D01*
X174685907Y-158878208D01*
X175080788Y-158483327D01*
X175391044Y-158018996D01*
X175604752Y-157503059D01*
X175713700Y-156955343D01*
X175713700Y-156396897D01*
X360543700Y-156396897D01*
X360543700Y-156955343D01*
X360652648Y-157503059D01*
X360866356Y-158018996D01*
X361176612Y-158483327D01*
X361571493Y-158878208D01*
X362035824Y-159188464D01*
X362551761Y-159402172D01*
X363099477Y-159511120D01*
X363657923Y-159511120D01*
X364205639Y-159402172D01*
X364721576Y-159188464D01*
X365185907Y-158878208D01*
X365580788Y-158483327D01*
X365891044Y-158018996D01*
X366104752Y-157503059D01*
X366213700Y-156955343D01*
X366213700Y-156396897D01*
X460556200Y-156396897D01*
X460556200Y-156955343D01*
X460665148Y-157503059D01*
X460878856Y-158018996D01*
X461189112Y-158483327D01*
X461583993Y-158878208D01*
X462048324Y-159188464D01*
X462564261Y-159402172D01*
X463111977Y-159511120D01*
X463670423Y-159511120D01*
X464218139Y-159402172D01*
X464734076Y-159188464D01*
X465198407Y-158878208D01*
X465593288Y-158483327D01*
X465903544Y-158018996D01*
X466117252Y-157503059D01*
X466226200Y-156955343D01*
X466226200Y-156396897D01*
X466117252Y-155849181D01*
X465903544Y-155333244D01*
X465593288Y-154868913D01*
X465198407Y-154474032D01*
X464734076Y-154163776D01*
X464218139Y-153950068D01*
X463670423Y-153841120D01*
X463111977Y-153841120D01*
X462564261Y-153950068D01*
X462048324Y-154163776D01*
X461583993Y-154474032D01*
X461189112Y-154868913D01*
X460878856Y-155333244D01*
X460665148Y-155849181D01*
X460556200Y-156396897D01*
X366213700Y-156396897D01*
X366104752Y-155849181D01*
X365891044Y-155333244D01*
X365580788Y-154868913D01*
X365185907Y-154474032D01*
X364721576Y-154163776D01*
X364205639Y-153950068D01*
X363657923Y-153841120D01*
X363099477Y-153841120D01*
X362551761Y-153950068D01*
X362035824Y-154163776D01*
X361571493Y-154474032D01*
X361176612Y-154868913D01*
X360866356Y-155333244D01*
X360652648Y-155849181D01*
X360543700Y-156396897D01*
X175713700Y-156396897D01*
X175604752Y-155849181D01*
X175391044Y-155333244D01*
X175080788Y-154868913D01*
X174685907Y-154474032D01*
X174221576Y-154163776D01*
X173705639Y-153950068D01*
X173157923Y-153841120D01*
X172599477Y-153841120D01*
X172051761Y-153950068D01*
X171535824Y-154163776D01*
X171071493Y-154474032D01*
X170676612Y-154868913D01*
X170366356Y-155333244D01*
X170152648Y-155849181D01*
X170043700Y-156396897D01*
X130675950Y-156396897D01*
X130675950Y-114266763D01*
X172098792Y-114266763D01*
X172099114Y-114328239D01*
X172098792Y-114389714D01*
X172099553Y-114412059D01*
X172188658Y-116679934D01*
X172193158Y-116741220D01*
X172197020Y-116802600D01*
X172199299Y-116824840D01*
X172442448Y-119081402D01*
X172451110Y-119142265D01*
X172459135Y-119203216D01*
X172462921Y-119225250D01*
X172858988Y-121460049D01*
X172871754Y-121520106D01*
X172883920Y-121580444D01*
X172889197Y-121602170D01*
X173436345Y-123804855D01*
X173453186Y-123863976D01*
X173469409Y-123923276D01*
X173476151Y-123944593D01*
X174171850Y-126104963D01*
X174192660Y-126162766D01*
X174212892Y-126220862D01*
X174221068Y-126241671D01*
X175062095Y-128349719D01*
X175086794Y-128405984D01*
X175110924Y-128462556D01*
X175120496Y-128482761D01*
X176102954Y-130528726D01*
X176131447Y-130583228D01*
X176159346Y-130637982D01*
X176170270Y-130657489D01*
X177289610Y-132631893D01*
X177321719Y-132684290D01*
X177353301Y-132737060D01*
X177365517Y-132755763D01*
X177365527Y-132755779D01*
X177365536Y-132755792D01*
X178616564Y-134649478D01*
X178652159Y-134699565D01*
X178687261Y-134750070D01*
X178700732Y-134767914D01*
X180077673Y-136572139D01*
X180116608Y-136619708D01*
X180155048Y-136667689D01*
X180169701Y-136684575D01*
X181666168Y-138390969D01*
X181708251Y-138435784D01*
X181749863Y-138481036D01*
X181765630Y-138496886D01*
X183374694Y-140097546D01*
X183419705Y-140139373D01*
X183464321Y-140181712D01*
X183481130Y-140196453D01*
X185195336Y-141683965D01*
X185243095Y-141722639D01*
X185290480Y-141761839D01*
X185308253Y-141775403D01*
X187119662Y-143142878D01*
X187169981Y-143178243D01*
X187219883Y-143214101D01*
X187238513Y-143226408D01*
X187238537Y-143226425D01*
X187238558Y-143226438D01*
X189138761Y-144467529D01*
X189191284Y-144499338D01*
X189243593Y-144531771D01*
X189263042Y-144542797D01*
X191243280Y-145651784D01*
X191297878Y-145679964D01*
X191352240Y-145708747D01*
X191372394Y-145718424D01*
X193423475Y-146690157D01*
X193479900Y-146714574D01*
X193536056Y-146739576D01*
X193556822Y-146747861D01*
X195669245Y-147577838D01*
X195727183Y-147598355D01*
X195784926Y-147619486D01*
X195806207Y-147626339D01*
X197970191Y-148310717D01*
X198029389Y-148327245D01*
X198088437Y-148344400D01*
X198110135Y-148349790D01*
X200315656Y-148885399D01*
X200375784Y-148897851D01*
X200435919Y-148910962D01*
X200457933Y-148914863D01*
X202694775Y-149299222D01*
X202755639Y-149307559D01*
X202816498Y-149316546D01*
X202838727Y-149318941D01*
X205096531Y-149550272D01*
X205157829Y-149554451D01*
X205219152Y-149559277D01*
X205241490Y-149560155D01*
X205241492Y-149560155D01*
X207509802Y-149637384D01*
X207655099Y-149637384D01*
X207800059Y-149627502D01*
X207944011Y-149607782D01*
X208036929Y-149588540D01*
X425814845Y-149558750D01*
X425948561Y-149591965D01*
X426091629Y-149617320D01*
X426236089Y-149632887D01*
X426381274Y-149638591D01*
X426403631Y-149638591D01*
X426752865Y-149636762D01*
X426783582Y-149635555D01*
X426814332Y-149635555D01*
X426836672Y-149634677D01*
X429104049Y-149533699D01*
X429165332Y-149528876D01*
X429226670Y-149524694D01*
X429248899Y-149522299D01*
X431504157Y-149267338D01*
X431564971Y-149258358D01*
X431625880Y-149250014D01*
X431647889Y-149246114D01*
X431647895Y-149246113D01*
X431647900Y-149246112D01*
X433880589Y-148838351D01*
X433940627Y-148825260D01*
X434000853Y-148812788D01*
X434022551Y-148807398D01*
X436222340Y-148248722D01*
X436281326Y-148231585D01*
X436340587Y-148215039D01*
X436361868Y-148208186D01*
X438518566Y-147501184D01*
X438576260Y-147480071D01*
X438634247Y-147459537D01*
X438655002Y-147451256D01*
X438655014Y-147451252D01*
X438655024Y-147451248D01*
X440758629Y-146599200D01*
X440814783Y-146574199D01*
X440871210Y-146549780D01*
X440891351Y-146540108D01*
X440891365Y-146540102D01*
X440891376Y-146540096D01*
X442932156Y-145546945D01*
X442986427Y-145518211D01*
X443041116Y-145489983D01*
X443060565Y-145478957D01*
X445029082Y-144349294D01*
X445081344Y-144316890D01*
X445133914Y-144285052D01*
X445152568Y-144272729D01*
X447039691Y-143011794D01*
X447089574Y-142975949D01*
X447139912Y-142940571D01*
X447157684Y-142927007D01*
X448954676Y-141540638D01*
X449002050Y-141501447D01*
X449049820Y-141462763D01*
X449066629Y-141448022D01*
X450765164Y-139942640D01*
X450809777Y-139900304D01*
X450854790Y-139858475D01*
X450870558Y-139842625D01*
X452462771Y-138225204D01*
X452504383Y-138179952D01*
X452546466Y-138135137D01*
X452561119Y-138118251D01*
X454039635Y-136396280D01*
X454078051Y-136348329D01*
X454117011Y-136300729D01*
X454130481Y-136282886D01*
X455488453Y-134464340D01*
X455523510Y-134413899D01*
X455559150Y-134363749D01*
X455571375Y-134345030D01*
X456802514Y-132438334D01*
X456834074Y-132385602D01*
X456866207Y-132333166D01*
X456877122Y-132313675D01*
X456877131Y-132313660D01*
X456877137Y-132313647D01*
X457975734Y-130327641D01*
X458003619Y-130272914D01*
X458032125Y-130218386D01*
X458041697Y-130198181D01*
X459002676Y-128142041D01*
X459026787Y-128085514D01*
X459051506Y-128029203D01*
X459059669Y-128008424D01*
X459059682Y-128008394D01*
X459059691Y-128008368D01*
X459878586Y-125891654D01*
X459898795Y-125833624D01*
X459919628Y-125775756D01*
X459926370Y-125754439D01*
X460599408Y-123586902D01*
X460615645Y-123527551D01*
X460632471Y-123468481D01*
X460637739Y-123446788D01*
X460637748Y-123446755D01*
X460637754Y-123446727D01*
X461161801Y-121238462D01*
X461173944Y-121178239D01*
X461186734Y-121118065D01*
X461190521Y-121096031D01*
X461563162Y-118857208D01*
X461571181Y-118796304D01*
X461579849Y-118735395D01*
X461582128Y-118713154D01*
X461801633Y-116454168D01*
X461805494Y-116392799D01*
X461809995Y-116331504D01*
X461810756Y-116309160D01*
X461876108Y-114040477D01*
X461875786Y-113979002D01*
X461876108Y-113917526D01*
X461875347Y-113895182D01*
X461786242Y-111627306D01*
X461781742Y-111566023D01*
X461777880Y-111504640D01*
X461775601Y-111482399D01*
X461532452Y-109225838D01*
X461523788Y-109164963D01*
X461515765Y-109104025D01*
X461511979Y-109081990D01*
X461115912Y-106847191D01*
X461103143Y-106787119D01*
X461090980Y-106726796D01*
X461085703Y-106705070D01*
X460538554Y-104502385D01*
X460521728Y-104443315D01*
X460505491Y-104383964D01*
X460498749Y-104362647D01*
X459803050Y-102202277D01*
X459782240Y-102144475D01*
X459762008Y-102086378D01*
X459753832Y-102065569D01*
X458912805Y-99957521D01*
X458888106Y-99901256D01*
X458863976Y-99844684D01*
X458854404Y-99824480D01*
X458577053Y-99246897D01*
X460556200Y-99246897D01*
X460556200Y-99805343D01*
X460665148Y-100353059D01*
X460878856Y-100868996D01*
X461189112Y-101333327D01*
X461583993Y-101728208D01*
X462048324Y-102038464D01*
X462564261Y-102252172D01*
X463111977Y-102361120D01*
X463670423Y-102361120D01*
X464218139Y-102252172D01*
X464734076Y-102038464D01*
X465198407Y-101728208D01*
X465593288Y-101333327D01*
X465903544Y-100868996D01*
X466117252Y-100353059D01*
X466226200Y-99805343D01*
X466226200Y-99246897D01*
X466117252Y-98699181D01*
X465903544Y-98183244D01*
X465593288Y-97718913D01*
X465198407Y-97324032D01*
X464734076Y-97013776D01*
X464218139Y-96800068D01*
X463670423Y-96691120D01*
X463111977Y-96691120D01*
X462564261Y-96800068D01*
X462048324Y-97013776D01*
X461583993Y-97324032D01*
X461189112Y-97718913D01*
X460878856Y-98183244D01*
X460665148Y-98699181D01*
X460556200Y-99246897D01*
X458577053Y-99246897D01*
X457871946Y-97778514D01*
X457843453Y-97724012D01*
X457815554Y-97669258D01*
X457804630Y-97649751D01*
X456685290Y-95675347D01*
X456653181Y-95622950D01*
X456621599Y-95570180D01*
X456609383Y-95551477D01*
X456609373Y-95551461D01*
X456609364Y-95551448D01*
X455358336Y-93657762D01*
X455322741Y-93607675D01*
X455287639Y-93557170D01*
X455274168Y-93539326D01*
X453897227Y-91735101D01*
X453858276Y-91687512D01*
X453819852Y-91639551D01*
X453805213Y-91622682D01*
X453805199Y-91622664D01*
X453805186Y-91622650D01*
X452308732Y-89916271D01*
X452266689Y-89871500D01*
X452225037Y-89826204D01*
X452209270Y-89810354D01*
X450600207Y-88209694D01*
X450555168Y-88167841D01*
X450510579Y-88125528D01*
X450493770Y-88110787D01*
X449492761Y-87242155D01*
X478606200Y-87242155D01*
X478606200Y-87997585D01*
X478753577Y-88738498D01*
X479042667Y-89436424D01*
X479462361Y-90064540D01*
X479996530Y-90598709D01*
X480624646Y-91018403D01*
X481322572Y-91307493D01*
X482063485Y-91454870D01*
X482818915Y-91454870D01*
X483559828Y-91307493D01*
X484257754Y-91018403D01*
X484885870Y-90598709D01*
X485420039Y-90064540D01*
X485839733Y-89436424D01*
X486128823Y-88738498D01*
X486276200Y-87997585D01*
X486276200Y-87242155D01*
X486128823Y-86501242D01*
X485839733Y-85803316D01*
X485420039Y-85175200D01*
X484885870Y-84641031D01*
X484257754Y-84221337D01*
X483559828Y-83932247D01*
X482818915Y-83784870D01*
X482063485Y-83784870D01*
X481322572Y-83932247D01*
X480624646Y-84221337D01*
X479996530Y-84641031D01*
X479462361Y-85175200D01*
X479042667Y-85803316D01*
X478753577Y-86501242D01*
X478606200Y-87242155D01*
X449492761Y-87242155D01*
X448779564Y-86623275D01*
X448731785Y-86584584D01*
X448684420Y-86545401D01*
X448666647Y-86531837D01*
X446855237Y-85164362D01*
X446804945Y-85129016D01*
X446755017Y-85093139D01*
X446736387Y-85080832D01*
X446736363Y-85080815D01*
X446736342Y-85080802D01*
X444836139Y-83839711D01*
X444783616Y-83807902D01*
X444731307Y-83775469D01*
X444711857Y-83764443D01*
X442731620Y-82655456D01*
X442676979Y-82627254D01*
X442622660Y-82598494D01*
X442602506Y-82588816D01*
X440551425Y-81617084D01*
X440495046Y-81592686D01*
X440438844Y-81567664D01*
X440418079Y-81559379D01*
X438305655Y-80729402D01*
X438247681Y-80708872D01*
X438189974Y-80687755D01*
X438168693Y-80680901D01*
X436524889Y-80161034D01*
X488869882Y-80161034D01*
X488869882Y-80770946D01*
X488988869Y-81369138D01*
X489222272Y-81932623D01*
X489561121Y-82439746D01*
X489992394Y-82871019D01*
X490499517Y-83209868D01*
X491063002Y-83443271D01*
X491661194Y-83562258D01*
X492271106Y-83562258D01*
X492869298Y-83443271D01*
X493432783Y-83209868D01*
X493939906Y-82871019D01*
X494371179Y-82439746D01*
X494710028Y-81932623D01*
X494943431Y-81369138D01*
X495062418Y-80770946D01*
X495062418Y-80161034D01*
X494943431Y-79562842D01*
X494710028Y-78999357D01*
X494371179Y-78492234D01*
X493939906Y-78060961D01*
X493432783Y-77722112D01*
X492869298Y-77488709D01*
X492271106Y-77369722D01*
X491661194Y-77369722D01*
X491063002Y-77488709D01*
X490499517Y-77722112D01*
X489992394Y-78060961D01*
X489561121Y-78492234D01*
X489222272Y-78999357D01*
X488988869Y-79562842D01*
X488869882Y-80161034D01*
X436524889Y-80161034D01*
X436004710Y-79996523D01*
X435945487Y-79979988D01*
X435886463Y-79962840D01*
X435864765Y-79957450D01*
X433659245Y-79421841D01*
X433599088Y-79409383D01*
X433538981Y-79396278D01*
X433516973Y-79392378D01*
X433516967Y-79392377D01*
X433516962Y-79392376D01*
X431280125Y-79008018D01*
X431219261Y-78999681D01*
X431158402Y-78990694D01*
X431136174Y-78988299D01*
X428878369Y-78756968D01*
X428817071Y-78752789D01*
X428755748Y-78747963D01*
X428733410Y-78747085D01*
X428733408Y-78747085D01*
X426777047Y-78680477D01*
X426740695Y-78669455D01*
X426427039Y-78638606D01*
X206897276Y-78668635D01*
X206626294Y-78695362D01*
X204870851Y-78773541D01*
X204809565Y-78778364D01*
X204748230Y-78782546D01*
X204726001Y-78784941D01*
X202470743Y-79039902D01*
X202409929Y-79048882D01*
X202349020Y-79057226D01*
X202327011Y-79061126D01*
X202327005Y-79061127D01*
X202327000Y-79061128D01*
X200094312Y-79468889D01*
X200034254Y-79481984D01*
X199974047Y-79494452D01*
X199952349Y-79499842D01*
X197752559Y-80058518D01*
X197693534Y-80075667D01*
X197634314Y-80092201D01*
X197613033Y-80099054D01*
X195456334Y-80806055D01*
X195398604Y-80827181D01*
X195340653Y-80847703D01*
X195319887Y-80855988D01*
X193216271Y-81708040D01*
X193160117Y-81733041D01*
X193103690Y-81757460D01*
X193083549Y-81767132D01*
X193083535Y-81767138D01*
X193083524Y-81767144D01*
X191042744Y-82760295D01*
X190988473Y-82789029D01*
X190933784Y-82817257D01*
X190914335Y-82828283D01*
X188945818Y-83957946D01*
X188893556Y-83990350D01*
X188840986Y-84022188D01*
X188822331Y-84034511D01*
X186935209Y-85295446D01*
X186885281Y-85331323D01*
X186834989Y-85366669D01*
X186817232Y-85380221D01*
X186817215Y-85380233D01*
X186817201Y-85380244D01*
X185020225Y-86766602D01*
X184972878Y-86805771D01*
X184925080Y-86844477D01*
X184908271Y-86859218D01*
X183209736Y-88364600D01*
X183165123Y-88406936D01*
X183120110Y-88448765D01*
X183104342Y-88464615D01*
X181512129Y-90082036D01*
X181470517Y-90127288D01*
X181428434Y-90172103D01*
X181413781Y-90188989D01*
X179935265Y-91910960D01*
X179896849Y-91958911D01*
X179857889Y-92006511D01*
X179844419Y-92024354D01*
X178486447Y-93842900D01*
X178451390Y-93893341D01*
X178415750Y-93943491D01*
X178403525Y-93962210D01*
X177172386Y-95868906D01*
X177140813Y-95921660D01*
X177108694Y-95974074D01*
X177097769Y-95993580D01*
X175999166Y-97979599D01*
X175971281Y-98034326D01*
X175942775Y-98088854D01*
X175933203Y-98109059D01*
X174972224Y-100165199D01*
X174948113Y-100221726D01*
X174923394Y-100278037D01*
X174915231Y-100298816D01*
X174915218Y-100298846D01*
X174915209Y-100298872D01*
X174096314Y-102415586D01*
X174076105Y-102473616D01*
X174055272Y-102531484D01*
X174048530Y-102552801D01*
X173375492Y-104720338D01*
X173359255Y-104779689D01*
X173342429Y-104838759D01*
X173337152Y-104860485D01*
X172813099Y-107068779D01*
X172800948Y-107129038D01*
X172788166Y-107189175D01*
X172784379Y-107211210D01*
X172411737Y-109450032D01*
X172403713Y-109510984D01*
X172395051Y-109571845D01*
X172392777Y-109594052D01*
X172392772Y-109594086D01*
X172392770Y-109594115D01*
X172173267Y-111853071D01*
X172169406Y-111914444D01*
X172164905Y-111975736D01*
X172164144Y-111998080D01*
X172098792Y-114266763D01*
X130675950Y-114266763D01*
X130675950Y-99236767D01*
X165281150Y-99236767D01*
X165281150Y-99795213D01*
X165390098Y-100342929D01*
X165603806Y-100858866D01*
X165914062Y-101323197D01*
X166308943Y-101718078D01*
X166773274Y-102028334D01*
X167289211Y-102242042D01*
X167836927Y-102350990D01*
X168395373Y-102350990D01*
X168943089Y-102242042D01*
X169459026Y-102028334D01*
X169923357Y-101718078D01*
X170318238Y-101323197D01*
X170628494Y-100858866D01*
X170842202Y-100342929D01*
X170951150Y-99795213D01*
X170951150Y-99236767D01*
X170842202Y-98689051D01*
X170628494Y-98173114D01*
X170318238Y-97708783D01*
X169923357Y-97313902D01*
X169459026Y-97003646D01*
X168943089Y-96789938D01*
X168395373Y-96680990D01*
X167836927Y-96680990D01*
X167289211Y-96789938D01*
X166773274Y-97003646D01*
X166308943Y-97313902D01*
X165914062Y-97708783D01*
X165603806Y-98173114D01*
X165390098Y-98689051D01*
X165281150Y-99236767D01*
X130675950Y-99236767D01*
X130675950Y-87242155D01*
X145231200Y-87242155D01*
X145231200Y-87997585D01*
X145378577Y-88738498D01*
X145667667Y-89436424D01*
X146087361Y-90064540D01*
X146621530Y-90598709D01*
X147249646Y-91018403D01*
X147947572Y-91307493D01*
X148688485Y-91454870D01*
X149443915Y-91454870D01*
X150184828Y-91307493D01*
X150882754Y-91018403D01*
X151510870Y-90598709D01*
X152045039Y-90064540D01*
X152464733Y-89436424D01*
X152753823Y-88738498D01*
X152901200Y-87997585D01*
X152901200Y-87242155D01*
X152753823Y-86501242D01*
X152464733Y-85803316D01*
X152045039Y-85175200D01*
X151510870Y-84641031D01*
X150882754Y-84221337D01*
X150184828Y-83932247D01*
X149443915Y-83784870D01*
X148688485Y-83784870D01*
X147947572Y-83932247D01*
X147249646Y-84221337D01*
X146621530Y-84641031D01*
X146087361Y-85175200D01*
X145667667Y-85803316D01*
X145378577Y-86501242D01*
X145231200Y-87242155D01*
X130675950Y-87242155D01*
X130675950Y-80161034D01*
X136444882Y-80161034D01*
X136444882Y-80770946D01*
X136563869Y-81369138D01*
X136797272Y-81932623D01*
X137136121Y-82439746D01*
X137567394Y-82871019D01*
X138074517Y-83209868D01*
X138638002Y-83443271D01*
X139236194Y-83562258D01*
X139846106Y-83562258D01*
X140444298Y-83443271D01*
X141007783Y-83209868D01*
X141514906Y-82871019D01*
X141946179Y-82439746D01*
X142285028Y-81932623D01*
X142518431Y-81369138D01*
X142637418Y-80770946D01*
X142637418Y-80161034D01*
X142518431Y-79562842D01*
X142285028Y-78999357D01*
X141946179Y-78492234D01*
X141514906Y-78060961D01*
X141007783Y-77722112D01*
X140444298Y-77488709D01*
X139846106Y-77369722D01*
X139236194Y-77369722D01*
X138638002Y-77488709D01*
X138074517Y-77722112D01*
X137567394Y-78060961D01*
X137136121Y-78492234D01*
X136797272Y-78999357D01*
X136563869Y-79562842D01*
X136444882Y-80161034D01*
X130675950Y-80161034D01*
X130675950Y-75434397D01*
X131943700Y-75434397D01*
X131943700Y-75992843D01*
X132052648Y-76540559D01*
X132266356Y-77056496D01*
X132576612Y-77520827D01*
X132971493Y-77915708D01*
X133435824Y-78225964D01*
X133951761Y-78439672D01*
X134499477Y-78548620D01*
X135057923Y-78548620D01*
X135605639Y-78439672D01*
X136121576Y-78225964D01*
X136585907Y-77915708D01*
X136980788Y-77520827D01*
X137291044Y-77056496D01*
X137504752Y-76540559D01*
X137613700Y-75992843D01*
X137613700Y-75434397D01*
X137504752Y-74886681D01*
X137291044Y-74370744D01*
X136980788Y-73906413D01*
X136921272Y-73846897D01*
X315776200Y-73846897D01*
X315776200Y-74405343D01*
X315885148Y-74953059D01*
X316098856Y-75468996D01*
X316409112Y-75933327D01*
X316803993Y-76328208D01*
X317268324Y-76638464D01*
X317784261Y-76852172D01*
X318331977Y-76961120D01*
X318890423Y-76961120D01*
X319438139Y-76852172D01*
X319954076Y-76638464D01*
X320418407Y-76328208D01*
X320813288Y-75933327D01*
X321123544Y-75468996D01*
X321137875Y-75434397D01*
X493893700Y-75434397D01*
X493893700Y-75992843D01*
X494002648Y-76540559D01*
X494216356Y-77056496D01*
X494526612Y-77520827D01*
X494921493Y-77915708D01*
X495385824Y-78225964D01*
X495901761Y-78439672D01*
X496449477Y-78548620D01*
X497007923Y-78548620D01*
X497555639Y-78439672D01*
X498071576Y-78225964D01*
X498535907Y-77915708D01*
X498930788Y-77520827D01*
X499241044Y-77056496D01*
X499454752Y-76540559D01*
X499563700Y-75992843D01*
X499563700Y-75434397D01*
X499454752Y-74886681D01*
X499241044Y-74370744D01*
X498930788Y-73906413D01*
X498535907Y-73511532D01*
X498071576Y-73201276D01*
X497555639Y-72987568D01*
X497007923Y-72878620D01*
X496449477Y-72878620D01*
X495901761Y-72987568D01*
X495385824Y-73201276D01*
X494921493Y-73511532D01*
X494526612Y-73906413D01*
X494216356Y-74370744D01*
X494002648Y-74886681D01*
X493893700Y-75434397D01*
X321137875Y-75434397D01*
X321337252Y-74953059D01*
X321446200Y-74405343D01*
X321446200Y-73846897D01*
X321337252Y-73299181D01*
X321123544Y-72783244D01*
X320813288Y-72318913D01*
X320418407Y-71924032D01*
X319954076Y-71613776D01*
X319438139Y-71400068D01*
X318890423Y-71291120D01*
X318331977Y-71291120D01*
X317784261Y-71400068D01*
X317268324Y-71613776D01*
X316803993Y-71924032D01*
X316409112Y-72318913D01*
X316098856Y-72783244D01*
X315885148Y-73299181D01*
X315776200Y-73846897D01*
X136921272Y-73846897D01*
X136585907Y-73511532D01*
X136121576Y-73201276D01*
X135605639Y-72987568D01*
X135057923Y-72878620D01*
X134499477Y-72878620D01*
X133951761Y-72987568D01*
X133435824Y-73201276D01*
X132971493Y-73511532D01*
X132576612Y-73906413D01*
X132266356Y-74370744D01*
X132052648Y-74886681D01*
X131943700Y-75434397D01*
X130675950Y-75434397D01*
X130675950Y-56384397D01*
X131943700Y-56384397D01*
X131943700Y-56942843D01*
X132052648Y-57490559D01*
X132266356Y-58006496D01*
X132576612Y-58470827D01*
X132971493Y-58865708D01*
X133435824Y-59175964D01*
X133951761Y-59389672D01*
X134499477Y-59498620D01*
X135057923Y-59498620D01*
X135605639Y-59389672D01*
X136121576Y-59175964D01*
X136585907Y-58865708D01*
X136980788Y-58470827D01*
X137291044Y-58006496D01*
X137504752Y-57490559D01*
X137613700Y-56942843D01*
X137613700Y-56384397D01*
X315775700Y-56384397D01*
X315775700Y-56942843D01*
X315884648Y-57490559D01*
X316098356Y-58006496D01*
X316408612Y-58470827D01*
X316803493Y-58865708D01*
X317267824Y-59175964D01*
X317783761Y-59389672D01*
X318331477Y-59498620D01*
X318889923Y-59498620D01*
X319437639Y-59389672D01*
X319953576Y-59175964D01*
X320417907Y-58865708D01*
X320812788Y-58470827D01*
X321123044Y-58006496D01*
X321336752Y-57490559D01*
X321445700Y-56942843D01*
X321445700Y-56384397D01*
X493893700Y-56384397D01*
X493893700Y-56942843D01*
X494002648Y-57490559D01*
X494216356Y-58006496D01*
X494526612Y-58470827D01*
X494921493Y-58865708D01*
X495385824Y-59175964D01*
X495901761Y-59389672D01*
X496449477Y-59498620D01*
X497007923Y-59498620D01*
X497555639Y-59389672D01*
X498071576Y-59175964D01*
X498535907Y-58865708D01*
X498930788Y-58470827D01*
X499241044Y-58006496D01*
X499454752Y-57490559D01*
X499563700Y-56942843D01*
X499563700Y-56384397D01*
X499454752Y-55836681D01*
X499241044Y-55320744D01*
X498930788Y-54856413D01*
X498535907Y-54461532D01*
X498071576Y-54151276D01*
X497555639Y-53937568D01*
X497007923Y-53828620D01*
X496449477Y-53828620D01*
X495901761Y-53937568D01*
X495385824Y-54151276D01*
X494921493Y-54461532D01*
X494526612Y-54856413D01*
X494216356Y-55320744D01*
X494002648Y-55836681D01*
X493893700Y-56384397D01*
X321445700Y-56384397D01*
X321336752Y-55836681D01*
X321123044Y-55320744D01*
X320812788Y-54856413D01*
X320417907Y-54461532D01*
X319953576Y-54151276D01*
X319437639Y-53937568D01*
X318889923Y-53828620D01*
X318331477Y-53828620D01*
X317783761Y-53937568D01*
X317267824Y-54151276D01*
X316803493Y-54461532D01*
X316408612Y-54856413D01*
X316098356Y-55320744D01*
X315884648Y-55836681D01*
X315775700Y-56384397D01*
X137613700Y-56384397D01*
X137504752Y-55836681D01*
X137291044Y-55320744D01*
X136980788Y-54856413D01*
X136585907Y-54461532D01*
X136121576Y-54151276D01*
X135605639Y-53937568D01*
X135057923Y-53828620D01*
X134499477Y-53828620D01*
X133951761Y-53937568D01*
X133435824Y-54151276D01*
X132971493Y-54461532D01*
X132576612Y-54856413D01*
X132266356Y-55320744D01*
X132052648Y-55836681D01*
X131943700Y-56384397D01*
X130675950Y-56384397D01*
X130675950Y-56264090D01*
X130728748Y-55725608D01*
X130875051Y-55241029D01*
X131112689Y-54794097D01*
X131432613Y-54401832D01*
X131822627Y-54079184D01*
X132267891Y-53838431D01*
X132751435Y-53688749D01*
X133287847Y-53632370D01*
X498193230Y-53632370D01*
X498731712Y-53685168D01*
M02*
