G04 #@! TF.GenerationSoftware,KiCad,Pcbnew,(5.1.5-0-10_14)*
G04 #@! TF.CreationDate,2020-05-13T15:11:28-06:00*
G04 #@! TF.ProjectId,FR4Plate,46523450-6c61-4746-952e-6b696361645f,rev?*
G04 #@! TF.SameCoordinates,Original*
G04 #@! TF.FileFunction,Legend,Top*
G04 #@! TF.FilePolarity,Positive*
%FSLAX46Y46*%
G04 Gerber Fmt 4.6, Leading zero omitted, Abs format (unit mm)*
G04 Created by KiCad (PCBNEW (5.1.5-0-10_14)) date 2020-05-13 15:11:28*
%MOMM*%
%LPD*%
G04 APERTURE LIST*
%ADD10C,0.010000*%
%ADD11C,0.400000*%
%ADD12C,0.300000*%
%ADD13C,0.150000*%
G04 APERTURE END LIST*
D10*
G36*
X116756336Y-152573071D02*
G01*
X116969445Y-152597174D01*
X117146039Y-152645997D01*
X117298971Y-152721997D01*
X117306124Y-152726490D01*
X117457737Y-152860075D01*
X117571589Y-153039690D01*
X117644524Y-153255993D01*
X117673384Y-153499641D01*
X117655275Y-153759642D01*
X117592956Y-154007707D01*
X117491492Y-154206011D01*
X117347544Y-154359399D01*
X117166146Y-154468954D01*
X117074970Y-154497755D01*
X116946903Y-154521780D01*
X116795761Y-154540341D01*
X116635363Y-154552752D01*
X116479526Y-154558325D01*
X116342067Y-154556374D01*
X116236803Y-154546211D01*
X116177553Y-154527150D01*
X116170326Y-154518471D01*
X116166191Y-154475320D01*
X116163003Y-154375520D01*
X116160839Y-154227711D01*
X116159772Y-154040532D01*
X116159879Y-153822626D01*
X116161233Y-153582632D01*
X116161713Y-153527029D01*
X116168442Y-152792850D01*
X116415247Y-152792850D01*
X116415247Y-154327298D01*
X116669511Y-154327298D01*
X116826719Y-154321886D01*
X116944179Y-154302603D01*
X117046771Y-154264881D01*
X117069447Y-154253840D01*
X117207337Y-154156131D01*
X117304407Y-154019477D01*
X117364032Y-153837404D01*
X117387696Y-153643875D01*
X117386515Y-153412457D01*
X117351279Y-153226418D01*
X117278879Y-153073640D01*
X117222416Y-152999769D01*
X117115735Y-152899363D01*
X116996516Y-152835575D01*
X116847813Y-152802158D01*
X116661154Y-152792850D01*
X116415247Y-152792850D01*
X116168442Y-152792850D01*
X116170388Y-152580639D01*
X116493860Y-152571233D01*
X116756336Y-152573071D01*
G37*
X116756336Y-152573071D02*
X116969445Y-152597174D01*
X117146039Y-152645997D01*
X117298971Y-152721997D01*
X117306124Y-152726490D01*
X117457737Y-152860075D01*
X117571589Y-153039690D01*
X117644524Y-153255993D01*
X117673384Y-153499641D01*
X117655275Y-153759642D01*
X117592956Y-154007707D01*
X117491492Y-154206011D01*
X117347544Y-154359399D01*
X117166146Y-154468954D01*
X117074970Y-154497755D01*
X116946903Y-154521780D01*
X116795761Y-154540341D01*
X116635363Y-154552752D01*
X116479526Y-154558325D01*
X116342067Y-154556374D01*
X116236803Y-154546211D01*
X116177553Y-154527150D01*
X116170326Y-154518471D01*
X116166191Y-154475320D01*
X116163003Y-154375520D01*
X116160839Y-154227711D01*
X116159772Y-154040532D01*
X116159879Y-153822626D01*
X116161233Y-153582632D01*
X116161713Y-153527029D01*
X116168442Y-152792850D01*
X116415247Y-152792850D01*
X116415247Y-154327298D01*
X116669511Y-154327298D01*
X116826719Y-154321886D01*
X116944179Y-154302603D01*
X117046771Y-154264881D01*
X117069447Y-154253840D01*
X117207337Y-154156131D01*
X117304407Y-154019477D01*
X117364032Y-153837404D01*
X117387696Y-153643875D01*
X117386515Y-153412457D01*
X117351279Y-153226418D01*
X117278879Y-153073640D01*
X117222416Y-152999769D01*
X117115735Y-152899363D01*
X116996516Y-152835575D01*
X116847813Y-152802158D01*
X116661154Y-152792850D01*
X116415247Y-152792850D01*
X116168442Y-152792850D01*
X116170388Y-152580639D01*
X116493860Y-152571233D01*
X116756336Y-152573071D01*
G36*
X126775194Y-152570251D02*
G01*
X126945337Y-152578555D01*
X127065884Y-152590065D01*
X127152537Y-152607661D01*
X127220995Y-152634224D01*
X127268147Y-152660715D01*
X127394736Y-152760726D01*
X127472747Y-152880985D01*
X127509520Y-153036111D01*
X127514845Y-153151976D01*
X127491135Y-153363517D01*
X127419990Y-153531934D01*
X127300016Y-153658534D01*
X127129816Y-153744620D01*
X126907997Y-153791500D01*
X126823919Y-153798549D01*
X126568717Y-153813322D01*
X126568717Y-154555832D01*
X126459891Y-154555832D01*
X126379221Y-154549859D01*
X126330774Y-154535352D01*
X126329300Y-154534067D01*
X126323718Y-154497038D01*
X126318665Y-154403126D01*
X126314333Y-154260743D01*
X126310912Y-154078300D01*
X126308593Y-153864208D01*
X126307568Y-153626880D01*
X126307535Y-153574954D01*
X126307972Y-153296949D01*
X126309516Y-153077261D01*
X126312518Y-152908919D01*
X126317020Y-152792850D01*
X126568717Y-152792850D01*
X126568717Y-153179183D01*
X126570458Y-153331908D01*
X126575194Y-153459988D01*
X126582197Y-153549747D01*
X126590482Y-153587280D01*
X126642482Y-153604226D01*
X126735919Y-153607833D01*
X126848454Y-153598763D01*
X126957745Y-153577677D01*
X126962915Y-153576265D01*
X127101847Y-153512075D01*
X127193225Y-153407135D01*
X127241048Y-153256183D01*
X127247436Y-153201917D01*
X127253012Y-153095101D01*
X127241170Y-153025574D01*
X127202541Y-152965830D01*
X127147302Y-152907836D01*
X127082923Y-152847496D01*
X127026648Y-152813077D01*
X126956614Y-152797330D01*
X126850960Y-152793006D01*
X126800517Y-152792850D01*
X126568717Y-152792850D01*
X126317020Y-152792850D01*
X126317327Y-152784948D01*
X126324293Y-152698376D01*
X126333767Y-152642230D01*
X126346099Y-152609536D01*
X126356634Y-152596858D01*
X126404762Y-152577790D01*
X126496989Y-152567810D01*
X126641015Y-152566427D01*
X126775194Y-152570251D01*
G37*
X126775194Y-152570251D02*
X126945337Y-152578555D01*
X127065884Y-152590065D01*
X127152537Y-152607661D01*
X127220995Y-152634224D01*
X127268147Y-152660715D01*
X127394736Y-152760726D01*
X127472747Y-152880985D01*
X127509520Y-153036111D01*
X127514845Y-153151976D01*
X127491135Y-153363517D01*
X127419990Y-153531934D01*
X127300016Y-153658534D01*
X127129816Y-153744620D01*
X126907997Y-153791500D01*
X126823919Y-153798549D01*
X126568717Y-153813322D01*
X126568717Y-154555832D01*
X126459891Y-154555832D01*
X126379221Y-154549859D01*
X126330774Y-154535352D01*
X126329300Y-154534067D01*
X126323718Y-154497038D01*
X126318665Y-154403126D01*
X126314333Y-154260743D01*
X126310912Y-154078300D01*
X126308593Y-153864208D01*
X126307568Y-153626880D01*
X126307535Y-153574954D01*
X126307972Y-153296949D01*
X126309516Y-153077261D01*
X126312518Y-152908919D01*
X126317020Y-152792850D01*
X126568717Y-152792850D01*
X126568717Y-153179183D01*
X126570458Y-153331908D01*
X126575194Y-153459988D01*
X126582197Y-153549747D01*
X126590482Y-153587280D01*
X126642482Y-153604226D01*
X126735919Y-153607833D01*
X126848454Y-153598763D01*
X126957745Y-153577677D01*
X126962915Y-153576265D01*
X127101847Y-153512075D01*
X127193225Y-153407135D01*
X127241048Y-153256183D01*
X127247436Y-153201917D01*
X127253012Y-153095101D01*
X127241170Y-153025574D01*
X127202541Y-152965830D01*
X127147302Y-152907836D01*
X127082923Y-152847496D01*
X127026648Y-152813077D01*
X126956614Y-152797330D01*
X126850960Y-152793006D01*
X126800517Y-152792850D01*
X126568717Y-152792850D01*
X126317020Y-152792850D01*
X126317327Y-152784948D01*
X126324293Y-152698376D01*
X126333767Y-152642230D01*
X126346099Y-152609536D01*
X126356634Y-152596858D01*
X126404762Y-152577790D01*
X126496989Y-152567810D01*
X126641015Y-152566427D01*
X126775194Y-152570251D01*
G36*
X123319930Y-152545499D02*
G01*
X123532788Y-152599659D01*
X123591506Y-152626418D01*
X123696031Y-152693884D01*
X123748300Y-152770156D01*
X123761005Y-152858889D01*
X123746033Y-152922233D01*
X123698273Y-152936052D01*
X123613465Y-152900571D01*
X123563309Y-152869398D01*
X123425134Y-152800698D01*
X123264485Y-152770343D01*
X123243850Y-152768884D01*
X123054606Y-152781726D01*
X122901127Y-152848087D01*
X122777931Y-152971105D01*
X122718193Y-153069651D01*
X122679609Y-153151955D01*
X122655034Y-153229846D01*
X122641421Y-153321810D01*
X122635725Y-153446333D01*
X122634818Y-153575692D01*
X122636861Y-153739798D01*
X122644617Y-153856236D01*
X122660801Y-153942561D01*
X122688129Y-154016333D01*
X122709592Y-154059234D01*
X122820077Y-154202849D01*
X122966344Y-154299902D01*
X123136149Y-154348067D01*
X123317247Y-154345019D01*
X123497393Y-154288431D01*
X123599362Y-154228217D01*
X123670980Y-154184202D01*
X123722924Y-154164174D01*
X123725235Y-154164059D01*
X123756033Y-154189826D01*
X123761460Y-154252626D01*
X123744565Y-154330706D01*
X123708400Y-154402316D01*
X123688666Y-154424796D01*
X123567991Y-154500794D01*
X123404794Y-154553499D01*
X123218749Y-154579499D01*
X123029526Y-154575387D01*
X122923856Y-154557336D01*
X122736345Y-154480720D01*
X122580415Y-154351430D01*
X122459388Y-154175657D01*
X122376583Y-153959590D01*
X122335322Y-153709418D01*
X122336303Y-153462130D01*
X122377908Y-153209628D01*
X122459021Y-152987608D01*
X122574785Y-152806618D01*
X122687628Y-152699519D01*
X122879489Y-152596873D01*
X123096210Y-152545052D01*
X123319930Y-152545499D01*
G37*
X123319930Y-152545499D02*
X123532788Y-152599659D01*
X123591506Y-152626418D01*
X123696031Y-152693884D01*
X123748300Y-152770156D01*
X123761005Y-152858889D01*
X123746033Y-152922233D01*
X123698273Y-152936052D01*
X123613465Y-152900571D01*
X123563309Y-152869398D01*
X123425134Y-152800698D01*
X123264485Y-152770343D01*
X123243850Y-152768884D01*
X123054606Y-152781726D01*
X122901127Y-152848087D01*
X122777931Y-152971105D01*
X122718193Y-153069651D01*
X122679609Y-153151955D01*
X122655034Y-153229846D01*
X122641421Y-153321810D01*
X122635725Y-153446333D01*
X122634818Y-153575692D01*
X122636861Y-153739798D01*
X122644617Y-153856236D01*
X122660801Y-153942561D01*
X122688129Y-154016333D01*
X122709592Y-154059234D01*
X122820077Y-154202849D01*
X122966344Y-154299902D01*
X123136149Y-154348067D01*
X123317247Y-154345019D01*
X123497393Y-154288431D01*
X123599362Y-154228217D01*
X123670980Y-154184202D01*
X123722924Y-154164174D01*
X123725235Y-154164059D01*
X123756033Y-154189826D01*
X123761460Y-154252626D01*
X123744565Y-154330706D01*
X123708400Y-154402316D01*
X123688666Y-154424796D01*
X123567991Y-154500794D01*
X123404794Y-154553499D01*
X123218749Y-154579499D01*
X123029526Y-154575387D01*
X122923856Y-154557336D01*
X122736345Y-154480720D01*
X122580415Y-154351430D01*
X122459388Y-154175657D01*
X122376583Y-153959590D01*
X122335322Y-153709418D01*
X122336303Y-153462130D01*
X122377908Y-153209628D01*
X122459021Y-152987608D01*
X122574785Y-152806618D01*
X122687628Y-152699519D01*
X122879489Y-152596873D01*
X123096210Y-152545052D01*
X123319930Y-152545499D01*
G36*
X120970164Y-152559690D02*
G01*
X121093235Y-152593836D01*
X121185724Y-152638094D01*
X121227950Y-152682931D01*
X121245816Y-152767303D01*
X121239033Y-152841135D01*
X121219304Y-152871485D01*
X121175645Y-152868456D01*
X121098960Y-152840440D01*
X121065486Y-152824441D01*
X120907557Y-152767791D01*
X120758473Y-152757104D01*
X120629141Y-152788514D01*
X120530467Y-152858157D01*
X120473358Y-152962169D01*
X120463576Y-153037709D01*
X120486965Y-153150537D01*
X120560837Y-153249698D01*
X120690748Y-153340999D01*
X120810164Y-153399894D01*
X121037378Y-153515838D01*
X121200696Y-153634310D01*
X121284064Y-153729389D01*
X121326263Y-153837372D01*
X121343969Y-153978307D01*
X121336490Y-154124340D01*
X121303133Y-154247618D01*
X121297268Y-154259734D01*
X121187894Y-154403309D01*
X121034301Y-154507930D01*
X120847288Y-154569805D01*
X120637655Y-154585143D01*
X120447252Y-154558160D01*
X120330663Y-154519635D01*
X120228515Y-154468133D01*
X120164717Y-154415891D01*
X120162083Y-154412192D01*
X120140774Y-154346713D01*
X120141396Y-154270597D01*
X120163000Y-154217899D01*
X120167594Y-154214360D01*
X120212259Y-154217075D01*
X120290657Y-154245475D01*
X120334352Y-154266535D01*
X120508523Y-154333627D01*
X120676172Y-154355596D01*
X120827315Y-154335726D01*
X120951969Y-154277301D01*
X121040151Y-154183604D01*
X121081877Y-154057918D01*
X121083884Y-154020010D01*
X121062397Y-153930800D01*
X120994413Y-153841630D01*
X120874649Y-153747584D01*
X120697822Y-153643746D01*
X120655861Y-153621741D01*
X120471923Y-153517967D01*
X120342820Y-153420997D01*
X120260345Y-153320635D01*
X120216289Y-153206684D01*
X120202443Y-153068949D01*
X120202393Y-153058470D01*
X120228067Y-152871339D01*
X120304722Y-152724876D01*
X120431805Y-152619647D01*
X120608764Y-152556221D01*
X120705022Y-152541417D01*
X120834698Y-152540576D01*
X120970164Y-152559690D01*
G37*
X120970164Y-152559690D02*
X121093235Y-152593836D01*
X121185724Y-152638094D01*
X121227950Y-152682931D01*
X121245816Y-152767303D01*
X121239033Y-152841135D01*
X121219304Y-152871485D01*
X121175645Y-152868456D01*
X121098960Y-152840440D01*
X121065486Y-152824441D01*
X120907557Y-152767791D01*
X120758473Y-152757104D01*
X120629141Y-152788514D01*
X120530467Y-152858157D01*
X120473358Y-152962169D01*
X120463576Y-153037709D01*
X120486965Y-153150537D01*
X120560837Y-153249698D01*
X120690748Y-153340999D01*
X120810164Y-153399894D01*
X121037378Y-153515838D01*
X121200696Y-153634310D01*
X121284064Y-153729389D01*
X121326263Y-153837372D01*
X121343969Y-153978307D01*
X121336490Y-154124340D01*
X121303133Y-154247618D01*
X121297268Y-154259734D01*
X121187894Y-154403309D01*
X121034301Y-154507930D01*
X120847288Y-154569805D01*
X120637655Y-154585143D01*
X120447252Y-154558160D01*
X120330663Y-154519635D01*
X120228515Y-154468133D01*
X120164717Y-154415891D01*
X120162083Y-154412192D01*
X120140774Y-154346713D01*
X120141396Y-154270597D01*
X120163000Y-154217899D01*
X120167594Y-154214360D01*
X120212259Y-154217075D01*
X120290657Y-154245475D01*
X120334352Y-154266535D01*
X120508523Y-154333627D01*
X120676172Y-154355596D01*
X120827315Y-154335726D01*
X120951969Y-154277301D01*
X121040151Y-154183604D01*
X121081877Y-154057918D01*
X121083884Y-154020010D01*
X121062397Y-153930800D01*
X120994413Y-153841630D01*
X120874649Y-153747584D01*
X120697822Y-153643746D01*
X120655861Y-153621741D01*
X120471923Y-153517967D01*
X120342820Y-153420997D01*
X120260345Y-153320635D01*
X120216289Y-153206684D01*
X120202443Y-153068949D01*
X120202393Y-153058470D01*
X120228067Y-152871339D01*
X120304722Y-152724876D01*
X120431805Y-152619647D01*
X120608764Y-152556221D01*
X120705022Y-152541417D01*
X120834698Y-152540576D01*
X120970164Y-152559690D01*
G36*
X128780607Y-152570507D02*
G01*
X128903036Y-152580639D01*
X128920422Y-154325169D01*
X129653936Y-154343621D01*
X129653936Y-154539508D01*
X129178658Y-154548507D01*
X129008652Y-154550222D01*
X128862352Y-154548855D01*
X128751944Y-154544739D01*
X128689614Y-154538208D01*
X128680779Y-154534904D01*
X128675094Y-154497745D01*
X128669932Y-154403534D01*
X128665482Y-154260514D01*
X128661929Y-154076927D01*
X128659460Y-153861018D01*
X128658262Y-153621028D01*
X128658177Y-153536338D01*
X128658177Y-152560374D01*
X128780607Y-152570507D01*
G37*
X128780607Y-152570507D02*
X128903036Y-152580639D01*
X128920422Y-154325169D01*
X129653936Y-154343621D01*
X129653936Y-154539508D01*
X129178658Y-154548507D01*
X129008652Y-154550222D01*
X128862352Y-154548855D01*
X128751944Y-154544739D01*
X128689614Y-154538208D01*
X128680779Y-154534904D01*
X128675094Y-154497745D01*
X128669932Y-154403534D01*
X128665482Y-154260514D01*
X128661929Y-154076927D01*
X128659460Y-153861018D01*
X128658262Y-153621028D01*
X128658177Y-153536338D01*
X128658177Y-152560374D01*
X128780607Y-152570507D01*
G36*
X130804771Y-152570507D02*
G01*
X130927200Y-152580639D01*
X130927200Y-154539508D01*
X130682342Y-154559774D01*
X130682342Y-152560374D01*
X130804771Y-152570507D01*
G37*
X130804771Y-152570507D02*
X130927200Y-152580639D01*
X130927200Y-154539508D01*
X130682342Y-154559774D01*
X130682342Y-152560374D01*
X130804771Y-152570507D01*
G36*
X133645613Y-153549808D02*
G01*
X133636969Y-154539508D01*
X133522702Y-154549123D01*
X133429145Y-154544106D01*
X133357021Y-154518878D01*
X133353703Y-154516476D01*
X133324041Y-154477672D01*
X133267741Y-154389323D01*
X133189404Y-154259218D01*
X133093636Y-154095148D01*
X132985039Y-153904902D01*
X132868218Y-153696272D01*
X132856400Y-153674949D01*
X132413829Y-152875686D01*
X132405090Y-153707597D01*
X132396352Y-154539508D01*
X132289765Y-154549775D01*
X132183178Y-154560041D01*
X132191821Y-153570340D01*
X132200465Y-152580639D01*
X132351883Y-152570838D01*
X132452673Y-152570279D01*
X132515050Y-152590819D01*
X132564094Y-152640112D01*
X132596243Y-152690101D01*
X132654379Y-152788688D01*
X132733470Y-152927010D01*
X132828488Y-153096206D01*
X132934403Y-153287412D01*
X133016661Y-153437539D01*
X133408434Y-154155891D01*
X133441082Y-152580639D01*
X133547669Y-152570373D01*
X133654257Y-152560107D01*
X133645613Y-153549808D01*
G37*
X133645613Y-153549808D02*
X133636969Y-154539508D01*
X133522702Y-154549123D01*
X133429145Y-154544106D01*
X133357021Y-154518878D01*
X133353703Y-154516476D01*
X133324041Y-154477672D01*
X133267741Y-154389323D01*
X133189404Y-154259218D01*
X133093636Y-154095148D01*
X132985039Y-153904902D01*
X132868218Y-153696272D01*
X132856400Y-153674949D01*
X132413829Y-152875686D01*
X132405090Y-153707597D01*
X132396352Y-154539508D01*
X132289765Y-154549775D01*
X132183178Y-154560041D01*
X132191821Y-153570340D01*
X132200465Y-152580639D01*
X132351883Y-152570838D01*
X132452673Y-152570279D01*
X132515050Y-152590819D01*
X132564094Y-152640112D01*
X132596243Y-152690101D01*
X132654379Y-152788688D01*
X132733470Y-152927010D01*
X132828488Y-153096206D01*
X132934403Y-153287412D01*
X133016661Y-153437539D01*
X133408434Y-154155891D01*
X133441082Y-152580639D01*
X133547669Y-152570373D01*
X133654257Y-152560107D01*
X133645613Y-153549808D01*
G36*
X135660616Y-152564908D02*
G01*
X135796315Y-152567465D01*
X135886623Y-152573154D01*
X135941489Y-152583147D01*
X135970863Y-152598610D01*
X135984695Y-152620714D01*
X135986152Y-152625012D01*
X135992565Y-152704059D01*
X135984859Y-152739279D01*
X135967554Y-152762006D01*
X135929086Y-152777375D01*
X135858706Y-152786737D01*
X135745666Y-152791442D01*
X135579218Y-152792840D01*
X135558472Y-152792850D01*
X135152642Y-152792850D01*
X135162029Y-153094843D01*
X135171416Y-153396835D01*
X135522380Y-153406101D01*
X135873344Y-153415368D01*
X135873344Y-153609046D01*
X135155092Y-153609046D01*
X135155092Y-154325347D01*
X135987612Y-154343621D01*
X135987612Y-154539508D01*
X135480730Y-154548462D01*
X135265275Y-154550487D01*
X135108645Y-154547599D01*
X135004529Y-154539440D01*
X134946616Y-154525651D01*
X134933879Y-154517447D01*
X134921512Y-154473122D01*
X134911239Y-154373845D01*
X134903066Y-154229924D01*
X134896996Y-154051664D01*
X134893034Y-153849374D01*
X134891183Y-153633358D01*
X134891449Y-153413926D01*
X134893835Y-153201382D01*
X134898346Y-153006035D01*
X134904986Y-152838191D01*
X134913758Y-152708156D01*
X134924669Y-152626239D01*
X134933087Y-152603493D01*
X134979342Y-152586105D01*
X135080236Y-152573949D01*
X135239226Y-152566771D01*
X135459768Y-152564319D01*
X135469576Y-152564316D01*
X135660616Y-152564908D01*
G37*
X135660616Y-152564908D02*
X135796315Y-152567465D01*
X135886623Y-152573154D01*
X135941489Y-152583147D01*
X135970863Y-152598610D01*
X135984695Y-152620714D01*
X135986152Y-152625012D01*
X135992565Y-152704059D01*
X135984859Y-152739279D01*
X135967554Y-152762006D01*
X135929086Y-152777375D01*
X135858706Y-152786737D01*
X135745666Y-152791442D01*
X135579218Y-152792840D01*
X135558472Y-152792850D01*
X135152642Y-152792850D01*
X135162029Y-153094843D01*
X135171416Y-153396835D01*
X135522380Y-153406101D01*
X135873344Y-153415368D01*
X135873344Y-153609046D01*
X135155092Y-153609046D01*
X135155092Y-154325347D01*
X135987612Y-154343621D01*
X135987612Y-154539508D01*
X135480730Y-154548462D01*
X135265275Y-154550487D01*
X135108645Y-154547599D01*
X135004529Y-154539440D01*
X134946616Y-154525651D01*
X134933879Y-154517447D01*
X134921512Y-154473122D01*
X134911239Y-154373845D01*
X134903066Y-154229924D01*
X134896996Y-154051664D01*
X134893034Y-153849374D01*
X134891183Y-153633358D01*
X134891449Y-153413926D01*
X134893835Y-153201382D01*
X134898346Y-153006035D01*
X134904986Y-152838191D01*
X134913758Y-152708156D01*
X134924669Y-152626239D01*
X134933087Y-152603493D01*
X134979342Y-152586105D01*
X135080236Y-152573949D01*
X135239226Y-152566771D01*
X135459768Y-152564319D01*
X135469576Y-152564316D01*
X135660616Y-152564908D01*
D11*
X113923000Y-157063750D02*
G75*
G02X113923000Y-150383750I0J3340000D01*
G01*
X136223000Y-150383750D02*
G75*
G02X136223000Y-157063750I0J-3340000D01*
G01*
X113953000Y-150383750D02*
X136233000Y-150383750D01*
X113933000Y-157063750D02*
X136233000Y-157063750D01*
D10*
G36*
X119043396Y-154539508D02*
G01*
X118937066Y-154549756D01*
X118851066Y-154544695D01*
X118814123Y-154516710D01*
X118810162Y-154474025D01*
X118807131Y-154374670D01*
X118805101Y-154227264D01*
X118804140Y-154040427D01*
X118804317Y-153822778D01*
X118805703Y-153582938D01*
X118806186Y-153527029D01*
X118814861Y-152580639D01*
X119043396Y-152580639D01*
X119043396Y-154539508D01*
G37*
X119043396Y-154539508D02*
X118937066Y-154549756D01*
X118851066Y-154544695D01*
X118814123Y-154516710D01*
X118810162Y-154474025D01*
X118807131Y-154374670D01*
X118805101Y-154227264D01*
X118804140Y-154040427D01*
X118804317Y-153822778D01*
X118805703Y-153582938D01*
X118806186Y-153527029D01*
X118814861Y-152580639D01*
X119043396Y-152580639D01*
X119043396Y-154539508D01*
G36*
X125066918Y-154555832D02*
G01*
X124951626Y-154555832D01*
X124870739Y-154545281D01*
X124823131Y-154519403D01*
X124820521Y-154514625D01*
X124816765Y-154472491D01*
X124813920Y-154373662D01*
X124812049Y-154226734D01*
X124811213Y-154040301D01*
X124811475Y-153822958D01*
X124812896Y-153583301D01*
X124813384Y-153527029D01*
X124822059Y-152580639D01*
X124944488Y-152570507D01*
X125066918Y-152560374D01*
X125066918Y-154555832D01*
G37*
X125066918Y-154555832D02*
X124951626Y-154555832D01*
X124870739Y-154545281D01*
X124823131Y-154519403D01*
X124820521Y-154514625D01*
X124816765Y-154472491D01*
X124813920Y-154373662D01*
X124812049Y-154226734D01*
X124811213Y-154040301D01*
X124811475Y-153822958D01*
X124812896Y-153583301D01*
X124813384Y-153527029D01*
X124822059Y-152580639D01*
X124944488Y-152570507D01*
X125066918Y-152560374D01*
X125066918Y-154555832D01*
D12*
X114184714Y-153222321D02*
X115256142Y-153222321D01*
X114613285Y-152579464D02*
X114184714Y-154508035D01*
X115113285Y-153865178D02*
X114041857Y-153865178D01*
X114684714Y-154508035D02*
X115113285Y-152579464D01*
D13*
M02*
