G04 #@! TF.GenerationSoftware,KiCad,Pcbnew,(5.1.5-0-10_14)*
G04 #@! TF.CreationDate,2020-05-13T15:11:28-06:00*
G04 #@! TF.ProjectId,FR4Plate,46523450-6c61-4746-952e-6b696361645f,rev?*
G04 #@! TF.SameCoordinates,Original*
G04 #@! TF.FileFunction,Soldermask,Bot*
G04 #@! TF.FilePolarity,Negative*
%FSLAX46Y46*%
G04 Gerber Fmt 4.6, Leading zero omitted, Abs format (unit mm)*
G04 Created by KiCad (PCBNEW (5.1.5-0-10_14)) date 2020-05-13 15:11:28*
%MOMM*%
%LPD*%
G04 APERTURE LIST*
%ADD10C,0.100000*%
G04 APERTURE END LIST*
D10*
G36*
X177975831Y-151811961D02*
G01*
X178303592Y-151947724D01*
X178598570Y-152144822D01*
X178849428Y-152395680D01*
X179046526Y-152690658D01*
X179182289Y-153018419D01*
X179251500Y-153366366D01*
X179251500Y-153721134D01*
X179182289Y-154069081D01*
X179046526Y-154396842D01*
X178849428Y-154691820D01*
X178598570Y-154942678D01*
X178303592Y-155139776D01*
X177975831Y-155275539D01*
X177627884Y-155344750D01*
X177273116Y-155344750D01*
X176925169Y-155275539D01*
X176597408Y-155139776D01*
X176302430Y-154942678D01*
X176051572Y-154691820D01*
X175854474Y-154396842D01*
X175718711Y-154069081D01*
X175649500Y-153721134D01*
X175649500Y-153366366D01*
X175718711Y-153018419D01*
X175854474Y-152690658D01*
X176051572Y-152395680D01*
X176302430Y-152144822D01*
X176597408Y-151947724D01*
X176925169Y-151811961D01*
X177273116Y-151742750D01*
X177627884Y-151742750D01*
X177975831Y-151811961D01*
G37*
G36*
X358950831Y-142286961D02*
G01*
X359278592Y-142422724D01*
X359573570Y-142619822D01*
X359824428Y-142870680D01*
X360021526Y-143165658D01*
X360157289Y-143493419D01*
X360226500Y-143841366D01*
X360226500Y-144196134D01*
X360157289Y-144544081D01*
X360021526Y-144871842D01*
X359824428Y-145166820D01*
X359573570Y-145417678D01*
X359278592Y-145614776D01*
X358950831Y-145750539D01*
X358602884Y-145819750D01*
X358248116Y-145819750D01*
X357900169Y-145750539D01*
X357572408Y-145614776D01*
X357277430Y-145417678D01*
X357026572Y-145166820D01*
X356829474Y-144871842D01*
X356693711Y-144544081D01*
X356624500Y-144196134D01*
X356624500Y-143841366D01*
X356693711Y-143493419D01*
X356829474Y-143165658D01*
X357026572Y-142870680D01*
X357277430Y-142619822D01*
X357572408Y-142422724D01*
X357900169Y-142286961D01*
X358248116Y-142217750D01*
X358602884Y-142217750D01*
X358950831Y-142286961D01*
G37*
G36*
X258938331Y-142286961D02*
G01*
X259266092Y-142422724D01*
X259561070Y-142619822D01*
X259811928Y-142870680D01*
X260009026Y-143165658D01*
X260144789Y-143493419D01*
X260214000Y-143841366D01*
X260214000Y-144196134D01*
X260144789Y-144544081D01*
X260009026Y-144871842D01*
X259811928Y-145166820D01*
X259561070Y-145417678D01*
X259266092Y-145614776D01*
X258938331Y-145750539D01*
X258590384Y-145819750D01*
X258235616Y-145819750D01*
X257887669Y-145750539D01*
X257559908Y-145614776D01*
X257264930Y-145417678D01*
X257014072Y-145166820D01*
X256816974Y-144871842D01*
X256681211Y-144544081D01*
X256612000Y-144196134D01*
X256612000Y-143841366D01*
X256681211Y-143493419D01*
X256816974Y-143165658D01*
X257014072Y-142870680D01*
X257264930Y-142619822D01*
X257559908Y-142422724D01*
X257887669Y-142286961D01*
X258235616Y-142217750D01*
X258590384Y-142217750D01*
X258938331Y-142286961D01*
G37*
G36*
X68438331Y-142286961D02*
G01*
X68766092Y-142422724D01*
X69061070Y-142619822D01*
X69311928Y-142870680D01*
X69509026Y-143165658D01*
X69644789Y-143493419D01*
X69714000Y-143841366D01*
X69714000Y-144196134D01*
X69644789Y-144544081D01*
X69509026Y-144871842D01*
X69311928Y-145166820D01*
X69061070Y-145417678D01*
X68766092Y-145614776D01*
X68438331Y-145750539D01*
X68090384Y-145819750D01*
X67735616Y-145819750D01*
X67387669Y-145750539D01*
X67059908Y-145614776D01*
X66764930Y-145417678D01*
X66514072Y-145166820D01*
X66316974Y-144871842D01*
X66181211Y-144544081D01*
X66112000Y-144196134D01*
X66112000Y-143841366D01*
X66181211Y-143493419D01*
X66316974Y-143165658D01*
X66514072Y-142870680D01*
X66764930Y-142619822D01*
X67059908Y-142422724D01*
X67387669Y-142286961D01*
X67735616Y-142217750D01*
X68090384Y-142217750D01*
X68438331Y-142286961D01*
G37*
G36*
X358950831Y-85136961D02*
G01*
X359278592Y-85272724D01*
X359573570Y-85469822D01*
X359824428Y-85720680D01*
X360021526Y-86015658D01*
X360157289Y-86343419D01*
X360226500Y-86691366D01*
X360226500Y-87046134D01*
X360157289Y-87394081D01*
X360021526Y-87721842D01*
X359824428Y-88016820D01*
X359573570Y-88267678D01*
X359278592Y-88464776D01*
X358950831Y-88600539D01*
X358602884Y-88669750D01*
X358248116Y-88669750D01*
X357900169Y-88600539D01*
X357572408Y-88464776D01*
X357277430Y-88267678D01*
X357026572Y-88016820D01*
X356829474Y-87721842D01*
X356693711Y-87394081D01*
X356624500Y-87046134D01*
X356624500Y-86691366D01*
X356693711Y-86343419D01*
X356829474Y-86015658D01*
X357026572Y-85720680D01*
X357277430Y-85469822D01*
X357572408Y-85272724D01*
X357900169Y-85136961D01*
X358248116Y-85067750D01*
X358602884Y-85067750D01*
X358950831Y-85136961D01*
G37*
G36*
X273225831Y-85136961D02*
G01*
X273553592Y-85272724D01*
X273848570Y-85469822D01*
X274099428Y-85720680D01*
X274296526Y-86015658D01*
X274432289Y-86343419D01*
X274501500Y-86691366D01*
X274501500Y-87046134D01*
X274432289Y-87394081D01*
X274296526Y-87721842D01*
X274099428Y-88016820D01*
X273848570Y-88267678D01*
X273553592Y-88464776D01*
X273225831Y-88600539D01*
X272877884Y-88669750D01*
X272523116Y-88669750D01*
X272175169Y-88600539D01*
X271847408Y-88464776D01*
X271552430Y-88267678D01*
X271301572Y-88016820D01*
X271104474Y-87721842D01*
X270968711Y-87394081D01*
X270899500Y-87046134D01*
X270899500Y-86691366D01*
X270968711Y-86343419D01*
X271104474Y-86015658D01*
X271301572Y-85720680D01*
X271552430Y-85469822D01*
X271847408Y-85272724D01*
X272175169Y-85136961D01*
X272523116Y-85067750D01*
X272877884Y-85067750D01*
X273225831Y-85136961D01*
G37*
G36*
X177975831Y-85136961D02*
G01*
X178303592Y-85272724D01*
X178598570Y-85469822D01*
X178849428Y-85720680D01*
X179046526Y-86015658D01*
X179182289Y-86343419D01*
X179251500Y-86691366D01*
X179251500Y-87046134D01*
X179182289Y-87394081D01*
X179046526Y-87721842D01*
X178849428Y-88016820D01*
X178598570Y-88267678D01*
X178303592Y-88464776D01*
X177975831Y-88600539D01*
X177627884Y-88669750D01*
X177273116Y-88669750D01*
X176925169Y-88600539D01*
X176597408Y-88464776D01*
X176302430Y-88267678D01*
X176051572Y-88016820D01*
X175854474Y-87721842D01*
X175718711Y-87394081D01*
X175649500Y-87046134D01*
X175649500Y-86691366D01*
X175718711Y-86343419D01*
X175854474Y-86015658D01*
X176051572Y-85720680D01*
X176302430Y-85469822D01*
X176597408Y-85272724D01*
X176925169Y-85136961D01*
X177273116Y-85067750D01*
X177627884Y-85067750D01*
X177975831Y-85136961D01*
G37*
G36*
X63675831Y-85136961D02*
G01*
X64003592Y-85272724D01*
X64298570Y-85469822D01*
X64549428Y-85720680D01*
X64746526Y-86015658D01*
X64882289Y-86343419D01*
X64951500Y-86691366D01*
X64951500Y-87046134D01*
X64882289Y-87394081D01*
X64746526Y-87721842D01*
X64549428Y-88016820D01*
X64298570Y-88267678D01*
X64003592Y-88464776D01*
X63675831Y-88600539D01*
X63327884Y-88669750D01*
X62973116Y-88669750D01*
X62625169Y-88600539D01*
X62297408Y-88464776D01*
X62002430Y-88267678D01*
X61751572Y-88016820D01*
X61554474Y-87721842D01*
X61418711Y-87394081D01*
X61349500Y-87046134D01*
X61349500Y-86691366D01*
X61418711Y-86343419D01*
X61554474Y-86015658D01*
X61751572Y-85720680D01*
X62002430Y-85469822D01*
X62297408Y-85272724D01*
X62625169Y-85136961D01*
X62973116Y-85067750D01*
X63327884Y-85067750D01*
X63675831Y-85136961D01*
G37*
M02*
